# Blender 4.3.2
# www.blender.org
mtllib eraser.mtl
o Cube
v 1.336852 0.608498 -2.238929
v 1.336852 -0.849902 -3.622777
v 1.336852 0.608498 2.912337
v 1.336852 -0.849902 1.844109
v -1.344379 0.608498 -2.238929
v -1.344379 -0.849902 -3.622777
v -1.344379 0.608498 2.912337
v -1.344379 -0.849902 1.844109
vn -0.0000 1.0000 -0.0000
vn -0.0000 -0.5909 0.8067
vn -1.0000 -0.0000 -0.0000
vn -0.0000 -1.0000 -0.0000
vn 1.0000 -0.0000 -0.0000
vn -0.0000 0.6883 -0.7254
vt 0.625000 0.500000
vt 0.875000 0.500000
vt 0.875000 0.750000
vt 0.625000 0.750000
vt 0.375000 0.750000
vt 0.625000 1.000000
vt 0.375000 1.000000
vt 0.375000 0.000000
vt 0.625000 0.000000
vt 0.625000 0.250000
vt 0.375000 0.250000
vt 0.125000 0.500000
vt 0.375000 0.500000
vt 0.125000 0.750000
s 0
usemtl Material
f 1/1/1 5/2/1 7/3/1 3/4/1
f 4/5/2 3/4/2 7/6/2 8/7/2
f 8/8/3 7/9/3 5/10/3 6/11/3
f 6/12/4 2/13/4 4/5/4 8/14/4
f 2/13/5 1/1/5 3/4/5 4/5/5
f 6/11/6 5/10/6 1/1/6 2/13/6
