# Blender 4.2.2 LTS
# www.blender.org
mtllib Rubber Duck.mtl
o Duck
v -0.000000 -0.855773 0.755915
v -0.000000 -1.443558 0.476878
v -0.000000 -1.806830 -0.253650
v -0.000000 -1.806830 -1.156633
v -0.000000 -1.443558 -1.887161
v -0.372686 -1.331302 0.476878
v -0.603019 -1.625194 -0.253650
v -0.603019 -1.625194 -1.156633
v -0.372686 -1.331301 -1.887161
v -0.603019 -1.037409 0.476878
v -0.975705 -1.149666 -0.253650
v -0.975705 -1.149666 -1.156633
v -0.603019 -1.037409 -1.887161
v -0.000000 -0.396858 -2.733841
v -0.603019 -0.674138 0.476878
v -0.975705 -0.561881 -0.253650
v -0.975705 -0.561881 -1.156633
v -0.603019 -0.674138 -1.887161
v -0.372686 -0.380245 0.578378
v -0.603019 -0.086352 -0.253650
v -0.603019 -0.086352 -1.156633
v -0.372686 -0.380245 -1.887161
v -0.000000 -0.201165 0.666354
v -0.000000 0.095283 -0.253650
v -0.000000 0.095283 -1.156633
v -0.000000 -0.267988 -1.887161
v -0.000000 1.474463 0.066931
v -0.000000 1.294464 0.654716
v -0.000000 0.823221 1.017988
v -0.000000 0.240733 1.017988
v -0.000000 -0.230510 0.654716
v -0.372686 1.294464 0.542459
v -0.736336 0.583201 0.666245
v -0.749142 0.464445 0.649906
v -0.372686 -0.230510 0.542460
v -0.603019 1.294464 0.248567
v -0.829581 0.599510 0.547270
v -0.842387 0.480754 0.530931
v -0.603019 -0.230510 0.248567
v -0.000000 -0.410508 0.066931
v -0.603019 1.294464 -0.114704
v -0.975705 0.823221 -0.226961
v -0.975705 0.240733 -0.226961
v -0.603019 -0.230510 -0.114704
v -0.372686 1.294464 -0.408597
v -0.603019 0.823221 -0.702489
v -0.603019 0.240733 -0.702490
v -0.372686 -0.230510 -0.408597
v -0.000000 1.294464 -0.520854
v -0.000000 0.823221 -0.884125
v -0.000000 0.240733 -0.884125
v -0.000000 -0.230510 -0.520854
v -0.603019 0.823221 0.836352
v -0.603019 0.240733 0.836352
v -0.975705 0.823221 0.360824
v -0.975705 0.240733 0.360824
v -0.686036 0.594382 0.741938
v -0.711539 0.428055 0.694789
v -0.865324 0.694301 0.496988
v -0.864026 0.457827 0.503613
v 0.372685 -1.331302 0.476878
v 0.603018 -1.625194 -0.253650
v 0.603018 -1.625194 -1.156633
v 0.372685 -1.331301 -1.887161
v 0.603018 -1.037409 0.476878
v 0.975704 -1.149666 -0.253650
v 0.975704 -1.149666 -1.156633
v 0.603018 -1.037409 -1.887161
v 0.603018 -0.674138 0.476878
v 0.975704 -0.561881 -0.253650
v 0.975704 -0.561881 -1.156633
v 0.603018 -0.674138 -1.887161
v 0.372685 -0.380245 0.578378
v 0.603018 -0.086352 -0.253650
v 0.603018 -0.086352 -1.156633
v 0.372685 -0.380245 -1.887161
v 0.372685 1.294464 0.542459
v 0.736335 0.583201 0.666245
v 0.749141 0.464445 0.649906
v 0.372685 -0.230510 0.542460
v 0.603018 1.294464 0.248567
v 0.829580 0.599510 0.547270
v 0.842386 0.480754 0.530931
v 0.603018 -0.230510 0.248567
v 0.603018 1.294464 -0.114704
v 0.975704 0.823221 -0.226961
v 0.975704 0.240733 -0.226961
v 0.603018 -0.230510 -0.114704
v 0.372685 1.294464 -0.408597
v 0.603018 0.823221 -0.702489
v 0.603018 0.240733 -0.702490
v 0.372685 -0.230510 -0.408597
v 0.603018 0.823221 0.836352
v 0.603018 0.240733 0.836352
v 0.975704 0.823221 0.360824
v 0.975704 0.240733 0.360824
v 0.686035 0.594382 0.741938
v 0.711538 0.428055 0.694789
v 0.865323 0.694301 0.496988
v 0.864025 0.457827 0.503613
v -0.000001 0.201368 0.650999
v 0.292023 0.201368 0.730061
v 0.472503 0.326584 0.779860
v -0.000001 0.110456 0.836659
v 0.207786 0.399744 1.407487
v -0.000001 0.399744 1.463743
v -0.207787 0.399744 1.407487
v -0.472505 0.326584 0.779860
v 0.182014 0.110456 0.885937
v -0.292024 0.201368 0.730061
v -0.000001 0.601575 0.965040
v 0.294506 0.188502 0.916976
v 0.129510 0.234102 1.308169
v -0.000001 0.234102 1.343232
v -0.129512 0.234102 1.308169
v -0.294507 0.188502 0.916976
v -0.182016 0.110456 0.885937
vn -0.2604 -0.8645 -0.4299
vn -0.2604 -0.8645 0.4299
vn -0.1861 -0.6179 -0.7639
vn -0.2884 -0.9575 -0.0000
vn -0.1281 -0.4253 0.8959
vn -0.7050 -0.5525 -0.4446
vn -0.7050 -0.5525 0.4446
vn -0.5490 -0.4303 -0.7165
vn -0.7871 -0.6169 -0.0000
vn -0.3381 -0.2650 0.9031
vn -0.8908 -0.0000 -0.4544
vn -0.8908 -0.0000 0.4544
vn -0.8145 -0.0000 -0.5801
vn -1.0000 -0.0000 -0.0000
vn -0.4200 -0.0000 0.9075
vn -0.7050 0.5525 -0.4446
vn -0.7398 0.5242 0.4218
vn -0.7409 0.5807 -0.3375
vn -0.7871 0.6169 -0.0000
vn -0.4168 0.0127 0.9089
vn -0.2604 0.8645 -0.4299
vn -0.3529 0.8717 0.3401
vn -0.2854 0.9475 -0.1442
vn -0.2884 0.9575 -0.0000
vn -0.2865 0.1299 0.9492
vn -0.2320 -0.5939 0.7704
vn -0.2320 0.5939 0.7704
vn -0.0879 -0.9525 0.2917
vn -0.2884 -0.0000 0.9575
vn -0.0879 0.9525 0.2917
vn -0.6238 -0.6098 0.4889
vn -0.6238 0.6098 0.4889
vn -0.2309 -0.9560 0.1809
vn -0.7871 -0.0000 0.6169
vn -0.2309 0.9560 0.1809
vn -0.7844 -0.6203 -0.0000
vn -0.7844 0.6203 -0.0000
vn -0.2860 -0.9582 -0.0000
vn -0.2860 0.9582 -0.0000
vn -0.6238 -0.6098 -0.4889
vn -0.6238 0.6098 -0.4889
vn -0.2309 -0.9560 -0.1809
vn -0.7871 -0.0000 -0.6169
vn -0.2309 0.9560 -0.1809
vn -0.2320 -0.5939 -0.7704
vn -0.2320 0.5939 -0.7704
vn -0.0879 -0.9525 -0.2917
vn -0.2884 -0.0000 -0.9575
vn -0.0879 0.9525 -0.2917
vn -0.7752 -0.0134 0.6316
vn -0.7830 0.0038 0.6221
vn -0.7855 0.0043 0.6189
vn -0.7931 0.0104 0.6090
vn -0.8100 -0.0217 0.5860
vn -0.7998 0.0095 0.6002
vn -0.7855 -0.0284 0.6182
vn -0.8048 -0.0315 0.5926
vn 0.2604 -0.8645 -0.4299
vn 0.2604 -0.8645 0.4299
vn 0.1861 -0.6179 -0.7639
vn 0.2884 -0.9575 -0.0000
vn 0.1281 -0.4253 0.8959
vn 0.7050 -0.5525 -0.4446
vn 0.7050 -0.5525 0.4446
vn 0.5490 -0.4303 -0.7165
vn 0.7871 -0.6169 -0.0000
vn 0.3381 -0.2650 0.9031
vn 0.8908 -0.0000 -0.4544
vn 0.8908 -0.0000 0.4544
vn 0.8145 -0.0000 -0.5801
vn 1.0000 -0.0000 -0.0000
vn 0.4200 -0.0000 0.9075
vn 0.7050 0.5525 -0.4446
vn 0.7398 0.5242 0.4218
vn 0.7409 0.5807 -0.3375
vn 0.7871 0.6169 -0.0000
vn 0.4168 0.0127 0.9089
vn 0.2604 0.8645 -0.4299
vn 0.3529 0.8717 0.3401
vn 0.2854 0.9475 -0.1442
vn 0.2884 0.9575 -0.0000
vn 0.2865 0.1299 0.9492
vn 0.2320 -0.5939 0.7704
vn 0.2320 0.5939 0.7704
vn 0.0879 -0.9525 0.2917
vn 0.2884 -0.0000 0.9575
vn 0.0879 0.9525 0.2917
vn 0.6238 -0.6098 0.4889
vn 0.6238 0.6098 0.4889
vn 0.2309 -0.9560 0.1809
vn 0.7871 -0.0000 0.6169
vn 0.2309 0.9560 0.1809
vn 0.7844 -0.6203 -0.0000
vn 0.7844 0.6203 -0.0000
vn 0.2860 -0.9582 -0.0000
vn 0.2860 0.9582 -0.0000
vn 0.6238 -0.6098 -0.4889
vn 0.6238 0.6098 -0.4889
vn 0.2309 -0.9560 -0.1809
vn 0.7871 -0.0000 -0.6169
vn 0.2309 0.9560 -0.1809
vn 0.2320 -0.5939 -0.7704
vn 0.2320 0.5939 -0.7704
vn 0.0879 -0.9525 -0.2917
vn 0.2884 -0.0000 -0.9575
vn 0.0879 0.9525 -0.2917
vn 0.7752 -0.0134 0.6316
vn 0.7830 0.0038 0.6221
vn 0.7855 0.0043 0.6189
vn 0.7931 0.0104 0.6090
vn 0.8100 -0.0217 0.5860
vn 0.7998 0.0095 0.6002
vn 0.7855 -0.0284 0.6182
vn 0.8048 -0.0315 0.5926
vn 0.2083 0.6038 -0.7694
vn -0.0771 0.4624 -0.8833
vn -0.0000 -0.9601 0.2795
vn 0.5360 0.8343 0.1288
vn 0.1010 0.9222 0.3732
vn -0.1010 0.9222 0.3732
vn -0.5360 0.8343 0.1288
vn -0.1182 -0.8918 -0.4367
vn 0.5807 -0.8117 -0.0636
vn 0.0771 0.4624 -0.8833
vn -0.2083 0.6038 -0.7694
vn 0.7310 -0.5702 0.3748
vn -0.7310 -0.5702 0.3748
vn 0.1182 -0.8918 -0.4367
vn -0.2139 -0.5747 0.7899
vn -0.5807 -0.8117 -0.0636
vn 0.2139 -0.5747 0.7899
vt 0.289257 0.878711
vt 0.279581 0.819193
vt 0.349275 0.819193
vt 0.332330 0.878711
vt 0.279581 0.745625
vt 0.289257 0.686108
vt 0.332330 0.686108
vt 0.349275 0.745625
vt 0.396775 0.869924
vt 0.471102 0.759215
vt 0.492736 0.794472
vt 0.695487 0.146596
vt 0.766300 0.139861
vt 0.709347 0.185875
vt 0.250154 0.484726
vt 0.282297 0.423628
vt 0.312130 0.471733
vt 0.268591 0.514457
vt 0.672335 0.227782
vt 0.744614 0.210152
vt 0.729399 0.267062
vt 0.488433 0.836015
vt 0.344818 0.384855
vt 0.374651 0.432960
vt 0.349005 0.531194
vt 0.291381 0.551206
vt 0.432274 0.412948
vt 0.455064 0.449697
vt 0.411526 0.492421
vt 0.250154 0.615611
vt 0.787819 0.210152
vt 0.378837 0.579299
vt 0.309819 0.580936
vt 0.799305 0.267062
vt 0.822787 0.183426
vt 0.855351 0.227782
vt 0.441358 0.540526
vt 0.513940 0.562678
vt 0.480419 0.504116
vt 0.539217 0.505395
vt 0.550279 0.563468
vt 0.480419 0.430590
vt 0.513940 0.361920
vt 0.548244 0.355807
vt 0.539217 0.431870
vt 0.554203 0.631909
vt 0.843863 0.142023
vt 0.740083 0.654657
vt 0.731512 0.597401
vt 0.799452 0.597401
vt 0.782072 0.654657
vt 0.731749 0.528126
vt 0.740704 0.473291
vt 0.782694 0.473291
vt 0.799690 0.528126
vt 0.763742 0.747956
vt 0.811497 0.741977
vt 0.811497 0.783090
vt 0.612699 0.796784
vt 0.658932 0.812614
vt 0.612699 0.837500
vt 0.850204 0.598612
vt 0.813439 0.655405
vt 0.814060 0.474039
vt 0.850442 0.529336
vt 0.793664 0.812569
vt 0.819442 0.571270
vt 0.817747 0.557104
vt 0.830452 0.555468
vt 0.832147 0.569633
vt 0.630549 0.866609
vt 0.876452 0.264565
vt 0.867307 0.208470
vt 0.915195 0.208470
vt 0.906049 0.264565
vt 0.867307 0.139134
vt 0.876452 0.083039
vt 0.906049 0.083039
vt 0.915195 0.139134
vt 0.764809 0.819153
vt 0.659432 0.872992
vt 0.767601 0.872502
vt 0.720913 0.842042
vt 0.735954 0.800327
vt 0.929993 0.083039
vt 0.953937 0.139134
vt 0.953937 0.208470
vt 0.688315 0.854210
vt 0.820514 0.279017
vt 0.851022 0.336935
vt 0.790824 0.340631
vt 0.783309 0.281301
vt 0.850568 0.405702
vt 0.819326 0.459051
vt 0.782122 0.461336
vt 0.790371 0.409398
vt 0.718121 0.763283
vt 0.706165 0.817438
vt 0.810624 0.555573
vt 0.814381 0.575486
vt 0.835077 0.572429
vt 0.835470 0.544326
vt 0.431794 0.743713
vt 0.429135 0.686108
vt 0.492736 0.711192
vt 0.219563 0.745625
vt 0.252164 0.686108
vt 0.219563 0.819193
vt 0.708330 0.107316
vt 0.389827 0.753885
vt 0.361230 0.702567
vt 0.468464 0.150826
vt 0.411859 0.150826
vt 0.398497 0.091309
vt 0.433480 0.091309
vt 0.468464 0.224394
vt 0.411859 0.224394
vt 0.742968 0.083039
vt 0.398497 0.283912
vt 0.355255 0.283912
vt 0.341892 0.224394
vt 0.341892 0.150826
vt 0.355255 0.091309
vt 0.361230 0.785847
vt 0.786173 0.083039
vt 0.320271 0.283912
vt 0.285288 0.224394
vt 0.285288 0.150826
vt 0.320271 0.083039
vt 0.322249 0.352892
vt 0.821770 0.104866
vt 0.593454 0.563388
vt 0.609076 0.505265
vt 0.609076 0.431739
vt 0.593454 0.362630
vt 0.703509 0.655405
vt 0.672335 0.598612
vt 0.672572 0.529336
vt 0.704131 0.474039
vt 0.793664 0.704933
vt 0.630549 0.760012
vt 0.891251 0.276520
vt 0.915195 0.276520
vt 0.906049 0.332615
vt 0.867307 0.332615
vt 0.614008 0.716497
vt 0.660742 0.686108
vt 0.659432 0.741231
vt 0.764809 0.686108
vt 0.882497 0.359244
vt 0.892190 0.361185
vt 0.890859 0.375322
vt 0.881165 0.373380
vt 0.944791 0.276520
vt 0.953937 0.332615
vt 0.906049 0.401951
vt 0.953937 0.401951
vt 0.944791 0.458046
vt 0.915195 0.458046
vt 0.735954 0.692692
vt 0.688315 0.747613
vt 0.710359 0.279017
vt 0.741234 0.281301
vt 0.722745 0.340631
vt 0.672788 0.336935
vt 0.672335 0.405702
vt 0.722291 0.409398
vt 0.740047 0.461336
vt 0.709172 0.459051
vt 0.718121 0.722170
vt 0.706165 0.776722
vt 0.874999 0.374711
vt 0.867307 0.401951
vt 0.878840 0.354912
vt 0.894415 0.358456
vt 0.894955 0.386605
vt 0.130697 0.317742
vt 0.273332 0.083039
vt 0.193752 0.348708
vt 0.273332 0.301024
vt 0.145087 0.922480
vt 0.107159 0.922480
vt 0.073672 0.875044
vt 0.132768 0.805135
vt 0.164679 0.798341
vt 0.191667 0.798341
vt 0.207608 0.859595
vt 0.189936 0.912932
vt 0.073672 0.602847
vt 0.073672 0.384855
vt 0.233083 0.486933
vt 0.504692 0.848855
vt 0.600743 0.686108
vt 0.549572 0.873490
vt 0.600743 0.875085
vt 0.511318 0.109890
vt 0.660379 0.083039
vt 0.660379 0.229668
vt 0.074169 0.276034
vt 0.108905 0.353599
vt 0.073672 0.327603
vt 0.085067 0.650457
vt 0.138840 0.644478
vt 0.145942 0.674152
vt 0.079843 0.183435
vt 0.238199 0.572230
vt 0.573327 0.291560
vt 0.480419 0.216904
vt 0.148207 0.372900
vt 0.151734 0.686108
vt 0.195032 0.686108
vt 0.621623 0.313564
vt 0.549171 0.343851
vt 0.100535 0.697008
s 0
usemtl Duck_MAT
f 5/1/1 4/2/1 8/3/1 9/4/1
f 3/5/2 2/6/2 6/7/2 7/8/2
f 14/9/3 5/10/3 9/11/3
f 4/2/4 3/5/4 7/8/4 8/3/4
f 2/12/5 1/13/5 6/14/5
f 9/15/6 8/16/6 12/17/6 13/18/6
f 7/19/7 6/14/7 10/20/7 11/21/7
f 14/9/8 9/11/8 13/22/8
f 8/16/9 7/23/9 11/24/9 12/17/9
f 6/14/10 1/13/10 10/20/10
f 13/18/11 12/17/11 17/25/11 18/26/11
f 11/24/12 10/27/12 15/28/12 16/29/12
f 14/30/13 13/18/13 18/26/13
f 12/17/14 11/24/14 16/29/14 17/25/14
f 10/20/15 1/13/15 15/31/15
f 18/26/16 17/25/16 21/32/16 22/33/16
f 16/34/17 15/31/17 19/35/17 20/36/17
f 14/30/18 18/26/18 22/33/18
f 17/25/19 16/29/19 20/37/19 21/32/19
f 15/31/20 1/13/20 19/35/20
f 22/38/21 21/39/21 25/40/21 26/41/21
f 20/42/22 19/43/22 23/44/22 24/45/22
f 14/46/23 22/38/23 26/41/23
f 21/39/24 20/42/24 24/45/24 25/40/24
f 19/35/25 1/13/25 23/47/25
f 31/48/26 30/49/26 54/50/26 35/51/26
f 29/52/27 28/53/27 32/54/27 53/55/27
f 40/56/28 31/57/28 35/58/28
f 30/49/29 29/52/29 53/55/29 54/50/29
f 28/59/30 27/60/30 32/61/30
f 35/51/31 54/50/31 56/62/31 39/63/31
f 53/55/32 32/54/32 36/64/32 55/65/32
f 40/56/33 35/58/33 39/66/33
f 34/67/34 33/68/34 37/69/34 38/70/34
f 32/61/35 27/60/35 36/71/35
f 39/72/36 56/73/36 43/74/36 44/75/36
f 55/76/37 36/77/37 41/78/37 42/79/37
f 40/56/38 39/66/38 44/80/38
f 56/73/14 55/76/14 42/79/14 43/74/14
f 36/71/39 27/60/39 41/81/39
f 44/80/40 43/82/40 47/83/40 48/84/40
f 42/79/41 41/78/41 45/85/41 46/86/41
f 40/56/42 44/80/42 48/84/42
f 43/74/43 42/79/43 46/86/43 47/87/43
f 41/81/44 27/60/44 45/88/44
f 48/89/45 47/90/45 51/91/45 52/92/45
f 46/93/46 45/94/46 49/95/46 50/96/46
f 40/56/47 48/84/47 52/97/47
f 47/90/48 46/93/48 50/96/48 51/91/48
f 45/88/49 27/60/49 49/98/49
f 57/99/50 58/100/50 54/50/50 53/55/50
f 60/101/51 59/102/51 55/65/51 56/62/51
f 58/100/52 60/101/52 56/62/52 54/50/52
f 59/102/53 57/99/53 53/55/53 55/65/53
f 33/68/54 34/67/54 58/100/54 57/99/54
f 38/70/55 37/69/55 59/102/55 60/101/55
f 34/67/56 38/70/56 60/101/56 58/100/56
f 37/69/57 33/68/57 57/99/57 59/102/57
f 5/10/58 64/103/58 63/104/58 4/105/58
f 3/5/59 62/106/59 61/107/59 2/6/59
f 14/9/60 64/103/60 5/10/60
f 4/2/61 63/108/61 62/106/61 3/5/61
f 2/12/62 61/109/62 1/13/62
f 64/103/63 68/110/63 67/111/63 63/104/63
f 62/112/64 66/113/64 65/114/64 61/115/64
f 14/9/65 68/110/65 64/103/65
f 63/116/66 67/117/66 66/113/66 62/112/66
f 61/109/67 65/118/67 1/13/67
f 68/119/68 72/120/68 71/121/68 67/117/68
f 66/113/69 70/122/69 69/123/69 65/114/69
f 14/9/70 72/124/70 68/110/70
f 67/117/71 71/121/71 70/122/71 66/113/71
f 65/118/72 69/125/72 1/13/72
f 72/120/73 76/126/73 75/127/73 71/121/73
f 70/122/74 74/128/74 73/129/74 69/123/74
f 14/130/75 76/126/75 72/120/75
f 71/121/76 75/127/76 74/128/76 70/122/76
f 69/125/77 73/131/77 1/13/77
f 76/132/78 26/41/78 25/40/78 75/133/78
f 74/134/79 24/45/79 23/44/79 73/135/79
f 14/46/80 26/41/80 76/132/80
f 75/133/81 25/40/81 24/45/81 74/134/81
f 73/131/82 23/47/82 1/13/82
f 31/48/83 80/136/83 94/137/83 30/49/83
f 29/52/84 93/138/84 77/139/84 28/53/84
f 40/56/85 80/140/85 31/57/85
f 30/49/86 94/137/86 93/138/86 29/52/86
f 28/59/87 77/141/87 27/60/87
f 80/142/88 84/143/88 96/144/88 94/145/88
f 93/146/89 95/147/89 81/148/89 77/141/89
f 40/56/90 84/149/90 80/140/90
f 79/150/91 83/151/91 82/152/91 78/153/91
f 77/141/92 81/148/92 27/60/92
f 84/143/93 88/154/93 87/155/93 96/144/93
f 95/156/94 86/157/94 85/158/94 81/159/94
f 40/56/95 88/160/95 84/149/95
f 96/144/71 87/155/71 86/157/71 95/156/71
f 81/148/96 85/161/96 27/60/96
f 88/162/97 92/163/97 91/164/97 87/165/97
f 86/166/98 90/167/98 89/168/98 85/169/98
f 40/56/99 92/170/99 88/160/99
f 87/165/100 91/164/100 90/167/100 86/166/100
f 85/161/101 89/171/101 27/60/101
f 92/163/102 52/92/102 51/91/102 91/164/102
f 90/167/103 50/96/103 49/95/103 89/168/103
f 40/56/104 52/97/104 92/170/104
f 91/164/105 51/91/105 50/96/105 90/167/105
f 89/171/106 49/98/106 27/60/106
f 97/172/107 93/173/107 94/145/107 98/174/107
f 100/175/108 96/144/108 95/156/108 99/176/108
f 98/174/109 94/145/109 96/144/109 100/175/109
f 99/176/110 95/156/110 93/173/110 97/172/110
f 78/153/111 97/172/111 98/174/111 79/150/111
f 83/151/112 100/175/112 99/176/112 82/152/112
f 79/150/113 98/174/113 100/175/113 83/151/113
f 82/152/114 99/176/114 97/172/114 78/153/114
f 101/177/115 111/178/115 102/179/115
f 102/179/116 111/178/116 103/180/116
f 104/181/117 109/182/117 112/183/117 113/184/117 114/185/117 115/186/117 116/187/117 117/188/117
f 103/189/118 111/190/118 105/191/118
f 105/192/119 111/193/119 106/194/119
f 106/194/120 111/193/120 107/195/120
f 107/196/121 111/197/121 108/198/121
f 110/199/122 101/177/122 104/200/122 117/201/122
f 102/202/123 103/189/123 112/203/123 109/204/123
f 108/205/124 111/178/124 110/199/124
f 110/199/125 111/178/125 101/177/125
f 103/189/126 105/191/126 113/206/126 112/203/126
f 107/196/127 108/198/127 116/207/127 115/208/127
f 101/177/128 102/179/128 109/209/128 104/200/128
f 106/210/129 107/211/129 115/186/129 114/185/129
f 108/198/130 110/212/130 117/213/130 116/207/130
f 105/214/131 106/210/131 114/185/131 113/184/131
