# Blender 4.3.2
# www.blender.org
mtllib gasTankShadered.mtl
o Cube.001
v 1.023453 0.332557 -1.368353
v 1.011241 -3.747829 2.472358
v -0.975133 0.332676 -1.368695
v -0.988758 -3.747829 2.472358
v 1.008475 0.947760 -1.523580
v -0.989915 0.947676 -1.523494
v 0.873327 -3.747829 -1.530486
v 1.011241 -2.377142 -1.670358
v 1.011241 -3.747829 -1.269993
v 0.942096 0.432111 1.531687
v 0.459464 0.677799 1.967621
v 0.922760 -0.093907 2.472358
v -0.988759 -2.377141 -1.670358
v -0.850898 -3.747829 -1.530486
v -0.988759 -3.747829 -1.269993
v -0.478758 0.707703 1.996422
v -1.040879 0.432377 1.409292
v -1.058452 -0.088329 2.472358
v 1.011241 -1.769704 -2.183567
v 0.873324 -2.093109 -2.554549
v -0.988759 -1.769829 -2.183490
v -0.850897 -2.093109 -2.554549
v 1.027525 0.942726 1.105534
v 0.497783 1.041686 1.748053
v -0.957241 0.948986 0.872312
v -0.480371 0.970230 1.654286
v 1.010536 0.084147 -2.214066
v 0.873315 0.811494 -2.554549
v 0.890140 1.654755 -1.680151
v 1.005407 1.032485 -1.474979
v -0.991060 1.031833 -1.474957
v -0.827830 1.653801 -1.680186
v -0.850895 0.811494 -2.554549
v -0.989241 0.105017 -2.192756
v 1.011241 -0.609351 -1.670358
v 1.011725 -0.204711 -1.997508
v -0.988759 -0.609351 -1.670358
v -0.988054 -0.183885 -1.976270
v 0.924246 0.155258 2.143503
v 1.039477 1.234332 1.249529
v -0.943887 1.241035 0.997400
v -1.056687 0.159366 2.111915
v 1.020477 1.333165 -1.867060
v -0.976114 1.332396 -1.867177
v 1.011241 0.031748 -1.530486
v 1.011241 0.942451 -2.094096
v -0.988759 0.031748 -1.530486
v -0.988759 0.942451 -2.094096
v 1.011241 -1.971573 -2.323423
v 1.011241 -3.252830 -1.530486
v -0.988759 -3.252830 -1.530486
v -0.988759 -1.971697 -2.323346
v -0.988759 0.876917 -2.324517
v 1.011241 0.876895 -2.324598
v 0.947554 1.546619 1.180189
v 0.776688 0.166714 2.472358
v -0.923640 0.171594 2.472358
v -0.755598 1.551507 1.180189
v 0.412273 1.908097 2.631017
v 0.412273 1.607511 2.893012
v -0.583339 1.607511 2.893012
v -0.523073 1.908097 2.631017
v 0.447069 0.847978 2.147730
v -0.491152 0.877882 2.176531
v 0.485389 1.211866 1.928162
v -0.534580 1.113378 1.884398
v 0.711798 1.083170 1.675805
v 0.626327 0.631730 2.039547
v -0.688640 0.604211 2.031985
v -0.624853 1.038002 1.593873
v -0.706415 0.848261 2.269625
v 0.639070 0.805377 2.269625
v 0.694024 1.327221 1.817650
v -0.643218 1.291719 1.817650
vn 0.0012 0.9994 -0.0350
vn -0.0001 0.2444 0.9697
vn 0.0054 0.0107 0.9999
vn -0.0000 0.6454 0.7639
vn -0.0000 -1.0000 -0.0000
vn -0.9999 -0.0097 -0.0092
vn -1.0000 -0.0003 0.0006
vn -1.0000 -0.0014 -0.0013
vn -0.0000 -0.0000 1.0000
vn 0.9996 -0.0283 0.0081
vn 0.9996 -0.0263 0.0091
vn 0.9997 -0.0214 0.0116
vn -0.0000 -0.0000 -1.0000
vn 0.9999 0.0123 0.0116
vn -0.0002 0.7200 -0.6940
vn -0.9993 0.0364 -0.0103
vn -0.9992 0.0388 -0.0110
vn -0.9995 0.0304 -0.0084
vn 0.0011 0.9993 0.0367
vn 0.8581 -0.2391 -0.4543
vn 0.8170 0.4579 0.3506
vn -0.8582 -0.2390 -0.4542
vn -0.8474 0.4395 0.2979
vn 0.8550 0.2854 0.4330
vn -0.8765 0.3839 0.2904
vn 0.8838 -0.2462 -0.3979
vn -0.8839 -0.2462 -0.3978
vn 0.6196 0.5557 -0.5543
vn -0.6016 0.5801 -0.5492
vn -0.8583 -0.0001 -0.5131
vn 0.8582 -0.0001 -0.5134
vn 0.9436 0.3310 -0.0006
vn -0.8897 0.4554 0.0316
vn -0.0000 -0.5262 -0.8503
vn 0.9999 0.0031 -0.0142
vn -0.9998 -0.0014 0.0176
vn 0.9931 -0.1170 0.0100
vn -0.9932 0.1163 -0.0056
vn 0.9987 -0.0493 -0.0088
vn -0.9984 0.0542 0.0145
vn 0.9992 -0.0313 0.0266
vn 0.9997 -0.0201 0.0123
vn -0.9993 0.0306 -0.0219
vn -0.9996 0.0288 -0.0079
vn 0.0636 -0.6882 -0.7228
vn 0.0006 -0.9994 -0.0350
vn 0.0001 -0.4986 0.8668
vn 1.0000 0.0001 0.0007
vn 1.0000 -0.0003 -0.0020
vn 1.0000 0.0001 0.0002
vn 1.0000 -0.0000 0.0003
vn -1.0000 -0.0000 0.0018
vn -1.0000 -0.0003 -0.0011
vn -1.0000 -0.0003 -0.0005
vn 1.0000 0.0001 0.0004
vn 1.0000 -0.0000 -0.0000
vn 1.0000 0.0002 0.0026
vn -1.0000 -0.0000 -0.0000
vn -1.0000 -0.0000 -0.0003
vn -1.0000 -0.0001 -0.0016
vn -1.0000 -0.0001 0.0027
vn -1.0000 -0.0000 -0.0008
vn 1.0000 -0.0000 -0.0027
vn 1.0000 0.0001 0.0015
vn -0.0111 -0.6031 -0.7976
vn -0.0074 -0.6064 -0.7951
vn -0.0148 -0.5997 -0.8001
vn 0.0676 0.6489 0.7579
vn 0.0459 0.7023 0.7104
vn 0.0170 0.6823 0.7308
vn -0.0424 0.6952 0.7176
vn -0.0080 -0.5816 -0.8134
vn -0.0077 -0.5811 -0.8138
vn -0.0082 -0.5818 -0.8133
vn -0.0083 -0.5820 -0.8131
vn 0.0858 -0.7907 -0.6062
vn 0.1211 -0.7454 -0.6555
vn -0.0002 -0.7005 0.7136
vn -0.0000 0.6571 0.7538
vn 0.9971 -0.0021 0.0764
vn -0.0190 0.6965 -0.7173
vn -0.9990 -0.0123 -0.0423
vn 0.3650 0.6829 0.6328
vn -0.1326 0.6077 0.7831
vn -0.9933 0.0310 -0.1112
vn 0.0068 0.5923 -0.8057
vn 0.9936 -0.0680 0.0899
vn -0.0062 -0.7459 0.6660
vn 0.0342 0.9463 0.3216
vn -0.0457 0.5276 0.8483
vt 0.897032 0.682188
vt 0.734864 0.677333
vt 0.735847 0.453964
vt 0.897032 0.448933
vt 0.380691 0.450083
vt 0.380736 0.612314
vt 0.330139 0.611049
vt 0.330075 0.448802
vt 0.833868 0.267914
vt 0.996230 0.267925
vt 0.996229 0.418302
vt 0.833901 0.419888
vt 0.834199 0.216180
vt 0.996561 0.216180
vt 0.727985 0.752706
vt 0.716793 0.773851
vt 0.576814 0.773850
vt 0.565617 0.752705
vt 0.565617 0.448933
vt 0.727985 0.448934
vt 0.003711 0.441113
vt 0.003439 0.144793
vt 0.032674 0.124786
vt 0.328303 0.135613
vt 0.328303 0.401856
vt 0.307179 0.441923
vt 0.167308 0.448802
vt 0.164255 0.744965
vt 0.152692 0.766242
vt 0.014676 0.768491
vt 0.003439 0.747577
vt 0.004961 0.450981
vt 0.807897 0.379017
vt 0.770752 0.416051
vt 0.789199 0.384332
vt 0.558739 0.596131
vt 0.558739 0.828019
vt 0.418761 0.828019
vt 0.418760 0.596131
vt 0.722346 0.003549
vt 0.743478 0.043741
vt 0.743478 0.310384
vt 0.445714 0.320238
vt 0.419041 0.300000
vt 0.418760 0.003439
vt 0.314140 0.862158
vt 0.174186 0.860179
vt 0.176017 0.797100
vt 0.315463 0.799077
vt 0.355654 0.030200
vt 0.392691 0.067277
vt 0.374006 0.061915
vt 0.184947 0.565467
vt 0.323196 0.567378
vt 0.743916 0.003453
vt 0.419505 0.321048
vt 0.328840 0.441359
vt 0.003965 0.123117
vt 0.517868 0.407950
vt 0.523785 0.433235
vt 0.123490 0.036840
vt 0.109402 0.010786
vt 0.826990 0.137814
vt 0.807802 0.147777
vt 0.411882 0.307451
vt 0.392596 0.298181
vt 0.826990 0.373611
vt 0.756003 0.442055
vt 0.341069 0.003439
vt 0.411882 0.072009
vt 0.418760 0.448933
vt 0.558739 0.448933
vt 0.742926 0.384744
vt 0.730286 0.334809
vt 0.315236 0.111124
vt 0.327731 0.061373
vt 0.495288 0.342745
vt 0.529587 0.384273
vt 0.133582 0.060601
vt 0.089712 0.102737
vt 0.738993 0.391619
vt 0.323791 0.054546
vt 0.377276 0.625030
vt 0.379384 0.786012
vt 0.330075 0.780425
vt 0.330075 0.619246
vt 0.734864 0.689066
vt 0.895827 0.709384
vt 0.896939 0.900050
vt 0.734864 0.898665
vt 0.387318 0.450293
vt 0.387318 0.612368
vt 0.754824 0.258344
vt 0.781362 0.291203
vt 0.364454 0.153185
vt 0.339645 0.187610
vt 0.796457 0.164161
vt 0.754824 0.114834
vt 0.339645 0.330904
vt 0.381255 0.281788
vt 0.382005 0.129820
vt 0.798933 0.314658
vt 0.833868 0.181697
vt 0.833907 0.144570
vt 0.996275 0.144570
vt 0.996218 0.183046
vt 0.833907 0.003439
vt 0.996275 0.003439
vt 0.833964 0.207949
vt 0.996314 0.209301
vt 0.130585 0.841007
vt 0.127202 0.810484
vt 0.167308 0.884225
vt 0.209205 0.492458
vt 0.208427 0.522386
vt 0.174186 0.448802
vt 0.051095 0.813788
vt 0.287840 0.516574
vt 0.688174 0.874052
vt 0.720394 0.877793
vt 0.724430 0.895250
vt 0.683172 0.887503
vt 0.691624 0.797936
vt 0.683172 0.780729
vt 0.910782 0.706051
vt 0.908097 0.785772
vt 0.903817 0.797781
vt 0.903817 0.689066
vt 0.717623 0.798313
vt 0.724152 0.786709
vt 0.567913 0.856896
vt 0.565617 0.780729
vt 0.625033 0.783533
vt 0.625033 0.864361
vt 0.518178 0.915722
vt 0.518178 0.834898
vt 0.543823 0.835067
vt 0.543823 0.910999
vt 0.411079 0.881260
vt 0.377632 0.872956
vt 0.377632 0.792890
vt 0.409927 0.795025
vt 0.471942 0.834898
vt 0.471942 0.917636
vt 0.418760 0.915865
vt 0.421200 0.839974
vt 0.511299 0.923427
vt 0.481260 0.921101
vt 0.478820 0.838163
vt 0.511299 0.834898
vt 0.339830 0.885026
vt 0.364882 0.891718
vt 0.370754 0.901457
vt 0.330075 0.901457
vt 0.666853 0.797850
vt 0.636376 0.801632
vt 0.631912 0.786075
vt 0.676294 0.780729
vt 0.174415 0.919333
vt 0.174186 0.869036
vt 0.201831 0.869040
vt 0.201831 0.920683
vt 0.394196 0.558390
vt 0.394630 0.449849
vt 0.411621 0.448802
vt 0.411621 0.557401
vt 0.232084 0.870546
vt 0.230299 0.917451
vt 0.208709 0.924990
vt 0.208709 0.869036
vt 0.386262 0.727050
vt 0.386777 0.620295
vt 0.405206 0.619246
vt 0.405206 0.728476
vt 0.350750 0.809589
vt 0.342424 0.792890
vt 0.661284 0.880863
vt 0.676294 0.889327
s 1
usemtl Material.001
f 1/1/1 3/2/1 17/3/1 10/4/1
f 5/5/2 6/6/2 3/7/2 1/8/2
f 21/9/3 19/10/3 27/11/3 34/12/3
f 19/10/4 21/9/4 13/13/4 8/14/4
f 15/15/5 14/16/5 7/17/5 9/18/5 2/19/5 4/20/5
f 4/21/6 18/22/6 42/23/6 47/24/7 51/25/8 15/26/6
f 2/27/9 12/28/9 56/29/9 57/30/9 18/31/9 4/32/9
f 54/33/10 43/34/11 46/35/12
f 22/36/13 33/37/13 28/38/13 20/39/13
f 9/40/14 50/41/14 45/42/14 39/43/14 12/44/14 2/45/14
f 28/46/15 33/47/15 32/48/15 29/49/15
f 44/50/16 53/51/17 48/52/18
f 29/49/19 32/48/19 58/53/19 55/54/19
f 7/55/20 50/41/20 9/40/20
f 39/43/21 56/56/21 12/44/21
f 51/25/22 14/57/22 15/26/22
f 57/58/23 42/23/23 18/22/23
f 39/43/24 40/59/24 55/60/24 56/56/24
f 41/61/25 42/23/25 57/58/25 58/62/25
f 7/55/26 20/63/26 49/64/26 50/41/26
f 22/65/27 14/57/27 51/25/27 52/66/27
f 28/67/28 29/68/28 43/34/28 54/33/28
f 32/69/29 33/70/29 53/51/29 44/50/29
f 52/66/30 53/51/30 33/70/30 22/65/30
f 54/33/31 49/64/31 20/63/31 28/67/31
f 29/68/32 55/60/32 40/59/32 43/34/32
f 44/50/33 41/61/33 58/62/33 32/69/33
f 7/71/34 14/72/34 22/36/34 20/39/34
f 5/73/35 1/74/35 45/42/35 46/35/35
f 3/75/36 6/76/36 48/52/36 47/24/36
f 10/77/37 23/78/37 40/59/37 39/43/37
f 25/79/38 17/80/38 42/23/38 41/61/38
f 23/78/39 30/81/39 43/34/39 40/59/39
f 31/82/40 25/79/40 41/61/40 44/50/40
f 1/74/41 10/77/41 39/43/41 45/42/41
f 30/81/42 5/73/42 46/35/12 43/34/11
f 17/80/43 3/75/43 47/24/43 42/23/43
f 6/76/44 31/82/44 44/50/16 48/52/18
f 10/83/45 17/84/45 25/85/45 23/86/45
f 23/87/46 25/88/46 31/89/46 30/90/46
f 5/5/47 30/91/47 31/92/47 6/6/47
f 35/93/48 36/94/49 46/35/50 45/42/51
f 38/95/52 37/96/53 47/24/7 48/52/54
f 19/97/55 8/98/56 50/41/56 49/64/57
f 13/99/58 21/100/59 52/66/60 51/25/8
f 21/100/59 34/101/61 53/51/62 52/66/60
f 27/102/63 19/97/55 49/64/57 54/33/64
f 8/98/56 35/93/48 45/42/51 50/41/56
f 36/94/49 27/102/63 54/33/64 46/35/50
f 37/96/53 13/99/58 51/25/8 47/24/7
f 34/101/61 38/95/52 48/52/54 53/51/62
f 36/103/65 35/104/66 37/105/66 38/106/65
f 8/107/13 13/108/13 37/105/13 35/104/13
f 27/109/67 36/103/65 38/106/65 34/110/67
f 24/111/68 11/112/68 56/29/68 55/113/68
f 16/114/69 26/115/69 58/53/69 57/116/69
f 11/112/70 16/117/70 57/30/70 56/29/70
f 26/115/71 24/118/71 55/54/71 58/53/71
f 11/119/72 24/120/73 67/121/73 68/122/74
f 16/123/75 11/119/72 68/122/74 69/124/75
f 24/125/76 26/126/76 70/127/76 67/128/76
f 26/129/77 16/123/77 69/124/77 70/130/77
usemtl Material.002
f 64/131/78 63/132/78 60/133/78 61/134/78
f 61/135/79 60/136/79 59/137/79 62/138/79
f 63/139/80 65/140/80 59/141/80 60/142/80
f 65/143/81 66/144/81 62/145/81 59/146/81
f 66/147/82 64/148/82 61/149/82 62/150/82
f 64/151/83 66/152/83 74/153/83 71/154/83
f 65/155/84 63/156/84 72/157/84 73/158/84
f 70/159/85 69/160/85 71/161/85 74/162/85
f 67/163/86 70/164/86 74/165/86 73/166/86
f 68/167/87 67/168/87 73/169/87 72/170/87
f 69/171/88 68/172/88 72/173/88 71/174/88
f 63/175/89 64/151/89 71/154/89 72/176/89
f 66/177/90 65/155/90 73/158/90 74/178/90
