# Blender 4.3.2
# www.blender.org
mtllib Star.mtl
o Plane
v -0.677127 -0.328556 -0.151386
v -1.077142 -0.303660 0.000000
v 1.148190 -0.372777 -0.951969
v 0.223357 -0.302042 -0.509485
v -0.060110 -0.310015 -1.270283
v -0.458333 -0.316767 0.000000
v 0.000000 -0.316767 0.000000
v 0.535208 -0.322075 0.000000
v -0.241151 -0.323254 -0.334561
v -0.000000 -0.316767 -0.458333
v 0.674903 -0.341305 -0.219674
v -1.072276 -0.984382 0.000000
v 1.067503 -1.052706 -0.961283
v 0.236144 -0.983985 -0.558629
v -0.023327 -0.991829 -1.308786
v -0.451438 -0.998631 0.000000
v -0.008896 -0.999819 0.000000
v 0.506153 -1.004635 0.000000
v -0.228497 -1.006291 -0.319332
v 0.019166 -0.999665 -0.475711
v 0.625891 -1.023336 -0.219641
v 1.148190 -0.372777 0.951969
v 0.223357 -0.302042 0.509485
v -0.060110 -0.310015 1.270283
v -0.241151 -0.323254 0.334561
v -0.000000 -0.316767 0.458333
v 0.674903 -0.341305 0.219674
v 1.067503 -1.052706 0.961283
v 0.236144 -0.983985 0.558629
v -0.023327 -0.991829 1.308786
v -0.228497 -1.006291 0.319332
v 0.019166 -0.999665 0.475711
v 0.625891 -1.023336 0.219641
vn -0.0113 0.9999 -0.0113
vn 0.0291 0.9993 -0.0224
vn 0.0807 0.9967 0.0093
vn -0.0508 0.9966 0.0652
vn -0.0218 0.9997 0.0099
vn -0.0049 0.9975 -0.0706
vn 0.0108 -0.9999 0.0128
vn -0.0300 -0.9993 0.0203
vn -0.0888 -0.9960 -0.0135
vn 0.0497 -0.9971 -0.0585
vn 0.0202 -0.9997 -0.0104
vn -0.4290 0.0601 -0.9013
vn 0.9394 0.0559 -0.3382
vn -0.0000 -0.0000 1.0000
vn 0.8582 -0.0491 0.5110
vn 0.8451 -0.0841 0.5280
vn -0.9799 -0.0321 -0.1970
vn -0.0113 0.9999 0.0113
vn 0.0291 0.9993 0.0224
vn 0.0807 0.9967 -0.0093
vn -0.0508 0.9966 -0.0652
vn -0.0218 0.9997 -0.0099
vn 0.0212 0.9998 0.0056
vn 0.0108 -0.9999 -0.0128
vn -0.0300 -0.9993 -0.0203
vn -0.0888 -0.9960 0.0135
vn 0.0497 -0.9971 0.0585
vn 0.0202 -0.9997 0.0104
vn -0.3628 -0.0093 -0.9318
vn -0.4290 0.0601 0.9013
vn 0.9394 0.0559 0.3382
vn 0.8582 -0.0491 -0.5110
vn 0.8451 -0.0841 -0.5280
vn -0.9799 -0.0321 0.1970
vn -0.0229 -0.9997 0.0080
vn -0.0229 -0.9997 -0.0080
vn -0.3630 -0.0151 0.9317
vt 0.250000 0.500000
vt 0.500000 0.500000
vt 0.500000 0.750000
vt 0.250000 0.750000
vt 0.750000 0.500000
vt 0.750000 0.750000
vt 0.750000 1.000000
vt 0.000000 0.000000
vt 0.500000 1.000000
vt 0.000000 0.500000
vt 0.000000 0.750000
s 0
f 6/1/1 7/2/1 10/3/1 9/4/1
f 7/2/2 8/5/2 11/6/2 10/3/2
f 4/7/3 11/6/3 3/8/3
f 10/3/4 11/6/4 4/7/4 5/9/4
f 10/3/5 5/9/5 9/4/5
f 2/10/6 6/1/6 9/4/6 1/11/6
f 16/1/7 19/4/7 20/3/7 17/2/7
f 17/2/8 20/3/8 21/6/8 18/5/8
f 14/7/9 13/8/9 21/6/9
f 20/3/10 15/9/10 14/7/10 21/6/10
f 20/3/11 19/4/11 15/9/11
f 4/7/12 3/8/12 13/8/12 14/7/12
f 5/9/13 4/7/13 14/7/13 15/9/13
f 7/2/14 6/1/14 16/1/14 17/2/14
f 8/5/14 7/2/14 17/2/14 18/5/14
f 11/6/15 8/5/15 18/5/15 21/6/15
f 3/8/16 11/6/16 21/6/16 13/8/16
f 9/4/17 5/9/17 15/9/17 19/4/17
f 6/1/14 2/10/14 12/10/14 16/1/14
f 6/1/18 25/4/18 26/3/18 7/2/18
f 7/2/19 26/3/19 27/6/19 8/5/19
f 23/7/20 22/8/20 27/6/20
f 26/3/21 24/9/21 23/7/21 27/6/21
f 26/3/22 25/4/22 24/9/22
f 6/1/23 2/10/23 25/4/23
f 16/1/24 17/2/24 32/3/24 31/4/24
f 17/2/25 18/5/25 33/6/25 32/3/25
f 29/7/26 33/6/26 28/8/26
f 32/3/27 33/6/27 29/7/27 30/9/27
f 32/3/28 30/9/28 31/4/28
f 2/10/29 1/11/29 9/4/29 19/4/29 12/10/29
f 23/7/30 29/7/30 28/8/30 22/8/30
f 24/9/31 30/9/31 29/7/31 23/7/31
f 27/6/32 33/6/32 18/5/32 8/5/32
f 22/8/33 28/8/33 33/6/33 27/6/33
f 25/4/34 31/4/34 30/9/34 24/9/34
f 16/1/35 12/10/35 19/4/35
f 12/10/36 16/1/36 31/4/36
f 25/8/37 2/8/37 12/8/37 31/8/37
