# Blender 4.2.2 LTS
# www.blender.org
mtllib SodaCan_Topping.mtl
o SodaCan
v 0.067727 -1.191936 -0.832861
v 0.067727 1.191936 -0.459037
v 0.580647 -1.191936 -0.673799
v 0.218250 1.191936 -0.412358
v 0.897649 -1.191936 -0.257368
v 0.311278 1.191936 -0.290151
v 0.897649 -1.191936 0.257368
v 0.311278 1.191936 -0.139095
v 0.580647 -1.191936 0.673799
v 0.218250 1.191936 -0.016888
v 0.067727 -1.191936 0.832861
v 0.067727 1.191936 0.029791
v -0.445193 -1.191936 0.673799
v -0.082796 1.191936 -0.016888
v -0.762195 -1.191936 0.257368
v -0.175824 1.191936 -0.139095
v -0.762195 -1.191936 -0.257368
v -0.175824 1.191936 -0.290151
v -0.445193 -1.191936 -0.673799
v -0.082796 1.191936 -0.412358
v 0.631420 1.191936 -0.740497
v 0.067727 1.191936 -0.915304
v 0.979801 1.191936 -0.282845
v 0.979801 1.191936 0.282845
v 0.631420 1.191936 0.740497
v 0.067727 1.191936 0.915304
v -0.495965 1.191936 0.740497
v -0.844347 1.191936 0.282845
v -0.844347 1.191936 -0.282845
v -0.495965 1.191936 -0.740497
v 0.541997 1.266353 -0.623026
v 0.067727 1.266353 -0.770103
v 0.835111 1.266353 -0.237975
v 0.835111 1.266353 0.237975
v 0.541997 1.266353 0.623026
v 0.067727 1.266353 0.770103
v -0.406543 1.266353 0.623026
v -0.699657 1.266353 0.237975
v -0.699657 1.266353 -0.237975
v -0.406543 1.266353 -0.623026
v 0.569789 1.266353 -0.659535
v 0.067727 1.266353 -0.815230
v 0.880080 1.266353 -0.251920
v 0.880080 1.266353 0.251920
v 0.569789 1.266353 0.659535
v 0.067727 1.266353 0.815230
v -0.434335 1.266353 0.659535
v -0.744626 1.266353 0.251920
v -0.744626 1.266353 -0.251920
v -0.434335 1.266353 -0.659535
v 0.569789 1.191936 -0.659535
v 0.067727 1.191936 -0.815230
v 0.880080 1.191936 -0.251920
v 0.880080 1.191936 0.251920
v 0.569789 1.191936 0.659535
v 0.067727 1.191936 0.815230
v -0.434335 1.191936 0.659535
v -0.744626 1.191936 0.251920
v -0.744626 1.191936 -0.251920
v -0.434335 1.191936 -0.659535
v 0.067727 -0.292162 -0.915304
v 0.067727 0.502462 -0.915304
v 0.631420 0.502462 -0.740497
v 0.631420 -0.292162 -0.740497
v 0.979801 0.502462 -0.282845
v 0.979801 -0.292162 -0.282845
v 0.979801 0.502462 0.282845
v 0.979801 -0.292162 0.282845
v 0.631420 0.502462 0.740497
v 0.631420 -0.292162 0.740497
v 0.067727 0.502462 0.915304
v 0.067727 -0.292162 0.915304
v -0.495965 0.502462 0.740497
v -0.495965 -0.292162 0.740497
v -0.844347 0.502462 0.282845
v -0.844347 -0.292162 0.282845
v -0.844347 0.502462 -0.282845
v -0.844347 -0.292162 -0.282845
v -0.495965 0.502462 -0.740497
v -0.495965 -0.292162 -0.740497
v 0.067727 -1.306259 -0.558233
v 0.411517 -1.306259 -0.451620
v 0.623990 -1.306259 -0.172504
v 0.623990 -1.306259 0.172504
v 0.411517 -1.306259 0.451620
v 0.067727 -1.306259 0.558233
v -0.276062 -1.306259 0.451620
v -0.488536 -1.306259 0.172504
v -0.488536 -1.306259 -0.172504
v -0.276062 -1.306259 -0.451620
v 0.067727 1.203856 -0.235432
v 0.035721 1.203856 -0.230908
v 0.004945 1.203856 -0.217511
v -0.023418 1.203856 -0.195755
v -0.048278 1.203856 -0.166476
v -0.068681 1.203856 -0.130799
v -0.083841 1.203856 -0.090096
v -0.093177 1.203856 -0.045931
v -0.096329 1.203856 -0.000000
v -0.093177 1.203856 0.045931
v -0.083841 1.203856 0.090096
v -0.068681 1.203856 0.130799
v -0.048278 1.203856 0.166476
v -0.023418 1.203856 0.195755
v 0.004945 1.203856 0.217511
v 0.035721 1.203856 0.230908
v 0.067727 1.203856 0.235432
v 0.099733 1.203856 0.230908
v 0.130509 1.203856 0.217511
v 0.158872 1.203856 0.195755
v 0.183733 1.203856 0.166476
v 0.204135 1.203856 0.130799
v 0.219296 1.203856 0.090096
v 0.228631 1.203856 0.045931
v 0.231784 1.203856 0.000000
v 0.228631 1.203856 -0.045931
v 0.219296 1.203856 -0.090096
v 0.204135 1.203856 -0.130799
v 0.183733 1.203856 -0.166476
v 0.158872 1.203856 -0.195755
v 0.130509 1.203856 -0.217511
v 0.099733 1.203856 -0.230908
v 0.048968 1.203856 -0.196019
v 0.067727 1.203856 -0.198670
v 0.028902 1.203856 -0.187283
v 0.007994 1.203856 -0.171246
v -0.012058 1.203856 -0.147630
v -0.029469 1.203856 -0.117185
v -0.042842 1.203856 -0.081280
v -0.051230 1.203856 -0.041601
v -0.054085 1.203856 0.000000
v -0.051230 1.203856 0.041601
v -0.042842 1.203856 0.081280
v -0.029469 1.203856 0.117185
v -0.012058 1.203856 0.147630
v 0.007994 1.203856 0.171246
v 0.028902 1.203856 0.187283
v 0.048968 1.203856 0.196018
v 0.067727 1.203856 0.198670
v 0.086486 1.203856 0.196019
v 0.106553 1.203856 0.187283
v 0.127460 1.203856 0.171246
v 0.147513 1.203856 0.147630
v 0.164923 1.203856 0.117185
v 0.178296 1.203856 0.081280
v 0.186684 1.203856 0.041601
v 0.189539 1.203856 0.000000
v 0.186684 1.203856 -0.041601
v 0.178297 1.203856 -0.081280
v 0.164923 1.203856 -0.117185
v 0.147513 1.203856 -0.147630
v 0.127460 1.203856 -0.171246
v 0.106553 1.203856 -0.187283
v 0.086486 1.203856 -0.196018
vn -0.0000 -0.4881 -0.8728
vn -0.0000 1.0000 -0.0000
vn 0.4955 -0.4939 -0.7145
vn 0.8177 -0.5038 -0.2784
vn 0.8177 -0.5038 0.2784
vn 0.4955 -0.4939 0.7145
vn -0.0000 -0.4881 0.8728
vn -0.4955 -0.4939 0.7145
vn -0.8177 -0.5038 0.2784
vn -0.8177 -0.5038 -0.2784
vn -0.4955 -0.4939 -0.7145
vn 0.5156 0.4258 -0.7435
vn -0.0000 0.4204 -0.9074
vn 0.8524 0.4350 -0.2902
vn 0.8524 0.4350 0.2902
vn 0.5156 0.4258 0.7435
vn -0.0000 0.4204 0.9074
vn -0.5156 0.4258 0.7435
vn -0.8524 0.4350 0.2902
vn -0.8524 0.4350 -0.2902
vn -0.5156 0.4258 -0.7435
vn 0.5599 -0.1856 -0.8075
vn -0.0000 -0.1828 -0.9831
vn 0.9293 -0.1904 -0.3164
vn 0.9293 -0.1904 0.3164
vn 0.5599 -0.1856 0.8075
vn -0.0000 -0.1828 0.9831
vn -0.5599 -0.1856 0.8075
vn -0.9293 -0.1904 0.3164
vn -0.9293 -0.1904 -0.3164
vn -0.5599 -0.1856 -0.8075
vn -0.4764 -0.5486 0.6871
vn -0.0000 -0.5426 0.8400
vn -0.7851 -0.5587 0.2673
vn -0.7851 -0.5587 -0.2673
vn -0.4764 -0.5486 -0.6871
vn -0.0000 -0.5426 -0.8400
vn 0.4764 -0.5486 -0.6871
vn 0.7851 -0.5587 -0.2673
vn 0.7851 -0.5587 0.2673
vn 0.4764 -0.5486 0.6871
vn -0.4764 0.5486 0.6871
vn -0.0000 0.5426 0.8400
vn -0.7851 0.5587 0.2673
vn -0.7851 0.5587 -0.2673
vn -0.4764 0.5486 -0.6871
vn -0.0000 0.5426 -0.8400
vn 0.4764 0.5486 -0.6871
vn 0.7851 0.5587 -0.2673
vn 0.7851 0.5587 0.2673
vn 0.4764 0.5486 0.6871
vn -0.0000 -0.0451 -0.9990
vn -0.0000 -0.0000 -1.0000
vn 0.5698 -0.0000 -0.8218
vn 0.5692 -0.0458 -0.8209
vn 0.9466 -0.0000 -0.3223
vn 0.9456 -0.0470 -0.3219
vn 0.9466 -0.0000 0.3223
vn 0.9456 -0.0470 0.3219
vn 0.5698 -0.0000 0.8218
vn 0.5692 -0.0458 0.8209
vn -0.0000 -0.0000 1.0000
vn -0.0000 -0.0451 0.9990
vn -0.5698 -0.0000 0.8218
vn -0.5692 -0.0458 0.8209
vn -0.9466 -0.0000 0.3223
vn -0.9456 -0.0470 0.3219
vn -0.9466 -0.0000 -0.3223
vn -0.9456 -0.0470 -0.3219
vn -0.5698 -0.0000 -0.8218
vn -0.5692 -0.0458 -0.8209
vn -0.0000 -0.9716 -0.2367
vn 0.1329 -0.9724 -0.1916
vn 0.2153 -0.9738 -0.0733
vn 0.2153 -0.9738 0.0733
vn 0.1329 -0.9724 0.1916
vn -0.0000 -0.9716 0.2367
vn -0.1329 -0.9724 0.1916
vn -0.2153 -0.9738 0.0733
vn -0.2153 -0.9738 -0.0733
vn -0.1329 -0.9724 -0.1916
vt 0.512079 0.100181
vt 0.512079 0.005032
vt 0.594356 0.006719
vt 0.594356 0.101868
vt 0.005032 0.441044
vt 0.005032 0.345895
vt 0.087310 0.344208
vt 0.087310 0.439357
vt 0.189011 0.344208
vt 0.189011 0.439357
vt 0.271289 0.345895
vt 0.271289 0.441044
vt 0.328100 0.442846
vt 0.328100 0.347697
vt 0.410378 0.346010
vt 0.410378 0.441159
vt 0.512079 0.346010
vt 0.512079 0.441159
vt 0.594356 0.347697
vt 0.594356 0.442846
vt 0.893267 0.409713
vt 0.893267 0.314564
vt 0.994968 0.314564
vt 0.994968 0.409713
vt 0.721132 0.536286
vt 0.695304 0.527894
vt 0.679341 0.505923
vt 0.679341 0.478766
vt 0.695304 0.456795
vt 0.721132 0.448403
vt 0.746960 0.456795
vt 0.762922 0.478766
vt 0.762922 0.505923
vt 0.746960 0.527894
vt 0.328100 0.101868
vt 0.328100 0.006719
vt 0.410378 0.005032
vt 0.410378 0.100181
vt 0.746826 0.005032
vt 0.834837 0.033629
vt 0.805817 0.073573
vt 0.746826 0.054406
vt 0.005032 0.220438
vt 0.005032 0.118737
vt 0.029859 0.126804
vt 0.029859 0.212371
vt 0.318035 0.118737
vt 0.318035 0.220438
vt 0.293208 0.212371
vt 0.293208 0.126804
vt 0.293125 0.417490
vt 0.293125 0.508071
vt 0.282856 0.508071
vt 0.282856 0.417490
vt 0.314962 0.417490
vt 0.314962 0.508071
vt 0.304693 0.508071
vt 0.304693 0.417490
vt 0.161534 0.334143
vt 0.064811 0.302716
vt 0.080155 0.281597
vt 0.161534 0.308039
vt 0.161534 0.005032
vt 0.258257 0.036460
vt 0.242913 0.057579
vt 0.161534 0.031137
vt 0.313460 0.344208
vt 0.303190 0.344208
vt 0.293125 0.755282
vt 0.291623 0.828563
vt 0.281353 0.828563
vt 0.282856 0.755281
vt 0.064811 0.036460
vt 0.080155 0.057579
vt 0.258257 0.302716
vt 0.242913 0.281597
vt 0.743812 0.910885
vt 0.657663 0.882894
vt 0.662432 0.876330
vt 0.743812 0.902772
vt 0.604421 0.809611
vt 0.612137 0.807104
vt 0.604421 0.719030
vt 0.612137 0.721537
vt 0.657663 0.645748
vt 0.662432 0.652312
vt 0.743812 0.617757
vt 0.743812 0.625870
vt 0.829960 0.645748
vt 0.825191 0.652312
vt 0.883202 0.719030
vt 0.875486 0.721537
vt 0.883202 0.809611
vt 0.875486 0.807104
vt 0.829960 0.882894
vt 0.825191 0.876330
vt 0.313460 0.581353
vt 0.303190 0.581353
vt 0.291623 0.581353
vt 0.281353 0.581353
vt 0.291623 0.344208
vt 0.281353 0.344208
vt 0.313460 0.591418
vt 0.313460 0.681999
vt 0.303190 0.681999
vt 0.303190 0.591418
vt 0.291623 0.591418
vt 0.293125 0.664700
vt 0.282856 0.664700
vt 0.281353 0.591418
vt 0.743812 0.607692
vt 0.657664 0.579701
vt 0.829960 0.579701
vt 0.883202 0.506419
vt 0.883202 0.415838
vt 0.829960 0.342556
vt 0.743812 0.314564
vt 0.657664 0.342556
vt 0.604421 0.415838
vt 0.604421 0.506419
vt 0.414958 0.334410
vt 0.410378 0.209841
vt 0.512079 0.209841
vt 0.507499 0.334410
vt 0.340091 0.335945
vt 0.328100 0.211528
vt 0.897847 0.643942
vt 0.893267 0.519373
vt 0.994968 0.519373
vt 0.990387 0.643942
vt 0.507499 0.675388
vt 0.512079 0.550819
vt 0.594356 0.552506
vt 0.582365 0.676923
vt 0.414958 0.675388
vt 0.410378 0.550819
vt 0.340091 0.676923
vt 0.328100 0.552506
vt 0.184431 0.673586
vt 0.189011 0.549017
vt 0.271289 0.550704
vt 0.259298 0.675121
vt 0.091890 0.673586
vt 0.087310 0.549017
vt 0.017023 0.675121
vt 0.005032 0.550704
vt 0.594356 0.211528
vt 0.582365 0.335945
vt 0.746826 0.255126
vt 0.687836 0.235959
vt 0.651378 0.185779
vt 0.651378 0.123753
vt 0.687836 0.073573
vt 0.842275 0.123753
vt 0.842275 0.185779
vt 0.805817 0.235959
vt 0.658815 0.033629
vt 0.604421 0.108496
vt 0.746826 0.304500
vt 0.658815 0.275903
vt 0.604421 0.201036
vt 0.834837 0.275903
vt 0.889231 0.201036
vt 0.889231 0.108496
vt 0.027607 0.762376
vt 0.030788 0.763062
vt 0.030356 0.769657
vt 0.024929 0.768487
vt 0.024274 0.760584
vt 0.019817 0.765738
vt 0.020882 0.757473
vt 0.015216 0.761517
vt 0.017727 0.753011
vt 0.011303 0.755986
vt 0.015103 0.747354
vt 0.008229 0.749357
vt 0.013235 0.740763
vt 0.006112 0.741884
vt 0.012266 0.733550
vt 0.005032 0.733857
vt 0.012266 0.726055
vt 0.005032 0.725581
vt 0.013243 0.718624
vt 0.006112 0.717377
vt 0.015146 0.711600
vt 0.008229 0.709558
vt 0.017857 0.705308
vt 0.011303 0.702426
vt 0.021196 0.700042
vt 0.015216 0.696255
vt 0.024907 0.696030
vt 0.019817 0.691281
vt 0.028675 0.693388
vt 0.024929 0.687696
vt 0.032214 0.692046
vt 0.030356 0.685638
vt 0.035457 0.691780
vt 0.035889 0.685185
vt 0.038638 0.692466
vt 0.041316 0.686356
vt 0.041971 0.694259
vt 0.046428 0.689104
vt 0.045362 0.697370
vt 0.051029 0.693326
vt 0.048518 0.701832
vt 0.054941 0.698857
vt 0.051141 0.707489
vt 0.058015 0.705486
vt 0.053009 0.714080
vt 0.060133 0.712958
vt 0.053979 0.721292
vt 0.061212 0.720986
vt 0.053979 0.728788
vt 0.061212 0.729261
vt 0.053001 0.736219
vt 0.060133 0.737466
vt 0.051099 0.743243
vt 0.058015 0.745284
vt 0.048387 0.749534
vt 0.054941 0.752416
vt 0.045049 0.754801
vt 0.051029 0.758588
vt 0.041338 0.758812
vt 0.046428 0.763562
vt 0.037569 0.761455
vt 0.041316 0.767147
vt 0.034031 0.762797
vt 0.035889 0.769205
s 1
usemtl SodaCan_Combined
f 62/1/53 22/2/13 21/3/12 63/4/54
f 63/5/54 21/6/12 23/7/14 65/8/56
f 65/8/56 23/7/14 24/9/15 67/10/58
f 67/10/58 24/9/15 25/11/16 69/12/60
f 69/13/60 25/14/16 26/15/17 71/16/62
f 71/16/62 26/15/17 27/17/18 73/18/64
f 73/18/64 27/17/18 28/19/19 75/20/66
f 75/21/66 28/22/19 29/23/20 77/24/68
f 4/25/2 2/26/2 20/27/2 18/28/2 16/29/2 14/30/2 12/31/2 10/32/2 8/33/2 6/34/2
f 77/35/68 29/36/20 30/37/21 79/38/70
f 79/38/70 30/37/21 22/2/13 62/1/53
f 11/39/7 13/40/8 87/41/78 86/42/77
f 29/43/20 28/44/19 38/45/29 39/46/30
f 24/47/15 23/48/14 33/49/24 34/50/25
f 52/51/43 51/52/42 41/53/32 42/54/33
f 58/55/49 59/56/50 49/57/40 48/58/39
f 22/59/13 30/60/21 40/61/31 32/62/23
f 26/63/17 25/64/16 35/65/26 36/66/27
f 57/67/48 58/55/49 48/58/39 47/68/38
f 56/69/47 57/70/48 47/71/38 46/72/37
f 28/44/19 27/73/18 37/74/28 38/45/29
f 23/48/14 21/75/12 31/76/22 33/49/24
f 42/77/33 41/78/32 31/79/22 32/80/23
f 41/78/32 43/81/34 33/82/24 31/79/22
f 43/81/34 44/83/35 34/84/25 33/82/24
f 44/83/35 45/85/36 35/86/26 34/84/25
f 45/85/36 46/87/37 36/88/27 35/86/26
f 46/87/37 47/89/38 37/90/28 36/88/27
f 47/89/38 48/91/39 38/92/29 37/90/28
f 48/91/39 49/93/40 39/94/30 38/92/29
f 49/93/40 50/95/41 40/96/31 39/94/30
f 50/95/41 42/77/33 32/80/23 40/96/31
f 59/56/50 60/97/51 50/98/41 49/57/40
f 21/75/12 22/59/13 32/62/23 31/76/22
f 51/52/42 53/99/44 43/100/34 41/53/32
f 60/101/51 52/51/43 42/54/33 50/102/41
f 27/73/18 26/63/17 36/66/27 37/74/28
f 53/103/44 54/104/45 44/105/35 43/106/34
f 54/107/45 55/108/46 45/109/36 44/110/35
f 25/64/16 24/47/15 34/50/25 35/65/26
f 30/60/21 29/43/20 39/46/30 40/61/31
f 55/108/46 56/69/47 46/72/37 45/109/36
f 2/26/2 4/25/2 51/111/42 52/112/43
f 4/25/2 6/34/2 53/113/44 51/111/42
f 6/34/2 8/33/2 54/114/45 53/113/44
f 8/33/2 10/32/2 55/115/46 54/114/45
f 10/32/2 12/31/2 56/116/47 55/115/46
f 12/31/2 14/30/2 57/117/48 56/116/47
f 14/30/2 16/29/2 58/118/49 57/117/48
f 16/29/2 18/28/2 59/119/50 58/118/49
f 18/28/2 20/27/2 60/120/51 59/119/50
f 20/27/2 2/26/2 52/112/43 60/120/51
f 19/121/11 80/122/71 61/123/52 1/124/1
f 80/122/71 79/38/70 62/1/53 61/123/52
f 17/125/10 78/126/69 80/122/71 19/121/11
f 78/126/69 77/35/68 79/38/70 80/122/71
f 15/127/9 76/128/67 78/129/69 17/130/10
f 76/128/67 75/21/66 77/24/68 78/129/69
f 13/131/8 74/132/65 76/133/67 15/134/9
f 74/132/65 73/18/64 75/20/66 76/133/67
f 11/135/7 72/136/63 74/132/65 13/131/8
f 72/136/63 71/16/62 73/18/64 74/132/65
f 9/137/6 70/138/61 72/136/63 11/135/7
f 70/138/61 69/13/60 71/16/62 72/136/63
f 7/139/5 68/140/59 70/141/61 9/142/6
f 68/140/59 67/10/58 69/12/60 70/141/61
f 5/143/4 66/144/57 68/140/59 7/139/5
f 66/144/57 65/8/56 67/10/58 68/140/59
f 3/145/3 64/146/55 66/144/57 5/143/4
f 64/146/55 63/5/54 65/8/56 66/144/57
f 1/124/1 61/123/52 64/147/55 3/148/3
f 61/123/52 62/1/53 63/4/54 64/147/55
f 81/149/72 82/150/73 83/151/74 84/152/75 85/153/76 86/42/77 87/41/78 88/154/79 89/155/80 90/156/81
f 9/157/6 11/39/7 86/42/77 85/153/76
f 7/158/5 9/157/6 85/153/76 84/152/75
f 1/159/1 3/160/3 82/150/73 81/149/72
f 5/161/4 7/158/5 84/152/75 83/151/74
f 3/160/3 5/161/4 83/151/74 82/150/73
f 19/162/11 1/159/1 81/149/72 90/156/81
f 17/163/10 19/162/11 90/156/81 89/155/80
f 15/164/9 17/163/10 89/155/80 88/154/79
f 13/40/8 15/164/9 88/154/79 87/41/78
f 123/165/2 124/166/2 91/167/2 92/168/2
f 125/169/2 123/165/2 92/168/2 93/170/2
f 126/171/2 125/169/2 93/170/2 94/172/2
f 127/173/2 126/171/2 94/172/2 95/174/2
f 128/175/2 127/173/2 95/174/2 96/176/2
f 129/177/2 128/175/2 96/176/2 97/178/2
f 130/179/2 129/177/2 97/178/2 98/180/2
f 131/181/2 130/179/2 98/180/2 99/182/2
f 132/183/2 131/181/2 99/182/2 100/184/2
f 133/185/2 132/183/2 100/184/2 101/186/2
f 134/187/2 133/185/2 101/186/2 102/188/2
f 135/189/2 134/187/2 102/188/2 103/190/2
f 136/191/2 135/189/2 103/190/2 104/192/2
f 137/193/2 136/191/2 104/192/2 105/194/2
f 138/195/2 137/193/2 105/194/2 106/196/2
f 139/197/2 138/195/2 106/196/2 107/198/2
f 140/199/2 139/197/2 107/198/2 108/200/2
f 141/201/2 140/199/2 108/200/2 109/202/2
f 142/203/2 141/201/2 109/202/2 110/204/2
f 143/205/2 142/203/2 110/204/2 111/206/2
f 144/207/2 143/205/2 111/206/2 112/208/2
f 145/209/2 144/207/2 112/208/2 113/210/2
f 146/211/2 145/209/2 113/210/2 114/212/2
f 147/213/2 146/211/2 114/212/2 115/214/2
f 148/215/2 147/213/2 115/214/2 116/216/2
f 149/217/2 148/215/2 116/216/2 117/218/2
f 150/219/2 149/217/2 117/218/2 118/220/2
f 151/221/2 150/219/2 118/220/2 119/222/2
f 152/223/2 151/221/2 119/222/2 120/224/2
f 153/225/2 152/223/2 120/224/2 121/226/2
f 154/227/2 153/225/2 121/226/2 122/228/2
f 124/166/2 154/227/2 122/228/2 91/167/2
