# Blender 4.3.2
# www.blender.org
mtllib boardModel.mtl
o Board.001
v -8.996194 -0.884376 5.423608
v -9.111079 -0.849001 5.649591
v -9.423870 -0.849001 5.423608
v -9.111079 0.849001 5.649591
v -8.996194 0.884376 5.423608
v -9.423870 0.849001 5.423608
v -8.996194 -0.884376 -5.423608
v -9.423870 -0.849001 -5.423608
v -9.111079 -0.849001 -5.649591
v -8.996194 0.884376 -5.423608
v -9.111079 0.849001 -5.649591
v -9.423870 0.849001 -5.423608
v 8.629552 -0.884376 5.423608
v 8.942343 -0.424193 0.948934
v 8.629552 -0.849001 5.649591
v 8.629552 0.884376 5.423608
v 8.629552 0.849001 5.649591
v 8.942343 0.424193 0.948934
v 8.629552 -0.884376 -5.423608
v 8.629552 -0.849001 -5.649591
v 8.942343 -0.424193 -0.948934
v 8.629552 0.884376 -5.423608
v 8.942343 0.424193 -0.948934
v 8.629552 0.849001 -5.649591
v 8.942343 0.849001 -5.423608
v 8.942343 -0.849001 -5.423608
v 8.942343 -0.849001 5.423608
v 8.942343 0.849001 5.423608
v 12.606286 0.424193 -0.948934
v 12.606286 -0.424193 -0.948934
v 12.606286 -0.424193 0.948934
v 12.606286 0.424193 0.948934
v 14.848604 0.464052 -1.038099
v 14.848604 -0.464052 -1.038099
v 14.848604 -0.464052 1.038099
v 14.848604 0.464052 1.038099
v 12.769880 0.444447 -1.003860
v 14.558573 0.497386 -1.133255
v 14.558573 -0.497386 -1.133255
v 12.769880 -0.444447 -1.003860
v 14.558573 -0.497386 1.133255
v 12.769880 -0.444447 1.003860
v 12.769880 0.444447 1.003860
v 14.558573 0.497386 1.133255
vn 0.1044 -0.9230 0.3704
vn 0.1044 0.9230 0.3704
vn -0.1023 0.9334 0.3440
vn -0.1023 -0.9334 0.3440
vn 0.3178 0.9368 -0.1467
vn 0.3178 0.9368 0.1465
vn -0.0924 0.9755 0.1995
vn -0.0924 0.9755 -0.1995
vn 0.0440 0.9972 -0.0609
vn -0.0330 0.9978 -0.0576
vn -0.0330 0.9978 0.0576
vn 0.0440 0.9972 0.0609
vn -0.2308 -0.9650 0.1248
vn -0.2308 0.9650 0.1248
vn -0.2308 0.9650 -0.1248
vn -0.2308 -0.9650 -0.1248
vn -0.1023 -0.9334 -0.3440
vn -0.1023 0.9334 -0.3440
vn 0.1044 0.9230 -0.3704
vn 0.1044 -0.9230 -0.3704
vn -0.0330 -0.9978 0.0576
vn -0.0330 -0.9978 -0.0576
vn 0.0440 -0.9972 0.0609
vn 0.2753 -0.9498 0.1487
vn 0.2753 0.9498 0.1487
vn 0.0440 -0.9972 -0.0609
vn 0.2753 -0.9498 -0.1487
vn 0.2753 0.9498 -0.1487
vn 0.3178 -0.9368 -0.1466
vn 0.3178 -0.9368 0.1466
vn 0.0357 -0.9898 0.1381
vn 0.0357 -0.9898 -0.1381
vn 0.3065 -0.9233 -0.2313
vn 0.3065 -0.9233 0.2314
vn -0.0924 -0.9755 -0.1995
vn -0.0924 -0.9755 0.1995
vn 0.0357 0.9898 -0.1381
vn 0.0357 0.9898 0.1381
vn 0.3065 0.9233 0.2313
vn 0.3065 0.9233 -0.2314
vn -0.0844 -0.9838 0.1580
vn -0.0843 0.9838 0.1580
vn -0.0844 -0.9838 -0.1580
vn -0.0843 0.9838 -0.1580
vt 0.341437 0.390875
vt 0.057767 0.390875
vt 0.057767 0.055772
vt 0.341437 0.055772
vt 0.398717 0.810032
vt 0.349085 0.810032
vt 0.349085 0.741057
vt 0.398717 0.741057
vt 0.341437 0.395784
vt 0.341437 0.727595
vt 0.057767 0.727595
vt 0.057767 0.395784
vt 0.936323 0.633800
vt 0.652653 0.633800
vt 0.652653 0.350129
vt 0.936323 0.350129
vt 0.641835 0.384835
vt 0.358165 0.384835
vt 0.358165 0.049731
vt 0.641835 0.049731
vt 0.358165 0.404337
vt 0.352255 0.401672
vt 0.358165 0.395784
vt 0.051857 0.730260
vt 0.057767 0.736148
vt 0.641835 0.404337
vt 0.641835 0.395784
vt 0.647745 0.401672
vt 0.347347 0.730260
vt 0.341437 0.736148
vt 0.948143 0.055641
vt 0.942233 0.055641
vt 0.942233 0.049731
vt 0.652653 0.055641
vt 0.658563 0.049731
vt 0.658563 0.055641
vt 0.948143 0.339312
vt 0.942233 0.345221
vt 0.942233 0.339312
vt 0.652653 0.339312
vt 0.658563 0.339312
vt 0.658563 0.345221
vt 0.057767 0.049731
vt 0.341437 0.049731
vt 0.641835 0.390875
vt 0.358165 0.390875
vt 0.647745 0.049863
vt 0.647745 0.382797
vt 0.352255 0.382797
vt 0.352255 0.049863
vt 0.347347 0.057810
vt 0.347347 0.390743
vt 0.051857 0.390743
vt 0.051857 0.057810
vt 0.641835 0.736148
vt 0.358165 0.736148
vt 0.729532 0.222292
vt 0.871264 0.222292
vt 0.871264 0.172660
vt 0.729532 0.172660
vt 0.344177 0.907245
vt 0.284905 0.907245
vt 0.287393 0.901676
vt 0.341689 0.901676
vt 0.051857 0.895017
vt 0.051857 0.753284
vt 0.121065 0.753284
vt 0.121065 0.895017
vt 0.279997 0.753284
vt 0.279997 0.895017
vt 0.210788 0.895017
vt 0.210788 0.753284
vt 0.403626 0.741057
vt 0.453258 0.741057
vt 0.453258 0.810032
vt 0.403626 0.810032
vt 0.284905 0.741057
vt 0.344177 0.741057
vt 0.341689 0.746626
vt 0.287393 0.746626
vt 0.173804 0.741057
vt 0.173804 0.907245
vt 0.168381 0.901676
vt 0.168381 0.746626
vt 0.207666 0.898401
vt 0.207666 0.749901
vt 0.536831 0.792125
vt 0.536831 0.742493
vt 0.540215 0.741057
vt 0.540215 0.793561
vt 0.548507 0.742493
vt 0.548507 0.792125
vt 0.545123 0.793561
vt 0.545123 0.741057
vt 0.124188 0.749901
vt 0.124188 0.898401
vt 0.158050 0.741057
vt 0.158050 0.907245
vt 0.492590 0.741057
vt 0.492590 0.800329
vt 0.458166 0.796945
vt 0.458166 0.744441
vt 0.497499 0.800329
vt 0.497499 0.741057
vt 0.531923 0.744440
vt 0.531923 0.796945
vt 0.163473 0.746626
vt 0.163473 0.901676
s 1
usemtl Board_MAT
f 15/1/1 17/2/2 4/3/3 2/4/4
f 23/5/5 18/6/6 32/7/7 29/8/8
f 22/9/9 10/10/10 5/11/11 16/12/12
f 3/13/13 6/14/14 12/15/15 8/16/16
f 9/17/17 11/18/18 24/19/19 20/20/20
f 1/21/21 2/22/4 3/23/13
f 4/24/3 5/11/11 6/25/14
f 7/26/22 8/27/16 9/28/17
f 10/10/10 11/29/18 12/30/15
f 13/31/23 27/32/24 15/33/1
f 16/34/12 17/35/2 28/36/25
f 19/37/26 20/38/20 26/39/27
f 22/40/9 25/41/28 24/42/19
f 7/26/22 1/21/21 3/23/13 8/27/16
f 2/4/4 4/3/3 6/43/14 3/44/13
f 5/11/11 10/10/10 12/30/15 6/25/14
f 11/18/18 9/17/17 8/45/16 12/46/15
f 19/47/26 7/48/22 9/17/17 20/20/20
f 10/49/10 22/50/9 24/19/19 11/18/18
f 25/41/28 26/39/27 20/38/20 24/42/19
f 13/31/23 19/37/26 26/39/27 27/32/24
f 22/40/9 16/34/12 28/36/25 25/41/28
f 17/35/2 15/33/1 27/32/24 28/36/25
f 1/51/21 13/52/23 15/1/1 2/4/4
f 16/53/12 5/54/11 4/3/3 17/2/2
f 7/26/22 19/55/26 13/56/23 1/21/21
f 23/57/5 21/58/29 26/39/27 25/41/28
f 21/58/29 14/59/30 27/32/24 26/39/27
f 18/60/6 23/57/5 25/41/28 28/36/25
f 14/59/30 18/60/6 28/36/25 27/32/24
f 41/61/31 39/62/32 34/63/33 35/64/34
f 21/65/29 23/66/5 29/67/8 30/68/35
f 18/69/6 14/70/30 31/71/36 32/72/7
f 14/73/30 21/74/29 30/75/35 31/76/36
f 38/77/37 44/78/38 36/79/39 33/80/40
f 44/81/38 41/82/31 35/83/34 36/84/39
f 32/72/7 31/71/36 42/85/41 43/86/42
f 34/63/33 33/80/40 36/79/39 35/64/34
f 31/87/36 30/88/35 40/89/43 42/90/41
f 29/91/8 32/92/7 43/93/42 37/94/44
f 30/68/35 29/67/8 37/95/44 40/96/43
f 38/97/37 39/98/32 40/96/43 37/95/44
f 39/99/32 41/100/31 42/101/41 40/102/43
f 44/103/38 38/104/37 37/105/44 43/106/42
f 41/82/31 44/81/38 43/86/42 42/85/41
f 39/98/32 38/97/37 33/107/40 34/108/33
