# Blender 4.3.2
# www.blender.org
mtllib sandwichModel.mtl
o Cube.001
v -0.195322 1.842426 -0.086870
v -0.195322 2.209743 -0.086870
v -0.058481 1.842426 -0.427745
v -0.058481 2.209743 -0.427745
v 0.057504 1.842426 0.014624
v 0.057502 2.209743 0.014624
v 0.194345 1.842426 -0.326251
v 0.194345 2.209743 -0.326251
v -0.154603 1.802180 -0.268428
v -0.238017 2.026084 -0.060642
v -0.154603 2.249989 -0.268428
v -0.071188 2.026084 -0.476214
v 0.082925 1.802180 -0.414347
v 0.082925 2.249989 -0.414347
v 0.237040 2.026084 -0.352479
v 0.153625 1.802180 -0.144693
v 0.153625 2.249989 -0.144693
v 0.070210 2.026084 0.063094
v -0.083902 1.802180 0.001226
v -0.083902 2.249989 0.001226
v -0.212737 2.026084 -0.291765
v 0.114390 2.026084 -0.492727
v 0.211760 2.026084 -0.121355
v -0.115367 2.026084 0.079606
v -0.000488 1.717721 -0.206560
v -0.000488 2.334448 -0.206560
v -2.275988 0.938277 -0.042469
v -2.275988 1.531352 -0.042469
v -1.530900 0.938277 -1.898499
v -1.530900 1.531352 -1.898499
v 1.529924 0.938278 1.485379
v 1.529924 1.531353 1.485379
v 2.275011 0.938277 -0.370651
v 2.275011 1.531352 -0.370651
v 1.740175 0.584476 1.717820
v -2.588599 0.584476 -0.019926
v 2.755538 0.603433 -0.295715
v -1.741151 0.584475 -2.130940
v -1.741151 0.584475 -2.130940
v 1.740175 0.584476 1.717820
v -2.588599 0.584476 -0.019926
v 2.755538 0.603433 -0.295715
v -2.415543 0.467218 -1.123153
v 0.264205 0.564092 -1.802754
v 2.163898 0.584476 0.662313
v -0.483246 0.479261 1.193819
v -0.000488 0.584476 -0.206560
v 2.152250 0.500768 1.146587
v -2.422553 0.500767 0.235975
v 2.779326 0.519725 -1.019530
v -1.978475 0.500767 -1.995021
v -1.978475 0.500767 -1.995021
v 2.152250 0.500768 1.146587
v -2.422553 0.500767 0.235975
v 2.779326 0.519725 -1.019530
v -2.455682 0.383512 -0.880252
v 0.053019 0.480385 -2.041854
v 2.374289 0.500767 0.031089
v -0.129649 0.395554 1.041126
v 0.086887 0.500767 -0.424217
v -2.275988 0.773574 -0.042469
v -2.275988 0.936203 -0.042469
v -1.530900 0.773573 -1.898499
v -1.530900 0.936202 -1.898499
v 1.529924 0.773574 1.485379
v 1.529924 0.936203 1.485379
v 2.275011 0.773574 -0.370651
v 2.275011 0.936203 -0.370651
v -2.275988 0.605466 -0.042469
v -2.275988 0.799330 -0.042469
v -1.530900 0.605466 -1.898499
v -1.530900 0.799330 -1.898499
v 1.529924 0.605467 1.485379
v 1.529924 0.799331 1.485379
v 2.275011 0.605466 -0.370651
v 2.275011 0.799330 -0.370651
v -2.275988 -0.133235 -0.042469
v -2.275988 0.459841 -0.042469
v -1.530900 -0.133235 -1.898499
v -1.530900 0.459840 -1.898499
v 1.529924 -0.133234 1.485379
v 1.529924 0.459841 1.485379
v 2.275011 -0.133235 -0.370651
v 2.275011 0.459841 -0.370651
v 0.025268 1.187508 -0.270719
v 0.025268 2.021120 -0.270719
v 0.048221 1.187508 -0.247277
v 0.048221 2.021120 -0.247277
v 0.052568 1.187508 -0.208282
v 0.052568 2.021120 -0.208282
v 0.036651 1.187508 -0.168630
v 0.036651 2.021120 -0.168630
v 0.006546 1.187508 -0.143465
v 0.006546 2.021120 -0.143465
v -0.026245 1.187508 -0.142401
v -0.026245 2.021120 -0.142401
v -0.049198 1.187508 -0.165843
v -0.049198 2.021120 -0.165843
v -0.053545 1.187508 -0.204838
v -0.053545 2.021120 -0.204838
v -0.037627 1.187508 -0.244490
v -0.037627 2.021120 -0.244490
v -0.007524 1.187508 -0.269655
v -0.007524 2.021120 -0.269655
vn -0.8310 -0.5118 0.2179
vn -0.9673 -0.0000 0.2536
vn -0.9280 -0.0000 -0.3725
vn -0.7454 -0.5957 -0.2992
vn -0.8310 0.5118 0.2179
vn -0.7454 0.5957 -0.2992
vn -0.4497 0.5118 -0.7320
vn -0.5234 -0.0000 -0.8521
vn -0.4497 -0.5118 -0.7320
vn 0.3725 -0.0000 -0.9280
vn 0.2634 -0.7071 -0.6562
vn 0.2634 0.7071 -0.6562
vn 0.8310 0.5118 -0.2179
vn 0.9673 -0.0000 -0.2536
vn 0.8310 -0.5118 -0.2179
vn 0.9280 -0.0000 0.3725
vn 0.7454 -0.5957 0.2992
vn 0.7454 0.5957 0.2992
vn 0.4497 0.5118 0.7320
vn 0.5234 -0.0000 0.8521
vn 0.4497 -0.5118 0.7320
vn -0.3725 -0.0000 0.9280
vn -0.2634 -0.7071 0.6562
vn -0.2634 0.7071 0.6562
vn -0.0000 -1.0000 -0.0000
vn -0.0000 1.0000 -0.0000
vn -0.6209 0.7719 0.1365
vn -0.3292 -0.1640 0.9299
vn 0.0158 -0.9715 0.2366
vn -0.0203 0.9568 0.2901
vn -0.1741 0.9839 0.0405
vn -0.4440 0.8355 -0.3237
vn -0.9034 -0.1510 -0.4014
vn -0.1286 0.9890 -0.0729
vn 0.0527 -0.9986 0.0102
vn 0.1180 -0.9928 -0.0193
vn 0.1152 0.9931 -0.0205
vn 0.4792 -0.0187 -0.8775
vn 0.0164 -0.9998 -0.0107
vn -0.6180 0.7407 0.2636
vn -0.1498 -0.1622 0.9753
vn 0.0591 -0.9715 0.2296
vn 0.0359 0.9507 0.3079
vn -0.1637 0.9839 0.0719
vn -0.4656 0.8575 -0.2188
vn -0.9605 -0.1543 -0.2316
vn -0.1398 0.9890 -0.0479
vn 0.0541 -0.9985 -0.0002
vn 0.1124 -0.9928 -0.0407
vn 0.1016 0.9941 -0.0382
vn 0.3113 -0.0176 -0.9501
vn 0.0133 -0.9998 -0.0123
vn 0.7145 -0.0000 -0.6996
vn 0.9938 -0.0000 -0.1108
vn 0.6414 -0.0000 0.7672
vn 0.0324 -0.0000 0.9995
vn -0.7145 -0.0000 0.6996
vn -0.9938 -0.0000 0.1108
vn -0.6414 -0.0000 -0.7672
vn -0.0324 -0.0000 -0.9995
vt 0.120036 0.391678
vt 0.092589 0.391678
vt 0.092589 0.364231
vt 0.120036 0.364231
vt 0.065142 0.391678
vt 0.065142 0.364231
vt 0.065142 0.336784
vt 0.092589 0.336784
vt 0.120036 0.336784
vt 0.201819 0.391678
vt 0.174372 0.391678
vt 0.174372 0.364231
vt 0.201819 0.364231
vt 0.146925 0.391678
vt 0.146925 0.364231
vt 0.146925 0.336784
vt 0.174372 0.336784
vt 0.201819 0.336784
vt 0.283602 0.391678
vt 0.256155 0.391678
vt 0.256155 0.364231
vt 0.283602 0.364231
vt 0.228708 0.391678
vt 0.228708 0.364231
vt 0.228708 0.336784
vt 0.256155 0.336784
vt 0.283602 0.336784
vt 0.365385 0.391678
vt 0.337938 0.391678
vt 0.337938 0.364231
vt 0.365385 0.364231
vt 0.310491 0.391678
vt 0.310491 0.364231
vt 0.310491 0.336784
vt 0.337938 0.336784
vt 0.365385 0.336784
vt 0.463250 0.035842
vt 0.463250 0.063289
vt 0.435802 0.063289
vt 0.435802 0.035842
vt 0.463249 0.090736
vt 0.435802 0.090736
vt 0.408355 0.090736
vt 0.408355 0.063289
vt 0.408355 0.035842
vt 0.463249 0.117625
vt 0.463249 0.145072
vt 0.435802 0.145072
vt 0.435802 0.117625
vt 0.463249 0.172519
vt 0.435802 0.172519
vt 0.408355 0.172519
vt 0.408355 0.145072
vt 0.408355 0.117625
vt 0.463249 0.254302
vt 0.408355 0.254302
vt 0.408355 0.199407
vt 0.463249 0.199407
vt 0.463249 0.336084
vt 0.408355 0.336084
vt 0.408355 0.281190
vt 0.463249 0.281190
vt 0.120036 0.473461
vt 0.065142 0.473461
vt 0.065142 0.418567
vt 0.120036 0.418567
vt 0.201819 0.473461
vt 0.146925 0.473461
vt 0.146925 0.418567
vt 0.201819 0.418567
vt 0.283602 0.418567
vt 0.283602 0.473461
vt 0.228708 0.473461
vt 0.228708 0.418567
vt 0.365385 0.418567
vt 0.365385 0.473461
vt 0.310491 0.473461
vt 0.310491 0.418567
vt 0.067465 0.243491
vt 0.095897 0.237351
vt 0.122295 0.245925
vt 0.695791 0.909264
vt 0.705778 0.937896
vt 0.695791 0.964158
vt 0.124644 0.099903
vt 0.123443 0.072531
vt 0.124644 0.045646
vt 0.122295 0.299801
vt 0.087964 0.309895
vt 0.065142 0.298083
vt 0.096106 0.073599
vt 0.097865 0.109708
vt 0.069969 0.102037
vt 0.065142 0.076563
vt 0.090217 0.035842
vt 0.067567 0.047294
vt 0.151507 0.243491
vt 0.179939 0.237351
vt 0.206337 0.245925
vt 0.732667 0.909264
vt 0.742654 0.937896
vt 0.732667 0.964158
vt 0.211034 0.099903
vt 0.209833 0.072531
vt 0.211034 0.045646
vt 0.206337 0.299801
vt 0.172006 0.309895
vt 0.149184 0.298083
vt 0.182496 0.073599
vt 0.184255 0.109708
vt 0.156360 0.102037
vt 0.151533 0.076563
vt 0.176608 0.035842
vt 0.153958 0.047294
vt 0.447168 0.473461
vt 0.392274 0.473461
vt 0.392274 0.418567
vt 0.447168 0.418567
vt 0.545032 0.090736
vt 0.490138 0.090736
vt 0.490138 0.035842
vt 0.545032 0.035842
vt 0.545032 0.172519
vt 0.490138 0.172519
vt 0.490138 0.117625
vt 0.545032 0.117625
vt 0.545032 0.254302
vt 0.490138 0.254302
vt 0.490138 0.199407
vt 0.545032 0.199407
vt 0.545032 0.281190
vt 0.545032 0.336084
vt 0.490138 0.336084
vt 0.490138 0.281190
vt 0.545032 0.362973
vt 0.545032 0.417867
vt 0.490138 0.417867
vt 0.490138 0.362973
vt 0.120036 0.555244
vt 0.065142 0.555244
vt 0.065142 0.500350
vt 0.120036 0.500350
vt 0.201819 0.555244
vt 0.146925 0.555244
vt 0.146925 0.500350
vt 0.201819 0.500350
vt 0.283602 0.555244
vt 0.228708 0.555244
vt 0.228708 0.500350
vt 0.283602 0.500350
vt 0.365385 0.555244
vt 0.310491 0.555244
vt 0.310491 0.500350
vt 0.365385 0.500350
vt 0.447168 0.500350
vt 0.447168 0.555244
vt 0.392274 0.555244
vt 0.392274 0.500350
vt 0.528951 0.500350
vt 0.528951 0.555244
vt 0.474057 0.555244
vt 0.474057 0.500350
vt 0.626815 0.090736
vt 0.571921 0.090736
vt 0.571921 0.035842
vt 0.626815 0.035842
vt 0.626815 0.172519
vt 0.571921 0.172519
vt 0.571921 0.117625
vt 0.626815 0.117625
vt 0.626815 0.254302
vt 0.571921 0.254302
vt 0.571921 0.199407
vt 0.626815 0.199407
vt 0.626815 0.336084
vt 0.571921 0.336084
vt 0.571921 0.281190
vt 0.626815 0.281190
vt 0.626815 0.362973
vt 0.626815 0.417867
vt 0.571921 0.417867
vt 0.571921 0.362973
vt 0.626815 0.444756
vt 0.626815 0.499650
vt 0.571921 0.499650
vt 0.571921 0.444756
vt 0.912776 0.744999
vt 0.912776 0.690105
vt 0.929739 0.690105
vt 0.929739 0.744999
vt 0.943463 0.690105
vt 0.943463 0.744999
vt 0.564235 0.964158
vt 0.564235 0.909264
vt 0.581199 0.909264
vt 0.581199 0.964158
vt 0.899053 0.826782
vt 0.899053 0.771888
vt 0.912776 0.771888
vt 0.912776 0.826782
vt 0.929739 0.771888
vt 0.929739 0.826782
vt 0.943463 0.771888
vt 0.943463 0.826782
vt 0.065142 0.964158
vt 0.065142 0.909264
vt 0.078866 0.909264
vt 0.078866 0.964158
vt 0.095829 0.909264
vt 0.095829 0.964158
vt 0.909023 0.249060
vt 0.899053 0.235336
vt 0.899053 0.218373
vt 0.909023 0.204649
vt 0.925156 0.199407
vt 0.941289 0.204649
vt 0.951260 0.218373
vt 0.951260 0.235336
vt 0.941289 0.249060
vt 0.925156 0.254302
vt 0.109552 0.909264
vt 0.109552 0.964158
vt 0.899053 0.744999
vt 0.899053 0.690105
vt 0.899053 0.317119
vt 0.899053 0.300156
vt 0.909023 0.286432
vt 0.925156 0.281190
vt 0.941289 0.286432
vt 0.951260 0.300156
vt 0.951260 0.317119
vt 0.941289 0.330842
vt 0.925156 0.336084
vt 0.909023 0.330842
s 1
usemtl Sandwich_MAT
f 1/1/1 10/2/2 21/3/3 9/4/4
f 10/2/2 2/5/5 11/6/6 21/3/3
f 21/3/3 11/6/6 4/7/7 12/8/8
f 9/4/4 21/3/3 12/8/8 3/9/9
f 3/10/9 12/11/8 22/12/10 13/13/11
f 12/11/8 4/14/7 14/15/12 22/12/10
f 22/12/10 14/15/12 8/16/13 15/17/14
f 13/13/11 22/12/10 15/17/14 7/18/15
f 7/19/15 15/20/14 23/21/16 16/22/17
f 15/20/14 8/23/13 17/24/18 23/21/16
f 23/21/16 17/24/18 6/25/19 18/26/20
f 16/22/17 23/21/16 18/26/20 5/27/21
f 5/28/21 18/29/20 24/30/22 19/31/23
f 18/29/20 6/32/19 20/33/24 24/30/22
f 24/30/22 20/33/24 2/34/5 10/35/2
f 19/31/23 24/30/22 10/35/2 1/36/1
f 3/37/9 13/38/11 25/39/25 9/40/4
f 13/38/11 7/41/15 16/42/17 25/39/25
f 25/39/25 16/42/17 5/43/21 19/44/23
f 9/40/4 25/39/25 19/44/23 1/45/1
f 8/46/13 14/47/12 26/48/26 17/49/18
f 14/47/12 4/50/7 11/51/6 26/48/26
f 26/48/26 11/51/6 2/52/5 20/53/24
f 17/49/18 26/48/26 20/53/24 6/54/19
f 27/55/3 28/56/3 30/57/3 29/58/3
f 29/59/10 30/60/10 34/61/10 33/62/10
f 33/63/16 34/64/16 32/65/16 31/66/16
f 31/67/22 32/68/22 28/69/22 27/70/22
f 29/71/25 33/72/25 31/73/25 27/74/25
f 34/75/26 30/76/26 28/77/26 32/78/26
f 36/79/27 46/80/28 40/81/29 35/81/30 41/79/31
f 38/82/32 43/83/33 36/84/27 41/84/31 39/82/34
f 40/85/29 45/86/35 42/87/36 37/87/37 35/85/30
f 42/88/36 44/89/38 38/90/32 39/90/34 37/88/37
f 37/88/37 39/90/34 41/79/31 35/81/30
f 47/91/39 46/92/28 36/93/27 43/94/33
f 44/95/38 47/91/39 43/94/33 38/96/32
f 42/87/36 45/86/35 47/91/39 44/95/38
f 45/86/35 40/85/29 46/92/28 47/91/39
f 49/97/40 59/98/41 53/99/42 48/99/43 54/97/44
f 51/100/45 56/101/46 49/102/40 54/102/44 52/100/47
f 53/103/42 58/104/48 55/105/49 50/105/50 48/103/43
f 55/106/49 57/107/51 51/108/45 52/108/47 50/106/50
f 50/106/50 52/108/47 54/97/44 48/99/43
f 60/109/52 59/110/41 49/111/40 56/112/46
f 57/113/51 60/109/52 56/112/46 51/114/45
f 55/105/49 58/104/48 60/109/52 57/113/51
f 58/104/48 53/103/42 59/110/41 60/109/52
f 61/115/3 62/116/3 64/117/3 63/118/3
f 63/119/10 64/120/10 68/121/10 67/122/10
f 67/123/16 68/124/16 66/125/16 65/126/16
f 65/127/22 66/128/22 62/129/22 61/130/22
f 63/131/25 67/132/25 65/133/25 61/134/25
f 68/135/26 64/136/26 62/137/26 66/138/26
f 69/139/3 70/140/3 72/141/3 71/142/3
f 71/143/10 72/144/10 76/145/10 75/146/10
f 75/147/16 76/148/16 74/149/16 73/150/16
f 73/151/22 74/152/22 70/153/22 69/154/22
f 71/155/25 75/156/25 73/157/25 69/158/25
f 76/159/26 72/160/26 70/161/26 74/162/26
f 77/163/3 78/164/3 80/165/3 79/166/3
f 79/167/10 80/168/10 84/169/10 83/170/10
f 83/171/16 84/172/16 82/173/16 81/174/16
f 81/175/22 82/176/22 78/177/22 77/178/22
f 79/179/25 83/180/25 81/181/25 77/182/25
f 84/183/26 80/184/26 78/185/26 82/186/26
f 85/187/53 86/188/53 88/189/53 87/190/53
f 87/190/54 88/189/54 90/191/54 89/192/54
f 89/193/16 90/194/16 92/195/16 91/196/16
f 91/197/55 92/198/55 94/199/55 93/200/55
f 93/200/56 94/199/56 96/201/56 95/202/56
f 95/202/57 96/201/57 98/203/57 97/204/57
f 97/205/58 98/206/58 100/207/58 99/208/58
f 99/208/3 100/207/3 102/209/3 101/210/3
f 88/211/26 86/212/26 104/213/26 102/214/26 100/215/26 98/216/26 96/217/26 94/218/26 92/219/26 90/220/26
f 101/210/59 102/209/59 104/221/59 103/222/59
f 103/223/60 104/224/60 86/188/60 85/187/60
f 85/225/25 87/226/25 89/227/25 91/228/25 93/229/25 95/230/25 97/231/25 99/232/25 101/233/25 103/234/25
