# Blender 4.3.2
# www.blender.org
mtllib hammer.mtl
o Cube
v 0.839506 -0.000000 -7.080236
v -0.000000 -0.839506 -7.080236
v -0.839506 0.000000 -7.080236
v -0.609568 -0.609568 3.246316
v -0.000000 0.839506 -7.080236
v 0.609568 -0.609568 -7.080236
v -0.609568 0.609568 -7.080236
v 0.609568 0.609568 3.246316
v 0.609568 0.609568 -7.080236
v -0.609568 0.609568 3.246316
v 0.609568 -0.609568 3.246316
v -0.000000 0.839506 3.246316
v -0.609568 -0.609568 -7.080236
v -0.839506 0.000000 3.246316
v -0.000000 -0.839506 3.246316
v 0.839506 -0.000000 3.246316
vn 0.7720 -0.0000 -0.6356
vn -0.0000 -0.7720 -0.6356
vn -0.7720 -0.0000 -0.6356
vn -0.5520 -0.5520 0.6251
vn -0.0000 0.7720 -0.6356
vn 0.5520 -0.5520 -0.6251
vn -0.5520 0.5520 -0.6251
vn 0.5520 0.5520 0.6251
vn 0.5520 0.5520 -0.6251
vn -0.5520 0.5520 0.6251
vn 0.5520 -0.5520 0.6251
vn -0.0000 0.7720 0.6356
vn -0.5520 -0.5520 -0.6251
vn -0.7720 -0.0000 0.6356
vn -0.0000 -0.7720 0.6356
vn 0.7720 -0.0000 0.6356
vt 0.000000 0.000000
s 1
usemtl Material.002
f 8/1/8 16/1/16 1/1/1 9/1/9
f 10/1/10 14/1/14 4/1/4 15/1/15 11/1/11 16/1/16 8/1/8 12/1/12
f 10/1/10 7/1/7 3/1/3 14/1/14
f 4/1/4 13/1/13 2/1/2 15/1/15
f 8/1/8 9/1/9 5/1/5 12/1/12
f 10/1/10 12/1/12 5/1/5 7/1/7
f 11/1/11 15/1/15 2/1/2 6/1/6
f 4/1/4 14/1/14 3/1/3 13/1/13
f 11/1/11 6/1/6 1/1/1 16/1/16
f 13/1/13 3/1/3 7/1/7 5/1/5 9/1/9 1/1/1 6/1/6 2/1/2
o Cube.001
v -0.812467 -0.812467 -7.131618
v -0.812467 0.812468 -7.131618
v -0.812467 -0.812467 -9.827538
v -0.812467 0.812467 -9.827538
v 1.031149 -0.490409 -8.187075
v 1.031149 0.490409 -8.187075
v 1.031149 -0.490409 -9.343047
v 1.031149 0.490409 -9.343047
v -1.051427 -0.990508 -8.660913
v -0.990508 -0.000000 -6.921783
v -1.051427 0.990508 -8.660913
v -0.990508 -0.000000 -9.827538
v 0.000000 -0.990508 -9.827538
v -0.000000 0.990508 -9.827538
v 1.141360 -0.000000 -9.470951
v 1.141360 -0.598932 -8.765061
v 1.141360 0.598932 -8.765061
v 1.141360 0.000000 -8.059171
v -0.000000 -0.990508 -6.921783
v 0.000000 0.990508 -6.921783
v -1.050042 0.000000 -8.660913
v 2.478945 0.026331 -9.818922
v -0.000000 0.000000 -6.357058
v -0.000000 -1.364143 -8.765061
v -0.000000 1.016162 -8.765061
v 0.812467 0.812467 -9.827538
v 0.990508 -0.000000 -9.827538
v 0.812467 -0.812467 -9.827538
v 0.812467 -0.812467 -7.131618
v 0.990508 -0.990508 -8.765061
v 0.990508 0.990508 -8.765061
v 0.812467 0.812467 -7.131618
v 0.990508 -0.000000 -6.921783
v 1.879731 -0.000000 -9.470951
v 3.884708 0.026331 -9.818922
v 1.879731 0.598932 -8.765061
v 1.879731 0.000000 -8.059171
v 1.879731 -0.598932 -8.765061
v 1.769521 0.490409 -9.343047
v 2.478945 -0.727388 -9.622344
v 1.769521 -0.490409 -8.187075
v 1.769521 0.490409 -8.187075
v 2.478945 0.946841 -8.734027
v 2.478945 0.026331 -7.649131
v 2.478945 -0.894179 -8.734027
v 2.478945 0.780050 -9.622344
v 2.478945 -0.727388 -7.845708
v 2.478945 0.780050 -7.845708
v 3.884708 0.026331 -8.734027
v 3.884708 0.946841 -8.734027
v 3.884708 0.026331 -7.649131
v 3.884708 -0.894179 -8.734027
v 3.884708 0.780050 -9.622344
v 3.884708 -0.727388 -9.622344
v 3.884708 -0.727388 -7.845708
v 3.884708 0.780050 -7.845708
v 1.859862 -0.432167 -9.308482
v -2.998405 -0.812467 -9.304474
v -2.998405 -0.990508 -8.241998
v -2.998405 0.990508 -8.241998
v -2.998405 0.812468 -9.304474
v -2.998405 0.000000 -9.304474
v -2.606657 -0.037602 -8.353257
v -4.214069 -0.812467 -8.070836
v -4.214069 -0.990508 -7.822551
v -4.214069 0.990508 -7.822551
v -4.214069 0.812468 -8.070836
v -3.150560 -0.063213 -9.057069
v -3.150511 -0.045674 -8.527894
vn -0.6809 -0.5936 0.4289
vn -0.6408 0.6518 0.4056
vn -0.1829 -0.6120 -0.7694
vn -0.1207 0.6660 -0.7361
vn 0.7747 -0.5092 0.3749
vn 0.7747 0.5092 0.3749
vn 0.7290 -0.5123 -0.4539
vn 0.7220 0.5184 -0.4582
vn -0.3878 -0.8995 0.2014
vn -0.8381 -0.0000 0.5455
vn -0.2969 0.9304 0.2148
vn -0.1390 -0.0000 -0.9903
vn -0.0020 -0.6906 -0.7232
vn -0.0008 0.7643 -0.6449
vn 0.6097 -0.0162 -0.7925
vn 0.5860 -0.8095 -0.0368
vn 0.5747 0.8182 -0.0184
vn 0.7018 -0.0000 0.7124
vn 0.0055 -0.8117 0.5840
vn 0.0022 0.8464 0.5326
vn -0.6585 0.0001 0.7526
vn -0.2524 -0.0126 -0.9675
vn -0.0000 -0.0000 1.0000
vn 0.0031 -0.9987 -0.0502
vn 0.0013 0.9998 -0.0211
vn 0.4823 0.5967 -0.6414
vn 0.6706 -0.0000 -0.7418
vn 0.5255 -0.5251 -0.6694
vn 0.6552 -0.6232 0.4269
vn 0.7091 -0.7038 -0.0423
vn 0.6434 0.7650 -0.0277
vn 0.6104 0.6797 0.4067
vn 0.8271 -0.0000 0.5621
vn -0.2821 -0.0366 -0.9587
vn 0.7207 -0.0000 -0.6932
vn -0.2773 0.9608 -0.0021
vn -0.3221 -0.0029 0.9467
vn -0.2440 -0.9691 -0.0348
vn -0.2673 0.7286 -0.6306
vn -0.2619 -0.7361 -0.6241
vn -0.2665 -0.7410 0.6164
vn -0.2909 0.7295 0.6190
vn -0.2313 0.9729 0.0013
vn -0.2698 0.0017 0.9629
vn -0.2197 -0.9755 -0.0118
vn -0.2564 0.7411 -0.6206
vn -0.2569 -0.7329 0.6300
vn -0.2747 0.7332 0.6221
vn 1.0000 -0.0000 -0.0000
vn 0.6616 0.7499 -0.0000
vn 0.7207 -0.0000 0.6932
vn 0.6616 -0.7499 -0.0000
vn 0.6326 0.5906 -0.5011
vn 0.6326 -0.5906 -0.5011
vn 0.6326 -0.5906 0.5011
vn 0.6326 0.5906 0.5011
vn -0.2784 -0.7195 -0.6362
vn -0.3948 -0.6113 -0.6859
vn 0.0162 -0.8060 0.5917
vn 0.0184 0.8099 0.5863
vn -0.3928 0.6132 -0.6854
vn -0.5188 -0.0032 -0.8549
vn 0.1785 0.0029 0.9839
vn -0.9752 0.0223 -0.2204
vn -0.7259 -0.5249 0.4444
vn -0.6895 0.5403 0.4825
vn -0.9814 0.0024 -0.1917
vn -0.8512 0.0192 -0.5245
vn -0.3586 0.0195 0.9333
vt 0.375000 0.000000
vt 0.500000 0.000000
vt 0.500000 0.125000
vt 0.375000 0.125000
vt 0.625000 0.000000
vt 0.625000 0.125000
vt 0.875000 0.625000
vt 0.875000 0.500000
vt 0.500000 0.250000
vt 0.750000 0.500000
vt 0.625000 0.500000
vt 0.500000 0.500000
vt 0.375000 0.500000
vt 0.250000 0.500000
vt 0.375000 0.250000
vt 0.500121 0.549537
vt 0.568313 0.556687
vt 0.431687 0.693313
vt 0.424537 0.625121
vt 0.575463 0.624879
vt 0.568313 0.693313
vt 0.500121 0.700463
vt 0.375000 0.750000
vt 0.500000 0.750000
vt 0.500000 0.875000
vt 0.375000 0.875000
vt 0.625000 0.750000
vt 0.625000 0.875000
vt 0.625000 1.000000
vt 0.500000 1.000000
vt 0.375000 1.000000
vt 0.125000 0.500000
vt 0.250000 0.625000
vt 0.125000 0.625000
vt 0.375000 0.625000
vt 0.250000 0.750000
vt 0.125000 0.750000
vt 0.750000 0.625000
vt 0.625000 0.625000
vt 0.875000 0.750000
vt 0.750000 0.750000
vt 0.431687 0.556687
vt 0.500000 0.625000
vt 0.625000 0.250000
s 1
usemtl Material.001
f 17/2/17 26/3/26 37/4/37 25/5/25
f 26/3/26 18/6/18 27/7/27 37/4/37
f 27/8/27 20/9/20 77/9/77 76/8/76
f 25/5/25 37/4/37 79/4/79 75/5/75
f 28/10/28 20/9/20 30/11/30 42/12/42 43/13/43 44/14/44 29/15/29 19/16/19
f 31/17/31 24/18/24 55/18/55 50/17/50
f 21/19/21 32/20/32 54/20/54 57/19/57
f 24/18/24 33/21/33 52/21/52 55/18/55
f 22/22/22 34/23/34 53/23/53 58/22/58
f 45/24/45 49/25/49 39/26/39 35/27/35
f 49/25/49 48/28/48 36/29/36 39/26/39
f 39/26/39 36/29/36 18/30/18 26/31/26
f 35/27/35 39/26/39 26/31/26 17/32/17
f 19/33/19 29/15/29 40/34/40 25/35/25
f 29/15/29 44/14/44 46/36/46 40/34/40
f 40/34/40 46/36/46 45/24/45 35/37/35
f 25/35/25 40/34/40 35/37/35 17/38/17
f 42/12/42 30/11/30 41/39/41 47/40/47
f 30/11/30 20/9/20 27/8/27 41/39/41
f 41/39/41 27/8/27 18/41/18 36/42/36
f 47/40/47 41/39/41 36/42/36 48/28/48
f 24/18/24 31/17/31 43/13/43 42/12/42
f 31/17/31 23/43/23 44/14/44 43/13/43
f 32/20/32 21/19/21 45/24/45 46/36/46
f 23/43/23 32/20/32 46/36/46 44/14/44
f 33/21/33 24/18/24 42/12/42 47/40/47
f 22/22/22 33/21/33 47/40/47 48/28/48
f 34/23/34 22/22/22 48/28/48 49/25/49
f 21/19/21 34/23/34 49/25/49 45/24/45
f 50/17/50 55/18/55 62/18/62 38/17/38
f 57/19/57 54/20/54 61/20/61 63/19/63
f 55/18/55 52/21/52 59/21/59 62/18/62
f 58/22/58 53/23/53 60/23/60 64/22/64
f 34/23/34 21/19/21 57/19/57 53/23/53
f 33/21/33 22/22/22 58/22/58 52/21/52
f 32/20/32 23/43/23 73/43/73 54/20/54
f 23/43/23 31/17/31 50/17/50 73/43/73
f 64/22/64 60/23/60 67/23/67 72/22/72
f 63/19/63 61/20/61 68/20/68 71/19/71
f 59/21/59 64/22/64 72/22/72 66/21/66
f 56/43/56 38/17/38 51/17/51 70/43/70
f 53/23/53 57/19/57 63/19/63 60/23/60
f 52/21/52 58/22/58 64/22/64 59/21/59
f 77/9/77 78/10/78 84/10/84 83/9/83
f 79/4/79 76/7/76 82/7/82 85/4/85
f 70/43/70 51/17/51 65/44/65 68/20/68
f 51/17/51 69/18/69 66/21/66 65/44/65
f 65/44/65 66/21/66 72/22/72 67/23/67
f 68/20/68 65/44/65 67/23/67 71/19/71
f 61/20/61 56/43/56 70/43/70 68/20/68
f 38/17/38 62/18/62 69/18/69 51/17/51
f 60/23/60 63/19/63 71/19/71 67/23/67
f 62/18/62 59/21/59 66/21/66 69/18/69
f 37/4/37 27/7/27 76/7/76 79/4/79
f 56/43/56 61/20/61 54/20/54 73/43/73
f 73/43/73 50/17/50 38/17/38 56/43/56
f 20/9/20 28/10/28 78/10/78 77/9/77
f 19/33/19 25/35/25 75/35/75 74/33/74
f 28/10/28 19/16/19 74/16/74 78/10/78
f 81/5/81 85/4/85 84/10/84 80/16/80
f 85/4/85 82/7/82 83/45/83 84/10/84
f 76/8/76 77/9/77 83/9/83 82/8/82
f 78/10/78 74/16/74 80/16/80 84/10/84
f 74/33/74 75/35/75 81/35/81 80/33/80
f 75/5/75 79/4/79 85/4/85 81/5/81
