# Blender 4.3.2
# www.blender.org
mtllib glasses.mtl
o Cube.001
v 1.181538 0.268839 -0.164120
v 1.180759 0.618213 -0.050575
v 1.181538 0.268839 -0.914509
v 1.180759 0.618213 -1.028055
v 1.263355 0.267449 -0.161821
v 1.264100 0.619776 -0.047422
v 1.263355 0.267449 -0.916808
v 1.264100 0.619776 -1.031208
v 1.174183 0.228763 -0.539315
v 1.175726 0.452013 -0.081916
v 1.195038 0.622444 -0.539315
v 1.175726 0.452013 -0.996713
v 1.222523 0.191344 -0.987378
v 1.222523 0.659125 -1.100816
v 1.269272 0.451729 -0.999517
v 1.270747 0.227128 -0.539315
v 1.249828 0.624045 -0.539315
v 1.269272 0.451729 -0.079112
v 1.222523 0.191344 -0.091252
v 1.222523 0.659125 0.048131
v 1.222523 0.445511 -1.103180
v 1.222523 0.445511 0.024550
v 1.222523 0.134365 -0.539315
v 1.222523 0.667526 -0.539315
v 1.260002 0.653992 -1.100229
v 1.268215 0.445511 -1.060894
v 1.260002 0.237029 -0.967142
v 1.260002 0.237029 -0.111488
v 1.268215 0.191344 -0.539315
v 1.245864 0.659103 -0.539315
v 1.260002 0.653992 0.021600
v 1.268215 0.445511 -0.017736
v 1.185045 0.237029 -0.967142
v 1.176832 0.191344 -0.539315
v 1.185045 0.237029 -0.111488
v 1.176832 0.445511 -0.017736
v 1.185045 0.653992 0.021600
v 1.199183 0.659103 -0.539315
v 1.185045 0.653992 -1.100229
v 1.176832 0.445511 -1.060894
v -0.797884 0.534973 0.033870
v -0.797884 0.655011 0.033870
v -0.797884 0.534973 -0.033870
v -0.797884 0.655011 -0.033870
v 1.195035 0.572854 0.018495
v 1.190002 0.648948 0.024477
v 1.180308 0.551889 -0.031268
v 1.188524 0.655249 -0.043343
v -1.174598 0.125601 -0.029496
v -1.174598 0.125601 0.038244
v -1.265926 0.203501 0.038244
v -1.265926 0.203501 -0.029496
vn -0.6747 -0.3144 -0.6678
vn -0.4537 -0.0690 -0.8885
vn 0.4537 -0.0690 -0.8885
vn 0.6747 -0.3144 -0.6678
vn 0.6747 -0.3144 0.6678
vn 0.6304 -0.1024 0.7695
vn -0.6304 -0.1024 0.7695
vn -0.6747 -0.3144 0.6678
vn -0.7822 -0.6179 -0.0798
vn 0.7822 -0.6179 -0.0798
vn 0.7822 -0.6179 0.0798
vn -0.7822 -0.6179 0.0798
vn 0.2176 0.9760 -0.0090
vn -0.2176 0.9760 -0.0090
vn -0.2212 0.9752 0.0088
vn 0.2212 0.9752 0.0088
vn 0.9990 0.0292 -0.0332
vn 0.9986 -0.0468 -0.0241
vn 0.9973 -0.0684 0.0266
vn 0.9973 -0.0684 -0.0266
vn 0.9897 0.1405 0.0255
vn 0.9897 0.1405 -0.0255
vn 0.9990 0.0292 0.0332
vn 0.9986 -0.0468 0.0241
vn -0.9990 0.0290 0.0333
vn -0.9986 -0.0466 0.0241
vn -0.9973 -0.0684 0.0266
vn -0.9973 -0.0684 -0.0266
vn -0.9986 -0.0466 -0.0241
vn -0.9990 0.0290 -0.0333
vn -0.9897 0.1406 0.0255
vn -0.9897 0.1406 -0.0255
vn 0.0304 0.4093 0.9119
vn 0.0182 0.9942 0.1062
vn 0.0182 0.9942 -0.1062
vn 0.0304 0.4093 -0.9119
vn 0.0317 0.1852 -0.9822
vn 0.0231 -0.9997 -0.0087
vn 0.0231 -0.9997 0.0087
vn 0.0317 0.1852 0.9822
vn -0.0070 -0.0032 -1.0000
vn -0.0015 -0.0539 -0.9985
vn 0.9908 -0.0221 -0.1338
vn 0.0065 -0.0303 0.9995
vn 0.0141 -0.9847 0.1739
vn 0.0017 0.9989 0.0464
vn -0.6490 -0.7608 -0.0000
vn 0.0070 0.0032 1.0000
vn -0.6943 0.7197 -0.0000
vn 0.7358 -0.6771 -0.0000
vt 0.446868 0.751267
vt 0.446831 0.670435
vt 0.464370 0.670867
vt 0.460566 0.769270
vt 0.453147 0.590192
vt 0.467634 0.588786
vt 0.481965 0.591333
vt 0.481965 0.671826
vt 0.475686 0.752409
vt 0.710249 0.728567
vt 0.703988 0.647892
vt 0.721597 0.646883
vt 0.725379 0.745400
vt 0.703988 0.567367
vt 0.718345 0.564627
vt 0.732806 0.566223
vt 0.739121 0.646497
vt 0.739067 0.727422
vt 0.485817 0.520109
vt 0.463106 0.524526
vt 0.446831 0.426729
vt 0.474886 0.426729
vt 0.592908 0.240040
vt 0.570171 0.235623
vt 0.581665 0.142243
vt 0.609762 0.142243
vt 0.570171 0.048863
vt 0.592908 0.044446
vt 0.463106 0.328932
vt 0.485817 0.333349
vt 0.784953 0.270464
vt 0.772449 0.270591
vt 0.773711 0.148033
vt 0.780713 0.148034
vt 0.758402 0.270462
vt 0.764178 0.148033
vt 0.758402 0.025604
vt 0.772449 0.019814
vt 0.784953 0.025606
vt 0.455944 0.249607
vt 0.504381 0.242690
vt 0.506480 0.256086
vt 0.446831 0.264672
vt 0.560348 0.224637
vt 0.570456 0.142243
vt 0.560348 0.059849
vt 0.458193 0.142243
vt 0.448798 0.142243
vt 0.455944 0.034879
vt 0.446831 0.019814
vt 0.504381 0.041796
vt 0.506480 0.028400
vt 0.549624 0.326894
vt 0.547482 0.312886
vt 0.604911 0.304300
vt 0.595797 0.320054
vt 0.495807 0.344837
vt 0.486256 0.426729
vt 0.495807 0.508621
vt 0.549624 0.526564
vt 0.547482 0.540572
vt 0.595797 0.533404
vt 0.604911 0.549158
vt 0.593324 0.426729
vt 0.602726 0.426729
vt 0.848805 0.373857
vt 0.847948 0.443723
vt 0.816479 0.444841
vt 0.812816 0.374635
vt 0.530221 0.753071
vt 0.521594 0.671180
vt 0.555553 0.671183
vt 0.558994 0.753574
vt 0.530221 0.589286
vt 0.558994 0.588786
vt 0.779634 0.698279
vt 0.778750 0.628310
vt 0.814738 0.629089
vt 0.811102 0.699399
vt 0.781878 0.564627
vt 0.813954 0.564627
vt 0.476914 0.035568
vt 0.472149 0.142243
vt 0.476914 0.248918
vt 0.845668 0.310219
vt 0.813591 0.310219
vt 0.019814 0.771930
vt 0.065244 0.780156
vt 0.194394 0.950845
vt 0.158654 0.980085
vt 0.155763 0.019814
vt 0.194394 0.030011
vt 0.703988 0.817732
vt 0.703988 0.785029
vt 0.718622 0.787717
vt 0.715606 0.808813
vt 0.234022 0.023337
vt 0.263180 0.019814
vt 0.407203 0.771022
vt 0.361842 0.779581
vt 0.718773 0.019814
vt 0.718205 0.524999
vt 0.707344 0.522808
vt 0.703988 0.019814
vt 0.664192 0.019814
vt 0.664359 0.723470
vt 0.649574 0.723518
vt 0.649391 0.020286
vt 0.778750 0.784823
vt 0.778750 0.739027
vt 0.793535 0.739027
vt 0.793535 0.784823
vt 0.269968 0.980186
vt 0.234022 0.951208
vt 0.664176 0.957110
vt 0.649391 0.957158
vt 0.758402 0.310219
vt 0.773187 0.310285
vt 0.773187 0.524080
vt 0.758402 0.524014
s 0
usemtl Material.001
f 33/1/1 40/2/1 21/3/1 13/4/1
f 40/2/2 39/5/2 14/6/2 21/3/2
f 21/3/3 14/6/3 25/7/3 26/8/3
f 13/4/4 21/3/4 26/8/4 27/9/4
f 28/10/5 32/11/5 22/12/5 19/13/5
f 32/11/6 31/14/6 20/15/6 22/12/6
f 22/12/7 20/15/7 37/16/7 36/17/7
f 19/13/8 22/12/8 36/17/8 35/18/8
f 33/19/9 13/20/9 23/21/9 34/22/9
f 13/23/10 27/24/10 29/25/10 23/26/10
f 23/26/11 29/25/11 28/27/11 19/28/11
f 34/22/12 23/21/12 19/29/12 35/30/12
f 25/31/13 14/32/13 24/33/13 30/34/13
f 14/32/14 39/35/14 38/36/14 24/33/14
f 24/33/15 38/36/15 37/37/15 20/38/15
f 30/34/16 24/33/16 20/38/16 31/39/16
f 8/40/17 15/41/17 26/42/17 25/43/17
f 15/41/18 7/44/18 27/24/18 26/42/18
f 16/45/19 5/46/19 28/27/19 29/25/19
f 7/44/20 16/45/20 29/25/20 27/24/20
f 17/47/21 8/40/21 25/43/21 30/48/21
f 6/49/22 17/47/22 30/48/22 31/50/22
f 18/51/23 6/49/23 31/50/23 32/52/23
f 5/46/24 18/51/24 32/52/24 28/27/24
f 10/53/25 36/54/25 37/55/25 2/56/25
f 1/57/26 35/30/26 36/54/26 10/53/26
f 9/58/27 34/22/27 35/30/27 1/57/27
f 3/59/28 33/19/28 34/22/28 9/58/28
f 12/60/29 40/61/29 33/19/29 3/59/29
f 4/62/30 39/63/30 40/61/30 12/60/30
f 11/64/31 38/65/31 39/63/31 4/62/31
f 38/65/32 11/64/32 2/56/32 37/55/32
f 12/66/33 3/67/33 7/68/33 15/69/33
f 3/70/34 9/71/34 16/72/34 7/73/34
f 9/71/35 1/74/35 5/75/35 16/72/35
f 1/76/36 10/77/36 18/78/36 5/79/36
f 10/77/37 2/80/37 6/81/37 18/78/37
f 2/82/38 11/83/38 17/47/38 6/49/38
f 11/83/39 4/84/39 8/40/39 17/47/39
f 4/85/40 12/66/40 15/69/40 8/86/40
f 44/87/41 43/88/41 49/89/41 52/90/41
f 43/88/42 44/87/42 48/91/42 47/92/42
f 47/93/43 48/94/43 46/95/43 45/96/43
f 45/97/44 46/98/44 42/99/44 41/100/44
f 43/101/45 47/102/45 45/103/45 41/104/45
f 48/105/46 44/106/46 42/107/46 46/108/46
f 50/109/47 51/110/47 52/111/47 49/112/47
f 41/100/48 42/99/48 51/113/48 50/114/48
f 42/107/49 44/106/49 52/115/49 51/116/49
f 43/117/50 41/118/50 50/119/50 49/120/50
o Cube.002
v 1.181538 0.268839 -2.033140
v 1.180759 0.618213 -2.146685
v 1.181538 0.268839 -1.282751
v 1.180759 0.618213 -1.169206
v 1.263355 0.267449 -2.035439
v 1.264100 0.619776 -2.149839
v 1.263355 0.267449 -1.280452
v 1.264100 0.619776 -1.166052
v 1.174183 0.228763 -1.657946
v 1.175726 0.452013 -2.115344
v 1.195038 0.622444 -1.657946
v 1.175726 0.452013 -1.200547
v 1.222523 0.191344 -1.209882
v 1.222523 0.659125 -1.096444
v 1.269272 0.451729 -1.197743
v 1.270747 0.227128 -1.657946
v 1.249828 0.624045 -1.657946
v 1.269272 0.451729 -2.118148
v 1.222523 0.191344 -2.106009
v 1.222523 0.659125 -2.245391
v 1.222523 0.445511 -1.094080
v 1.222523 0.445511 -2.221811
v 1.222523 0.134365 -1.657946
v 1.222523 0.667526 -1.657946
v 1.260002 0.653992 -1.097031
v 1.268215 0.445511 -1.136366
v 1.260002 0.237029 -1.230119
v 1.260002 0.237029 -2.085773
v 1.268215 0.191344 -1.657946
v 1.245864 0.659103 -1.657946
v 1.260002 0.653992 -2.218860
v 1.268215 0.445511 -2.179525
v 1.185045 0.237029 -1.230119
v 1.176832 0.191344 -1.657946
v 1.185045 0.237029 -2.085773
v 1.176832 0.445511 -2.179525
v 1.185045 0.653992 -2.218860
v 1.199183 0.659103 -1.657946
v 1.185045 0.653992 -1.097031
v 1.176832 0.445511 -1.136366
v -0.797884 0.534973 -2.231131
v -0.797884 0.655011 -2.231131
v -0.797884 0.534973 -2.163390
v -0.797884 0.655011 -2.163390
v 1.195035 0.572854 -2.215755
v 1.190002 0.648948 -2.221737
v 1.180308 0.551889 -2.165992
v 1.188524 0.655249 -2.153917
v -1.174598 0.125601 -2.167764
v -1.174598 0.125601 -2.235504
v -1.265926 0.203501 -2.235504
v -1.265926 0.203501 -2.167764
vn -0.6747 -0.3144 0.6678
vn -0.4537 -0.0690 0.8885
vn 0.4537 -0.0690 0.8885
vn 0.6747 -0.3144 0.6678
vn 0.6747 -0.3144 -0.6678
vn 0.6304 -0.1024 -0.7695
vn -0.6304 -0.1024 -0.7695
vn -0.6747 -0.3144 -0.6678
vn -0.7822 -0.6179 0.0798
vn 0.7822 -0.6179 0.0798
vn 0.7822 -0.6179 -0.0798
vn -0.7822 -0.6179 -0.0798
vn 0.2176 0.9760 0.0090
vn -0.2176 0.9760 0.0090
vn -0.2212 0.9752 -0.0088
vn 0.2212 0.9752 -0.0088
vn 0.9990 0.0292 0.0332
vn 0.9986 -0.0468 0.0241
vn 0.9973 -0.0684 -0.0266
vn 0.9973 -0.0684 0.0266
vn 0.9897 0.1405 -0.0255
vn 0.9897 0.1405 0.0255
vn 0.9990 0.0292 -0.0332
vn 0.9986 -0.0468 -0.0241
vn -0.9990 0.0290 -0.0333
vn -0.9986 -0.0466 -0.0241
vn -0.9973 -0.0684 -0.0266
vn -0.9973 -0.0684 0.0266
vn -0.9986 -0.0466 0.0241
vn -0.9990 0.0290 0.0333
vn -0.9897 0.1406 -0.0255
vn -0.9897 0.1406 0.0255
vn 0.0304 0.4093 -0.9119
vn 0.0182 0.9942 -0.1062
vn 0.0182 0.9942 0.1062
vn 0.0304 0.4093 0.9119
vn 0.0317 0.1852 0.9822
vn 0.0231 -0.9997 0.0087
vn 0.0231 -0.9997 -0.0087
vn 0.0317 0.1852 -0.9822
vn -0.0070 -0.0032 1.0000
vn -0.0015 -0.0539 0.9985
vn 0.9908 -0.0221 0.1338
vn 0.0065 -0.0303 -0.9995
vn 0.0141 -0.9847 -0.1739
vn 0.0017 0.9989 -0.0464
vn -0.6490 -0.7608 -0.0000
vn 0.0070 0.0032 -1.0000
vn -0.6943 0.7197 -0.0000
vn 0.7358 -0.6771 -0.0000
vt 0.446868 0.751267
vt 0.446831 0.670435
vt 0.464370 0.670867
vt 0.460566 0.769270
vt 0.453147 0.590192
vt 0.467634 0.588786
vt 0.481965 0.591333
vt 0.481965 0.671826
vt 0.475686 0.752409
vt 0.710249 0.728567
vt 0.703988 0.647892
vt 0.721597 0.646883
vt 0.725379 0.745400
vt 0.703988 0.567367
vt 0.718345 0.564627
vt 0.732806 0.566223
vt 0.739121 0.646497
vt 0.739067 0.727422
vt 0.485817 0.520109
vt 0.463106 0.524526
vt 0.446831 0.426729
vt 0.474886 0.426729
vt 0.592908 0.240040
vt 0.570171 0.235623
vt 0.581665 0.142243
vt 0.609762 0.142243
vt 0.570171 0.048863
vt 0.592908 0.044446
vt 0.463106 0.328932
vt 0.485817 0.333349
vt 0.784953 0.270464
vt 0.772449 0.270591
vt 0.773711 0.148033
vt 0.780713 0.148034
vt 0.758402 0.270462
vt 0.764178 0.148033
vt 0.758402 0.025604
vt 0.772449 0.019814
vt 0.784953 0.025606
vt 0.455944 0.249607
vt 0.504381 0.242690
vt 0.506480 0.256086
vt 0.446831 0.264672
vt 0.560348 0.224637
vt 0.570456 0.142243
vt 0.560348 0.059849
vt 0.458193 0.142243
vt 0.448798 0.142243
vt 0.455944 0.034879
vt 0.446831 0.019814
vt 0.504381 0.041796
vt 0.506480 0.028400
vt 0.549624 0.326894
vt 0.547482 0.312886
vt 0.604911 0.304300
vt 0.595797 0.320054
vt 0.495807 0.344837
vt 0.486256 0.426729
vt 0.495807 0.508621
vt 0.549624 0.526564
vt 0.547482 0.540572
vt 0.595797 0.533404
vt 0.604911 0.549158
vt 0.593324 0.426729
vt 0.602726 0.426729
vt 0.848805 0.373857
vt 0.847948 0.443723
vt 0.816479 0.444841
vt 0.812816 0.374635
vt 0.530221 0.753071
vt 0.521594 0.671180
vt 0.555553 0.671183
vt 0.558994 0.753574
vt 0.530221 0.589286
vt 0.558994 0.588786
vt 0.779634 0.698279
vt 0.778750 0.628310
vt 0.814738 0.629089
vt 0.811102 0.699399
vt 0.781878 0.564627
vt 0.813954 0.564627
vt 0.476914 0.035568
vt 0.472149 0.142243
vt 0.476914 0.248918
vt 0.845668 0.310219
vt 0.813591 0.310219
vt 0.019814 0.771930
vt 0.065244 0.780156
vt 0.194394 0.950845
vt 0.158654 0.980085
vt 0.155763 0.019814
vt 0.194394 0.030011
vt 0.703988 0.817732
vt 0.703988 0.785029
vt 0.718622 0.787717
vt 0.715606 0.808813
vt 0.234022 0.023337
vt 0.263180 0.019814
vt 0.407203 0.771022
vt 0.361842 0.779581
vt 0.718773 0.019814
vt 0.718205 0.524999
vt 0.707344 0.522808
vt 0.703988 0.019814
vt 0.664192 0.019814
vt 0.664359 0.723470
vt 0.649574 0.723518
vt 0.649391 0.020286
vt 0.778750 0.784823
vt 0.778750 0.739027
vt 0.793535 0.739027
vt 0.793535 0.784823
vt 0.269968 0.980186
vt 0.234022 0.951208
vt 0.664176 0.957110
vt 0.649391 0.957158
vt 0.758402 0.310219
vt 0.773187 0.310285
vt 0.773187 0.524080
vt 0.758402 0.524014
s 0
usemtl Material.001
f 85/121/51 65/124/51 73/123/51 92/122/51
f 92/122/52 73/123/52 66/126/52 91/125/52
f 73/123/53 78/128/53 77/127/53 66/126/53
f 65/124/54 79/129/54 78/128/54 73/123/54
f 80/130/55 71/133/55 74/132/55 84/131/55
f 84/131/56 74/132/56 72/135/56 83/134/56
f 74/132/57 88/137/57 89/136/57 72/135/57
f 71/133/58 87/138/58 88/137/58 74/132/58
f 85/139/59 86/142/59 75/141/59 65/140/59
f 65/143/60 75/146/60 81/145/60 79/144/60
f 75/146/61 71/148/61 80/147/61 81/145/61
f 86/142/62 87/150/62 71/149/62 75/141/62
f 77/151/63 82/154/63 76/153/63 66/152/63
f 66/152/64 76/153/64 90/156/64 91/155/64
f 76/153/65 72/158/65 89/157/65 90/156/65
f 82/154/66 83/159/66 72/158/66 76/153/66
f 60/160/67 77/163/67 78/162/67 67/161/67
f 67/161/68 78/162/68 79/144/68 59/164/68
f 68/165/69 81/145/69 80/147/69 57/166/69
f 59/164/70 79/144/70 81/145/70 68/165/70
f 69/167/71 82/168/71 77/163/71 60/160/71
f 58/169/72 83/170/72 82/168/72 69/167/72
f 70/171/73 84/172/73 83/170/73 58/169/73
f 57/166/74 80/147/74 84/172/74 70/171/74
f 62/173/75 54/176/75 89/175/75 88/174/75
f 53/177/76 62/173/76 88/174/76 87/150/76
f 61/178/77 53/177/77 87/150/77 86/142/77
f 55/179/78 61/178/78 86/142/78 85/139/78
f 64/180/79 55/179/79 85/139/79 92/181/79
f 56/182/80 64/180/80 92/181/80 91/183/80
f 63/184/81 56/182/81 91/183/81 90/185/81
f 90/185/82 89/175/82 54/176/82 63/184/82
f 64/186/83 67/189/83 59/188/83 55/187/83
f 55/190/84 59/193/84 68/192/84 61/191/84
f 61/191/85 68/192/85 57/195/85 53/194/85
f 53/196/86 57/199/86 70/198/86 62/197/86
f 62/197/87 70/198/87 58/201/87 54/200/87
f 54/202/88 58/169/88 69/167/88 63/203/88
f 63/203/89 69/167/89 60/160/89 56/204/89
f 56/205/90 60/206/90 67/189/90 64/186/90
f 96/207/91 104/210/91 101/209/91 95/208/91
f 95/208/92 99/212/92 100/211/92 96/207/92
f 99/213/93 97/216/93 98/215/93 100/214/93
f 97/217/94 93/220/94 94/219/94 98/218/94
f 95/221/95 93/224/95 97/223/95 99/222/95
f 100/225/96 98/228/96 94/227/96 96/226/96
f 102/229/97 101/232/97 104/231/97 103/230/97
f 93/220/98 102/234/98 103/233/98 94/219/98
f 94/227/99 103/236/99 104/235/99 96/226/99
f 95/237/100 101/240/100 102/239/100 93/238/100
