# Blender 4.3.2
# www.blender.org
mtllib vialOfPoison.mtl
o Cube
v 0.279142 2.759979 -0.279142
v 0.500000 0.030509 -0.500000
v 0.279142 2.759979 0.279142
v 0.500000 0.030509 0.500000
v -0.279142 2.759979 -0.279142
v -0.500000 0.030509 -0.500000
v -0.279142 2.759979 0.279142
v -0.500000 0.030509 0.500000
v -0.609568 0.030509 -0.000000
v 0.000000 0.030509 -0.609568
v 0.609568 0.585293 -0.609568
v -0.609568 0.585293 0.609568
v 0.609568 0.585293 0.609568
v -0.609568 0.585293 -0.609568
v -0.000000 2.759979 0.340312
v 0.340312 2.759979 -0.000000
v -0.000000 0.030509 0.609568
v -0.340312 2.759979 -0.000000
v -0.000000 2.759979 -0.340312
v 0.609568 0.030509 -0.000000
v 0.000000 0.585293 0.839506
v -0.839506 0.585293 -0.000000
v 0.839506 0.585293 -0.000000
v 0.000000 0.585293 -0.839506
v -0.006925 0.030509 -0.000000
v 0.618559 2.439458 0.618559
v 0.000000 2.439458 0.754107
v -0.618559 2.439458 0.618559
v 0.618559 2.439458 -0.618559
v 0.754107 2.439458 -0.000000
v -0.754107 2.439458 -0.000000
v -0.618559 2.439458 -0.618559
v -0.000000 2.439458 -0.754107
v -0.053701 3.324755 -0.000000
v 0.340312 3.324755 -0.000000
v -0.340312 3.324755 -0.000000
v -0.000000 3.324755 0.340312
v -0.000000 3.324755 -0.340312
v 0.279142 3.324755 0.279142
v -0.279142 3.324755 0.279142
v 0.279142 3.324755 -0.279142
v -0.279142 3.324755 -0.279142
vn 0.2785 -0.3061 0.9104
vn 0.2852 0.0191 0.9583
vn -0.2852 0.0191 0.9583
vn -0.2785 -0.3061 0.9104
vn -0.9104 -0.3061 0.2785
vn -0.9583 0.0191 0.2852
vn -0.9583 0.0191 -0.2852
vn -0.9104 -0.3061 -0.2785
vn -0.0000 -1.0000 -0.0000
vn 0.9104 -0.3061 -0.2785
vn 0.9583 0.0191 -0.2852
vn 0.9583 0.0191 0.2852
vn 0.9104 -0.3061 0.2785
vn -0.2785 -0.3061 -0.9104
vn -0.2852 0.0191 -0.9583
vn 0.2852 0.0191 -0.9583
vn 0.2785 -0.3061 -0.9104
vn 0.2141 -0.0000 -0.9768
vn 0.2141 -0.0000 0.9768
vn 0.9768 -0.0000 -0.2141
vn -0.9768 -0.0000 0.2141
vn 0.1330 0.7835 0.6069
vn -0.1330 0.7835 0.6069
vn 0.6069 0.7835 -0.1330
vn 0.6069 0.7835 0.1330
vn -0.6069 0.7835 0.1330
vn -0.6069 0.7835 -0.1330
vn -0.1330 0.7835 -0.6069
vn 0.1330 0.7835 -0.6069
vn -0.0000 1.0000 -0.0000
vn -0.9768 -0.0000 -0.2141
vn 0.9768 -0.0000 0.2141
vn -0.2141 -0.0000 0.9768
vn -0.2141 -0.0000 -0.9768
vt 0.375000 0.750000
vt 0.500000 0.750000
vt 0.500000 0.875000
vt 0.375000 0.875000
vt 0.625000 0.750000
vt 0.625000 0.875000
vt 0.625000 1.000000
vt 0.500000 1.000000
vt 0.375000 1.000000
vt 0.375000 0.000000
vt 0.500000 0.000000
vt 0.500000 0.125000
vt 0.375000 0.125000
vt 0.625000 0.000000
vt 0.625000 0.125000
vt 0.625000 0.250000
vt 0.500000 0.250000
vt 0.375000 0.250000
vt 0.375000 0.375000
vt 0.375000 0.372160
vt 0.375000 0.500000
vt 0.500000 0.500000
vt 0.500000 0.625000
vt 0.375000 0.625000
vt 0.625000 0.500000
vt 0.625000 0.625000
vt 0.500000 0.375000
vt 0.625000 0.375000
vt 0.625000 0.466169
vt 0.625000 0.373090
vt 0.625000 0.670910
vt 0.625000 0.648508
vt 0.625000 0.514571
vt 0.625000 0.235429
vt 0.625000 0.329145
vt 0.625000 0.282647
vt 0.625000 0.352976
s 0
usemtl Material
f 4/1/1 13/2/1 21/3/1 17/4/1
f 13/2/2 26/5/2 27/6/2 21/3/2
f 21/3/3 27/6/3 28/7/3 12/8/3
f 17/4/4 21/3/4 12/8/4 8/9/4
f 8/10/5 12/11/5 22/12/5 9/13/5
f 12/11/6 28/14/6 31/15/6 22/12/6
f 22/12/7 31/15/7 32/16/7 14/17/7
f 9/13/8 22/12/8 14/17/8 6/18/8
f 6/18/9 10/19/9 25/20/9 9/13/9
f 2/21/10 11/22/10 23/23/10 20/24/10
f 11/22/11 29/25/11 30/26/11 23/23/11
f 23/23/12 30/26/12 26/5/12 13/2/12
f 20/24/13 23/23/13 13/2/13 4/1/13
f 6/18/14 14/17/14 24/27/14 10/19/14
f 14/17/15 32/16/15 33/28/15 24/27/15
f 24/27/16 33/28/16 29/25/16 11/22/16
f 10/19/17 24/27/17 11/22/17 2/21/17
f 1/29/18 19/30/18 38/30/18 41/29/18
f 9/13/9 25/20/9 17/4/9 8/9/9
f 17/4/9 25/20/9 20/24/9 4/1/9
f 25/20/9 10/19/9 2/21/9 20/24/9
f 15/31/19 3/32/19 39/32/19 37/31/19
f 16/33/20 1/29/20 41/29/20 35/33/20
f 18/34/21 7/35/21 40/35/21 36/34/21
f 3/32/22 15/31/22 27/6/22 26/5/22
f 15/31/23 7/35/23 28/14/23 27/6/23
f 1/29/24 16/33/24 30/26/24 29/25/24
f 16/33/25 3/32/25 26/5/25 30/26/25
f 7/35/26 18/34/26 31/15/26 28/14/26
f 18/34/27 5/36/27 32/16/27 31/15/27
f 5/36/28 19/30/28 33/28/28 32/16/28
f 19/30/29 1/29/29 29/25/29 33/28/29
f 39/32/30 35/33/30 34/37/30 37/31/30
f 36/34/30 34/37/30 38/30/30 42/36/30
f 37/31/30 34/37/30 36/34/30 40/35/30
f 38/30/30 34/37/30 35/33/30 41/29/30
f 5/36/31 18/34/31 36/34/31 42/36/31
f 3/32/32 16/33/32 35/33/32 39/32/32
f 7/35/33 15/31/33 37/31/33 40/35/33
f 19/30/34 5/36/34 42/36/34 38/30/34
o Cube.001
v 0.464460 0.171414 -0.470327
v 0.464460 0.171414 0.469937
v -0.475805 0.171414 -0.470327
v -0.475805 0.171414 0.469937
v -0.578827 0.171414 -0.000195
v -0.005673 0.171414 -0.573350
v 0.567482 0.693057 -0.573350
v -0.578827 0.693057 0.572959
v 0.567482 0.693057 0.572959
v -0.578827 0.693057 -0.573350
v -0.005673 0.171414 0.572959
v 0.567482 0.171414 -0.000195
v -0.005673 0.693057 0.789162
v -0.795030 0.693057 -0.000195
v 0.783685 0.693057 -0.000195
v -0.005673 0.693057 -0.789553
v -0.012184 0.171414 -0.000195
v 0.583792 1.743995 0.589269
v -0.005673 1.743995 0.718442
v -0.595137 1.743995 0.589269
v 0.583792 1.743995 -0.589660
v 0.712965 1.743995 -0.000195
v -0.724310 1.743995 -0.000195
v -0.595137 1.743995 -0.589660
v -0.005673 1.743995 -0.718833
v 0.227947 3.207948 -0.227947
vn 0.2785 -0.3061 0.9104
vn 0.2847 0.0226 0.9584
vn -0.2847 0.0226 0.9584
vn -0.2785 -0.3061 0.9104
vn -0.9104 -0.3061 0.2785
vn -0.9584 0.0226 0.2847
vn -0.9584 0.0226 -0.2847
vn -0.9104 -0.3061 -0.2785
vn -0.0000 -1.0000 -0.0000
vn 0.9104 -0.3061 -0.2785
vn 0.9584 0.0226 -0.2847
vn 0.9584 0.0226 0.2847
vn 0.9104 -0.3061 0.2785
vn -0.2785 -0.3061 -0.9104
vn -0.2847 0.0226 -0.9584
vn 0.2847 0.0226 -0.9584
vn 0.2785 -0.3061 -0.9104
vn -0.0000 1.0000 -0.0000
vt 0.375000 0.750000
vt 0.500000 0.750000
vt 0.500000 0.875000
vt 0.375000 0.875000
vt 0.625000 0.750000
vt 0.625000 0.875000
vt 0.625000 1.000000
vt 0.500000 1.000000
vt 0.375000 1.000000
vt 0.375000 0.000000
vt 0.500000 0.000000
vt 0.500000 0.125000
vt 0.375000 0.125000
vt 0.625000 0.000000
vt 0.625000 0.125000
vt 0.625000 0.250000
vt 0.500000 0.250000
vt 0.375000 0.250000
vt 0.375000 0.375000
vt 0.375000 0.372160
vt 0.375000 0.500000
vt 0.500000 0.500000
vt 0.500000 0.625000
vt 0.375000 0.625000
vt 0.625000 0.500000
vt 0.625000 0.625000
vt 0.500000 0.375000
vt 0.625000 0.375000
s 0
usemtl Material.001
f 44/38/35 51/39/35 55/40/35 53/41/35
f 51/39/36 60/42/36 61/43/36 55/40/36
f 55/40/37 61/43/37 62/44/37 50/45/37
f 53/41/38 55/40/38 50/45/38 46/46/38
f 46/47/39 50/48/39 56/49/39 47/50/39
f 50/48/40 62/51/40 65/52/40 56/49/40
f 56/49/41 65/52/41 66/53/41 52/54/41
f 47/50/42 56/49/42 52/54/42 45/55/42
f 45/55/43 48/56/43 59/57/43 47/50/43
f 43/58/44 49/59/44 57/60/44 54/61/44
f 49/59/45 63/62/45 64/63/45 57/60/45
f 57/60/46 64/63/46 60/42/46 51/39/46
f 54/61/47 57/60/47 51/39/47 44/38/47
f 45/55/48 52/54/48 58/64/48 48/56/48
f 52/54/49 66/53/49 67/65/49 58/64/49
f 58/64/50 67/65/50 63/62/50 49/59/50
f 48/56/51 58/64/51 49/59/51 43/58/51
f 47/50/43 59/57/43 53/41/43 46/46/43
f 53/41/43 59/57/43 54/61/43 44/38/43
f 59/57/43 48/56/43 43/58/43 54/61/43
f 60/42/52 64/63/52 63/62/52 67/65/52 66/53/52 65/52/52 62/51/52 61/43/52
o Cube.002
v -0.227166 3.198215 0.227166
v -0.227166 3.639116 0.227166
v -0.227166 3.198215 -0.227166
v -0.227166 3.639116 -0.227166
v 0.227166 3.198215 0.227166
v 0.227166 3.639116 0.227166
v 0.227166 3.198215 -0.227166
v 0.227166 3.639116 -0.227166
vn -1.0000 -0.0000 -0.0000
vn -0.0000 -0.0000 -1.0000
vn 1.0000 -0.0000 -0.0000
vn -0.0000 -0.0000 1.0000
vn -0.0000 -1.0000 -0.0000
vn -0.0000 1.0000 -0.0000
vt 0.375000 0.000000
vt 0.625000 0.000000
vt 0.625000 0.250000
vt 0.375000 0.250000
vt 0.625000 0.500000
vt 0.375000 0.500000
vt 0.625000 0.750000
vt 0.375000 0.750000
vt 0.625000 1.000000
vt 0.375000 1.000000
vt 0.125000 0.500000
vt 0.125000 0.750000
vt 0.875000 0.500000
vt 0.875000 0.750000
s 0
usemtl Material.002
f 69/66/53 70/67/53 72/68/53 71/69/53
f 71/69/54 72/68/54 76/70/54 75/71/54
f 75/71/55 76/70/55 74/72/55 73/73/55
f 73/73/56 74/72/56 70/74/56 69/75/56
f 71/76/57 75/71/57 73/73/57 69/77/57
f 76/70/58 72/78/58 70/79/58 74/72/58
