# Blender 4.3.2
# www.blender.org
mtllib Coal.mtl
o Cube
v 0.461389 0.645525 -0.617201
v 0.499937 -0.499804 -0.499934
v 0.410737 0.806804 0.393541
v 0.500000 -0.500000 0.500000
v -0.714776 0.750197 -0.628315
v -0.522178 -0.508772 -0.494743
v -0.472301 0.635798 0.347762
v -0.512922 -0.505646 0.503323
v -0.643612 -0.630029 0.011466
v 0.000000 -0.609568 -0.609568
v 0.580342 0.075443 -0.683095
v -0.655996 0.029593 0.582547
v 0.587997 0.061412 0.584083
v -0.903764 0.092212 -0.715030
v -0.053194 0.931885 0.433590
v 0.524440 0.890592 -0.142541
v -0.000000 -0.609568 0.609568
v -0.553060 0.813791 -0.042055
v -0.066653 0.679447 -0.650925
v 0.609568 -0.609568 -0.000000
v 0.151982 1.029330 -0.294329
v -0.010647 0.047449 0.814819
v -1.034971 -0.065824 0.024650
v -0.000000 -0.682518 0.000000
v 0.822502 0.038272 -0.034130
v -0.068001 0.051450 -0.889149
vn 0.2690 0.7377 -0.6192
vn -0.1678 0.9259 -0.3384
vn -0.3852 0.9051 0.1801
vn 0.2698 0.9413 0.2030
vn 0.3117 -0.2382 0.9198
vn 0.2655 0.3508 0.8980
vn -0.3666 0.3848 0.8471
vn -0.2886 -0.2573 0.9222
vn -0.7797 -0.4182 0.4661
vn -0.7920 0.4406 0.4226
vn -0.9157 0.3989 0.0495
vn -0.7751 -0.5646 -0.2837
vn -0.1478 -0.9715 -0.1852
vn 0.1769 -0.9682 -0.1769
vn 0.1767 -0.9683 0.1767
vn -0.1469 -0.9705 0.1913
vn 0.9093 -0.2738 -0.3134
vn 0.9185 0.2604 -0.2977
vn 0.9015 0.3223 0.2889
vn 0.9190 -0.2416 0.3115
vn -0.2306 -0.4282 -0.8738
vn -0.1078 0.2585 -0.9600
vn 0.1950 0.2593 -0.9459
vn 0.2859 -0.3384 -0.8965
vt 0.625000 0.500000
vt 0.750000 0.500000
vt 0.750000 0.625000
vt 0.625000 0.625000
vt 0.875000 0.500000
vt 0.875000 0.625000
vt 0.875000 0.750000
vt 0.750000 0.750000
vt 0.625000 0.750000
vt 0.375000 0.750000
vt 0.500000 0.750000
vt 0.500000 0.875000
vt 0.375000 0.875000
vt 0.625000 0.875000
vt 0.625000 1.000000
vt 0.500000 1.000000
vt 0.375000 1.000000
vt 0.375000 0.000000
vt 0.500000 0.000000
vt 0.500000 0.125000
vt 0.375000 0.125000
vt 0.625000 0.000000
vt 0.625000 0.125000
vt 0.625000 0.250000
vt 0.500000 0.250000
vt 0.375000 0.250000
vt 0.125000 0.500000
vt 0.250000 0.500000
vt 0.250000 0.625000
vt 0.125000 0.625000
vt 0.375000 0.500000
vt 0.375000 0.625000
vt 0.250000 0.750000
vt 0.125000 0.750000
vt 0.500000 0.500000
vt 0.500000 0.625000
vt 0.500000 0.375000
vt 0.375000 0.375000
vt 0.625000 0.375000
s 0
usemtl Material
f 1/1/1 19/2/1 21/3/1 16/4/1
f 19/2/2 5/5/2 18/6/2 21/3/2
f 21/3/3 18/6/3 7/7/3 15/8/3
f 16/4/4 21/3/4 15/8/4 3/9/4
f 4/10/5 13/11/5 22/12/5 17/13/5
f 13/11/6 3/9/6 15/14/6 22/12/6
f 22/12/7 15/14/7 7/15/7 12/16/7
f 17/13/8 22/12/8 12/16/8 8/17/8
f 8/18/9 12/19/9 23/20/9 9/21/9
f 12/19/10 7/22/10 18/23/10 23/20/10
f 23/20/11 18/23/11 5/24/11 14/25/11
f 9/21/12 23/20/12 14/25/12 6/26/12
f 6/27/13 10/28/13 24/29/13 9/30/13
f 10/28/14 2/31/14 20/32/14 24/29/14
f 24/29/15 20/32/15 4/10/15 17/33/15
f 9/30/16 24/29/16 17/33/16 8/34/16
f 2/31/17 11/35/17 25/36/17 20/32/17
f 11/35/18 1/1/18 16/4/18 25/36/18
f 25/36/19 16/4/19 3/9/19 13/11/19
f 20/32/20 25/36/20 13/11/20 4/10/20
f 6/26/21 14/25/21 26/37/21 10/38/21
f 14/25/22 5/24/22 19/39/22 26/37/22
f 26/37/23 19/39/23 1/1/23 11/35/23
f 10/38/24 26/37/24 11/35/24 2/31/24
