# Blender 4.3.2
# www.blender.org
mtllib chocolatebar.mtl
o Cube
v -0.063532 0.452283 2.146802
v 0.079442 -0.248342 2.003829
v -0.063532 0.452283 3.860855
v 0.079442 -0.248342 4.003829
v -1.777585 0.452283 2.146802
v -1.920558 -0.248342 2.003829
v -1.777585 0.452283 3.860855
v -1.920558 -0.248342 4.003829
v 0.079442 0.248342 4.003829
v -1.920558 0.248342 4.003829
v 0.079442 0.248342 2.003829
v -1.920558 0.248342 2.003829
v -0.063532 0.452283 0.146802
v 0.079442 -0.248342 0.003829
v -0.063532 0.452283 1.860855
v 0.079442 -0.248342 2.003829
v -1.777585 0.452283 0.146802
v -1.920558 -0.248342 0.003829
v -1.777585 0.452283 1.860855
v -1.920558 -0.248342 2.003829
v 0.079442 0.248342 2.003829
v -1.920558 0.248342 2.003829
v 0.079442 0.248342 0.003829
v -1.920558 0.248342 0.003829
v -0.063532 0.452283 -1.853198
v 0.079442 -0.248342 -1.996171
v -0.063532 0.452283 -0.139145
v 0.079442 -0.248342 0.003829
v -1.777585 0.452283 -1.853198
v -1.920558 -0.248342 -1.996171
v -1.777585 0.452283 -0.139145
v -1.920558 -0.248342 0.003829
v 0.079442 0.248342 0.003829
v -1.920558 0.248342 0.003829
v 0.079442 0.248342 -1.996171
v -1.920558 0.248342 -1.996171
v -0.063532 0.452283 -3.853198
v 0.079442 -0.248342 -3.996171
v -0.063532 0.452283 -2.139145
v 0.079442 -0.248342 -1.996171
v -1.777585 0.452283 -3.853198
v -1.920558 -0.248342 -3.996171
v -1.777585 0.452283 -2.139145
v -1.920558 -0.248342 -1.996171
v 0.079442 0.248342 -1.996171
v -1.920558 0.248342 -1.996171
v 0.079442 0.248342 -3.996171
v -1.920558 0.248342 -3.996171
v 1.936468 0.452283 2.146802
v 2.079442 -0.248342 2.003829
v 1.936468 0.452283 3.860855
v 2.079442 -0.248342 4.003829
v 0.222415 0.452283 2.146802
v 0.079442 -0.248342 2.003829
v 0.222415 0.452283 3.860855
v 0.079442 -0.248342 4.003829
v 2.079442 0.248342 4.003829
v 0.079442 0.248342 4.003829
v 2.079442 0.248342 2.003829
v 0.079442 0.248342 2.003829
v 1.936468 0.452283 0.146802
v 2.079442 -0.248342 0.003829
v 1.936468 0.452283 1.860855
v 2.079442 -0.248342 2.003829
v 0.222415 0.452283 0.146802
v 0.079442 -0.248342 0.003829
v 0.222415 0.452283 1.860855
v 0.079442 -0.248342 2.003829
v 2.079442 0.248342 2.003829
v 0.079442 0.248342 2.003829
v 2.079442 0.248342 0.003829
v 0.079442 0.248342 0.003829
v 1.936468 0.452283 -1.853198
v 2.079442 -0.248342 -1.996171
v 1.936468 0.452283 -0.139145
v 2.079442 -0.248342 0.003829
v 0.222415 0.452283 -1.853198
v 0.079442 -0.248342 -1.996171
v 0.222415 0.452283 -0.139145
v 0.079442 -0.248342 0.003829
v 2.079442 0.248342 0.003829
v 0.079442 0.248342 0.003829
v 2.079442 0.248342 -1.996171
v 0.079442 0.248342 -1.996171
v 1.936468 0.452283 -3.853198
v 2.079442 -0.248342 -3.996171
v 1.936468 0.452283 -2.139145
v 2.079442 -0.248342 -1.996171
v 0.222415 0.452283 -3.853198
v 0.079442 -0.248342 -3.996171
v 0.222415 0.452283 -2.139145
v 0.079442 -0.248342 -1.996171
v 2.079442 0.248342 -1.996171
v 0.079442 0.248342 -1.996171
v 2.079442 0.248342 -3.996171
v 0.079442 0.248342 -3.996171
vn -0.0000 1.0000 -0.0000
vn -0.0000 -0.0000 1.0000
vn -1.0000 -0.0000 -0.0000
vn -0.0000 -1.0000 -0.0000
vn 1.0000 -0.0000 -0.0000
vn -0.0000 -0.0000 -1.0000
vn -0.0000 0.5740 0.8188
vn 0.8188 0.5740 -0.0000
vn -0.8188 0.5740 -0.0000
vn -0.0000 0.5740 -0.8188
vt 0.723390 0.877768
vt 0.723390 0.976243
vt 0.624915 0.976243
vt 0.624915 0.877768
vt 0.006075 0.168263
vt 0.006075 0.053787
vt 0.120978 0.053787
vt 0.120978 0.168263
vt 0.133129 0.168263
vt 0.133129 0.053787
vt 0.248032 0.053787
vt 0.248032 0.168263
vt 0.883299 0.354753
vt 0.883299 0.469655
vt 0.768396 0.469655
vt 0.768396 0.354753
vt 0.006075 0.342602
vt 0.006075 0.228126
vt 0.120978 0.228126
vt 0.120978 0.342602
vt 0.133129 0.342602
vt 0.133129 0.228126
vt 0.248032 0.228126
vt 0.248032 0.342602
vt 0.014289 0.006075
vt 0.112764 0.006075
vt 0.014289 0.180414
vt 0.112764 0.180414
vt 0.141343 0.006075
vt 0.239818 0.006075
vt 0.141343 0.180414
vt 0.239818 0.180414
vt 0.993925 0.116701
vt 0.993925 0.215175
vt 0.895450 0.215175
vt 0.895450 0.116701
vt 0.260182 0.168263
vt 0.260182 0.053787
vt 0.375085 0.053787
vt 0.375085 0.168263
vt 0.260182 0.342602
vt 0.260182 0.228126
vt 0.375085 0.228126
vt 0.375085 0.342602
vt 0.120978 0.877768
vt 0.120978 0.992671
vt 0.006075 0.992671
vt 0.006075 0.877768
vt 0.006075 0.516940
vt 0.006075 0.402464
vt 0.120978 0.402464
vt 0.120978 0.516940
vt 0.133129 0.516940
vt 0.133129 0.402464
vt 0.248032 0.402464
vt 0.248032 0.516940
vt 0.268396 0.006075
vt 0.366871 0.006075
vt 0.014289 0.354753
vt 0.112764 0.354753
vt 0.268396 0.180414
vt 0.366871 0.180414
vt 0.141343 0.354753
vt 0.239818 0.354753
vt 0.993925 0.227326
vt 0.993925 0.325801
vt 0.895450 0.325801
vt 0.895450 0.227326
vt 0.260182 0.516940
vt 0.260182 0.402464
vt 0.375085 0.402464
vt 0.375085 0.516940
vt 0.387236 0.168263
vt 0.387236 0.053787
vt 0.502139 0.053787
vt 0.502139 0.168263
vt 0.248032 0.992671
vt 0.133129 0.992671
vt 0.133129 0.877768
vt 0.248032 0.877768
vt 0.387236 0.342602
vt 0.387236 0.228126
vt 0.502139 0.228126
vt 0.502139 0.342602
vt 0.387236 0.516940
vt 0.387236 0.402464
vt 0.502139 0.402464
vt 0.502139 0.516940
vt 0.268396 0.354753
vt 0.366871 0.354753
vt 0.395450 0.180414
vt 0.493925 0.180414
vt 0.395450 0.006075
vt 0.493925 0.006075
vt 0.395450 0.354753
vt 0.493925 0.354753
vt 0.834015 0.877768
vt 0.834015 0.976243
vt 0.735540 0.976243
vt 0.735540 0.877768
vt 0.514289 0.168263
vt 0.514289 0.053787
vt 0.629192 0.053787
vt 0.629192 0.168263
vt 0.514289 0.342602
vt 0.514289 0.228126
vt 0.629192 0.228126
vt 0.629192 0.342602
vt 0.883299 0.481806
vt 0.883299 0.596709
vt 0.768396 0.596709
vt 0.768397 0.481806
vt 0.514289 0.516940
vt 0.514289 0.402464
vt 0.629192 0.402464
vt 0.629192 0.516940
vt 0.006075 0.691279
vt 0.006075 0.576803
vt 0.120978 0.576803
vt 0.120978 0.691279
vt 0.522503 0.006075
vt 0.620978 0.006075
vt 0.522503 0.354753
vt 0.620978 0.354753
vt 0.522503 0.180414
vt 0.620978 0.180414
vt 0.014289 0.529091
vt 0.112764 0.529091
vt 0.993925 0.006075
vt 0.993925 0.104550
vt 0.895450 0.104550
vt 0.895450 0.006075
vt 0.133129 0.691279
vt 0.133129 0.576803
vt 0.248032 0.576803
vt 0.248032 0.691279
vt 0.260182 0.691279
vt 0.260182 0.576803
vt 0.375085 0.576803
vt 0.375085 0.691279
vt 0.375085 0.877768
vt 0.375085 0.992671
vt 0.260182 0.992671
vt 0.260182 0.877768
vt 0.387236 0.691279
vt 0.387236 0.576803
vt 0.502139 0.576803
vt 0.502139 0.691279
vt 0.514289 0.691279
vt 0.514289 0.576803
vt 0.629192 0.576803
vt 0.629192 0.691279
vt 0.141343 0.529091
vt 0.239818 0.529091
vt 0.395450 0.529091
vt 0.493925 0.529091
vt 0.268396 0.529091
vt 0.366871 0.529091
vt 0.522503 0.529091
vt 0.620978 0.529091
vt 0.993925 0.337952
vt 0.993925 0.436426
vt 0.895450 0.436426
vt 0.895450 0.337952
vt 0.641343 0.168263
vt 0.641343 0.053787
vt 0.756246 0.053787
vt 0.756246 0.168263
vt 0.641343 0.342602
vt 0.641343 0.228126
vt 0.756246 0.228126
vt 0.756246 0.342602
vt 0.883299 0.608860
vt 0.883299 0.723762
vt 0.768396 0.723762
vt 0.768396 0.608860
vt 0.641343 0.516940
vt 0.641343 0.402464
vt 0.756246 0.402464
vt 0.756246 0.516940
vt 0.641343 0.691279
vt 0.641343 0.576803
vt 0.756246 0.576803
vt 0.756246 0.691279
vt 0.649557 0.006075
vt 0.748032 0.006075
vt 0.649557 0.354753
vt 0.748032 0.354753
vt 0.649557 0.180414
vt 0.748032 0.180414
vt 0.649557 0.529091
vt 0.748032 0.529091
vt 0.993925 0.448577
vt 0.993925 0.547052
vt 0.895450 0.547052
vt 0.895450 0.448577
vt 0.006075 0.865618
vt 0.006075 0.751141
vt 0.120978 0.751141
vt 0.120978 0.865618
vt 0.133129 0.865617
vt 0.133129 0.751141
vt 0.248032 0.751141
vt 0.248032 0.865617
vt 0.883299 0.735913
vt 0.883299 0.850816
vt 0.768396 0.850816
vt 0.768396 0.735913
vt 0.260182 0.865617
vt 0.260182 0.751141
vt 0.375085 0.751141
vt 0.375085 0.865617
vt 0.387236 0.865617
vt 0.387236 0.751141
vt 0.502139 0.751141
vt 0.502139 0.865617
vt 0.014289 0.703430
vt 0.112764 0.703430
vt 0.268396 0.703430
vt 0.366871 0.703430
vt 0.141343 0.703430
vt 0.239818 0.703430
vt 0.395450 0.703430
vt 0.493925 0.703430
vt 0.612764 0.877768
vt 0.612764 0.976243
vt 0.514289 0.976243
vt 0.514289 0.877768
vt 0.514289 0.865617
vt 0.514289 0.751141
vt 0.629192 0.751141
vt 0.629192 0.865617
vt 0.641343 0.865617
vt 0.641343 0.751141
vt 0.756246 0.751141
vt 0.756246 0.865617
vt 0.502139 0.877768
vt 0.502139 0.992671
vt 0.387236 0.992671
vt 0.387236 0.877768
vt 0.768396 0.168263
vt 0.768396 0.053787
vt 0.883299 0.053787
vt 0.883299 0.168263
vt 0.768396 0.342602
vt 0.768396 0.228126
vt 0.883299 0.228126
vt 0.883299 0.342602
vt 0.522503 0.703430
vt 0.620978 0.703430
vt 0.776610 0.006075
vt 0.875085 0.006075
vt 0.649557 0.703430
vt 0.748032 0.703430
vt 0.776610 0.180414
vt 0.875085 0.180414
s 0
usemtl Material
f 1/1/1 5/2/1 7/3/1 3/4/1
f 4/5/2 9/6/2 10/7/2 8/8/2
f 8/9/3 10/10/3 12/11/3 6/12/3
f 6/13/4 2/14/4 4/15/4 8/16/4
f 2/17/5 11/18/5 9/19/5 4/20/5
f 6/21/6 12/22/6 11/23/6 2/24/6
f 3/25/7 7/26/7 10/7/7 9/6/7
f 1/27/8 3/28/8 9/19/8 11/18/8
f 7/29/9 5/30/9 12/11/9 10/10/9
f 5/31/10 1/32/10 11/23/10 12/22/10
f 13/33/1 17/34/1 19/35/1 15/36/1
f 16/37/2 21/38/2 22/39/2 20/40/2
f 20/41/3 22/42/3 24/43/3 18/44/3
f 18/45/4 14/46/4 16/47/4 20/48/4
f 14/49/5 23/50/5 21/51/5 16/52/5
f 18/53/6 24/54/6 23/55/6 14/56/6
f 15/57/7 19/58/7 22/39/7 21/38/7
f 13/59/8 15/60/8 21/51/8 23/50/8
f 19/61/9 17/62/9 24/43/9 22/42/9
f 17/63/10 13/64/10 23/55/10 24/54/10
f 25/65/1 29/66/1 31/67/1 27/68/1
f 28/69/2 33/70/2 34/71/2 32/72/2
f 32/73/3 34/74/3 36/75/3 30/76/3
f 30/77/4 26/78/4 28/79/4 32/80/4
f 26/81/5 35/82/5 33/83/5 28/84/5
f 30/85/6 36/86/6 35/87/6 26/88/6
f 27/89/7 31/90/7 34/71/7 33/70/7
f 25/91/8 27/92/8 33/83/8 35/82/8
f 31/93/9 29/94/9 36/75/9 34/74/9
f 29/95/10 25/96/10 35/87/10 36/86/10
f 37/97/1 41/98/1 43/99/1 39/100/1
f 40/101/2 45/102/2 46/103/2 44/104/2
f 44/105/3 46/106/3 48/107/3 42/108/3
f 42/109/4 38/110/4 40/111/4 44/112/4
f 38/113/5 47/114/5 45/115/5 40/116/5
f 42/117/6 48/118/6 47/119/6 38/120/6
f 39/121/7 43/122/7 46/103/7 45/102/7
f 37/123/8 39/124/8 45/115/8 47/114/8
f 43/125/9 41/126/9 48/107/9 46/106/9
f 41/127/10 37/128/10 47/119/10 48/118/10
f 49/129/1 53/130/1 55/131/1 51/132/1
f 52/133/2 57/134/2 58/135/2 56/136/2
f 56/137/3 58/138/3 60/139/3 54/140/3
f 54/141/4 50/142/4 52/143/4 56/144/4
f 50/145/5 59/146/5 57/147/5 52/148/5
f 54/149/6 60/150/6 59/151/6 50/152/6
f 51/153/7 55/154/7 58/135/7 57/134/7
f 49/155/8 51/156/8 57/147/8 59/146/8
f 55/157/9 53/158/9 60/139/9 58/138/9
f 53/159/10 49/160/10 59/151/10 60/150/10
f 61/161/1 65/162/1 67/163/1 63/164/1
f 64/165/2 69/166/2 70/167/2 68/168/2
f 68/169/3 70/170/3 72/171/3 66/172/3
f 66/173/4 62/174/4 64/175/4 68/176/4
f 62/177/5 71/178/5 69/179/5 64/180/5
f 66/181/6 72/182/6 71/183/6 62/184/6
f 63/185/7 67/186/7 70/167/7 69/166/7
f 61/187/8 63/188/8 69/179/8 71/178/8
f 67/189/9 65/190/9 72/171/9 70/170/9
f 65/191/10 61/192/10 71/183/10 72/182/10
f 73/193/1 77/194/1 79/195/1 75/196/1
f 76/197/2 81/198/2 82/199/2 80/200/2
f 80/201/3 82/202/3 84/203/3 78/204/3
f 78/205/4 74/206/4 76/207/4 80/208/4
f 74/209/5 83/210/5 81/211/5 76/212/5
f 78/213/6 84/214/6 83/215/6 74/216/6
f 75/217/7 79/218/7 82/199/7 81/198/7
f 73/219/8 75/220/8 81/211/8 83/210/8
f 79/221/9 77/222/9 84/203/9 82/202/9
f 77/223/10 73/224/10 83/215/10 84/214/10
f 85/225/1 89/226/1 91/227/1 87/228/1
f 88/229/2 93/230/2 94/231/2 92/232/2
f 92/233/3 94/234/3 96/235/3 90/236/3
f 90/237/4 86/238/4 88/239/4 92/240/4
f 86/241/5 95/242/5 93/243/5 88/244/5
f 90/245/6 96/246/6 95/247/6 86/248/6
f 87/249/7 91/250/7 94/231/7 93/230/7
f 85/251/8 87/252/8 93/243/8 95/242/8
f 91/253/9 89/254/9 96/235/9 94/234/9
f 89/255/10 85/256/10 95/247/10 96/246/10
