# Blender 4.2.2 LTS
# www.blender.org
mtllib Coconut.mtl
o Coconut
v 1.106048 -0.565493 -0.840658
v 1.106048 -0.565493 1.368750
v -1.103360 -0.565493 -0.840658
v -1.103360 -0.565493 1.368750
v -1.264498 -0.726631 -0.391375
v -1.345440 -0.807573 0.264046
v -1.264498 -0.726631 0.919467
v 0.656765 -0.726631 -1.001796
v 0.001344 -0.807573 -1.082738
v -0.654078 -0.726631 -1.001796
v 1.348127 0.539211 -1.082738
v 1.267185 -0.116210 -1.001796
v -1.264498 -0.116210 1.529888
v -1.345440 0.539211 1.610830
v 1.348127 0.539211 1.610830
v 1.267185 -0.116210 1.529888
v -1.345440 0.539211 -1.082738
v -1.264498 -0.116210 -1.001796
v -0.654078 -0.726631 1.529888
v 0.001344 -0.807573 1.610830
v 0.656765 -0.726631 1.529888
v 1.267185 -0.726631 0.919467
v 1.348127 -0.807573 0.264046
v 1.267185 -0.726631 -0.391375
v 0.699863 -0.159309 1.874682
v 0.737387 0.539211 1.991425
v 0.001344 -0.196832 1.991425
v 0.001344 0.539211 2.118858
v -0.697176 -0.159309 1.874682
v -0.734699 0.539211 1.991425
v -1.609292 -0.159309 0.962566
v -1.726035 0.539211 1.000089
v -1.726035 -0.196832 0.264046
v -1.853468 0.539211 0.264046
v -1.609292 -0.159309 -0.434474
v -1.726035 0.539211 -0.471997
v -0.697176 -1.071425 -0.434474
v 0.001344 -1.188168 -0.471997
v 0.699863 -1.071425 -0.434474
v -0.734699 -1.188168 0.264046
v 0.001344 -1.315601 0.264046
v 0.737387 -1.188168 0.264046
v -0.697176 -1.071425 0.962566
v 0.001344 -1.188168 1.000089
v 0.699863 -1.071425 0.962566
v 1.611979 -0.159309 -0.434474
v 1.728723 0.539211 -0.471997
v 1.728723 -0.196832 0.264046
v 1.856155 0.539211 0.264046
v 1.611979 -0.159309 0.962566
v 1.728723 0.539211 1.000089
v -0.697176 -0.159309 -1.346590
v -0.734699 0.539211 -1.463333
v 0.001344 -0.196832 -1.463333
v 0.001344 0.539211 -1.590766
v 0.699863 -0.159309 -1.346590
v 0.737387 0.539211 -1.463333
v 0.914708 -0.374153 -0.649318
v 0.914708 -0.374153 1.177410
v -0.912021 -0.374153 -0.649318
v -0.912021 -0.374153 1.177410
v -1.042139 -0.504272 -0.286753
v -1.111097 -0.573230 0.264046
v -1.042139 -0.504272 0.814845
v 0.552143 -0.504272 -0.779437
v 0.001344 -0.573230 -0.848395
v -0.549456 -0.504272 -0.779437
v 1.117282 0.596251 -0.851892
v 1.044827 -0.011588 -0.779437
v -1.042139 -0.011588 1.307529
v -1.114594 0.596251 1.379984
v 1.117282 0.596251 1.379984
v 1.044827 -0.011588 1.307529
v -1.114594 0.596251 -0.851892
v -1.042139 -0.011588 -0.779437
v -0.549456 -0.504272 1.307529
v 0.001344 -0.573230 1.376487
v 0.552143 -0.504272 1.307529
v 1.044827 -0.504272 0.814845
v 1.113785 -0.573230 0.264046
v 1.044827 -0.504272 -0.286753
v 0.588445 -0.047890 1.583126
v 0.621150 0.596148 1.686334
v 0.001344 -0.078841 1.681729
v 0.001344 0.596270 1.792396
v -0.585757 -0.047890 1.583126
v -0.618463 0.596148 1.686334
v -1.317737 -0.047890 0.851147
v -1.420944 0.596148 0.883852
v -1.416339 -0.078841 0.264046
v -1.527005 0.596270 0.264046
v -1.317737 -0.047890 -0.323055
v -1.420944 0.596148 -0.355760
v -0.585757 -0.779869 -0.323055
v 0.001344 -0.878472 -0.354006
v 0.588445 -0.779869 -0.323055
v -0.616709 -0.878472 0.264046
v 0.001344 -0.984190 0.264046
v 0.619396 -0.878472 0.264046
v -0.585757 -0.779869 0.851147
v 0.001344 -0.878472 0.882098
v 0.588445 -0.779869 0.851147
v 1.320424 -0.047890 -0.323055
v 1.423632 0.596148 -0.355760
v 1.419026 -0.078841 0.264046
v 1.529693 0.596270 0.264046
v 1.320424 -0.047890 0.851147
v 1.423632 0.596148 0.883852
v -0.585757 -0.047890 -1.055034
v -0.618463 0.596148 -1.158242
v 0.001344 -0.078841 -1.153637
v 0.001344 0.596270 -1.264303
v 0.588445 -0.047890 -1.055034
v 0.621150 0.596148 -1.158242
v -0.141780 -0.965102 -0.268215
v -0.242113 1.629600 -1.541913
v -0.139490 -1.041387 -0.423799
v -0.239823 1.553315 -1.697497
v 0.030891 -0.958714 -0.268805
v -0.069441 1.635987 -1.542503
v 0.033183 -1.034999 -0.424389
v -0.067150 1.559702 -1.698087
v -0.908050 1.029800 -2.314016
v -0.976063 1.702327 -0.527130
v 1.052497 1.069443 -2.254312
v 0.984484 1.741970 -0.467426
v -1.157979 1.488658 -1.474932
v -1.110342 0.372503 -2.298132
v -1.193260 1.192404 -0.119676
v -0.004353 1.922774 -0.349311
v 1.196912 1.240734 -0.046889
v 1.232193 1.536988 -1.402145
v 1.279830 0.420833 -2.225345
v 0.078566 1.102873 -2.527767
v -1.602605 0.773338 -1.222632
v -0.013813 1.371209 0.327591
v 1.689175 0.839898 -1.122389
v 0.100383 0.242028 -2.672612
v 0.034776 1.779215 -1.538888
vn -0.3359 0.3320 -0.8815
vn -0.0000 0.3507 -0.9365
vn -0.0000 0.8527 -0.5224
vn -0.1820 0.8575 -0.4813
vn 0.3359 0.3320 -0.8815
vn 0.1820 0.8575 -0.4813
vn -0.5774 0.5774 -0.5774
vn -0.3158 0.6709 -0.6709
vn -0.6718 0.3119 -0.6718
vn -0.3532 0.8663 -0.3532
vn 0.6718 0.3119 -0.6718
vn 0.3532 0.8663 -0.3532
vn 0.3158 0.6709 -0.6709
vn 0.5774 0.5774 -0.5774
vn -0.0000 0.7071 -0.7071
vn 0.8815 0.3320 -0.3359
vn 0.9365 0.3507 -0.0000
vn 0.5224 0.8527 -0.0000
vn 0.4813 0.8575 -0.1820
vn 0.8815 0.3320 0.3359
vn 0.4813 0.8575 0.1820
vn 0.6709 0.6709 -0.3158
vn 0.6718 0.3119 0.6718
vn 0.3532 0.8663 0.3532
vn 0.6709 0.6709 0.3158
vn 0.5774 0.5774 0.5774
vn 0.7071 0.7071 -0.0000
vn 0.3356 0.8802 0.3356
vn 0.3541 0.9352 -0.0000
vn -0.0000 1.0000 -0.0000
vn -0.0000 0.9352 0.3541
vn -0.3541 0.9352 -0.0000
vn -0.3356 0.8802 0.3356
vn 0.3356 0.8802 -0.3356
vn -0.0000 0.9352 -0.3541
vn -0.3356 0.8802 -0.3356
vn 0.3158 0.6709 0.6709
vn -0.0000 0.7071 0.7071
vn -0.3158 0.6709 0.6709
vn -0.6709 0.6709 0.3158
vn -0.5774 0.5774 0.5774
vn -0.7071 0.7071 -0.0000
vn -0.6709 0.6709 -0.3158
vn -0.8815 0.3320 0.3359
vn -0.9365 0.3507 -0.0000
vn -0.5224 0.8527 -0.0000
vn -0.4813 0.8575 0.1820
vn -0.8815 0.3320 -0.3359
vn -0.4813 0.8575 -0.1820
vn -0.6718 0.3119 0.6718
vn -0.3532 0.8663 0.3532
vn 0.3359 0.3320 0.8815
vn -0.0000 0.3507 0.9365
vn -0.0000 0.8527 0.5224
vn 0.1820 0.8575 0.4813
vn -0.3359 0.3320 0.8815
vn -0.1820 0.8575 0.4813
vn 0.3362 -0.3362 0.8797
vn 0.3002 0.5376 0.7880
vn -0.0000 0.5412 0.8409
vn -0.0000 -0.3560 0.9345
vn -0.3002 0.5376 0.7880
vn -0.3362 -0.3362 0.8797
vn 0.5774 -0.5774 0.5774
vn 0.6709 -0.3157 0.6709
vn 0.3157 -0.6709 0.6709
vn 0.5989 0.5317 0.5989
vn -0.5989 0.5317 0.5989
vn -0.6709 -0.3157 0.6709
vn -0.3157 -0.6709 0.6709
vn -0.5774 -0.5774 0.5774
vn -0.0000 -0.7071 0.7071
vn -0.8797 -0.3362 0.3362
vn -0.7880 0.5376 0.3002
vn -0.8409 0.5412 -0.0000
vn -0.9345 -0.3560 -0.0000
vn -0.7880 0.5376 -0.3002
vn -0.8797 -0.3362 -0.3362
vn -0.6709 -0.6709 0.3157
vn -0.5989 0.5317 -0.5989
vn -0.6709 -0.3157 -0.6709
vn -0.6709 -0.6709 -0.3157
vn -0.5774 -0.5774 -0.5774
vn -0.7071 -0.7071 -0.0000
vn -0.3362 -0.8797 -0.3362
vn -0.0000 -0.9345 -0.3560
vn -0.0000 -1.0000 -0.0000
vn -0.3560 -0.9345 -0.0000
vn 0.3362 -0.8797 -0.3362
vn 0.3560 -0.9345 -0.0000
vn -0.0000 -0.9345 0.3560
vn -0.3362 -0.8797 0.3362
vn 0.3362 -0.8797 0.3362
vn -0.3157 -0.6709 -0.6709
vn -0.0000 -0.7071 -0.7071
vn 0.3157 -0.6709 -0.6709
vn 0.5774 -0.5774 -0.5774
vn 0.6709 -0.6709 -0.3157
vn 0.7071 -0.7071 -0.0000
vn 0.6709 -0.6709 0.3157
vn 0.8797 -0.3362 -0.3362
vn 0.7880 0.5376 -0.3002
vn 0.8409 0.5412 -0.0000
vn 0.9345 -0.3560 -0.0000
vn 0.7880 0.5376 0.3002
vn 0.8797 -0.3362 0.3362
vn 0.6709 -0.3157 -0.6709
vn 0.5989 0.5317 -0.5989
vn -0.3362 -0.3362 -0.8797
vn -0.3002 0.5376 -0.7880
vn -0.0000 0.5412 -0.8409
vn -0.0000 -0.3560 -0.9345
vn 0.3002 0.5376 -0.7880
vn 0.3362 -0.3362 -0.8797
vn -0.5646 -0.2852 0.7746
vn -0.6046 0.7508 0.2661
vn -0.5894 0.2425 -0.7706
vn -0.5493 -0.7935 -0.2621
vn 0.5646 0.2852 -0.7746
vn 0.6046 -0.7508 -0.2661
vn 0.5493 0.7935 0.2621
vn 0.5893 -0.2425 0.7706
vn -0.4854 0.4674 -0.7389
vn -0.5946 0.2267 -0.7714
vn -0.8839 0.4256 -0.1938
vn -0.6241 0.7231 -0.2959
vn -0.6388 0.6636 0.3893
vn -0.5217 0.8259 0.2138
vn -0.0353 0.7461 0.6649
vn -0.0286 0.9513 0.3071
vn 0.5866 0.6884 0.4267
vn 0.4739 0.8460 0.2441
vn 0.8762 0.4611 -0.1402
vn 0.6112 0.7481 -0.2583
vn 0.6308 0.2515 -0.7341
vn 0.5102 0.4875 -0.7085
vn 0.0277 0.1224 -0.9921
vn 0.0158 0.5126 -0.8585
vn -0.0082 0.9358 -0.3525
vt 0.876947 0.514500
vt 0.872121 0.455974
vt 0.935408 0.451736
vt 0.937366 0.513668
vt 0.876947 0.400719
vt 0.937366 0.393548
vt 0.852903 0.554379
vt 0.837893 0.517390
vt 0.885578 0.563464
vt 0.943064 0.567149
vt 0.885578 0.361235
vt 0.943064 0.350877
vt 0.798824 0.650102
vt 0.780278 0.669269
vt 0.742472 0.658925
vt 0.753124 0.623930
vt 0.829938 0.463034
vt 0.837893 0.410644
vt 0.742545 0.708159
vt 0.745572 0.766828
vt 0.678188 0.768637
vt 0.678207 0.706674
vt 0.746033 0.821886
vt 0.681889 0.826736
vt 0.791703 0.706795
vt 0.682061 0.653041
vt 0.748670 0.861057
vt 0.688690 0.869209
vt 0.794975 0.813489
vt 0.785703 0.846195
vt 0.798824 0.761419
vt 0.449762 0.782909
vt 0.452914 0.725021
vt 0.512683 0.732044
vt 0.506192 0.792611
vt 0.573687 0.739211
vt 0.564487 0.796389
vt 0.463266 0.667979
vt 0.520408 0.671621
vt 0.577991 0.681459
vt 0.416503 0.811376
vt 0.407199 0.774306
vt 0.449670 0.828185
vt 0.502290 0.841211
vt 0.557302 0.840832
vt 0.611106 0.798264
vt 0.594983 0.832348
vt 0.623775 0.745097
vt 0.623775 0.690440
vt 0.581304 0.636561
vt 0.615992 0.653548
vt 0.527878 0.623440
vt 0.473672 0.623914
vt 0.419868 0.666482
vt 0.437512 0.632577
vt 0.406393 0.719555
vt 0.858010 0.787553
vt 0.853184 0.729028
vt 0.916471 0.724789
vt 0.918429 0.786721
vt 0.858010 0.673772
vt 0.918429 0.666601
vt 0.833966 0.827432
vt 0.818956 0.790444
vt 0.866642 0.836518
vt 0.924128 0.840202
vt 0.866642 0.634288
vt 0.924128 0.623931
vt 0.818956 0.683697
vt 0.833966 0.650420
vt 0.811001 0.736087
vt 0.886784 0.087322
vt 0.891611 0.145848
vt 0.828323 0.150086
vt 0.826366 0.088154
vt 0.886784 0.201103
vt 0.826366 0.208274
vt 0.910829 0.047443
vt 0.925839 0.084432
vt 0.878153 0.038358
vt 0.820667 0.034673
vt 0.878153 0.240588
vt 0.820667 0.250945
vt 0.925839 0.191178
vt 0.910829 0.224455
vt 0.933794 0.138788
vt 0.304627 0.600466
vt 0.234753 0.601822
vt 0.235110 0.528213
vt 0.308675 0.530694
vt 0.240031 0.459273
vt 0.309636 0.465184
vt 0.351566 0.649148
vt 0.304591 0.661711
vt 0.365897 0.602722
vt 0.239377 0.667936
vt 0.249035 0.407104
vt 0.313669 0.416555
vt 0.370597 0.475786
vt 0.359488 0.435200
vt 0.374637 0.537787
vt 0.150396 0.476975
vt 0.220170 0.472998
vt 0.222575 0.546568
vt 0.148969 0.546850
vt 0.220245 0.615645
vt 0.150467 0.612350
vt 0.101664 0.430088
vt 0.148134 0.415772
vt 0.089084 0.477020
vt 0.213069 0.407104
vt 0.213205 0.668114
vt 0.148261 0.661095
vt 0.089150 0.604042
vt 0.101775 0.644183
vt 0.082787 0.542236
vt 0.604077 0.551187
vt 0.538778 0.545975
vt 0.546099 0.472730
vt 0.614559 0.482117
vt 0.469424 0.537341
vt 0.472673 0.467527
vt 0.548455 0.403669
vt 0.613260 0.416136
vt 0.478607 0.402290
vt 0.630700 0.602784
vt 0.589476 0.611263
vt 0.652324 0.558304
vt 0.527349 0.611263
vt 0.463132 0.598271
vt 0.417748 0.580887
vt 0.408309 0.533212
vt 0.406393 0.467722
vt 0.416926 0.406494
vt 0.432271 0.367305
vt 0.479774 0.353535
vt 0.545055 0.350877
vt 0.606118 0.366527
vt 0.045171 0.464023
vt 0.077713 0.407104
vt 0.034604 0.532773
vt 0.666011 0.494418
vt 0.104857 0.821427
vt 0.039280 0.822860
vt 0.039158 0.749250
vt 0.108306 0.751650
vt 0.034604 0.680292
vt 0.100420 0.686126
vt 0.136734 0.870040
vt 0.096487 0.882660
vt 0.153732 0.823603
vt 0.034604 0.888956
vt 0.317686 0.705501
vt 0.248946 0.715979
vt 0.374637 0.673015
vt 0.160904 0.758657
vt 0.149568 0.696650
vt 0.747894 0.418663
vt 0.817760 0.416968
vt 0.817760 0.490578
vt 0.744184 0.488455
vt 0.813175 0.559541
vt 0.743542 0.553969
vt 0.700719 0.370210
vt 0.747631 0.357419
vt 0.686613 0.416706
vt 0.812815 0.350877
vt 0.804424 0.611753
vt 0.739745 0.602616
vt 0.682529 0.543662
vt 0.693836 0.584194
vt 0.678188 0.481682
vt 0.245540 0.034673
vt 0.314753 0.059380
vt 0.298695 0.087118
vt 0.240392 0.066434
vt 0.172049 0.034717
vt 0.178527 0.066350
vt 0.367571 0.106572
vt 0.341649 0.125180
vt 0.106456 0.061446
vt 0.125291 0.087788
vt 0.034604 0.183725
vt 0.059311 0.114380
vt 0.087266 0.130837
vt 0.066582 0.189252
vt 0.034604 0.257339
vt 0.066461 0.251220
vt 0.061249 0.323027
vt 0.087832 0.304533
vt 0.394215 0.245874
vt 0.369509 0.315219
vt 0.342214 0.298876
vt 0.362899 0.240462
vt 0.394215 0.172260
vt 0.363019 0.178494
vt 0.322363 0.368154
vt 0.304190 0.341925
vt 0.183280 0.394927
vt 0.114066 0.370220
vt 0.130785 0.342596
vt 0.189090 0.363280
vt 0.256771 0.394882
vt 0.250953 0.363364
vt 0.653031 0.623440
vt 0.653031 0.908476
vt 0.635953 0.908476
vt 0.635953 0.623440
vt 0.963000 0.034673
vt 0.963000 0.319708
vt 0.945971 0.319708
vt 0.945971 0.034673
vt 0.953384 0.623930
vt 0.953384 0.908966
vt 0.936305 0.908966
vt 0.936305 0.623930
vt 0.190111 0.680292
vt 0.190111 0.965327
vt 0.173082 0.965327
vt 0.173082 0.680292
vt 0.219318 0.726627
vt 0.202289 0.726627
vt 0.202289 0.709548
vt 0.219318 0.709548
vt 0.219318 0.697371
vt 0.202289 0.697371
vt 0.202289 0.680292
vt 0.219318 0.680292
vt 0.438624 0.131446
vt 0.406393 0.116265
vt 0.498395 0.034673
vt 0.520579 0.079384
vt 0.620922 0.036353
vt 0.614592 0.065898
vt 0.693148 0.071122
vt 0.749423 0.034673
vt 0.798406 0.143736
vt 0.715176 0.165279
vt 0.808489 0.262868
vt 0.741597 0.258300
vt 0.768068 0.319254
vt 0.693148 0.292723
vt 0.601503 0.300139
vt 0.609844 0.338700
vt 0.487317 0.337020
vt 0.505002 0.312521
vt 0.406393 0.241714
vt 0.453776 0.229718
vt 0.668306 0.149806
vt 0.563652 0.190922
vt 0.680970 0.246973
s 1
usemtl Coconut_MAT
f 82/1/1 84/2/2 85/3/3 83/4/4
f 84/2/2 86/5/5 87/6/6 85/3/3
f 59/7/7 78/8/8 82/1/1 73/9/9
f 73/9/9 82/1/1 83/4/4 72/10/10
f 86/5/5 70/11/11 71/12/12 87/6/6
f 76/13/13 61/14/14 70/15/11 86/16/5
f 77/17/15 76/18/13 86/5/5 84/2/2
f 78/8/8 77/17/15 84/2/2 82/1/1
f 88/19/16 90/20/17 91/21/18 89/22/19
f 90/20/17 92/23/20 93/24/21 91/21/18
f 61/14/14 64/25/22 88/19/16 70/15/11
f 70/15/11 88/19/16 89/22/19 71/26/12
f 92/23/20 75/27/23 74/28/24 93/24/21
f 62/29/25 60/30/26 75/27/23 92/23/20
f 63/31/27 62/29/25 92/23/20 90/20/17
f 64/25/22 63/31/27 90/20/17 88/19/16
f 94/32/28 97/33/29 98/34/30 95/35/31
f 95/35/31 98/34/30 99/36/32 96/37/33
f 97/33/29 100/38/34 101/39/35 98/34/30
f 98/34/30 101/39/35 102/40/36 99/36/32
f 60/41/26 62/42/25 94/32/28 67/43/37
f 67/43/37 94/32/28 95/35/31 66/44/38
f 66/44/38 95/35/31 96/37/33 65/45/39
f 65/45/39 96/37/33 81/46/40 58/47/41
f 96/37/33 99/36/32 80/48/42 81/46/40
f 99/36/32 102/40/36 79/49/43 80/48/42
f 102/40/36 78/50/8 59/51/7 79/49/43
f 101/39/35 77/52/15 78/50/8 102/40/36
f 100/38/34 76/53/13 77/52/15 101/39/35
f 64/54/22 61/55/14 76/53/13 100/38/34
f 63/56/27 64/54/22 100/38/34 97/33/29
f 62/42/25 63/56/27 97/33/29 94/32/28
f 103/57/44 105/58/45 106/59/46 104/60/47
f 105/58/45 107/61/48 108/62/49 106/59/46
f 58/63/41 81/64/40 103/57/44 69/65/50
f 69/65/50 103/57/44 104/60/47 68/66/51
f 107/61/48 73/67/9 72/68/10 108/62/49
f 79/69/43 59/70/7 73/67/9 107/61/48
f 80/71/42 79/69/43 107/61/48 105/58/45
f 81/64/40 80/71/42 105/58/45 103/57/44
f 109/72/52 111/73/53 112/74/54 110/75/55
f 111/73/53 113/76/56 114/77/57 112/74/54
f 60/78/26 67/79/37 109/72/52 75/80/23
f 75/80/23 109/72/52 110/75/55 74/81/24
f 113/76/56 69/82/50 68/83/51 114/77/57
f 65/84/39 58/85/41 69/82/50 113/76/56
f 66/86/38 65/84/39 113/76/56 111/73/53
f 67/79/37 66/86/38 111/73/53 109/72/52
f 25/87/58 26/88/59 28/89/60 27/90/61
f 27/90/61 28/89/60 30/91/62 29/92/63
f 2/93/64 16/94/65 25/87/58 21/95/66
f 16/94/65 15/96/67 26/88/59 25/87/58
f 29/92/63 30/91/62 14/97/68 13/98/69
f 19/99/70 29/92/63 13/98/69 4/100/71
f 20/101/72 27/90/61 29/92/63 19/99/70
f 21/95/66 25/87/58 27/90/61 20/101/72
f 31/102/73 32/103/74 34/104/75 33/105/76
f 33/105/76 34/104/75 36/106/77 35/107/78
f 4/108/71 13/109/69 31/102/73 7/110/79
f 13/109/69 14/111/68 32/103/74 31/102/73
f 35/107/78 36/106/77 17/112/80 18/113/81
f 5/114/82 35/107/78 18/113/81 3/115/83
f 6/116/84 33/105/76 35/107/78 5/114/82
f 7/110/79 31/102/73 33/105/76 6/116/84
f 37/117/85 38/118/86 41/119/87 40/120/88
f 38/118/86 39/121/89 42/122/90 41/119/87
f 40/120/88 41/119/87 44/123/91 43/124/92
f 41/119/87 42/122/90 45/125/93 44/123/91
f 3/126/83 10/127/94 37/117/85 5/128/82
f 10/127/94 9/129/95 38/118/86 37/117/85
f 9/129/95 8/130/96 39/121/89 38/118/86
f 8/130/96 1/131/97 24/132/98 39/121/89
f 39/121/89 24/132/98 23/133/99 42/122/90
f 42/122/90 23/133/99 22/134/100 45/125/93
f 45/125/93 22/134/100 2/135/64 21/136/66
f 44/123/91 45/125/93 21/136/66 20/137/72
f 43/124/92 44/123/91 20/137/72 19/138/70
f 7/110/79 43/139/92 19/140/70 4/108/71
f 6/116/84 40/141/88 43/139/92 7/110/79
f 5/128/82 37/117/85 40/120/88 6/142/84
f 46/143/101 47/144/102 49/145/103 48/146/104
f 48/146/104 49/145/103 51/147/105 50/148/106
f 1/149/97 12/150/107 46/143/101 24/151/98
f 12/150/107 11/152/108 47/144/102 46/143/101
f 50/153/106 51/154/105 15/96/67 16/94/65
f 22/155/100 50/153/106 16/94/65 2/93/64
f 23/156/99 48/146/104 50/148/106 22/157/100
f 24/151/98 46/143/101 48/146/104 23/156/99
f 52/158/109 53/159/110 55/160/111 54/161/112
f 54/161/112 55/160/111 57/162/113 56/163/114
f 3/164/83 18/165/81 52/158/109 10/166/94
f 18/165/81 17/167/80 53/159/110 52/158/109
f 56/163/114 57/162/113 11/168/108 12/169/107
f 8/170/96 56/163/114 12/169/107 1/171/97
f 9/172/95 54/161/112 56/163/114 8/170/96
f 10/166/94 52/158/109 54/161/112 9/172/95
f 28/173/60 26/174/59 83/175/4 85/176/3
f 30/177/62 28/173/60 85/176/3 87/178/6
f 26/174/59 15/179/67 72/180/10 83/175/4
f 14/181/68 30/177/62 87/178/6 71/182/12
f 34/183/75 32/184/74 89/185/19 91/186/18
f 36/187/77 34/183/75 91/186/18 93/188/21
f 32/184/74 14/181/68 71/182/12 89/185/19
f 17/189/80 36/187/77 93/188/21 74/190/24
f 49/191/103 47/192/102 104/193/47 106/194/46
f 51/195/105 49/191/103 106/194/46 108/196/49
f 47/192/102 11/197/108 68/198/51 104/193/47
f 15/179/67 51/195/105 108/196/49 72/180/10
f 55/199/111 53/200/110 110/201/55 112/202/54
f 57/203/113 55/199/111 112/202/54 114/204/57
f 53/200/110 17/189/80 74/190/24 110/201/55
f 11/197/108 57/203/113 114/204/57 68/198/51
f 115/205/115 116/206/116 118/207/117 117/208/118
f 117/209/118 118/210/117 122/211/119 121/212/120
f 121/213/120 122/214/119 120/215/121 119/216/122
f 119/217/122 120/218/121 116/219/116 115/220/115
f 117/221/118 121/222/120 119/223/122 115/224/115
f 122/225/119 118/226/117 116/227/116 120/228/121
f 123/229/123 128/230/124 135/231/125 127/232/126
f 127/232/126 135/231/125 129/233/127 124/234/128
f 124/235/128 129/236/127 136/237/129 130/238/130
f 130/238/130 136/237/129 131/239/131 126/240/132
f 126/240/132 131/239/131 137/241/133 132/242/134
f 132/243/134 137/244/133 133/245/135 125/246/136
f 125/246/136 133/245/135 138/247/137 134/248/138
f 134/248/138 138/247/137 128/230/124 123/229/123
f 124/234/128 130/249/130 139/250/139 127/232/126
f 130/249/130 126/251/132 132/243/134 139/250/139
f 139/250/139 132/243/134 125/246/136 134/248/138
f 127/232/126 139/250/139 134/248/138 123/229/123
