# Blender 4.2.2 LTS
# www.blender.org
mtllib Starcake.mtl
o Star.001
v -0.000000 2.112504 0.000000
v -0.000000 -1.282477 0.000000
v 3.453869 1.546674 0.928839
v 3.453870 -0.716646 0.928839
v 4.400335 1.546674 -1.684528
v 4.400334 -0.716646 -1.684528
v 1.950683 1.546674 -2.997799
v 1.950683 -0.716646 -2.997799
v -0.242303 1.546674 -4.705514
v -0.242303 -0.716646 -4.705514
v -2.248283 1.546674 -2.781579
v -2.248282 -0.716646 -2.781579
v -4.550086 1.546674 -1.223641
v -4.550086 -0.716646 -1.223641
v -3.340197 1.546674 1.278687
v -3.340197 -0.716646 1.278687
v -2.569805 1.546674 3.949263
v -2.569805 -0.716646 3.949263
v 0.183927 1.546674 3.571853
v 0.183927 -0.716646 3.571853
v 2.961858 1.546674 3.664421
v 2.961857 -0.716646 3.664420
v 3.300077 1.546674 2.614015
v 2.375008 2.041776 0.638704
v 1.940974 2.041776 2.401379
v 2.883641 2.041776 -1.103910
v 4.166072 1.546674 -0.606165
v 1.341361 2.041776 -2.061397
v 3.505856 1.546674 -2.330787
v -0.158787 2.041776 -3.083632
v 0.710890 1.546674 -4.149485
v -1.546002 2.041776 -1.912717
v -1.133342 1.546674 -4.054519
v -2.981777 2.041776 -0.801880
v -3.726718 1.546674 -1.958357
v -2.296843 2.041776 0.879273
v -4.206299 1.546674 -0.175044
v -1.684053 2.041776 2.588043
v -3.014128 1.546674 2.939153
v 0.126475 2.041776 2.456138
v -1.466294 1.546674 3.946336
v 1.863883 1.546674 3.774855
v 3.300078 -0.716646 2.614015
v 3.828896 0.415014 1.029693
v 3.306223 0.415014 4.090471
v 4.166072 -0.716646 -0.606165
v 4.911947 0.415014 -1.880382
v 3.505856 -0.716646 -2.330787
v 2.162491 0.415014 -3.323304
v 0.710890 -0.716646 -4.149485
v -0.270475 0.415014 -5.252610
v -1.133342 -0.716646 -4.054520
v -2.492405 0.415014 -3.083608
v -3.726718 -0.716646 -1.958357
v -5.079109 0.415014 -1.365909
v -4.206298 -0.716646 -0.175044
v -3.702881 0.415014 1.417529
v -3.014128 -0.716646 2.939153
v -2.868588 0.415014 4.408432
v -1.466294 -0.716646 3.946337
v 0.203898 0.415014 3.959691
v 1.863883 -0.716646 3.774855
v 1.940974 -1.211748 2.401379
v 2.375008 -1.211748 0.638704
v 2.883641 -1.211748 -1.103910
v 1.341361 -1.211748 -2.061397
v -0.158787 -1.211748 -3.083633
v -1.546002 -1.211748 -1.912717
v -2.981777 -1.211748 -0.801880
v -2.296843 -1.211748 0.879273
v -1.684053 -1.211748 2.588044
v 0.126475 -1.211748 2.456138
v 2.515992 2.006412 1.973132
v 3.166296 2.006412 -0.445011
v 2.654044 2.006412 -1.783121
v 0.555209 2.006412 -3.148843
v -0.875705 2.006412 -3.075161
v -2.823160 2.006412 -1.501082
v -3.195260 2.006412 -0.117433
v -2.300018 2.006412 2.221124
v -1.099075 2.006412 3.002584
v 1.401669 2.006412 2.873812
v 3.638939 0.415014 2.883150
v 4.594217 0.415014 -0.669032
v 3.866533 0.415014 -2.569896
v 0.783405 0.415014 -4.576103
v -1.249293 0.415014 -4.471432
v -4.110047 0.415014 -2.159155
v -4.638638 0.415014 -0.193602
v -3.323554 0.415014 3.241671
v -1.617543 0.415014 4.351780
v 2.055977 0.415014 4.162620
v 2.515992 -1.176384 1.973132
v 3.166297 -1.176383 -0.445011
v 2.654044 -1.176383 -1.783121
v 0.555209 -1.176383 -3.148843
v -0.875704 -1.176383 -3.075161
v -2.823160 -1.176383 -1.501082
v -3.195260 -1.176383 -0.117433
v -2.300017 -1.176383 2.221124
v -1.099075 -1.176383 3.002584
v 1.401669 -1.176383 2.873812
v 3.017515 1.746923 0.811491
v 2.548953 1.746922 3.153573
v 3.786895 1.746923 -1.449692
v 1.704237 1.746923 -2.619063
v -0.208524 1.746923 -4.049530
v -1.964239 1.746923 -2.430161
v -3.915770 1.746923 -1.053056
v -2.918204 1.746923 1.117140
v -2.211555 1.746923 3.398706
v 0.160690 1.746923 3.120592
v 2.982948 1.732619 2.354804
v 3.761704 1.732619 -0.540985
v 3.161333 1.732619 -2.109279
v 0.647923 1.732619 -3.744767
v -1.029138 1.732619 -3.658409
v -3.361266 1.732619 -1.773408
v -3.797376 1.732619 -0.151743
v -2.725300 1.732619 2.648740
v -1.317769 1.732619 3.564627
v 1.676937 1.732619 3.410420
vn -0.0000 1.0000 -0.0000
vn -0.0000 -1.0000 -0.0000
vn 0.7071 0.6810 0.1902
vn 0.7086 -0.6794 0.1906
vn 0.6882 0.6760 -0.2635
vn 0.6881 -0.6761 -0.2634
vn 0.3994 0.6810 -0.6137
vn 0.4002 -0.6794 -0.6150
vn -0.0379 0.6760 -0.7359
vn -0.0379 -0.6761 -0.7358
vn -0.4603 0.6810 -0.5695
vn -0.4613 -0.6794 -0.5707
vn -0.7116 0.6760 -0.1914
vn -0.7115 -0.6761 -0.1913
vn -0.6838 0.6810 0.2618
vn -0.6853 -0.6794 0.2623
vn -0.4019 0.6760 0.6176
vn -0.4018 -0.6761 0.6175
vn 0.0377 0.6810 0.7313
vn 0.0377 -0.6794 0.7328
vn 0.4632 0.6760 0.5731
vn 0.4631 -0.6761 0.5730
vn 0.7275 0.6697 0.1496
vn 0.1908 0.9803 0.0513
vn 0.1130 0.9837 0.1398
vn 0.1679 0.9837 -0.0643
vn 0.7044 0.6697 0.2355
vn 0.1077 0.9803 -0.1656
vn 0.3671 0.6697 -0.6456
vn -0.0092 0.9837 -0.1796
vn 0.4416 0.6697 -0.5971
vn -0.1242 0.9803 -0.1536
vn -0.5006 0.6697 -0.5486
vn -0.1736 0.9837 -0.0467
vn -0.4314 0.6697 -0.6045
vn -0.1845 0.9803 0.0706
vn -0.6765 0.6697 0.3066
vn -0.0981 0.9837 0.1507
vn -0.7082 0.6697 0.2235
vn 0.0102 0.9803 0.1973
vn 0.0825 0.6697 0.7381
vn -0.0063 0.6697 0.7426
vn 0.7212 -0.6743 0.1587
vn 0.9657 -0.0000 0.2597
vn 0.6286 -0.0000 0.7777
vn 0.7035 -0.6743 0.2245
vn 0.9339 -0.0000 -0.3575
vn 0.3738 -0.6743 -0.6368
vn 0.5454 -0.0000 -0.8382
vn 0.4309 -0.6743 -0.5997
vn -0.0514 -0.0000 -0.9987
vn -0.4902 -0.6743 -0.5523
vn -0.6286 -0.0000 -0.7777
vn -0.4372 -0.6743 -0.5951
vn -0.9657 -0.0000 -0.2597
vn -0.6767 -0.6743 0.2955
vn -0.9339 -0.0000 0.3575
vn -0.7011 -0.6743 0.2319
vn -0.5454 -0.0000 0.8382
vn 0.0720 -0.6743 0.7349
vn 0.0514 -0.0000 0.9987
vn 0.0039 -0.6743 0.7384
vn 0.1120 -0.9840 0.1385
vn 0.1899 -0.9805 0.0511
vn 0.1663 -0.9840 -0.0637
vn 0.1073 -0.9805 -0.1649
vn -0.0092 -0.9840 -0.1779
vn -0.1236 -0.9805 -0.1530
vn -0.1720 -0.9840 -0.0463
vn -0.1837 -0.9805 0.0703
vn -0.0971 -0.9840 0.1493
vn 0.0101 -0.9805 0.1964
vn 0.2699 0.9609 0.0616
vn 0.2644 0.9609 0.0821
vn 0.1420 0.9609 -0.2377
vn 0.1598 0.9609 -0.2261
vn -0.1822 0.9609 -0.2085
vn -0.1656 0.9609 -0.2219
vn -0.2546 0.9609 0.1089
vn -0.2622 0.9609 0.0890
vn 0.0249 0.9609 0.2758
vn 0.0036 0.9609 0.2769
vn 0.9796 -0.0000 0.2012
vn 0.9483 -0.0000 0.3173
vn 0.4940 -0.0000 -0.8694
vn 0.5948 -0.0000 -0.8039
vn -0.6742 -0.0000 -0.7385
vn -0.5807 -0.0000 -0.8141
vn -0.9107 -0.0000 0.4130
vn -0.9537 -0.0000 0.3007
vn 0.1114 -0.0000 0.9938
vn -0.0087 -0.0000 1.0000
vn 0.2754 -0.9595 0.0587
vn 0.2677 -0.9595 0.0873
vn 0.1409 -0.9595 -0.2437
vn 0.1658 -0.9595 -0.2276
vn -0.1883 -0.9595 -0.2094
vn -0.1652 -0.9595 -0.2280
vn -0.2573 -0.9595 0.1144
vn -0.2679 -0.9595 0.0867
vn 0.0292 -0.9595 0.2800
vn -0.0003 -0.9595 0.2816
vn 0.4263 0.8973 0.1146
vn 0.2089 0.9432 0.2584
vn 0.3103 0.9432 -0.1188
vn 0.2408 0.8973 -0.3700
vn -0.0171 0.9432 -0.3318
vn -0.2775 0.8973 -0.3433
vn -0.3209 0.9432 -0.0863
vn -0.4123 0.8973 0.1578
vn -0.1812 0.9432 0.2785
vn 0.0227 0.8973 0.4409
vn 0.3829 0.9188 0.0961
vn 0.3795 0.9188 0.1090
vn 0.2097 0.9188 -0.3345
vn 0.2209 0.9188 -0.3272
vn -0.2533 0.9188 -0.3028
vn -0.2429 0.9188 -0.3112
vn -0.3663 0.9188 0.1474
vn -0.3710 0.9188 0.1349
vn 0.0270 0.9188 0.3939
vn 0.0136 0.9188 0.3946
vt 0.933770 0.292915
vt 0.897397 0.292915
vt 0.923785 0.224467
vt 0.953856 0.210947
vt 0.762943 0.292915
vt 0.899508 0.193695
vt 0.942285 0.162616
vt 0.923785 0.361362
vt 0.899508 0.392135
vt 0.953856 0.374883
vt 0.942285 0.423214
vt 0.877744 0.424733
vt 0.804492 0.420787
vt 0.899895 0.449155
vt 0.815732 0.455381
vt 0.747549 0.467036
vt 0.710780 0.453456
vt 0.743983 0.499813
vt 0.694441 0.503743
vt 0.673052 0.442831
vt 0.654168 0.371944
vt 0.656671 0.471444
vt 0.624742 0.393324
vt 0.592587 0.332080
vt 0.594140 0.292915
vt 0.560312 0.338817
vt 0.541265 0.292915
vt 0.592587 0.253750
vt 0.654169 0.213885
vt 0.560312 0.247012
vt 0.624742 0.192506
vt 0.673052 0.142999
vt 0.710780 0.132373
vt 0.656671 0.114386
vt 0.694441 0.082086
vt 0.747549 0.118794
vt 0.804492 0.165042
vt 0.743983 0.086016
vt 0.815732 0.130449
vt 0.877744 0.161097
vt 0.899895 0.136675
vt 0.154362 0.710852
vt 0.088958 0.710852
vt 0.083501 0.610305
vt 0.149066 0.619703
vt 0.037782 0.710852
vt 0.032485 0.619703
vt 0.033471 0.559446
vt 0.083643 0.541842
vt 0.150052 0.559446
vt 0.083501 0.811400
vt 0.032485 0.802002
vt 0.149066 0.802002
vt 0.150052 0.862259
vt 0.083643 0.879862
vt 0.033471 0.862259
vt 0.159295 0.559446
vt 0.209467 0.541843
vt 0.209325 0.610305
vt 0.158309 0.619703
vt 0.275876 0.559446
vt 0.274890 0.619703
vt 0.280187 0.710852
vt 0.214782 0.710852
vt 0.163606 0.710852
vt 0.209325 0.811400
vt 0.158309 0.802002
vt 0.274890 0.802002
vt 0.275876 0.862259
vt 0.209467 0.879862
vt 0.159295 0.862259
vt 0.410944 0.559446
vt 0.461115 0.541843
vt 0.460973 0.610305
vt 0.409958 0.619703
vt 0.527525 0.559446
vt 0.526539 0.619703
vt 0.531835 0.710852
vt 0.466430 0.710852
vt 0.415254 0.710852
vt 0.460973 0.811400
vt 0.409958 0.802002
vt 0.526539 0.802002
vt 0.527525 0.862259
vt 0.461115 0.879862
vt 0.410944 0.862259
vt 0.285120 0.559446
vt 0.335291 0.541843
vt 0.335149 0.610305
vt 0.284134 0.619703
vt 0.401700 0.559446
vt 0.400714 0.619703
vt 0.406011 0.710852
vt 0.340606 0.710852
vt 0.289430 0.710852
vt 0.335149 0.811400
vt 0.284134 0.802002
vt 0.400714 0.802002
vt 0.401700 0.862259
vt 0.335291 0.879862
vt 0.285120 0.862259
vt 0.653349 0.862259
vt 0.586940 0.879862
vt 0.586797 0.811400
vt 0.652363 0.802002
vt 0.536768 0.862259
vt 0.535782 0.802002
vt 0.541078 0.710852
vt 0.592255 0.710852
vt 0.657659 0.710852
vt 0.586797 0.610305
vt 0.652363 0.619702
vt 0.535782 0.619702
vt 0.536768 0.559446
vt 0.586940 0.541842
vt 0.653349 0.559446
vt 0.283309 0.259095
vt 0.174534 0.338125
vt 0.112953 0.298260
vt 0.114506 0.259095
vt 0.125122 0.374024
vt 0.058758 0.309573
vt 0.025721 0.259095
vt 0.193418 0.409011
vt 0.165911 0.457057
vt 0.231146 0.419637
vt 0.203710 0.504076
vt 0.267914 0.433216
vt 0.261927 0.488254
vt 0.324857 0.386968
vt 0.343731 0.445055
vt 0.398109 0.390914
vt 0.435304 0.431920
vt 0.419874 0.358315
vt 0.491702 0.410502
vt 0.444151 0.327543
vt 0.494645 0.350245
vt 0.417762 0.259095
vt 0.478838 0.259095
vt 0.444151 0.190648
vt 0.494645 0.167945
vt 0.419874 0.159875
vt 0.491702 0.107689
vt 0.398109 0.127277
vt 0.435304 0.086270
vt 0.324857 0.131223
vt 0.343731 0.073136
vt 0.267914 0.084974
vt 0.261927 0.029936
vt 0.231146 0.098554
vt 0.203710 0.014115
vt 0.193418 0.109179
vt 0.165911 0.061134
vt 0.174534 0.180066
vt 0.125122 0.144166
vt 0.112953 0.219930
vt 0.058758 0.208617
vt 0.971336 0.141509
vt 0.914938 0.120090
vt 0.823365 0.106956
vt 0.741561 0.063756
vt 0.683344 0.047934
vt 0.645546 0.094953
vt 0.604757 0.177986
vt 0.538393 0.242437
vt 0.505355 0.292915
vt 0.538393 0.343393
vt 0.604757 0.407844
vt 0.645546 0.490876
vt 0.683344 0.537895
vt 0.741561 0.522074
vt 0.823365 0.478874
vt 0.914938 0.465740
vt 0.971336 0.444321
vt 0.974279 0.384065
vt 0.958473 0.292915
vt 0.974279 0.201765
s 1
usemtl StarCake
f 103/1/103 24/2/24 73/3/73 113/4/113
f 1/5/1 25/6/25 73/3/73 24/2/24
f 104/7/104 113/4/113 73/3/73 25/6/25
f 1/5/1 24/2/24 74/8/74 26/9/26
f 103/1/103 114/10/114 74/8/74 24/2/24
f 105/11/105 26/9/26 74/8/74 114/10/114
f 1/5/1 26/9/26 75/12/75 28/13/28
f 105/11/105 115/14/115 75/12/75 26/9/26
f 106/15/106 28/13/28 75/12/75 115/14/115
f 1/5/1 28/13/28 76/16/76 30/17/30
f 106/15/106 116/18/116 76/16/76 28/13/28
f 107/19/107 30/17/30 76/16/76 116/18/116
f 1/5/1 30/17/30 77/20/77 32/21/32
f 107/19/107 117/22/117 77/20/77 30/17/30
f 108/23/108 32/21/32 77/20/77 117/22/117
f 1/5/1 32/21/32 78/24/78 34/25/34
f 108/23/108 118/26/118 78/24/78 32/21/32
f 109/27/109 34/25/34 78/24/78 118/26/118
f 1/5/1 34/25/34 79/28/79 36/29/36
f 109/27/109 119/30/119 79/28/79 34/25/34
f 110/31/110 36/29/36 79/28/79 119/30/119
f 1/5/1 36/29/36 80/32/80 38/33/38
f 110/31/110 120/34/120 80/32/80 36/29/36
f 111/35/111 38/33/38 80/32/80 120/34/120
f 1/5/1 38/33/38 81/36/81 40/37/40
f 111/35/111 121/38/121 81/36/81 38/33/38
f 112/39/112 40/37/40 81/36/81 121/38/121
f 1/5/1 40/37/40 82/40/82 25/6/25
f 112/39/112 122/41/122 82/40/82 40/37/40
f 104/7/104 25/6/25 82/40/82 122/41/122
f 4/42/4 44/43/44 83/44/83 43/45/43
f 44/43/44 3/46/3 23/47/23 83/44/83
f 83/44/83 23/47/23 21/48/21 45/49/45
f 43/45/43 83/44/83 45/49/45 22/50/22
f 3/46/3 44/43/44 84/51/84 27/52/27
f 44/43/44 4/42/4 46/53/46 84/51/84
f 84/51/84 46/53/46 6/54/6 47/55/47
f 27/52/27 84/51/84 47/55/47 5/56/5
f 5/57/5 47/58/47 85/59/85 29/60/29
f 47/58/47 6/61/6 48/62/48 85/59/85
f 85/59/85 48/62/48 8/63/8 49/64/49
f 29/60/29 85/59/85 49/64/49 7/65/7
f 7/65/7 49/64/49 86/66/86 31/67/31
f 49/64/49 8/63/8 50/68/50 86/66/86
f 86/66/86 50/68/50 10/69/10 51/70/51
f 31/67/31 86/66/86 51/70/51 9/71/9
f 9/72/9 51/73/51 87/74/87 33/75/33
f 51/73/51 10/76/10 52/77/52 87/74/87
f 87/74/87 52/77/52 12/78/12 53/79/53
f 33/75/33 87/74/87 53/79/53 11/80/11
f 11/80/11 53/79/53 88/81/88 35/82/35
f 53/79/53 12/78/12 54/83/54 88/81/88
f 88/81/88 54/83/54 14/84/14 55/85/55
f 35/82/35 88/81/88 55/85/55 13/86/13
f 13/87/13 55/88/55 89/89/89 37/90/37
f 55/88/55 14/91/14 56/92/56 89/89/89
f 89/89/89 56/92/56 16/93/16 57/94/57
f 37/90/37 89/89/89 57/94/57 15/95/15
f 15/95/15 57/94/57 90/96/90 39/97/39
f 57/94/57 16/93/16 58/98/58 90/96/90
f 90/96/90 58/98/58 18/99/18 59/100/59
f 39/97/39 90/96/90 59/100/59 17/101/17
f 17/102/17 59/103/59 91/104/91 41/105/41
f 59/103/59 18/106/18 60/107/60 91/104/91
f 91/104/91 60/107/60 20/108/20 61/109/61
f 41/105/41 91/104/91 61/109/61 19/110/19
f 19/110/19 61/109/61 92/111/92 42/112/42
f 61/109/61 20/108/20 62/113/62 92/111/92
f 92/111/92 62/113/62 22/114/22 45/115/45
f 42/112/42 92/111/92 45/115/45 21/116/21
f 2/117/2 64/118/64 93/119/93 63/120/63
f 4/121/4 43/122/43 93/119/93 64/118/64
f 22/123/22 63/120/63 93/119/93 43/122/43
f 4/121/4 64/118/64 94/124/94 46/125/46
f 2/117/2 65/126/65 94/124/94 64/118/64
f 6/127/6 46/125/46 94/124/94 65/126/65
f 6/127/6 65/126/65 95/128/95 48/129/48
f 2/117/2 66/130/66 95/128/95 65/126/65
f 8/131/8 48/129/48 95/128/95 66/130/66
f 8/131/8 66/130/66 96/132/96 50/133/50
f 2/117/2 67/134/67 96/132/96 66/130/66
f 10/135/10 50/133/50 96/132/96 67/134/67
f 10/135/10 67/134/67 97/136/97 52/137/52
f 2/117/2 68/138/68 97/136/97 67/134/67
f 12/139/12 52/137/52 97/136/97 68/138/68
f 12/139/12 68/138/68 98/140/98 54/141/54
f 2/117/2 69/142/69 98/140/98 68/138/68
f 14/143/14 54/141/54 98/140/98 69/142/69
f 14/143/14 69/142/69 99/144/99 56/145/56
f 2/117/2 70/146/70 99/144/99 69/142/69
f 16/147/16 56/145/56 99/144/99 70/146/70
f 16/147/16 70/146/70 100/148/100 58/149/58
f 2/117/2 71/150/71 100/148/100 70/146/70
f 18/151/18 58/149/58 100/148/100 71/150/71
f 18/151/18 71/150/71 101/152/101 60/153/60
f 2/117/2 72/154/72 101/152/101 71/150/71
f 20/155/20 60/153/60 101/152/101 72/154/72
f 20/155/20 72/154/72 102/156/102 62/157/62
f 2/117/2 63/120/63 102/156/102 72/154/72
f 22/123/22 62/157/62 102/156/102 63/120/63
f 21/158/21 104/7/104 122/41/122 42/159/42
f 19/160/19 42/159/42 122/41/122 112/39/112
f 19/160/19 112/39/112 121/38/121 41/161/41
f 17/162/17 41/161/41 121/38/121 111/35/111
f 17/162/17 111/35/111 120/34/120 39/163/39
f 15/164/15 39/163/39 120/34/120 110/31/110
f 15/164/15 110/31/110 119/30/119 37/165/37
f 13/166/13 37/165/37 119/30/119 109/27/109
f 13/166/13 109/27/109 118/26/118 35/167/35
f 11/168/11 35/167/35 118/26/118 108/23/108
f 11/168/11 108/23/108 117/22/117 33/169/33
f 9/170/9 33/169/33 117/22/117 107/19/107
f 9/170/9 107/19/107 116/18/116 31/171/31
f 7/172/7 31/171/31 116/18/116 106/15/106
f 7/172/7 106/15/106 115/14/115 29/173/29
f 5/174/5 29/173/29 115/14/115 105/11/105
f 5/174/5 105/11/105 114/10/114 27/175/27
f 3/176/3 27/175/27 114/10/114 103/1/103
f 21/158/21 23/177/23 113/4/113 104/7/104
f 3/176/3 103/1/103 113/4/113 23/177/23
