# Blender 4.2.2 LTS
# www.blender.org
mtllib Key.mtl
o Key
v -0.086617 -0.183660 -2.278462
v -0.086617 0.183660 -2.278462
v 0.437167 -0.183660 -2.061504
v 0.437167 0.183660 -2.061504
v 0.654126 -0.183660 -1.537720
v 0.654126 0.183660 -1.537720
v 0.437167 -0.183660 -1.013936
v 0.437167 0.183660 -1.013936
v -0.086617 -0.183660 -0.796977
v -0.086617 0.183660 -0.796977
v -0.610400 -0.183660 -1.013936
v -0.610400 0.183660 -1.013936
v -0.827359 -0.183660 -1.537720
v -0.827359 0.183660 -1.537720
v -0.610400 -0.183660 -2.061504
v -0.610400 0.183660 -2.061504
v -0.086617 -0.183660 -2.537720
v 0.620490 -0.183660 -2.244827
v 0.620490 0.183660 -2.244827
v -0.086617 0.183660 -2.537720
v 0.913384 -0.183660 -1.537720
v 0.913384 0.183660 -1.537720
v 0.183923 -0.096874 -0.649781
v 0.183923 0.096874 -0.649781
v -0.086617 -0.096874 -0.537720
v -0.086617 0.096874 -0.537720
v -0.357156 -0.096874 -0.649781
v -0.357156 0.096874 -0.649781
v -1.086617 -0.183660 -1.537720
v -1.086617 0.183660 -1.537720
v -0.793723 -0.183660 -2.244827
v -0.793723 0.183660 -2.244827
v 0.620490 0.183660 -0.830613
v 0.620490 -0.183660 -0.830613
v -0.086617 -0.183660 -0.537720
v -0.086617 0.183660 -0.537720
v -0.793723 -0.183660 -0.830613
v -0.793723 0.183660 -0.830613
v -0.086616 0.096874 1.852494
v -0.086616 -0.096874 1.852494
v 0.183923 0.096874 1.852494
v 0.183923 -0.096874 1.852494
v -0.357156 -0.096874 1.852494
v -0.357156 0.096874 1.852494
v -0.086616 0.045302 2.046047
v -0.086616 -0.045302 2.046047
v 0.039899 0.045302 2.046047
v 0.039899 -0.045302 2.046047
v -0.213132 -0.045302 2.046047
v -0.213132 0.045302 2.046047
v -0.357156 -0.096874 0.672122
v -0.357156 0.096874 0.672122
v -0.086616 -0.096874 0.724984
v 0.183923 -0.096874 0.672122
v -0.086616 0.096874 0.724984
v 0.183923 0.096874 0.672122
v 0.736223 0.096874 1.768053
v 0.736223 -0.096874 1.768053
v 0.736223 -0.096874 0.763019
v 0.736223 0.096874 0.763019
v -0.357156 -0.096874 1.065580
v -0.357156 -0.096874 1.459037
v -0.086616 -0.096874 1.100820
v -0.086616 -0.096874 1.476657
v 0.183923 -0.096874 1.065580
v 0.183923 -0.096874 1.459037
v -0.357156 0.096874 1.459037
v -0.357156 0.096874 1.065579
v -0.086616 0.096874 1.476657
v -0.086616 0.096874 1.100820
v 0.183923 0.096874 1.459037
v 0.183923 0.096874 1.065579
v 0.736223 -0.096874 0.974682
v 0.736223 -0.096874 1.543477
v 0.736223 0.096874 1.543477
v 0.736223 0.096874 0.974682
vn -0.0000 -0.0000 -1.0000
vn 0.7071 -0.0000 -0.7071
vn 1.0000 -0.0000 -0.0000
vn 0.7071 -0.0000 0.7071
vn 0.7972 -0.0000 0.6038
vn -0.0000 -1.0000 -0.0000
vn -0.0000 -0.9954 0.0960
vn -0.0000 -0.9969 0.0790
vn -1.0000 -0.0000 -0.0000
vn -0.9810 -0.0000 0.1942
vn -0.7972 -0.0000 0.6038
vn -0.7071 -0.0000 0.7071
vn 0.1345 -0.9909 -0.0000
vn 0.1345 0.9909 -0.0000
vn 0.0951 0.9909 -0.0951
vn 0.0951 -0.9909 -0.0951
vn -0.7071 -0.0000 -0.7071
vn 0.0951 -0.9909 0.0951
vn 0.0951 0.9909 0.0951
vn -0.0951 -0.9909 0.0951
vn -0.0000 -0.9909 0.1345
vn -0.0000 0.9909 0.1345
vn -0.0951 0.9909 0.0951
vn -0.0000 1.0000 -0.0000
vn -0.1345 -0.9909 -0.0000
vn -0.1345 0.9909 -0.0000
vn -0.0951 -0.9909 -0.0951
vn -0.0951 0.9909 -0.0951
vn -0.0000 -0.9909 -0.1345
vn -0.0000 0.9909 -0.1345
vn 0.3991 0.7587 0.5149
vn 0.7506 -0.0000 0.6608
vn 0.1319 -0.9387 0.3186
vn -0.0000 -0.0000 1.0000
vn 0.3827 -0.0000 0.9239
vn -0.1319 -0.9387 0.3186
vn -0.3827 -0.0000 0.9239
vn -0.3991 0.7587 0.5149
vn -0.7506 -0.0000 0.6608
vn -0.0000 -0.9663 0.2575
vn -0.5423 -0.0000 0.8402
vn -0.0000 0.9969 0.0790
vn -0.0000 0.9954 0.0960
vn 0.2274 -0.9545 0.1930
vn 0.2274 -0.9545 -0.1930
vn 0.1875 -0.9693 -0.1591
vn 0.1875 -0.9693 0.1591
vn 0.5423 -0.0000 0.8402
vn -0.0000 0.9663 0.2575
vn 0.1007 -0.9639 0.2466
vn 0.1007 0.9639 0.2466
vn 0.2274 0.9545 -0.1930
vn 0.1869 -0.9692 -0.1605
vn 0.1869 0.9692 -0.1605
vn 0.1869 0.9692 0.1605
vn 0.1869 -0.9692 0.1605
vn 0.2236 0.9556 -0.1920
vn 0.1875 0.9693 -0.1591
vn 0.2274 0.9545 0.1930
vn 0.1875 0.9693 0.1591
vn 0.2236 -0.9556 -0.1920
vt 0.692662 0.294666
vt 0.692662 0.012091
vt 0.794700 0.012091
vt 0.794700 0.294666
vt 0.605334 0.592132
vt 0.605334 0.309557
vt 0.709765 0.309557
vt 0.709765 0.592132
vt 0.803455 0.309557
vt 0.803455 0.592132
vt 0.894793 0.689959
vt 0.856569 0.687470
vt 0.856569 0.634369
vt 0.894793 0.634369
vt 0.226695 0.607506
vt 0.375743 0.607506
vt 0.375743 0.663097
vt 0.226695 0.663097
vt 0.390633 0.592132
vt 0.390633 0.309557
vt 0.490538 0.309557
vt 0.490538 0.592132
vt 0.887746 0.592132
vt 0.887746 0.309557
vt 0.965102 0.309557
vt 0.965102 0.592132
vt 0.590444 0.309557
vt 0.590444 0.592132
vt 0.595194 0.294666
vt 0.595194 0.012091
vt 0.818345 0.592132
vt 0.818345 0.309557
vt 0.079277 0.227383
vt 0.153281 0.258036
vt 0.153281 0.294666
vt 0.053376 0.253284
vt 0.559515 0.153379
vt 0.542118 0.079375
vt 0.556818 0.053473
vt 0.580303 0.153379
vt 0.048624 0.153379
vt 0.011994 0.153379
vt 0.500118 0.048721
vt 0.500118 0.012091
vt 0.079277 0.079375
vt 0.053376 0.053473
vt 0.458119 0.079375
vt 0.443419 0.053473
vt 0.153281 0.048721
vt 0.153281 0.012091
vt 0.440722 0.153379
vt 0.419934 0.153379
vt 0.227285 0.079375
vt 0.253187 0.053473
vt 0.458119 0.227383
vt 0.443419 0.253284
vt 0.257939 0.153379
vt 0.294569 0.153379
vt 0.500118 0.258036
vt 0.500118 0.294666
vt 0.227285 0.227383
vt 0.253187 0.253284
vt 0.542118 0.227383
vt 0.556818 0.253284
vt 0.011994 0.925322
vt 0.011994 0.642747
vt 0.087577 0.642747
vt 0.087577 0.925322
vt 0.159776 0.642747
vt 0.159776 0.925322
vt 0.390633 0.889597
vt 0.390633 0.607022
vt 0.464637 0.607022
vt 0.464637 0.889597
vt 0.538641 0.607022
vt 0.538641 0.889597
vt 0.309459 0.079375
vt 0.326856 0.153379
vt 0.309459 0.227383
vt 0.073675 0.379027
vt 0.073675 0.501746
vt 0.011994 0.542216
vt 0.011994 0.309557
vt 0.809590 0.150221
vt 0.818576 0.111997
vt 0.873546 0.111997
vt 0.850060 0.211902
vt 0.111899 0.388012
vt 0.111899 0.333042
vt 0.809590 0.073773
vt 0.850060 0.012091
vt 0.150123 0.379027
vt 0.211804 0.309557
vt 0.150123 0.501746
vt 0.211804 0.542216
vt 0.856569 0.607022
vt 0.874444 0.607022
vt 0.336069 0.690443
vt 0.266368 0.690443
vt 0.818345 0.689959
vt 0.818345 0.634369
vt 0.111899 0.549535
vt 0.150123 0.548122
vt 0.150123 0.579671
vt 0.111899 0.579671
vt 0.073675 0.548122
vt 0.073675 0.579671
vt 0.944027 0.254063
vt 0.888436 0.254063
vt 0.901279 0.176030
vt 0.931184 0.176030
vt 0.809590 0.284181
vt 0.809590 0.226792
vt 0.827465 0.226792
vt 0.827465 0.284181
vt 0.845340 0.226792
vt 0.845340 0.284181
vt 0.838694 0.607022
vt 0.129774 0.627856
vt 0.111899 0.627856
vt 0.094024 0.627856
vt 0.909684 0.756070
vt 0.909684 0.607022
vt 0.934158 0.646695
vt 0.934158 0.716397
vt 0.375743 0.890523
vt 0.226695 0.890523
vt 0.226695 0.705334
vt 0.375743 0.705334
vt 0.111899 0.489262
vt 0.073675 0.485023
vt 0.150123 0.485023
vt 0.856569 0.972076
vt 0.818345 0.987909
vt 0.818345 0.801140
vt 0.856569 0.793672
vt 0.226695 0.309557
vt 0.375743 0.309557
vt 0.375743 0.496325
vt 0.226695 0.496325
vt 0.894793 0.987909
vt 0.894793 0.801140
vt 0.174667 0.791795
vt 0.174667 0.642747
vt 0.206128 0.642747
vt 0.206128 0.791795
vt 0.803455 0.607022
vt 0.803455 0.638571
vt 0.725422 0.631800
vt 0.725422 0.613793
vt 0.803455 0.761290
vt 0.725422 0.754520
vt 0.631909 0.925229
vt 0.631909 0.776181
vt 0.710532 0.776181
vt 0.710532 0.925229
vt 0.710532 0.607022
vt 0.710532 0.638571
vt 0.632499 0.631283
vt 0.632499 0.614311
vt 0.562488 0.920008
vt 0.562488 0.770960
vt 0.592140 0.770960
vt 0.592140 0.920008
vt 0.781013 0.854214
vt 0.725422 0.854214
vt 0.737352 0.776181
vt 0.769082 0.776181
vt 0.562488 0.756070
vt 0.562488 0.607022
vt 0.617608 0.607022
vt 0.617608 0.756070
vt 0.111899 0.519398
vt 0.073675 0.516572
vt 0.150123 0.516572
vt 0.818345 0.745550
vt 0.856569 0.740571
vt 0.375743 0.551916
vt 0.226695 0.551916
vt 0.894793 0.745550
vt 0.888436 0.161139
vt 0.888436 0.012091
vt 0.967009 0.012091
vt 0.967009 0.161139
vt 0.710532 0.761290
vt 0.632499 0.754002
s 1
usemtl Key_MAT
f 17/1/1 20/2/1 19/3/2 18/4/2
f 18/5/2 19/6/2 22/7/3 21/8/3
f 21/8/3 22/7/3 33/9/4 34/10/5
f 62/11/6 64/12/6 40/13/7 43/14/8
f 67/15/9 62/16/9 43/17/10 44/18/10
f 37/19/11 38/20/12 30/21/9 29/22/9
f 13/23/13 14/24/14 12/25/15 11/26/16
f 29/22/9 30/21/9 32/27/17 31/28/17
f 31/29/17 32/30/17 20/2/1 17/1/1
f 15/31/18 16/32/19 14/24/14 13/23/13
f 3/33/20 1/34/21 17/35/6 18/36/6
f 2/37/22 4/38/23 19/39/24 20/40/24
f 5/41/25 3/33/20 18/36/6 21/42/6
f 4/38/23 6/43/26 22/44/24 19/39/24
f 7/45/27 5/41/25 21/42/6 34/46/6
f 6/43/26 8/47/28 33/48/24 22/44/24
f 9/49/29 7/45/27 34/46/6 35/50/6
f 8/47/28 10/51/30 36/52/24 33/48/24
f 11/53/16 9/49/29 35/50/6 37/54/6
f 10/51/30 12/55/15 38/56/24 36/52/24
f 13/57/13 11/53/16 37/54/6 29/58/6
f 12/55/15 14/59/14 30/60/24 38/56/24
f 15/61/18 13/57/13 29/58/6 31/62/6
f 14/59/14 16/63/19 32/64/24 30/60/24
f 1/34/21 15/61/18 31/62/6 17/35/6
f 16/63/19 2/37/22 20/40/24 32/64/24
f 11/65/16 12/66/15 10/67/30 9/68/29
f 9/68/29 10/67/30 8/69/28 7/70/27
f 7/71/27 8/72/28 6/73/26 5/74/25
f 5/74/25 6/73/26 4/75/23 3/76/20
f 3/77/20 4/38/23 2/37/22 1/78/21
f 1/78/21 2/37/22 16/63/19 15/79/18
f 24/80/31 23/81/32 34/82/5 33/83/4
f 23/84/33 25/85/21 35/86/34 34/87/35
f 26/88/22 24/80/31 33/83/4 36/89/34
f 25/85/21 27/90/36 37/91/37 35/86/34
f 28/92/38 26/88/22 36/89/34 38/93/12
f 27/94/39 28/92/38 38/93/12 37/95/11
f 43/14/8 40/13/7 46/96/40 49/97/40
f 44/18/10 43/17/10 49/98/41 50/99/41
f 64/12/6 66/100/6 42/101/8 40/13/7
f 69/102/24 67/103/24 44/104/42 39/105/43
f 71/106/24 69/102/24 39/105/43 41/107/42
f 65/108/44 54/109/45 59/110/46 73/111/47
f 48/112/48 47/113/48 45/114/34 46/115/34
f 46/115/34 45/114/34 50/116/41 49/117/41
f 40/13/7 42/101/8 48/118/40 46/96/40
f 39/105/43 44/104/42 50/119/49 45/120/49
f 41/107/42 39/105/43 45/120/49 47/121/49
f 42/122/50 41/123/51 47/124/48 48/125/48
f 23/126/32 24/127/31 56/128/52 54/129/45
f 24/80/31 26/88/22 55/130/24 56/131/24
f 26/88/22 28/92/38 52/132/24 55/130/24
f 25/133/21 23/134/33 54/135/6 53/136/6
f 28/137/38 27/138/39 51/139/9 52/140/9
f 27/141/36 25/133/21 53/136/6 51/142/6
f 74/143/53 75/144/54 57/145/55 58/146/56
f 71/147/57 41/148/51 57/149/55 75/150/54
f 41/148/51 42/151/50 58/152/56 57/149/55
f 54/153/45 56/154/52 60/155/58 59/156/46
f 56/157/52 72/158/59 76/159/60 60/160/58
f 59/161/46 60/162/58 76/163/60 73/164/47
f 42/165/50 66/166/61 74/167/53 58/168/56
f 65/169/44 72/170/59 71/171/57 66/172/61
f 56/131/24 55/130/24 70/173/24 72/174/24
f 72/174/24 70/173/24 69/102/24 71/106/24
f 55/130/24 52/132/24 68/175/24 70/173/24
f 70/173/24 68/175/24 67/103/24 69/102/24
f 53/136/6 54/135/6 65/176/6 63/177/6
f 63/177/6 65/176/6 66/100/6 64/12/6
f 52/140/9 51/139/9 61/178/9 68/179/9
f 68/179/9 61/178/9 62/16/9 67/15/9
f 51/142/6 53/136/6 63/177/6 61/180/6
f 61/180/6 63/177/6 64/12/6 62/11/6
f 66/181/61 71/182/57 75/183/54 74/184/53
f 65/185/44 73/186/47 76/159/60 72/158/59
