# Blender 4.2.2 LTS
# www.blender.org
mtllib Chocolate Fondue.mtl
o Chocolate_Fondue
v -0.302536 -1.302395 -1.125315
v -0.302536 -0.945286 -0.570074
v 0.404571 -1.302395 -0.832422
v 0.011956 -0.945286 -0.439807
v 0.697464 -1.302395 -0.125315
v 0.142223 -0.945286 -0.125315
v 0.404571 -1.302395 0.581792
v 0.011956 -0.945286 0.189177
v -0.302536 -1.302395 0.874685
v -0.302536 -0.945286 0.319444
v -1.009643 -1.302395 0.581792
v -0.617028 -0.945286 0.189177
v -1.302536 -1.302395 -0.125315
v -0.747295 -0.945286 -0.125315
v -1.009643 -1.302395 -0.832422
v -0.617028 -0.945286 -0.439807
v 0.404571 -0.945286 -0.832422
v -0.302536 -0.945286 -1.125315
v 0.697464 -0.945286 -0.125315
v 0.404571 -0.945286 0.581792
v -0.302536 -0.945286 0.874685
v -1.009643 -0.945286 0.581792
v -1.302536 -0.945286 -0.125315
v -1.009643 -0.945286 -0.832422
v -0.302536 0.150056 -0.125315
v -0.302536 0.150056 -0.125315
v -0.302536 0.150056 -0.125315
v -0.302536 0.150056 -0.125315
v -0.302536 0.150056 -0.125315
v -0.302536 0.150056 -0.125315
v -0.302536 0.150056 -0.125315
v -0.302536 0.150056 -0.125315
v -0.302536 0.150056 -0.125315
v -0.302536 0.150056 -0.125315
v -0.302536 0.150056 -0.125315
v -0.302536 0.150056 -0.125315
v -0.302536 0.150056 -0.125315
v -0.302536 0.150056 -0.125315
v -0.302536 0.150056 -0.125315
v -0.302536 0.150056 -0.125315
v -0.302536 -0.391141 -0.757267
v -0.302536 0.457428 -0.943335
v 0.144322 -0.391141 -0.572173
v 0.275892 0.457428 -0.703743
v 0.329416 -0.391141 -0.125315
v 0.515484 0.457428 -0.125315
v 0.144322 -0.391141 0.321543
v 0.275892 0.457428 0.453113
v -0.302536 -0.391141 0.506638
v -0.302536 0.457428 0.692705
v -0.749394 -0.391141 0.321543
v -0.880964 0.457428 0.453113
v -0.934488 -0.391141 -0.125315
v -1.120556 0.457428 -0.125315
v -0.749394 -0.391141 -0.572173
v -0.880964 0.457428 -0.703743
v -0.302536 0.115357 -1.125315
v 0.404571 0.115357 -0.832422
v 0.624580 0.243817 0.050641
v 0.477454 0.243817 0.405836
v -0.302536 0.115357 0.874685
v -1.009643 0.115357 0.581792
v -1.302536 0.115357 -0.125315
v -1.009643 0.115357 -0.832422
v 0.404571 0.789850 -0.832422
v -0.302536 0.789850 -1.125315
v 0.624580 0.661390 0.050641
v 0.477454 0.661390 0.405836
v -0.302536 0.789850 0.874685
v -1.009643 0.789850 0.581792
v -1.302536 0.789850 -0.125315
v -1.009643 0.789850 -0.832422
v 0.318529 0.789850 -0.746380
v -0.302536 0.789850 -1.003634
v 0.575783 0.789850 -0.125315
v 0.318529 0.789850 0.495750
v -0.302536 0.789850 0.753004
v -0.923601 0.789850 0.495750
v -1.180855 0.789850 -0.125315
v -0.923601 0.789850 -0.746380
v 0.404571 0.789850 0.581792
v 0.697464 0.789850 -0.125315
v 0.697464 0.115357 -0.125315
v 0.404571 0.115357 0.581792
v 1.781714 0.661390 0.946078
v 1.928842 0.661390 0.590884
v 1.928842 0.243817 0.590884
v 1.781714 0.243817 0.946078
v 0.821021 0.243817 0.548146
v 0.821021 0.661390 0.548146
v 0.968147 0.661390 0.192952
v 0.968147 0.243817 0.192952
v 1.832620 0.687518 0.993202
v 1.998158 0.687518 0.593558
v 1.998158 0.217689 0.593558
v 1.832620 0.217689 0.993202
v 0.751704 0.217689 0.545471
v 0.917242 0.217689 0.145828
v 0.751704 0.687518 0.545471
v 0.917242 0.687518 0.145828
vn 0.3827 -0.0000 -0.9239
vn 0.9239 -0.0000 -0.3827
vn 0.9239 -0.0000 0.3827
vn 0.3827 -0.0000 0.9239
vn -0.3827 -0.0000 0.9239
vn -0.9239 -0.0000 0.3827
vn -0.0000 1.0000 -0.0000
vn -0.9239 -0.0000 -0.3827
vn -0.3827 -0.0000 -0.9239
vn -0.0000 -1.0000 -0.0000
vn -0.0000 -0.0000 -1.0000
vn -0.8650 -0.3512 -0.3583
vn 0.7071 -0.0000 0.7071
vn -1.0000 -0.0000 -0.0000
vn -0.7062 0.6447 -0.2925
vn -0.7071 -0.0000 0.7071
vn 0.3583 -0.3512 -0.8650
vn 1.0000 -0.0000 -0.0000
vn -0.2925 0.6447 0.7062
vn -0.7071 -0.0000 -0.7071
vn 0.8650 -0.3512 0.3583
vn 0.7062 0.6447 0.2925
vn -0.0000 -0.0000 1.0000
vn 0.2925 0.6447 -0.7062
vn -0.3583 -0.3512 0.8650
vn 0.7071 -0.0000 -0.7071
vn -0.0000 -0.3356 -0.9420
vn -0.0000 0.9767 -0.2148
vn 0.1519 0.9767 -0.1519
vn 0.6661 -0.3356 -0.6661
vn 0.2148 0.9767 -0.0000
vn 0.9420 -0.3356 -0.0000
vn -0.4816 0.8763 -0.0129
vn -0.3497 0.8763 -0.3314
vn -0.3043 0.9486 0.0873
vn -0.1534 0.9486 -0.2769
vn 0.6661 -0.3356 0.6661
vn 0.1519 0.9767 0.1519
vn -0.0000 0.9767 0.2148
vn -0.0000 -0.3356 0.9420
vn -0.1519 0.9767 0.1519
vn -0.6661 -0.3356 0.6661
vn -0.2148 0.9767 -0.0000
vn -0.9420 -0.3356 -0.0000
vn -0.1473 0.9781 0.1473
vn -0.0000 0.9781 0.2084
vn 0.1473 0.9781 0.1473
vn 0.2084 0.9781 -0.0000
vn 0.1473 0.9781 -0.1473
vn -0.0000 0.9781 -0.2084
vn -0.1473 0.9781 -0.1473
vn -0.2084 0.9781 -0.0000
vn -0.1519 0.9767 -0.1519
vn -0.6661 -0.3356 -0.6661
vn -0.0000 -0.9818 -0.1900
vn 0.1344 -0.9818 -0.1344
vn 0.1900 -0.9818 -0.0000
vn 0.1344 -0.9818 0.1344
vn -0.0000 -0.9818 0.1900
vn -0.1344 -0.9818 0.1344
vn -0.1900 -0.9818 -0.0000
vn -0.1344 -0.9818 -0.1344
vn -0.0000 0.9919 0.1268
vn -0.0897 0.9919 0.0897
vn -0.1268 0.9919 -0.0000
vn -0.0897 0.9919 -0.0897
vn -0.0000 0.9919 -0.1268
vn 0.0897 0.9919 -0.0897
vn 0.1268 0.9919 -0.0000
vn 0.0897 0.9919 0.0897
vn 0.3714 0.8708 0.3221
vn 0.4904 0.8708 0.0349
vn 0.4904 -0.8708 0.0349
vn 0.3714 -0.8708 0.3221
vn 0.4520 0.6319 0.6296
vn 0.4520 -0.6319 0.6296
vn 0.7648 -0.6319 -0.1256
vn 0.7648 0.6319 -0.1256
vn 0.3043 0.9486 -0.0873
vn 0.1534 0.9486 0.2769
vn 0.1534 -0.9486 0.2769
vn -0.3497 -0.8763 -0.3314
vn -0.4816 -0.8763 -0.0129
vn -0.1534 -0.9486 -0.2769
vn -0.3043 -0.9486 0.0873
vn 0.3043 -0.9486 -0.0873
vt 0.044052 0.666446
vt 0.044052 0.513346
vt 0.085481 0.513346
vt 0.085481 0.666446
vt 0.144070 0.513346
vt 0.144070 0.666446
vt 0.185498 0.513346
vt 0.185498 0.666446
vt 0.201180 0.667127
vt 0.201180 0.514050
vt 0.251016 0.514583
vt 0.251016 0.667660
vt 0.308039 0.514350
vt 0.308039 0.667427
vt 0.323720 0.667127
vt 0.323720 0.514050
vt 0.373557 0.514583
vt 0.373557 0.667660
vt 0.715303 0.637386
vt 0.696877 0.618960
vt 0.696877 0.592902
vt 0.715303 0.574476
vt 0.741361 0.574476
vt 0.759786 0.592902
vt 0.759786 0.618960
vt 0.741361 0.637386
vt 0.430579 0.514350
vt 0.430579 0.667427
vt 0.355164 0.836441
vt 0.355164 0.683341
vt 0.413753 0.683341
vt 0.413753 0.836441
vt 0.044052 0.782144
vt 0.044052 0.723556
vt 0.085481 0.682127
vt 0.144070 0.682127
vt 0.185498 0.723556
vt 0.185498 0.782144
vt 0.144070 0.823573
vt 0.085481 0.823573
vt 0.810609 0.518642
vt 0.771779 0.512794
vt 0.810609 0.043752
vt 0.757626 0.676654
vt 0.699038 0.676654
vt 0.955948 0.512041
vt 0.930614 0.513220
vt 0.930614 0.043752
vt 0.799055 0.576637
vt 0.799055 0.635225
vt 0.616567 0.512535
vt 0.591725 0.511649
vt 0.641928 0.043752
vt 0.699038 0.535208
vt 0.757626 0.535208
vt 0.699012 0.519527
vt 0.657609 0.512747
vt 0.699012 0.043752
vt 0.657609 0.635225
vt 0.657609 0.576637
vt 0.615042 0.662961
vt 0.615042 0.678642
vt 0.429435 0.683341
vt 0.429435 0.699023
vt 0.385823 0.043752
vt 0.914932 0.513192
vt 0.880803 0.518133
vt 0.880803 0.043752
vt 0.464481 0.512794
vt 0.446261 0.510050
vt 0.503311 0.043752
vt 0.503311 0.518642
vt 0.263283 0.043752
vt 0.865121 0.512794
vt 0.826291 0.518642
vt 0.826291 0.043752
vt 0.576043 0.510050
vt 0.557823 0.512794
vt 0.518993 0.043752
vt 0.114775 0.043752
vt 0.756097 0.519527
vt 0.714694 0.512747
vt 0.756097 0.043752
vt 0.641928 0.512726
vt 0.518993 0.518642
vt 0.263166 0.778248
vt 0.339483 0.778248
vt 0.336622 0.823945
vt 0.260306 0.823945
vt 0.735886 0.833781
vt 0.659409 0.833781
vt 0.657609 0.792353
vt 0.734087 0.792353
vt 0.610027 0.873557
vt 0.610027 0.844127
vt 0.615008 0.842285
vt 0.615008 0.875399
vt 0.734087 0.733764
vt 0.657609 0.733764
vt 0.659409 0.692335
vt 0.735886 0.692335
vt 0.446261 0.782282
vt 0.446261 0.705965
vt 0.491957 0.703105
vt 0.491957 0.779421
vt 0.550197 0.703603
vt 0.550197 0.779919
vt 0.843355 0.808041
vt 0.809465 0.774151
vt 0.809465 0.726225
vt 0.843355 0.692335
vt 0.891281 0.692335
vt 0.925171 0.726225
vt 0.925171 0.774151
vt 0.891281 0.808041
vt 0.259103 0.683341
vt 0.335420 0.683341
vt 0.338985 0.720008
vt 0.262668 0.720008
vt 0.814736 0.598414
vt 0.814736 0.561389
vt 0.840917 0.535208
vt 0.877942 0.535208
vt 0.904123 0.561389
vt 0.904123 0.598414
vt 0.877942 0.624595
vt 0.840917 0.624595
vt 0.203433 0.733563
vt 0.203747 0.770367
vt 0.201180 0.710391
vt 0.499838 0.838840
vt 0.536643 0.839155
vt 0.470960 0.840648
vt 0.792647 0.744546
vt 0.793784 0.718365
vt 0.792647 0.781571
vt 0.793784 0.807752
vt 0.201940 0.799245
vt 0.522811 0.678109
vt 0.570353 0.658416
vt 0.576940 0.665002
vt 0.522811 0.687423
vt 0.590046 0.610873
vt 0.599360 0.610873
vt 0.570353 0.563331
vt 0.576940 0.556744
vt 0.522811 0.543638
vt 0.522811 0.534324
vt 0.475268 0.563331
vt 0.468682 0.556744
vt 0.455576 0.610873
vt 0.446261 0.610873
vt 0.475268 0.658416
vt 0.468682 0.665002
vt 0.901572 0.828619
vt 0.903062 0.866043
vt 0.865834 0.863905
vt 0.864234 0.823722
vt 0.901572 0.913663
vt 0.864234 0.915035
vt 0.603351 0.707857
vt 0.606011 0.737875
vt 0.568734 0.735336
vt 0.565879 0.703105
vt 0.606011 0.785519
vt 0.568734 0.786491
vt 0.603351 0.822878
vt 0.565879 0.826604
vt 0.847080 0.827987
vt 0.848552 0.861876
vt 0.811046 0.860110
vt 0.809466 0.823722
vt 0.848552 0.909803
vt 0.811046 0.911569
vt 0.847080 0.943692
vt 0.809465 0.947957
vt 0.672175 0.748343
vt 0.672175 0.777773
vt 0.719521 0.777773
vt 0.719521 0.748343
vt 0.298770 0.886973
vt 0.298770 0.839626
vt 0.328200 0.839626
vt 0.328200 0.886973
vt 0.683252 0.851304
vt 0.683252 0.880734
vt 0.678272 0.882576
vt 0.678272 0.849463
vt 0.632208 0.850491
vt 0.632208 0.803244
vt 0.634940 0.800643
vt 0.634940 0.853803
vt 0.662590 0.851304
vt 0.662590 0.880734
vt 0.657609 0.882576
vt 0.657609 0.849463
vt 0.615042 0.645889
vt 0.615042 0.598642
vt 0.637245 0.600032
vt 0.637245 0.647279
vt 0.843203 0.640277
vt 0.843203 0.669707
vt 0.814736 0.669707
vt 0.814736 0.640277
vt 0.565879 0.871716
vt 0.565879 0.842286
vt 0.594346 0.842286
vt 0.594346 0.871716
vt 0.637245 0.534324
vt 0.637245 0.581571
vt 0.615042 0.582960
vt 0.615042 0.535713
vt 0.044052 0.839255
vt 0.097108 0.842576
vt 0.097108 0.912566
vt 0.044052 0.909245
vt 0.234293 0.929188
vt 0.201180 0.929188
vt 0.201180 0.839626
vt 0.234293 0.839626
vt 0.283088 0.929188
vt 0.249975 0.929188
vt 0.249975 0.839626
vt 0.283088 0.839626
vt 0.112790 0.842576
vt 0.165845 0.839255
vt 0.165845 0.909245
vt 0.112790 0.912566
vt 0.858885 0.671549
vt 0.858885 0.642118
vt 0.863866 0.640277
vt 0.863866 0.673390
vt 0.632208 0.713295
vt 0.632208 0.666048
vt 0.637245 0.662961
vt 0.637245 0.716120
vt 0.184259 0.841856
vt 0.184259 0.889103
vt 0.181527 0.892414
vt 0.181527 0.839255
vt 0.637245 0.734889
vt 0.637245 0.782136
vt 0.632208 0.784961
vt 0.632208 0.731802
s 0
usemtl ChocoFondue_MAT
f 1/1/1 18/2/1 17/3/1 3/4/1
f 3/4/2 17/3/2 19/5/2 5/6/2
f 5/6/3 19/5/3 20/7/3 7/8/3
f 7/9/4 20/10/4 21/11/4 9/12/4
f 9/12/5 21/11/5 22/13/5 11/14/5
f 11/15/6 22/16/6 23/17/6 13/18/6
f 4/19/7 2/20/7 16/21/7 14/22/7 12/23/7 10/24/7 8/25/7 6/26/7
f 13/18/8 23/17/8 24/27/8 15/28/8
f 15/29/9 24/30/9 18/31/9 1/32/9
f 1/33/10 3/34/10 5/35/10 7/36/10 9/37/10 11/38/10 13/39/10 15/40/10
f 19/41/11 6/42/11 36/43/11 28/43/11
f 4/19/7 6/26/7 19/44/7 17/45/7
f 6/46/12 8/47/12 35/48/12 36/48/12
f 8/25/7 10/24/7 21/49/7 20/50/7
f 4/51/13 17/52/13 25/53/13 33/53/13
f 12/23/7 14/22/7 23/54/7 22/55/7
f 18/56/14 2/57/14 34/58/14 26/58/14
f 16/21/7 2/20/7 18/59/7 24/60/7
f 34/61/7 33/61/7 25/61/7 26/61/7
f 36/62/7 35/62/7 27/62/7 28/62/7
f 38/63/7 37/63/7 29/63/7 30/63/7
f 40/64/7 39/64/7 31/64/7 32/64/7
f 24/27/15 23/17/15 32/65/15 31/65/15
f 8/66/16 20/67/16 27/68/16 35/68/16
f 10/69/17 12/70/17 37/71/17 38/71/17
f 21/72/18 10/69/18 38/71/18 30/71/18
f 22/13/19 21/11/19 30/73/19 29/73/19
f 12/74/20 22/75/20 29/76/20 37/76/20
f 14/77/21 16/78/21 39/79/21 40/79/21
f 20/7/22 19/5/22 28/80/22 27/80/22
f 23/81/23 14/82/23 40/83/23 32/83/23
f 17/3/24 18/2/24 26/80/24 25/80/24
f 2/84/25 4/51/25 33/53/25 34/53/25
f 16/78/26 24/85/26 31/79/26 39/79/26
s 1
f 57/86/27 66/87/28 65/88/29 58/89/30
f 58/90/30 65/91/29 82/92/31 83/93/32
f 91/94/33 90/95/34 99/96/35 100/97/36
f 84/98/37 81/99/38 69/100/39 61/101/40
f 61/102/40 69/103/39 70/104/41 62/105/42
f 62/105/42 70/104/41 71/106/43 63/107/44
f 44/108/45 42/109/46 56/110/47 54/111/48 52/112/49 50/113/50 48/114/51 46/115/52
f 63/116/44 71/117/43 72/118/53 64/119/54
f 64/119/54 72/118/53 66/87/28 57/86/27
f 41/120/55 43/121/56 45/122/57 47/123/58 49/124/59 51/125/60 53/126/61 55/127/62
f 55/128/62 64/119/54 57/86/27 41/129/55
f 53/130/61 63/116/44 64/119/54 55/128/62
f 51/131/60 62/105/42 63/107/44 53/132/61
f 49/133/59 61/102/40 62/105/42 51/131/60
f 47/134/58 84/98/37 61/101/40 49/135/59
f 45/136/57 83/93/32 84/98/37 47/134/58
f 43/137/56 58/90/30 83/93/32 45/136/57
f 41/129/55 57/86/27 58/89/30 43/138/56
f 74/139/63 73/140/64 65/141/29 66/142/28
f 73/140/64 75/143/65 82/144/31 65/141/29
f 75/143/65 76/145/66 81/146/38 82/144/31
f 76/145/66 77/147/67 69/148/39 81/146/38
f 77/147/67 78/149/68 70/150/41 69/148/39
f 78/149/68 79/151/69 71/152/43 70/150/41
f 79/151/69 80/153/70 72/154/53 71/152/43
f 80/153/70 74/139/63 66/142/28 72/154/53
f 42/155/46 44/156/45 73/157/64 74/158/63
f 44/156/45 46/159/52 75/160/65 73/157/64
f 46/161/52 48/162/51 76/163/66 75/164/65
f 48/162/51 50/165/50 77/166/67 76/163/66
f 50/165/50 52/167/49 78/168/68 77/166/67
f 52/169/49 54/170/48 79/171/69 78/172/68
f 54/170/48 56/173/47 80/174/70 79/171/69
f 56/173/47 42/175/46 74/176/63 80/174/70
f 68/177/71 67/178/72 82/92/31 81/99/38
f 67/178/72 59/179/73 83/93/32 82/92/31
f 60/180/74 68/177/71 81/99/38 84/98/37
f 59/179/73 60/180/74 84/98/37 83/93/32
f 87/181/75 86/182/76 85/183/77 88/184/78
f 85/185/77 86/186/76 94/187/79 93/188/80
f 88/189/78 85/190/77 93/191/80 96/192/81
f 89/193/82 92/194/83 98/195/84 97/196/85
f 59/197/73 67/198/72 91/199/33 92/200/83
f 60/201/74 59/202/73 92/203/83 89/204/82
f 67/205/72 68/206/71 90/207/34 91/208/33
f 68/209/71 60/210/74 89/211/82 90/212/34
f 99/213/35 97/214/85 96/215/81 93/216/80
f 100/217/36 99/218/35 93/219/80 94/220/79
f 97/221/85 98/222/84 95/223/86 96/224/81
f 98/225/84 100/226/36 94/227/79 95/228/86
f 87/229/75 88/230/78 96/231/81 95/232/86
f 92/233/83 91/234/33 100/235/36 98/236/84
f 86/237/76 87/238/75 95/239/86 94/240/79
f 90/241/34 89/242/82 97/243/85 99/244/35
