# Blender 4.2.2 LTS
# www.blender.org
mtllib Milk Carton.mtl
o MilkCarton
v 0.251716 -0.462250 0.145771
v 0.356410 -0.380593 0.145771
v 0.313404 -0.380593 0.145771
v 0.212236 -0.459469 0.145771
v 0.212236 -0.380593 0.145771
v 0.177690 -0.380593 0.145771
v 0.177690 -0.553008 0.145771
v 0.212236 -0.553008 0.145771
v 0.212236 -0.467812 0.145771
v 0.334555 -0.553008 0.145771
v 0.382142 -0.553008 0.145771
v 0.039156 -0.380593 0.145771
v 0.004611 -0.380593 0.145771
v 0.004611 -0.553008 0.145771
v 0.147728 -0.553008 0.145771
v 0.147727 -0.530761 0.145771
v 0.039156 -0.530761 0.145771
v -0.048265 -0.380593 0.145771
v -0.082810 -0.380593 0.145771
v -0.082810 -0.553008 0.145771
v -0.048265 -0.553008 0.145771
v -0.134981 -0.380594 0.145771
v -0.167059 -0.380594 0.145771
v -0.247077 -0.451380 0.145771
v -0.326743 -0.380594 0.145771
v -0.359174 -0.380593 0.145771
v -0.359174 -0.553008 0.145771
v -0.324628 -0.553008 0.145771
v -0.324628 -0.418767 0.145771
v -0.323923 -0.418768 0.145771
v -0.249897 -0.485509 0.145771
v -0.244257 -0.485509 0.145771
v -0.170231 -0.418767 0.145771
v -0.169526 -0.418767 0.145771
v -0.169526 -0.553008 0.145771
v -0.134981 -0.553008 0.145771
v -0.489521 -0.941830 0.140861
v -0.489521 0.036467 0.140861
v -0.489521 -0.941830 -0.647175
v -0.489521 0.036467 -0.647175
v 0.492531 -0.941830 0.140861
v 0.492531 0.036467 0.140861
v 0.492531 -0.941830 -0.647175
v 0.492531 0.036467 -0.647175
v -0.489521 0.297687 -0.207744
v -0.489521 0.297687 -0.298571
v 0.492531 0.297687 -0.298571
v 0.492531 0.297687 -0.207744
v -0.489521 0.411657 -0.207744
v -0.489521 0.411657 -0.298571
v 0.492531 0.411657 -0.298571
v 0.492531 0.411657 -0.207744
v -0.489521 -0.615731 0.140861
v -0.489521 -0.289632 0.140861
v -0.489521 -0.289632 -0.647175
v -0.489521 -0.615731 -0.647175
v 0.492531 -0.289632 -0.647175
v 0.492531 -0.615731 -0.647175
v 0.492531 -0.289632 0.140861
v 0.492531 -0.615731 0.140861
v 0.016541 0.222665 -0.113728
v -0.010008 0.222652 -0.113467
v -0.035966 0.219623 -0.109257
v -0.060336 0.213694 -0.101259
v -0.082181 0.205095 -0.089780
v -0.100662 0.194155 -0.075261
v -0.115069 0.181294 -0.058261
v -0.124848 0.167007 -0.039433
v -0.129623 0.151843 -0.019499
v -0.129211 0.136385 0.000772
v -0.123628 0.121226 0.020604
v -0.113087 0.106949 0.039233
v -0.097995 0.094104 0.055944
v -0.078931 0.083182 0.070094
v -0.056628 0.074605 0.081140
v -0.031943 0.068702 0.088657
v -0.005824 0.065699 0.092356
v 0.020725 0.065713 0.092095
v 0.046683 0.068742 0.087885
v 0.071053 0.074670 0.079887
v 0.092898 0.083269 0.068408
v 0.111379 0.094210 0.053889
v 0.125786 0.107070 0.036889
v 0.135565 0.121357 0.018061
v 0.140340 0.136521 -0.001872
v 0.139928 0.151980 -0.022144
v 0.134345 0.167139 -0.041976
v 0.123804 0.181415 -0.060605
v 0.108712 0.194261 -0.077315
v 0.089648 0.205182 -0.091466
v 0.067345 0.213759 -0.102511
v 0.042660 0.219663 -0.110028
v -0.009946 0.231497 -0.106723
v 0.016603 0.231511 -0.106984
v -0.035904 0.228468 -0.102513
v -0.060274 0.222540 -0.094515
v -0.082119 0.213941 -0.083036
v -0.100601 0.203000 -0.068517
v -0.115008 0.190140 -0.051517
v -0.124787 0.175853 -0.032689
v -0.129562 0.160689 -0.012756
v -0.129149 0.145230 0.007516
v -0.123566 0.130071 0.027348
v -0.113026 0.115795 0.045977
v -0.097934 0.102949 0.062687
v -0.078870 0.092028 0.076838
v -0.056566 0.083451 0.087883
v -0.031881 0.077547 0.095400
v -0.005762 0.074545 0.099100
v 0.020787 0.074558 0.098839
v 0.046745 0.077587 0.094629
v 0.071115 0.083515 0.086631
v 0.092960 0.092115 0.075152
v 0.111441 0.103055 0.060633
v 0.125848 0.115916 0.043633
v 0.135627 0.130203 0.024805
v 0.140402 0.145367 0.004871
v 0.139990 0.160825 -0.015400
v 0.134406 0.175984 -0.035232
v 0.123866 0.190261 -0.053861
v 0.108774 0.203106 -0.070572
v 0.089710 0.214028 -0.084722
v 0.067407 0.222605 -0.095768
v 0.042721 0.228508 -0.103285
v -0.005290 0.237834 -0.052910
v 0.013608 0.237844 -0.053096
v -0.023768 0.235678 -0.049913
v -0.041115 0.231458 -0.044220
v -0.056665 0.225337 -0.036049
v -0.069820 0.217549 -0.025714
v -0.080075 0.208395 -0.013613
v -0.087036 0.198225 -0.000211
v -0.090435 0.187431 0.013978
v -0.090142 0.176427 0.028408
v -0.086167 0.165637 0.042525
v -0.078664 0.155474 0.055785
v -0.067921 0.146330 0.067680
v -0.054351 0.138556 0.077753
v -0.038475 0.132451 0.085615
v -0.020904 0.128249 0.090966
v -0.002312 0.126112 0.093599
v 0.016586 0.126121 0.093414
v 0.035064 0.128277 0.090417
v 0.052411 0.132497 0.084724
v 0.067961 0.138618 0.076553
v 0.081116 0.146406 0.066218
v 0.091371 0.155561 0.054117
v 0.098332 0.165730 0.040714
v 0.101731 0.176524 0.026525
v 0.101438 0.187528 0.012096
v 0.097463 0.198319 -0.002021
v 0.089961 0.208481 -0.015282
v 0.079218 0.217625 -0.027177
v 0.065647 0.225399 -0.037249
v 0.049771 0.231504 -0.045112
v 0.032200 0.235706 -0.050462
v -0.006979 0.246459 -0.064207
v 0.014837 0.246470 -0.064421
v -0.028309 0.243970 -0.060747
v -0.048335 0.239098 -0.054175
v -0.066286 0.232032 -0.044742
v -0.081473 0.223042 -0.032812
v -0.093312 0.212474 -0.018842
v -0.101347 0.200734 -0.003370
v -0.105271 0.188273 0.013009
v -0.104932 0.175570 0.029668
v -0.100344 0.163114 0.045964
v -0.091683 0.151382 0.061272
v -0.079281 0.140826 0.075004
v -0.063616 0.131852 0.086631
v -0.045288 0.124804 0.095708
v -0.025003 0.119953 0.101885
v -0.003541 0.117486 0.104925
v 0.018275 0.117497 0.104711
v 0.039606 0.119986 0.101251
v 0.059631 0.124857 0.094678
v 0.077582 0.131923 0.085246
v 0.092769 0.140913 0.073315
v 0.104608 0.151482 0.059346
v 0.112643 0.163222 0.043874
v 0.116567 0.175682 0.027494
v 0.116229 0.188385 0.010836
v 0.111641 0.200842 -0.005460
v 0.102979 0.212573 -0.020768
v 0.090577 0.223129 -0.034500
v 0.074912 0.232103 -0.046128
v 0.056584 0.239151 -0.055204
v 0.036300 0.244002 -0.061381
vn -0.0000 -0.0000 1.0000
vn -1.0000 -0.0000 -0.0000
vn -0.0000 -0.0000 -1.0000
vn 1.0000 -0.0000 -0.0000
vn -0.0000 -1.0000 -0.0000
vn -0.0000 0.8003 0.5997
vn -0.0000 0.8003 -0.5997
vn -0.0000 1.0000 -0.0000
vn -0.0780 -0.0992 -0.9920
vn 0.0589 -0.0985 -0.9934
vn 0.1907 -0.1305 -0.9729
vn 0.3083 -0.1887 -0.9324
vn 0.4063 -0.2638 -0.8748
vn 0.4827 -0.3469 -0.8041
vn 0.5383 -0.4319 -0.7237
vn 0.5745 -0.5152 -0.6361
vn 0.5928 -0.5947 -0.5430
vn 0.5942 -0.6698 -0.4453
vn 0.5785 -0.7397 -0.3438
vn 0.5447 -0.8037 -0.2395
vn 0.4913 -0.8605 -0.1346
vn 0.4164 -0.9086 -0.0334
vn 0.3194 -0.9459 0.0571
vn 0.2024 -0.9710 0.1270
vn 0.0708 -0.9835 0.1664
vn -0.0661 -0.9835 0.1685
vn -0.1981 -0.9711 0.1333
vn -0.3160 -0.9464 0.0673
vn -0.4144 -0.9099 -0.0196
vn -0.4912 -0.8630 -0.1181
vn -0.5470 -0.8074 -0.2210
vn -0.5834 -0.7447 -0.3243
vn -0.6018 -0.6758 -0.4256
vn -0.6032 -0.6014 -0.5239
vn -0.5874 -0.5221 -0.6183
vn -0.5535 -0.4387 -0.7079
vn -0.4998 -0.3530 -0.7909
vn -0.4246 -0.2688 -0.8646
vn -0.3272 -0.1923 -0.9252
vn -0.2098 -0.1326 -0.9687
vn -0.9081 0.0433 0.4165
vn -0.8296 -0.0695 0.5540
vn -0.3908 0.5723 0.7209
vn -0.4160 0.6298 0.6560
vn -0.7192 -0.1696 0.6738
vn 0.9078 0.4137 -0.0696
vn 0.9516 0.2964 0.0812
vn -0.5828 -0.2533 0.7722
vn 0.8277 0.5207 -0.2091
vn -0.4268 -0.3181 0.8465
vn -0.0952 0.8032 -0.5881
vn 0.0826 0.8030 -0.5902
vn 0.7166 0.6135 -0.3318
vn -0.2576 -0.3622 0.8958
vn -0.2707 0.7845 -0.5580
vn 0.5804 0.6892 -0.4337
vn -0.0806 -0.3845 0.9196
vn -0.4388 0.7462 -0.5006
vn 0.4255 0.7463 -0.5119
vn 0.0991 -0.3841 0.9179
vn -0.5936 0.6880 -0.4174
vn 0.2578 0.7841 -0.5645
vn 0.2765 -0.3610 0.8906
vn -0.7287 0.6104 -0.3105
vn 0.4463 -0.3156 0.8374
vn -0.8372 0.5153 -0.1831
vn 0.6024 -0.2490 0.7584
vn -0.9131 0.4059 -0.0401
vn 0.7378 -0.1633 0.6550
vn -0.9514 0.2869 0.1124
vn 0.8457 -0.0612 0.5301
vn -0.9496 0.1640 0.2671
vn 0.9199 0.0531 0.3885
vn 0.9559 0.1742 0.2364
vn 0.0055 0.7952 0.6063
vn 0.4352 0.7449 0.5057
vn 0.4380 0.6912 0.5748
vn -0.3511 0.5149 0.7821
vn 0.4199 0.7958 0.4364
vn -0.2959 0.4598 0.8373
vn 0.3917 0.8434 0.3678
vn -0.2246 0.4109 0.8836
vn -0.0474 0.9907 0.1272
vn 0.0487 0.9909 0.1257
vn 0.3501 0.8869 0.3016
vn -0.1386 0.3733 0.9173
vn -0.1398 0.9786 0.1511
vn 0.2943 0.9251 0.2399
vn -0.0416 0.3528 0.9348
vn -0.2223 0.9555 0.1937
vn 0.2243 0.9565 0.1866
vn 0.0594 0.3536 0.9335
vn -0.2915 0.9235 0.2493
vn 0.1413 0.9790 0.1468
vn 0.1561 0.3755 0.9136
vn -0.3461 0.8845 0.3128
vn 0.2416 0.4144 0.8775
vn -0.3864 0.8402 0.3805
vn 0.3119 0.4644 0.8289
vn -0.4131 0.7918 0.4499
vn 0.3659 0.5201 0.7718
vn -0.4268 0.7402 0.5196
vn 0.4042 0.5778 0.7091
vn -0.4278 0.6860 0.5885
vn 0.4279 0.6353 0.6429
vt 0.622175 0.665995
vt 0.635250 0.756988
vt 0.622175 0.756988
vt 0.635250 0.715361
vt 0.689819 0.756988
vt 0.673542 0.756988
vt 0.650193 0.713893
vt 0.635250 0.710958
vt 0.699559 0.665995
vt 0.635250 0.665995
vt 0.681547 0.665995
vt 0.556175 0.665995
vt 0.569251 0.756988
vt 0.556175 0.756988
vt 0.569251 0.677736
vt 0.610344 0.677736
vt 0.610344 0.665995
vt 0.309680 0.624466
vt 0.322755 0.715459
vt 0.309680 0.715459
vt 0.322755 0.624466
vt 0.711390 0.665995
vt 0.723664 0.756988
vt 0.711390 0.756988
vt 0.724465 0.736842
vt 0.724732 0.736842
vt 0.753818 0.719630
vt 0.796246 0.756988
vt 0.784104 0.756988
vt 0.782903 0.736842
vt 0.783170 0.736842
vt 0.796245 0.665995
vt 0.724465 0.665995
vt 0.752750 0.701618
vt 0.754885 0.701618
vt 0.783170 0.665995
vt 0.348330 0.227518
vt 0.348330 0.153531
vt 0.562454 0.153531
vt 0.562454 0.227518
vt 0.422317 0.654164
vt 0.348330 0.654164
vt 0.348330 0.387322
vt 0.422317 0.387322
vt 0.070942 0.504905
vt 0.070942 0.430918
vt 0.285066 0.430918
vt 0.285066 0.504905
vt 0.648272 0.335248
vt 0.574284 0.335248
vt 0.574284 0.068406
vt 0.648272 0.068406
vt 0.796246 0.387322
vt 0.796245 0.654164
vt 0.582121 0.654164
vt 0.582121 0.387322
vt 0.443052 0.094264
vt 0.467731 0.094264
vt 0.322755 0.345793
vt 0.322755 0.612635
vt 0.296897 0.612635
vt 0.296897 0.345793
vt 0.808076 0.335248
vt 0.808076 0.068406
vt 0.902799 0.068406
vt 0.902798 0.335248
vt 0.902798 0.347078
vt 0.902798 0.613920
vt 0.808076 0.613920
vt 0.808076 0.347078
vt 0.165664 0.371651
vt 0.190344 0.371651
vt 0.929058 0.625751
vt 0.929058 0.892593
vt 0.904379 0.892593
vt 0.904379 0.625751
vt 0.892548 0.625751
vt 0.892548 0.892593
vt 0.866690 0.892593
vt 0.866690 0.625751
vt 0.165664 0.345793
vt 0.190344 0.345793
vt 0.443052 0.068406
vt 0.467731 0.068406
vt 0.796245 0.335248
vt 0.722258 0.335248
vt 0.722259 0.068406
vt 0.796246 0.068406
vt 0.070942 0.652879
vt 0.070942 0.578892
vt 0.285066 0.578892
vt 0.285066 0.652879
vt 0.570291 0.654164
vt 0.496304 0.654164
vt 0.496304 0.387322
vt 0.570291 0.387322
vt 0.348330 0.375492
vt 0.348330 0.301505
vt 0.562454 0.301505
vt 0.562454 0.375492
vt 0.119079 0.304320
vt 0.100585 0.285826
vt 0.086054 0.264079
vt 0.076044 0.239914
vt 0.070942 0.214262
vt 0.070942 0.188107
vt 0.076044 0.162454
vt 0.086054 0.138290
vt 0.100585 0.116543
vt 0.119079 0.098048
vt 0.140826 0.083517
vt 0.164990 0.073508
vt 0.190643 0.068406
vt 0.216798 0.068406
vt 0.242451 0.073508
vt 0.266615 0.083517
vt 0.288362 0.098048
vt 0.306856 0.116543
vt 0.321387 0.138290
vt 0.331396 0.162454
vt 0.336499 0.188107
vt 0.336499 0.214262
vt 0.331396 0.239914
vt 0.321387 0.264079
vt 0.306856 0.285826
vt 0.288362 0.304320
vt 0.266615 0.318851
vt 0.242451 0.328860
vt 0.216798 0.333963
vt 0.190643 0.333963
vt 0.164990 0.328860
vt 0.140826 0.318851
vt 0.447073 0.706263
vt 0.447781 0.730435
vt 0.409743 0.738210
vt 0.409161 0.718347
vt 0.458395 0.730532
vt 0.458634 0.756187
vt 0.448020 0.756090
vt 0.854859 0.665993
vt 0.854859 0.690157
vt 0.844199 0.690157
vt 0.844199 0.665993
vt 0.458395 0.782341
vt 0.447781 0.782244
vt 0.854859 0.715809
vt 0.844199 0.715809
vt 0.457687 0.807989
vt 0.447073 0.807891
vt 0.395113 0.665995
vt 0.395113 0.684489
vt 0.384453 0.684489
vt 0.384453 0.665995
vt 0.854859 0.741964
vt 0.844199 0.741964
vt 0.456537 0.832143
vt 0.445923 0.832046
vt 0.395113 0.706237
vt 0.384453 0.706237
vt 0.854859 0.767617
vt 0.844199 0.767617
vt 0.454989 0.853877
vt 0.444375 0.853780
vt 0.395113 0.730401
vt 0.384453 0.730401
vt 0.854859 0.791781
vt 0.844199 0.791781
vt 0.474085 0.853876
vt 0.472548 0.832142
vt 0.483163 0.832046
vt 0.484700 0.853780
vt 0.395113 0.756053
vt 0.384453 0.756053
vt 0.854859 0.813528
vt 0.844199 0.813528
vt 0.471406 0.807988
vt 0.482020 0.807891
vt 0.395113 0.782208
vt 0.384453 0.782208
vt 0.854859 0.832023
vt 0.844199 0.832023
vt 0.470702 0.782340
vt 0.481317 0.782244
vt 0.395113 0.807861
vt 0.384453 0.807861
vt 0.470465 0.756186
vt 0.481079 0.756090
vt 0.395113 0.832025
vt 0.384453 0.832025
vt 0.470702 0.730531
vt 0.481317 0.730434
vt 0.395113 0.853772
vt 0.384453 0.853772
vt 0.471406 0.706359
vt 0.482020 0.706263
vt 0.395113 0.872267
vt 0.384453 0.872267
vt 0.472548 0.684601
vt 0.483163 0.684504
vt 0.456537 0.684601
vt 0.457687 0.706360
vt 0.445923 0.684504
vt 0.854859 0.625751
vt 0.854859 0.644245
vt 0.844199 0.644245
vt 0.844199 0.625751
vt 0.085536 0.764510
vt 0.089168 0.746250
vt 0.096293 0.729049
vt 0.106636 0.713569
vt 0.119801 0.700404
vt 0.135281 0.690061
vt 0.152481 0.682936
vt 0.170742 0.679304
vt 0.189359 0.679304
vt 0.207619 0.682936
vt 0.224820 0.690061
vt 0.240300 0.700404
vt 0.253465 0.713569
vt 0.263808 0.729049
vt 0.270933 0.746250
vt 0.274565 0.764510
vt 0.274565 0.783128
vt 0.270933 0.801388
vt 0.263808 0.818588
vt 0.253465 0.834068
vt 0.240300 0.847233
vt 0.224820 0.857577
vt 0.207619 0.864701
vt 0.189359 0.868334
vt 0.170742 0.868334
vt 0.152482 0.864701
vt 0.135281 0.857577
vt 0.119801 0.847233
vt 0.106636 0.834068
vt 0.096293 0.818588
vt 0.089168 0.801388
vt 0.085536 0.783128
vt 0.808076 0.675770
vt 0.808076 0.657899
vt 0.409939 0.759292
vt 0.808076 0.695626
vt 0.409743 0.780783
vt 0.808076 0.716706
vt 0.409161 0.801859
vt 0.348330 0.700808
vt 0.348330 0.685611
vt 0.808076 0.738198
vt 0.408216 0.821707
vt 0.348330 0.718679
vt 0.808076 0.759278
vt 0.406943 0.839567
vt 0.348330 0.738535
vt 0.808076 0.779134
vt 0.520839 0.821460
vt 0.522102 0.839320
vt 0.348330 0.759615
vt 0.808076 0.797005
vt 0.519900 0.801611
vt 0.348330 0.781107
vt 0.808076 0.812202
vt 0.519322 0.780536
vt 0.348330 0.802187
vt 0.519127 0.759044
vt 0.348330 0.822043
vt 0.519322 0.737962
vt 0.348330 0.839914
vt 0.519900 0.718100
vt 0.444375 0.665995
vt 0.408216 0.700467
vt 0.406943 0.685257
vt 0.520839 0.700220
vt 0.484700 0.665995
vt 0.522102 0.685010
vt 0.070942 0.784565
vt 0.070942 0.763073
vt 0.075135 0.741993
vt 0.083360 0.722136
vt 0.095300 0.704266
vt 0.110498 0.689069
vt 0.128368 0.677128
vt 0.148225 0.668903
vt 0.169304 0.664710
vt 0.190797 0.664710
vt 0.211876 0.668903
vt 0.231733 0.677128
vt 0.249603 0.689068
vt 0.264801 0.704266
vt 0.276741 0.722136
vt 0.284966 0.741993
vt 0.289159 0.763072
vt 0.289159 0.784565
vt 0.284966 0.805645
vt 0.276741 0.825501
vt 0.264801 0.843371
vt 0.249603 0.858569
vt 0.231733 0.870510
vt 0.211876 0.878734
vt 0.190797 0.882927
vt 0.169304 0.882927
vt 0.148225 0.878734
vt 0.128368 0.870510
vt 0.110498 0.858569
vt 0.095300 0.843372
vt 0.083360 0.825501
vt 0.075135 0.805645
s 0
usemtl Milk_MAT
f 7/1/1 5/2/1 6/3/1
f 7/1/1 4/4/1 5/2/1
f 4/4/1 2/5/1 3/6/1
f 4/4/1 1/7/1 2/5/1
f 7/1/1 9/8/1 4/4/1
f 9/8/1 1/7/1 4/4/1
f 9/8/1 11/9/1 1/7/1
f 7/1/1 8/10/1 9/8/1
f 10/11/1 11/9/1 9/8/1
f 14/12/1 12/13/1 13/14/1
f 14/12/1 17/15/1 12/13/1
f 14/12/1 16/16/1 17/15/1
f 14/12/1 15/17/1 16/16/1
f 20/18/1 18/19/1 19/20/1
f 20/18/1 21/21/1 18/19/1
f 27/22/1 25/23/1 26/24/1
f 27/22/1 29/25/1 25/23/1
f 29/25/1 30/26/1 25/23/1
f 30/26/1 24/27/1 25/23/1
f 24/27/1 22/28/1 23/29/1
f 24/27/1 33/30/1 22/28/1
f 33/30/1 34/31/1 22/28/1
f 34/31/1 36/32/1 22/28/1
f 27/22/1 28/33/1 29/25/1
f 31/34/1 24/27/1 30/26/1
f 24/27/1 32/35/1 33/30/1
f 35/36/1 36/32/1 34/31/1
f 31/34/1 32/35/1 24/27/1
f 54/37/2 38/38/2 40/39/2 55/40/2
f 55/41/3 40/42/3 44/43/3 57/44/3
f 57/45/4 44/46/4 42/47/4 59/48/4
f 59/49/1 42/50/1 38/51/1 54/52/1
f 39/53/5 43/54/5 41/55/5 37/56/5
f 40/39/2 38/38/2 45/57/2 46/58/2
f 45/59/1 48/60/1 52/61/1 49/62/1
f 38/63/6 42/64/6 48/65/6 45/66/6
f 44/67/7 40/68/7 46/69/7 47/70/7
f 42/47/4 44/46/4 47/71/4 48/72/4
f 51/73/8 50/74/8 49/75/8 52/76/8
f 47/77/3 46/78/3 50/79/3 51/80/3
f 48/72/4 47/71/4 51/81/4 52/82/4
f 46/58/2 45/57/2 49/83/2 50/84/2
f 41/85/1 60/86/1 53/87/1 37/88/1
f 60/86/1 59/49/1 54/52/1 53/87/1
f 43/89/4 58/90/4 60/91/4 41/92/4
f 58/90/4 57/45/4 59/48/4 60/91/4
f 39/93/3 56/94/3 58/95/3 43/96/3
f 56/94/3 55/41/3 57/44/3 58/95/3
f 37/97/2 53/98/2 56/99/2 39/100/2
f 53/98/2 54/37/2 55/40/2 56/99/2
s 1
f 62/101/9 61/102/10 92/103/11 91/104/12 90/105/13 89/106/14 88/107/15 87/108/16 86/109/17 85/110/18 84/111/19 83/112/20 82/113/21 81/114/22 80/115/23 79/116/24 78/117/25 77/118/26 76/119/27 75/120/28 74/121/29 73/122/30 72/123/31 71/124/32 70/125/33 69/126/34 68/127/35 67/128/36 66/129/37 65/130/38 64/131/39 63/132/40
f 103/133/41 104/134/42 168/135/43 167/136/44
f 72/137/31 73/138/30 105/139/45 104/134/42
f 86/140/17 87/141/16 119/142/46 118/143/47
f 73/138/30 74/144/29 106/145/48 105/139/45
f 87/141/16 88/146/15 120/147/49 119/142/46
f 74/144/29 75/148/28 107/149/50 106/145/48
f 61/150/10 62/151/9 93/152/51 94/153/52
f 88/146/15 89/154/14 121/155/53 120/147/49
f 75/148/28 76/156/27 108/157/54 107/149/50
f 62/151/9 63/158/40 95/159/55 93/152/51
f 89/154/14 90/160/13 122/161/56 121/155/53
f 76/156/27 77/162/26 109/163/57 108/157/54
f 63/158/40 64/164/39 96/165/58 95/159/55
f 90/160/13 91/166/12 123/167/59 122/161/56
f 77/168/26 78/169/25 110/170/60 109/171/57
f 64/164/39 65/172/38 97/173/61 96/165/58
f 91/166/12 92/174/11 124/175/62 123/167/59
f 78/169/25 79/176/24 111/177/63 110/170/60
f 65/172/38 66/178/37 98/179/64 97/173/61
f 92/174/11 61/180/10 94/181/52 124/175/62
f 79/176/24 80/182/23 112/183/65 111/177/63
f 66/178/37 67/184/36 99/185/66 98/179/64
f 80/182/23 81/186/22 113/187/67 112/183/65
f 67/184/36 68/188/35 100/189/68 99/185/66
f 81/186/22 82/190/21 114/191/69 113/187/67
f 68/188/35 69/192/34 101/193/70 100/189/68
f 82/190/21 83/194/20 115/195/71 114/191/69
f 69/192/34 70/196/33 102/197/72 101/193/70
f 83/194/20 84/198/19 116/199/73 115/195/71
f 70/200/33 71/201/32 103/133/41 102/202/72
f 84/203/19 85/204/18 117/205/74 116/206/73
f 71/201/32 72/137/31 104/134/42 103/133/41
f 85/204/18 86/140/17 118/143/47 117/205/74
f 125/207/75 127/208/75 128/209/75 129/210/75 130/211/75 131/212/75 132/213/75 133/214/75 134/215/75 135/216/75 136/217/75 137/218/75 138/219/75 139/220/75 140/221/75 141/222/75 142/223/75 143/224/75 144/225/75 145/226/75 146/227/75 147/228/75 148/229/75 149/230/75 150/231/75 151/232/75 152/233/75 153/234/75 154/235/75 155/236/75 156/237/75 126/238/75
f 117/205/74 118/143/47 182/239/76 181/240/77
f 104/134/42 105/139/45 169/241/78 168/135/43
f 118/143/47 119/142/46 183/242/79 182/239/76
f 105/139/45 106/145/48 170/243/80 169/241/78
f 119/142/46 120/147/49 184/244/81 183/242/79
f 106/145/48 107/149/50 171/245/82 170/243/80
f 94/153/52 93/152/51 157/246/83 158/247/84
f 120/147/49 121/155/53 185/248/85 184/244/81
f 107/149/50 108/157/54 172/249/86 171/245/82
f 93/152/51 95/159/55 159/250/87 157/246/83
f 121/155/53 122/161/56 186/251/88 185/248/85
f 108/157/54 109/163/57 173/252/89 172/249/86
f 95/159/55 96/165/58 160/253/90 159/250/87
f 122/161/56 123/167/59 187/254/91 186/251/88
f 109/171/57 110/170/60 174/255/92 173/256/89
f 96/165/58 97/173/61 161/257/93 160/253/90
f 123/167/59 124/175/62 188/258/94 187/254/91
f 110/170/60 111/177/63 175/259/95 174/255/92
f 97/173/61 98/179/64 162/260/96 161/257/93
f 124/175/62 94/181/52 158/261/84 188/258/94
f 111/177/63 112/183/65 176/262/97 175/259/95
f 98/179/64 99/185/66 163/263/98 162/260/96
f 112/183/65 113/187/67 177/264/99 176/262/97
f 99/185/66 100/189/68 164/265/100 163/263/98
f 113/187/67 114/191/69 178/266/101 177/264/99
f 100/189/68 101/193/70 165/267/102 164/265/100
f 114/191/69 115/195/71 179/268/103 178/266/101
f 101/269/70 102/202/72 166/270/104 165/271/102
f 115/195/71 116/199/73 180/272/105 179/268/103
f 102/202/72 103/133/41 167/136/44 166/270/104
f 116/199/73 117/273/74 181/274/77 180/272/105
f 125/207/75 126/238/75 158/275/84 157/276/83
f 127/208/75 125/207/75 157/276/83 159/277/87
f 128/209/75 127/208/75 159/277/87 160/278/90
f 129/210/75 128/209/75 160/278/90 161/279/93
f 130/211/75 129/210/75 161/279/93 162/280/96
f 131/212/75 130/211/75 162/280/96 163/281/98
f 132/213/75 131/212/75 163/281/98 164/282/100
f 133/214/75 132/213/75 164/282/100 165/283/102
f 134/215/75 133/214/75 165/283/102 166/284/104
f 135/216/75 134/215/75 166/284/104 167/285/44
f 136/217/75 135/216/75 167/285/44 168/286/43
f 137/218/75 136/217/75 168/286/43 169/287/78
f 138/219/75 137/218/75 169/287/78 170/288/80
f 139/220/75 138/219/75 170/288/80 171/289/82
f 140/221/75 139/220/75 171/289/82 172/290/86
f 141/222/75 140/221/75 172/290/86 173/291/89
f 142/223/75 141/222/75 173/291/89 174/292/92
f 143/224/75 142/223/75 174/292/92 175/293/95
f 144/225/75 143/224/75 175/293/95 176/294/97
f 145/226/75 144/225/75 176/294/97 177/295/99
f 146/227/75 145/226/75 177/295/99 178/296/101
f 147/228/75 146/227/75 178/296/101 179/297/103
f 148/229/75 147/228/75 179/297/103 180/298/105
f 149/230/75 148/229/75 180/298/105 181/299/77
f 150/231/75 149/230/75 181/299/77 182/300/76
f 151/232/75 150/231/75 182/300/76 183/301/79
f 152/233/75 151/232/75 183/301/79 184/302/81
f 153/234/75 152/233/75 184/302/81 185/303/85
f 154/235/75 153/234/75 185/303/85 186/304/88
f 155/236/75 154/235/75 186/304/88 187/305/91
f 156/237/75 155/236/75 187/305/91 188/306/94
f 126/238/75 156/237/75 188/306/94 158/275/84
