# Blender 4.3.2
# www.blender.org
mtllib battery.mtl
o Cylinder
v 0.000000 2.037422 -1.854092
v 0.000000 1.851809 1.680076
v 0.500000 1.903447 -1.854092
v 0.407194 1.742702 1.680076
v 0.866025 1.537422 -1.854092
v 0.705280 1.444615 1.680076
v 1.000000 1.037422 -1.854092
v 0.814388 1.037422 1.680076
v 0.866025 0.537422 -1.854092
v 0.705280 0.630228 1.680076
v 0.500000 0.171397 -1.854092
v 0.407194 0.332141 1.680076
v 0.000000 0.037422 -1.854092
v 0.000000 0.223034 1.680076
v -0.500000 0.171397 -1.854092
v -0.407194 0.332141 1.680076
v -0.866025 0.537422 -1.854092
v -0.705280 0.630228 1.680076
v -1.000000 1.037422 -1.854092
v -0.814388 1.037422 1.680076
v -0.866025 1.537422 -1.854092
v -0.705280 1.444615 1.680076
v -0.500000 1.903447 -1.854092
v -0.407194 1.742702 1.680076
v 0.500000 1.903447 1.680076
v 0.000000 2.037422 1.680076
v 0.866025 1.537422 1.680076
v 1.000000 1.037422 1.680076
v 0.866025 0.537422 1.680076
v 0.500000 0.171396 1.680076
v 0.000000 0.037422 1.680076
v -0.500000 0.171396 1.680076
v -0.866025 0.537422 1.680076
v -1.000000 1.037422 1.680076
v -0.866025 1.537422 1.680076
v -0.500000 1.903447 1.680076
v 0.106506 1.221895 1.596586
v -0.000000 1.250434 1.596586
v 0.184474 1.143928 1.596586
v 0.213012 1.037422 1.596586
v 0.184474 0.930916 1.596586
v 0.106506 0.852948 1.596586
v -0.000000 0.824410 1.596586
v -0.106506 0.852948 1.596586
v -0.184474 0.930916 1.596586
v -0.213012 1.037422 1.596586
v -0.184474 1.143928 1.596586
v -0.106506 1.221896 1.596586
v 0.407194 1.742702 1.596586
v -0.000000 1.851809 1.596586
v 0.705280 1.444615 1.596586
v 0.814388 1.037422 1.596586
v 0.705280 0.630228 1.596586
v 0.407194 0.332141 1.596586
v -0.000000 0.223034 1.596586
v -0.407194 0.332141 1.596586
v -0.705280 0.630228 1.596586
v -0.814388 1.037422 1.596586
v -0.705280 1.444615 1.596586
v -0.407194 1.742702 1.596586
v 0.106506 1.221895 1.734586
v -0.000000 1.250434 1.734586
v 0.184474 1.143928 1.734586
v 0.213012 1.037422 1.734586
v 0.184474 0.930916 1.734586
v 0.106506 0.852948 1.734586
v -0.000000 0.824410 1.734586
v -0.106506 0.852948 1.734586
v -0.184474 0.930916 1.734586
v -0.213012 1.037422 1.734586
v -0.184474 1.143928 1.734585
v -0.106506 1.221896 1.734586
v 0.000000 2.037422 0.670314
v 0.500000 1.903447 0.670314
v 0.866025 1.537422 0.670314
v 1.000000 1.037422 0.670314
v 0.866025 0.537422 0.670314
v 0.500000 0.171396 0.670314
v 0.000000 0.037422 0.670314
v -0.500000 0.171396 0.670314
v -0.866025 0.537422 0.670314
v -1.000000 1.037422 0.670314
v -0.866025 1.537422 0.670314
v -0.500000 1.903447 0.670314
vn 0.2588 0.9659 -0.0000
vn 0.7071 0.7071 -0.0000
vn 0.9659 0.2588 -0.0000
vn 0.9659 -0.2588 -0.0000
vn 0.7071 -0.7071 -0.0000
vn 0.2588 -0.9659 -0.0000
vn -0.2588 -0.9659 -0.0000
vn -0.7071 -0.7071 -0.0000
vn -0.9659 -0.2588 -0.0000
vn -0.9659 0.2588 -0.0000
vn -0.7071 0.7071 -0.0000
vn -0.2588 0.9659 -0.0000
vn -0.0000 -0.0000 -1.0000
vn -0.0000 -0.0000 1.0000
vt 0.172802 0.440662
vt 0.172802 0.608342
vt 0.088559 0.608342
vt 0.088559 0.440662
vt 0.021462 0.608342
vt 0.021462 0.440662
vt 0.796652 0.440662
vt 0.796652 0.608342
vt 0.755773 0.608342
vt 0.755773 0.440662
vt 0.697815 0.608342
vt 0.697815 0.440662
vt 0.638306 0.608342
vt 0.638306 0.440662
vt 0.593193 0.608342
vt 0.593193 0.440662
vt 0.346811 0.189142
vt 0.346811 0.021462
vt 0.391924 0.021462
vt 0.391924 0.189142
vt 0.451433 0.021462
vt 0.451433 0.189142
vt 0.509391 0.021462
vt 0.509391 0.189142
vt 0.550270 0.021462
vt 0.550270 0.189142
vt 0.757794 0.705909
vt 0.757794 0.774515
vt 0.743930 0.774515
vt 0.743930 0.705909
vt 0.303888 0.440662
vt 0.303888 0.608342
vt 0.251618 0.608342
vt 0.251618 0.440662
vt 0.486287 0.796685
vt 0.486287 0.880944
vt 0.458025 0.947507
vt 0.409074 0.978538
vt 0.352550 0.965724
vt 0.303598 0.912497
vt 0.275336 0.833119
vt 0.275336 0.748860
vt 0.303598 0.682297
vt 0.352550 0.651266
vt 0.409074 0.664080
vt 0.458025 0.717308
vt 0.212835 0.800066
vt 0.189819 0.735422
vt 0.204151 0.717308
vt 0.232413 0.796685
vt 0.149954 0.692075
vt 0.155199 0.664080
vt 0.103921 0.681639
vt 0.098675 0.651266
vt 0.064056 0.706910
vt 0.049724 0.682297
vt 0.041039 0.761118
vt 0.021462 0.748860
vt 0.041039 0.829738
vt 0.021462 0.833119
vt 0.064056 0.894382
vt 0.049724 0.912497
vt 0.103921 0.937729
vt 0.098675 0.965724
vt 0.149954 0.948165
vt 0.155199 0.978538
vt 0.189819 0.922894
vt 0.204151 0.947507
vt 0.212835 0.868686
vt 0.232413 0.880944
vt 0.862492 0.688147
vt 0.862492 0.697756
vt 0.839576 0.697756
vt 0.839576 0.688147
vt 0.839576 0.187156
vt 0.839576 0.153865
vt 0.853440 0.153865
vt 0.853440 0.187156
vt 0.853440 0.266819
vt 0.853440 0.315282
vt 0.839576 0.315282
vt 0.839576 0.266819
vt 0.839576 0.058201
vt 0.839576 0.021462
vt 0.853440 0.021462
vt 0.853440 0.058201
vt 0.757794 0.651266
vt 0.743930 0.651266
vt 0.757794 0.838702
vt 0.757794 0.881270
vt 0.743930 0.881270
vt 0.743930 0.838702
vt 0.853440 0.230079
vt 0.839576 0.230079
vt 0.839576 0.106664
vt 0.853440 0.106664
vt 0.853440 0.362483
vt 0.853440 0.395774
vt 0.839576 0.395774
vt 0.839576 0.362483
vt 0.637576 0.780649
vt 0.631556 0.763740
vt 0.677990 0.705049
vt 0.701007 0.769693
vt 0.621129 0.752402
vt 0.638125 0.661702
vt 0.609089 0.749673
vt 0.592092 0.651266
vt 0.598661 0.756283
vt 0.552227 0.676537
vt 0.592641 0.770461
vt 0.529211 0.730745
vt 0.592641 0.788409
vt 0.529211 0.799365
vt 0.598661 0.805318
vt 0.552227 0.864009
vt 0.609089 0.816656
vt 0.592092 0.907356
vt 0.621129 0.819386
vt 0.638125 0.917792
vt 0.631556 0.812775
vt 0.677990 0.892521
vt 0.637576 0.798597
vt 0.701007 0.838313
vt 0.839576 0.487621
vt 0.839576 0.469673
vt 0.845596 0.452765
vt 0.856023 0.441427
vt 0.868064 0.438697
vt 0.878491 0.445307
vt 0.884511 0.459486
vt 0.884511 0.477434
vt 0.878491 0.494343
vt 0.868064 0.505681
vt 0.856023 0.508410
vt 0.845596 0.501800
vt 0.839576 0.761733
vt 0.839576 0.749387
vt 0.862492 0.749387
vt 0.862492 0.761733
vt 0.839576 0.562468
vt 0.839576 0.551334
vt 0.862492 0.551334
vt 0.862492 0.562468
vt 0.839576 0.597201
vt 0.839576 0.579256
vt 0.862492 0.579256
vt 0.862492 0.597201
vt 0.862492 0.675471
vt 0.839576 0.675471
vt 0.839576 0.774409
vt 0.862492 0.774409
vt 0.839576 0.611494
vt 0.862492 0.611494
vt 0.862492 0.663125
vt 0.839576 0.663125
vt 0.839576 0.784019
vt 0.862492 0.784019
vt 0.839576 0.740680
vt 0.862492 0.740680
vt 0.862492 0.654417
vt 0.839576 0.654417
vt 0.251618 0.021462
vt 0.172802 0.021462
vt 0.303888 0.021462
vt 0.509391 0.608342
vt 0.550270 0.608342
vt 0.451433 0.608342
vt 0.391924 0.608342
vt 0.346811 0.608342
vt 0.638306 0.021462
vt 0.593193 0.021462
vt 0.697815 0.021462
vt 0.755773 0.021462
vt 0.796652 0.021462
vt 0.088559 0.021462
vt 0.021462 0.021462
s 0
usemtl Material.001
f 1/35/13 3/36/13 5/37/13 7/38/13 9/39/13 11/40/13 13/41/13 15/42/13 17/43/13 19/44/13 21/45/13 23/46/13
f 23/163/12 84/34/12 73/1/12 1/164/12
f 21/165/11 83/31/11 84/34/11 23/163/11
f 19/166/10 82/24/10 83/26/10 21/167/10
f 17/168/9 81/22/9 82/24/9 19/166/9
f 15/169/8 80/20/8 81/22/8 17/168/8
f 13/170/7 79/17/7 80/20/7 15/169/7
f 11/171/6 78/14/6 79/16/6 13/172/6
f 9/173/5 77/12/5 78/14/5 11/171/5
f 7/174/4 76/10/4 77/12/4 9/173/4
f 5/175/3 75/7/3 76/10/3 7/174/3
f 3/176/2 74/4/2 75/6/2 5/177/2
f 1/164/1 73/1/1 74/4/1 3/176/1
usemtl Material.002
f 73/1/1 26/2/1 25/3/1 74/4/1
f 74/4/2 25/3/2 27/5/2 75/6/2
f 75/7/3 27/8/3 28/9/3 76/10/3
f 76/10/4 28/9/4 29/11/4 77/12/4
f 77/12/5 29/11/5 30/13/5 78/14/5
f 78/14/6 30/13/6 31/15/6 79/16/6
f 79/17/7 31/18/7 32/19/7 80/20/7
f 80/20/8 32/19/8 33/21/8 81/22/8
f 81/22/9 33/21/9 34/23/9 82/24/9
f 82/24/10 34/23/10 35/25/10 83/26/10
f 16/27/1 14/28/1 55/29/1 56/30/1
f 83/31/11 35/32/11 36/33/11 84/34/11
f 84/34/12 36/33/12 26/2/12 73/1/12
f 2/47/14 4/48/14 25/49/14 26/50/14
f 4/48/14 6/51/14 27/52/14 25/49/14
f 6/51/14 8/53/14 28/54/14 27/52/14
f 8/53/14 10/55/14 29/56/14 28/54/14
f 10/55/14 12/57/14 30/58/14 29/56/14
f 12/57/14 14/59/14 31/60/14 30/58/14
f 14/59/14 16/61/14 32/62/14 31/60/14
f 16/61/14 18/63/14 33/64/14 32/62/14
f 18/63/14 20/65/14 34/66/14 33/64/14
f 20/65/14 22/67/14 35/68/14 34/66/14
f 22/67/14 24/69/14 36/70/14 35/68/14
f 24/69/14 2/47/14 26/50/14 36/70/14
f 10/75/10 8/76/10 52/77/10 53/78/10
f 24/79/5 22/80/5 59/81/5 60/82/5
f 4/83/7 2/84/7 50/85/7 49/86/7
f 18/87/2 16/27/2 56/30/2 57/88/2
f 12/89/11 10/90/11 53/91/11 54/92/11
f 2/93/6 24/79/6 60/82/6 50/94/6
f 6/95/8 4/83/8 49/86/8 51/96/8
f 20/97/3 18/98/3 57/99/3 58/100/3
f 14/28/12 12/89/12 54/92/12 55/29/12
f 8/76/9 6/95/9 51/96/9 52/77/9
f 22/80/4 20/97/4 58/100/4 59/81/4
usemtl Material.003
f 44/71/7 43/72/7 67/73/7 68/74/7
f 38/101/14 37/102/14 49/103/14 50/104/14
f 37/102/14 39/105/14 51/106/14 49/103/14
f 39/105/14 40/107/14 52/108/14 51/106/14
f 40/107/14 41/109/14 53/110/14 52/108/14
f 41/109/14 42/111/14 54/112/14 53/110/14
f 42/111/14 43/113/14 55/114/14 54/112/14
f 43/113/14 44/115/14 56/116/14 55/114/14
f 44/115/14 45/117/14 57/118/14 56/116/14
f 45/117/14 46/119/14 58/120/14 57/118/14
f 46/119/14 47/121/14 59/122/14 58/120/14
f 47/121/14 48/123/14 60/124/14 59/122/14
f 48/123/14 38/101/14 50/104/14 60/124/14
f 61/125/14 62/126/14 72/127/14 71/128/14 70/129/14 69/130/14 68/131/14 67/132/14 66/133/14 65/134/14 64/135/14 63/136/14
f 41/137/4 40/138/4 64/139/4 65/140/4
f 48/141/11 47/142/11 71/143/11 72/144/11
f 37/145/1 38/146/1 62/147/1 61/148/1
f 45/149/8 44/71/8 68/74/8 69/150/8
f 42/151/5 41/137/5 65/140/5 66/152/5
f 38/146/12 48/141/12 72/144/12 62/147/12
f 39/153/2 37/145/2 61/148/2 63/154/2
f 46/155/9 45/149/9 69/150/9 70/156/9
f 43/157/6 42/151/6 66/152/6 67/158/6
f 40/138/3 39/159/3 63/160/3 64/139/3
f 47/161/10 46/155/10 70/156/10 71/162/10
