# Blender 4.3.2
# www.blender.org
mtllib vault.mtl
o Cube
v 1.272446 2.834093 -1.069789
v 1.272446 0.694514 -1.069789
v 1.272446 2.834093 1.069789
v 1.272446 0.694514 1.069789
v -1.272446 2.885354 -1.121050
v -1.272446 0.643253 -1.121050
v -1.272446 2.885354 1.121050
v -1.272446 0.643253 1.121050
v 1.272446 3.036749 -1.272446
v 1.272446 0.491858 -1.272446
v 1.272446 3.036749 1.272446
v 1.272446 0.491858 1.272446
v 1.170735 2.089871 -0.350970
v 1.167330 1.439067 -0.350970
v 1.160886 2.065358 0.339701
v 1.144826 1.457947 0.339701
v 1.154832 2.834093 -1.069789
v 1.154832 0.694514 -1.069789
v 1.154832 2.834093 1.069789
v 1.154832 0.694514 1.069789
v 1.346639 2.089871 -0.350970
v 1.343234 1.439067 -0.350970
v 1.336790 2.065358 0.339701
v 1.320730 1.457947 0.339701
v 1.146883 1.768183 -0.430193
v 1.154832 1.764303 0.411930
v 1.154832 2.203296 0.000000
v 1.154832 1.352373 0.000000
v 1.322787 1.768183 -0.430193
v 1.330736 1.764303 0.411930
v 1.330736 2.203296 0.000000
v 1.330736 1.352373 0.000000
v 1.255282 1.439067 -0.350970
v 1.232778 1.457947 0.339701
v 1.248838 2.065358 0.339701
v 1.258687 2.089871 -0.350970
v 1.159213 2.172048 -0.096691
v 1.246085 1.375275 -0.092715
v 1.330736 1.764303 0.000000
v 1.156502 1.847393 0.391995
v 1.240358 1.842672 -0.411848
v 1.328154 1.840568 -0.412366
v 1.152503 1.843984 -0.411525
v 1.239983 1.685316 -0.410245
v 1.327997 1.684327 -0.410007
v 1.152101 1.684188 -0.409974
v 1.152503 1.843984 -0.757915
v 1.146883 1.768183 -0.776583
v 1.328154 1.840568 -0.758757
v 1.322787 1.768183 -0.776583
v 1.234835 1.768183 -0.776583
v 1.240358 1.842672 -0.758239
v 1.239983 1.685316 -0.756636
v 1.327997 1.684327 -0.756398
v 1.152101 1.684188 -0.756365
v 1.335020 2.172743 -0.094540
v 1.247180 2.171938 -0.097032
v 1.156415 2.167221 0.088843
v 1.244315 2.168413 0.085907
v 1.332200 2.169933 0.082163
v 1.159213 2.484011 -0.092806
v 1.154832 2.515259 0.003884
v 1.335020 2.484706 -0.090656
v 1.330736 2.515259 0.003884
v 1.242784 2.515259 0.003884
v 1.244315 2.480376 0.089792
v 1.247180 2.483901 -0.093147
v 1.156415 2.479183 0.092728
v 1.332200 2.481896 0.086048
v 1.158388 1.377042 -0.099868
v 1.333894 1.374279 -0.088684
v 1.327594 1.385525 0.106670
v 1.239668 1.385249 0.105783
v 1.151402 1.388554 0.116416
v 1.151402 1.078407 0.116416
v 1.154832 1.042226 0.000000
v 1.327594 1.075378 0.106670
v 1.330736 1.042226 0.000000
v 1.242784 1.042226 0.000000
v 1.246085 1.065128 -0.092715
v 1.158388 1.066895 -0.099868
v 1.333894 1.064132 -0.088684
v 1.239668 1.075102 0.105783
v 1.244451 1.847231 0.392034
v 1.332321 1.843119 0.393020
v 1.239972 1.678227 0.391636
v 1.327962 1.679391 0.391910
v 1.151892 1.674308 0.390712
v 1.156502 1.847393 0.698975
v 1.154832 1.764303 0.718910
v 1.332321 1.843119 0.700000
v 1.330736 1.764303 0.718910
v 1.242784 1.764303 0.718910
v 1.239972 1.678227 0.698616
v 1.244451 1.847231 0.699014
v 1.327962 1.679391 0.698890
v 1.151892 1.674308 0.697692
v 1.272446 1.764303 1.069789
v 1.154832 1.764303 1.069789
v 1.213639 2.834093 1.069789
v 1.213639 0.694514 1.069789
v 1.213639 1.764303 1.069789
v 1.213639 1.414646 1.069789
v 1.272446 1.414457 1.069789
v 1.154832 1.414842 1.069789
v 1.272446 0.978373 1.069789
v 1.213639 0.974229 1.069789
v 1.154832 0.964801 1.069789
v 1.154832 2.638088 1.069789
v 1.213639 2.633601 1.069789
v 1.272446 2.629138 1.069789
v 1.154832 2.224730 1.069789
v 1.213639 2.227026 1.069789
v 1.272446 2.229353 1.069789
v 1.213639 2.227026 0.757590
v 1.213639 2.633601 0.757590
v 1.154832 2.638088 0.757590
v 1.272446 2.629138 0.757590
v 1.154832 2.224730 0.757590
v 1.272446 2.229353 0.757590
v 1.213639 0.974229 0.770269
v 1.213639 1.414646 0.770269
v 1.272446 1.414457 0.770269
v 1.154832 1.414842 0.770269
v 1.272446 0.978373 0.770269
v 1.154832 0.964801 0.770269
v -1.272446 0.491858 -1.272446
v -1.272446 0.491858 1.272446
v -1.272446 3.036749 1.272446
v -1.272446 3.036749 -1.272446
v -1.272446 0.643253 -1.121050
v -1.272446 0.643253 1.121050
v -1.272446 2.885354 1.121050
v -1.272446 2.885354 -1.121050
v -1.157630 0.792404 -1.006827
v -1.157630 0.794918 0.945738
v -1.157630 2.754371 0.971362
v -1.157630 2.769163 -0.994589
v -1.157630 0.794918 0.715944
v -1.157630 2.533311 0.971362
v -1.157630 2.570695 -0.994589
v -1.157630 2.769163 -0.796121
v -1.157630 2.570695 -0.796121
v -1.157630 2.754371 0.750302
v -1.157630 2.885354 -1.121050
v -1.157630 1.018037 -1.006827
v -1.157630 2.533311 0.750302
v -1.270177 2.769163 -0.796121
v -1.270177 2.769163 -0.994589
v -1.270177 2.570695 -0.994589
v -1.270177 2.570695 -0.796121
v -1.157630 1.024712 0.945738
v -1.157630 2.885354 1.121050
v -1.157630 2.885354 0.000000
v -1.157630 1.024712 0.715944
v -1.271060 2.533311 0.971362
v -1.271060 2.754371 0.971362
v -1.271060 2.754371 0.750302
v -1.271060 2.533311 0.750302
v -1.157630 0.792404 -0.781194
v -1.157630 0.643253 1.121050
v -1.157630 1.764303 1.121050
v -1.157630 1.018037 -0.781194
v -1.259659 0.794918 0.715944
v -1.259659 0.794918 0.945738
v -1.259659 1.024712 0.945738
v -1.259659 1.024712 0.715944
v -1.157630 1.764303 -1.121050
v -1.157630 0.643253 -1.121050
v -1.157630 0.643253 0.000000
v -1.157630 1.764303 0.000000
v -1.235234 1.018037 -1.006827
v -1.235234 0.792404 -1.006827
v -1.235234 0.792404 -0.781194
v -1.235234 1.018037 -0.781194
vn -0.0000 1.0000 -0.0000
vn -0.0000 -0.0000 1.0000
vn -0.0000 -1.0000 -0.0000
vn -0.0000 -0.0000 -1.0000
vn 1.0000 -0.0000 -0.0000
vn -0.9996 -0.0000 -0.0294
vn 0.9999 -0.0011 -0.0129
vn 1.0000 -0.0054 -0.0022
vn 0.9999 0.0114 0.0030
vn 1.0000 -0.0013 0.0072
vn 0.9999 -0.0091 -0.0097
vn 0.0467 0.9989 -0.0000
vn -0.9998 -0.0002 0.0177
vn -0.0112 -0.9999 -0.0000
vn -0.0000 -0.2340 -0.9722
vn 0.0149 0.9999 -0.0000
vn -0.0000 0.9515 -0.3075
vn 0.9998 0.0002 -0.0177
vn -0.0000 0.2333 0.9724
vn 0.9998 -0.0201 -0.0000
vn 0.9998 -0.0155 0.0155
vn 0.9996 0.0286 0.0091
vn 0.9993 -0.0329 0.0148
vn -0.0000 -0.9549 0.2968
vn 0.1196 -0.0000 0.9928
vn -0.0000 0.2391 -0.9710
vn 0.9981 0.0620 -0.0000
vn 0.0128 -0.9999 -0.0000
vn -0.9981 -0.0620 -0.0000
vn 0.9973 -0.0739 -0.0000
vn 0.0240 0.9997 -0.0000
vn -0.9973 0.0739 -0.0000
vn -0.0000 0.9265 0.3762
vn 0.0428 -0.0124 0.9990
vn -0.0039 0.0125 -0.9999
vn 0.9990 -0.0006 0.0454
vn 0.0282 0.0124 -0.9995
vn -0.9990 0.0006 -0.0454
vn 0.0336 -0.0124 0.9994
vn -0.0000 -0.9708 -0.2398
vn 0.9996 -0.0000 0.0294
vn 0.9994 -0.0000 0.0356
vn 0.0459 -0.0000 -0.9989
vn -0.9994 -0.0000 -0.0356
vn -0.0101 -0.0000 0.9999
vn 0.0813 -0.0000 -0.9967
vn -0.0000 -0.2295 0.9733
vn -0.9995 0.0326 -0.0000
vn 0.0132 -0.9999 -0.0000
vn -0.9998 0.0201 -0.0000
vn 0.0445 -0.9990 -0.0000
vn 0.9995 -0.0326 -0.0000
vn 0.0019 1.0000 -0.0000
vn -1.0000 -0.0000 -0.0000
vn 0.1583 -0.9874 -0.0000
vn 0.0757 0.9971 -0.0000
vn 0.0395 -0.9992 -0.0000
vn 0.0390 -0.9992 -0.0000
vn 0.0761 0.9971 -0.0000
vn 0.0032 1.0000 -0.0000
vn 0.0703 -0.9975 -0.0000
vn 0.0033 1.0000 -0.0000
vt 0.004520 0.337857
vt 0.328795 0.337900
vt 0.328795 0.662170
vt 0.004520 0.662127
vt 0.337868 0.662153
vt 0.337866 0.337858
vt 0.662144 0.337858
vt 0.662146 0.662153
vt 0.656288 0.671193
vt 0.995439 0.662133
vt 0.671187 0.662186
vt 0.671187 0.337908
vt 0.995439 0.337855
vt 0.898690 0.943861
vt 0.898690 0.671229
vt 0.906183 0.671228
vt 0.913676 0.671227
vt 0.913676 0.943859
vt 0.671189 0.328814
vt 0.671187 0.004520
vt 0.995477 0.004520
vt 0.995480 0.328814
vt 0.363679 0.302987
vt 0.636322 0.302993
vt 0.662146 0.328817
vt 0.337854 0.328810
vt 0.636322 0.030351
vt 0.600150 0.030350
vt 0.544581 0.030349
vt 0.500000 0.030348
vt 0.440740 0.030347
vt 0.389796 0.030346
vt 0.363679 0.030345
vt 0.337854 0.004520
vt 0.662146 0.004527
vt 0.718395 0.889807
vt 0.733231 0.894416
vt 0.733231 0.933938
vt 0.718395 0.929329
vt 0.850635 0.943872
vt 0.850635 0.671227
vt 0.865622 0.671227
vt 0.865622 0.943872
vt 0.874663 0.943852
vt 0.874663 0.671227
vt 0.889649 0.671229
vt 0.889649 0.943854
vt 0.882156 0.943853
vt 0.774713 0.887353
vt 0.774713 0.931909
vt 0.767219 0.931884
vt 0.767219 0.887353
vt 0.096107 0.766042
vt 0.088403 0.797384
vt 0.086028 0.807047
vt 0.088601 0.817747
vt 0.096109 0.848974
vt 0.004520 0.943860
vt 0.004520 0.671217
vt 0.184135 0.846578
vt 0.190631 0.819004
vt 0.193332 0.807534
vt 0.190791 0.796946
vt 0.184124 0.769168
vt 0.277162 0.671211
vt 0.277162 0.696188
vt 0.277162 0.748861
vt 0.277162 0.807533
vt 0.277162 0.852064
vt 0.277162 0.909412
vt 0.277162 0.943854
vt 0.152161 0.756191
vt 0.140841 0.751595
vt 0.128517 0.755575
vt 0.128113 0.856882
vt 0.140841 0.860027
vt 0.155678 0.855418
vt 0.745291 0.742592
vt 0.705023 0.703762
vt 0.715349 0.699176
vt 0.747717 0.684803
vt 0.772822 0.699568
vt 0.781726 0.704805
vt 0.953815 0.793506
vt 0.965017 0.793376
vt 0.965017 0.832491
vt 0.953815 0.832622
vt 0.802625 0.867848
vt 0.791248 0.872303
vt 0.791248 0.832547
vt 0.802625 0.828092
vt 0.671187 0.894489
vt 0.682399 0.894516
vt 0.682399 0.938655
vt 0.671187 0.938627
vt 0.084365 0.984897
vt 0.084365 0.953466
vt 0.095550 0.954301
vt 0.095550 0.985606
vt 0.073180 0.984188
vt 0.073180 0.952901
vt 0.813634 0.925586
vt 0.802438 0.925546
vt 0.802438 0.881409
vt 0.813634 0.881449
vt 0.771013 0.941525
vt 0.771013 0.973793
vt 0.759820 0.973559
vt 0.759820 0.940974
vt 0.782207 0.942075
vt 0.782207 0.974387
vt 0.676750 0.675813
vt 0.687076 0.671227
vt 0.213018 0.953153
vt 0.213018 0.980952
vt 0.201814 0.981224
vt 0.201814 0.952901
vt 0.224223 0.953405
vt 0.224223 0.981184
vt 0.799974 0.671408
vt 0.808878 0.676645
vt 0.783078 0.779027
vt 0.787747 0.714152
vt 0.803448 0.738527
vt 0.789474 0.766310
vt 0.744072 0.803556
vt 0.716365 0.787276
vt 0.706892 0.781710
vt 0.773222 0.785225
vt 0.701825 0.773673
vt 0.684371 0.745992
vt 0.699460 0.715138
vt 0.115794 0.953176
vt 0.115794 0.983084
vt 0.104591 0.983246
vt 0.104591 0.953450
vt 0.126997 0.952901
vt 0.126997 0.981450
vt 0.933919 0.893792
vt 0.945180 0.893371
vt 0.945180 0.932892
vt 0.933919 0.933314
vt 0.411808 0.977152
vt 0.421304 0.977859
vt 0.421046 0.989046
vt 0.411818 0.988360
vt 0.976517 0.876104
vt 0.965341 0.876678
vt 0.965341 0.845076
vt 0.976517 0.844234
vt 0.954165 0.877352
vt 0.954165 0.845918
vt 0.685728 0.819051
vt 0.676255 0.813485
vt 0.693599 0.894481
vt 0.693599 0.938620
vt 0.411798 0.965944
vt 0.421461 0.966664
vt 0.401253 0.977831
vt 0.401099 0.966632
vt 0.401137 0.989046
vt 0.922716 0.671227
vt 0.933419 0.673801
vt 0.933419 0.717942
vt 0.922716 0.715367
vt 0.671187 0.805448
vt 0.791248 0.925481
vt 0.791248 0.881344
vt 0.943079 0.671425
vt 0.943079 0.715565
vt 0.349471 0.978267
vt 0.349053 0.989263
vt 0.337866 0.988605
vt 0.338265 0.978089
vt 0.933920 0.884179
vt 0.922716 0.883987
vt 0.922716 0.844234
vt 0.933920 0.844426
vt 0.957954 0.766840
vt 0.946745 0.766827
vt 0.946745 0.727073
vt 0.957954 0.727086
vt 0.052935 0.953134
vt 0.064139 0.953263
vt 0.064139 0.985394
vt 0.052935 0.985640
vt 0.041731 0.952901
vt 0.041731 0.985887
vt 0.360676 0.978446
vt 0.360245 0.989817
vt 0.337866 0.966082
vt 0.349061 0.965944
vt 0.360268 0.966166
vt 0.671187 0.687188
vt 0.969149 0.766736
vt 0.969149 0.726982
vt 0.814897 0.871982
vt 0.814897 0.832226
vt 0.945124 0.884330
vt 0.945124 0.844576
vt 0.902475 0.968139
vt 0.902376 0.979932
vt 0.891180 0.979772
vt 0.891274 0.968491
vt 0.922716 0.942355
vt 0.933914 0.942421
vt 0.933914 0.975273
vt 0.922716 0.975720
vt 0.945111 0.942885
vt 0.945111 0.974827
vt 0.817924 0.793743
vt 0.811528 0.806460
vt 0.801672 0.812658
vt 0.913676 0.967786
vt 0.913569 0.980490
vt 0.891180 0.954853
vt 0.902381 0.954614
vt 0.913572 0.952902
vt 0.963300 0.671451
vt 0.974492 0.671577
vt 0.974492 0.711099
vt 0.963300 0.710973
vt 0.745959 0.891272
vt 0.745959 0.930794
vt 0.922716 0.893757
vt 0.922716 0.933279
vt 0.952120 0.671227
vt 0.952120 0.710749
vt 0.380286 0.977191
vt 0.391261 0.977149
vt 0.390815 0.988353
vt 0.379988 0.988394
vt 0.934185 0.832490
vt 0.922716 0.835193
vt 0.922716 0.796075
vt 0.934185 0.793372
vt 0.802461 0.973778
vt 0.791247 0.973743
vt 0.791247 0.934627
vt 0.802461 0.934662
vt 0.147240 0.953389
vt 0.158442 0.954228
vt 0.158442 0.981815
vt 0.147240 0.981475
vt 0.136038 0.952901
vt 0.136038 0.981136
vt 0.380583 0.965988
vt 0.392058 0.965944
vt 0.369943 0.988353
vt 0.369717 0.977148
vt 0.369994 0.965944
vt 0.944774 0.835031
vt 0.944774 0.795913
vt 0.813692 0.973899
vt 0.813692 0.934783
vt 0.814899 0.685992
vt 0.976224 0.793372
vt 0.976224 0.832487
vt 0.461489 0.965944
vt 0.461489 0.991493
vt 0.453995 0.990921
vt 0.453995 0.965944
vt 0.468983 0.965944
vt 0.468983 0.992062
vt 0.782207 0.887353
vt 0.782207 0.931934
vt 0.954220 0.893371
vt 0.961714 0.893942
vt 0.961714 0.945752
vt 0.954220 0.946044
vt 0.671187 0.885440
vt 0.671187 0.828092
vt 0.709355 0.828092
vt 0.709355 0.885441
vt 0.858136 0.952917
vt 0.865648 0.952928
vt 0.865648 0.991094
vt 0.858136 0.991083
vt 0.961714 0.955613
vt 0.969208 0.955085
vt 0.969208 0.991257
vt 0.961714 0.991257
vt 0.954220 0.956815
vt 0.954220 0.991257
vt 0.240763 0.992687
vt 0.233264 0.992693
vt 0.233264 0.952913
vt 0.240763 0.952907
vt 0.257303 0.952901
vt 0.264801 0.952903
vt 0.264801 0.992684
vt 0.257303 0.992682
vt 0.774713 0.828388
vt 0.782207 0.828092
vt 0.767219 0.828681
vt 0.969208 0.894511
vt 0.969208 0.945455
vt 0.272299 0.952904
vt 0.272299 0.992686
vt 0.440740 0.070130
vt 0.389796 0.070128
vt 0.718395 0.880766
vt 0.718395 0.828092
vt 0.758179 0.828092
vt 0.758179 0.880766
vt 0.248263 0.992681
vt 0.248263 0.952901
vt 0.930210 0.727008
vt 0.937704 0.727032
vt 0.937704 0.782602
vt 0.930210 0.783130
vt 0.922716 0.726983
vt 0.922716 0.784331
vt 0.600150 0.068517
vt 0.544581 0.068516
vt 0.985683 0.765148
vt 0.978190 0.765147
vt 0.978190 0.726982
vt 0.985683 0.726983
vt 0.850635 0.952913
vt 0.850635 0.991079
vt 0.993177 0.765149
vt 0.993177 0.726984
vt 0.023813 0.309522
vt 0.309521 0.309524
vt 0.328814 0.328816
vt 0.004520 0.328814
vt 0.023813 0.023813
vt 0.004520 0.004520
vt 0.309521 0.023814
vt 0.328814 0.004522
vt 0.300833 0.671211
vt 0.300833 0.956921
vt 0.286203 0.956921
vt 0.286203 0.814066
vt 0.286203 0.671211
vt 0.589571 0.991233
vt 0.589571 0.965944
vt 0.603912 0.965946
vt 0.603912 0.991235
vt 0.324504 0.671213
vt 0.324504 0.956901
vt 0.309874 0.956899
vt 0.309874 0.814055
vt 0.309874 0.671211
vt 0.841594 0.671227
vt 0.841594 0.956922
vt 0.826965 0.956925
vt 0.826965 0.814077
vt 0.826965 0.671229
vt 0.632616 0.956903
vt 0.632616 0.671193
vt 0.647247 0.671193
vt 0.647247 0.814048
vt 0.647247 0.956903
vt 0.612953 0.994697
vt 0.612953 0.965944
vt 0.622842 0.965944
vt 0.622842 0.994697
vt 0.544149 0.995228
vt 0.544149 0.965947
vt 0.557149 0.965944
vt 0.557149 0.995226
vt 0.992703 0.893371
vt 0.992703 0.921540
vt 0.978249 0.921540
vt 0.978249 0.893370
vt 0.608769 0.940787
vt 0.608769 0.915497
vt 0.623575 0.814048
vt 0.623575 0.956902
vt 0.583479 0.940788
vt 0.480721 0.956903
vt 0.583479 0.915497
vt 0.480721 0.814048
vt 0.167483 0.952901
vt 0.192773 0.952901
vt 0.192773 0.978191
vt 0.167483 0.978192
vt 0.566189 0.991235
vt 0.566189 0.965944
vt 0.580531 0.965944
vt 0.580531 0.991235
vt 0.647247 0.965944
vt 0.647247 0.991235
vt 0.632905 0.991234
vt 0.632905 0.965944
vt 0.286203 0.991253
vt 0.286203 0.965964
vt 0.300543 0.965962
vt 0.300543 0.991251
vt 0.606884 0.690268
vt 0.578715 0.690268
vt 0.480721 0.671194
vt 0.623575 0.671193
vt 0.606884 0.718437
vt 0.578715 0.718438
vt 0.004520 0.952901
vt 0.032690 0.952901
vt 0.032690 0.981070
vt 0.004520 0.981071
vt 0.309874 0.994110
vt 0.309874 0.965942
vt 0.324327 0.965944
vt 0.324327 0.994112
vt 0.430502 0.994115
vt 0.430502 0.965947
vt 0.444955 0.965944
vt 0.444955 0.994113
vt 0.978249 0.958750
vt 0.978249 0.930581
vt 0.992702 0.930581
vt 0.992702 0.958751
vt 0.357192 0.693535
vt 0.357192 0.722817
vt 0.337866 0.814049
vt 0.337866 0.671195
vt 0.386475 0.693534
vt 0.386475 0.722817
vt 0.718395 0.942979
vt 0.747678 0.942979
vt 0.747678 0.972262
vt 0.718395 0.972262
vt 0.491025 0.965945
vt 0.491025 0.995227
vt 0.478024 0.995227
vt 0.478024 0.965944
vt 0.500066 0.995227
vt 0.500066 0.965944
vt 0.513066 0.965944
vt 0.513066 0.995227
vt 0.522107 0.995225
vt 0.522107 0.965944
vt 0.535108 0.965946
vt 0.535108 0.995227
vt 0.356872 0.942348
vt 0.385624 0.942348
vt 0.337866 0.956904
vt 0.356872 0.913596
vt 0.385624 0.913596
vt 0.671187 0.947695
vt 0.699939 0.947695
vt 0.699939 0.976448
vt 0.671187 0.976448
vt 0.985265 0.822124
vt 0.985265 0.793373
vt 0.995152 0.793372
vt 0.995152 0.822123
vt 0.826965 0.994716
vt 0.826965 0.965965
vt 0.836853 0.965967
vt 0.836853 0.994717
vt 0.993421 0.671227
vt 0.993421 0.699979
vt 0.983533 0.699979
vt 0.983533 0.671227
s 0
usemtl Material.001
f 9/1/1 130/2/1 129/3/1 11/4/1
f 12/5/2 11/6/2 129/7/2 128/8/2
f 5/9/1 6/9/1 131/9/1 134/9/1
f 127/19/4 130/20/4 9/21/4 10/22/4
f 1/23/5 2/24/5 10/25/5 9/26/5
f 4/27/5 106/28/5 104/29/5 98/30/5 114/31/5 111/32/5 3/33/5 11/34/5 12/35/5
f 3/33/5 1/23/5 9/26/5 11/34/5
f 2/24/5 4/27/5 12/35/5 10/25/5
f 13/53/7 43/54/7 25/55/7 46/56/7 14/57/7 18/58/7 17/59/7
f 16/60/8 88/61/8 26/62/8 40/63/8 15/64/8 19/65/8 109/66/8 112/67/8 99/68/8 105/69/8 108/70/8 20/71/8
f 15/64/9 58/72/9 27/73/9 37/74/9 13/53/9 17/59/9 19/65/9
f 14/57/10 70/75/10 28/76/10 74/77/10 16/60/10 20/71/10 18/58/10
f 8/324/54 6/325/54 127/326/54 128/327/54
f 7/328/54 8/324/54 128/327/54 129/329/54
f 6/325/54 5/330/54 130/331/54 127/326/54
f 5/330/54 7/328/54 129/329/54 130/331/54
f 6/9/1 8/9/1 132/9/1 131/9/1
f 7/9/1 5/9/1 134/9/1 133/9/1
f 8/9/1 7/9/1 133/9/1 132/9/1
f 138/368/54 142/369/54 154/370/54 145/371/54
f 141/372/54 138/368/54 145/371/54 168/373/54
f 143/374/54 141/372/54 168/373/54 171/375/54
f 142/369/54 143/374/54 171/375/54 154/370/54
f 137/392/54 140/393/54 162/394/54 153/395/54
f 144/396/54 137/392/54 153/395/54 154/370/54
f 140/393/54 147/397/54 171/375/54 162/394/54
f 147/397/54 144/396/54 154/370/54 171/375/54
f 136/414/54 139/415/54 170/416/54 161/417/54
f 152/418/54 136/414/54 161/417/54 162/394/54
f 155/419/54 152/418/54 162/394/54 171/375/54
f 139/415/54 155/419/54 171/375/54 170/416/54
f 135/436/54 146/437/54 168/373/54 169/438/54
f 160/439/54 135/436/54 169/438/54 170/416/54
f 146/437/54 163/440/54 171/375/54 168/373/54
f 163/440/54 160/439/54 170/416/54 171/375/54
usemtl Material.002
f 127/10/3 10/11/3 12/12/3 128/13/3
f 1/14/3 3/15/3 100/16/3 19/17/3 17/18/3
f 74/36/6 28/37/6 76/38/6 75/39/6
f 2/40/2 1/41/2 17/42/2 18/43/2
f 4/44/1 2/45/1 18/46/1 20/47/1 101/48/1
f 102/49/4 103/50/4 105/51/4 99/52/4
f 39/78/11 31/79/11 60/80/11 23/81/11 85/82/11 30/83/11
f 85/84/12 84/85/12 95/86/12 91/87/12
f 27/88/13 58/89/13 68/90/13 62/91/13
f 45/92/14 44/93/14 53/94/14 54/95/14
f 33/96/15 44/97/15 45/98/15 22/99/15
f 14/100/15 46/101/15 44/97/15 33/96/15
f 43/102/16 41/103/16 52/104/16 47/105/16
f 36/106/17 57/107/17 56/108/17 21/109/17
f 13/110/17 37/111/17 57/107/17 36/106/17
f 60/80/18 31/79/18 64/112/18 69/113/18
f 35/114/19 84/115/19 85/116/19 23/117/19
f 15/118/19 40/119/19 84/115/19 35/114/19
f 30/83/20 85/82/20 91/120/20 92/121/20
f 32/122/21 39/78/21 30/83/21 87/123/21 24/124/21 72/125/21
f 22/126/22 45/127/22 29/128/22 39/78/22 32/122/22 71/129/22
f 29/128/23 42/130/23 21/131/23 56/132/23 31/79/23 39/78/23
f 34/133/24 73/134/24 72/135/24 24/136/24
f 16/137/24 74/138/24 73/134/24 34/133/24
f 73/139/25 74/140/25 75/141/25 83/142/25
f 51/143/26 52/144/26 49/145/26 50/146/26
f 42/147/26 41/148/26 36/149/26 21/150/26
f 41/148/26 43/151/26 13/152/26 36/149/26
f 29/128/27 45/127/27 54/153/27 50/154/27
f 44/93/28 46/155/28 55/156/28 53/94/28
f 48/157/26 47/158/26 52/144/26 51/143/26
f 53/159/15 55/160/15 48/157/15 51/143/15
f 54/161/15 53/159/15 51/143/15 50/146/15
f 46/162/29 25/163/29 48/164/29 55/165/29
f 42/130/30 29/128/30 50/154/30 49/166/30
f 41/103/31 42/167/31 49/168/31 52/104/31
f 25/163/32 43/169/32 47/170/32 48/164/32
f 65/171/33 66/172/33 69/173/33 64/174/33
f 59/175/34 60/176/34 69/177/34 66/178/34
f 57/179/35 37/180/35 61/181/35 67/182/35
f 59/183/33 58/184/33 15/185/33 35/186/33
f 60/187/33 59/183/33 35/186/33 23/188/33
f 62/189/33 68/190/33 66/172/33 65/171/33
f 63/191/17 67/192/17 65/171/17 64/174/17
f 67/192/17 61/193/17 62/189/17 65/171/17
f 31/79/36 56/132/36 63/194/36 64/112/36
f 56/195/37 57/179/37 67/182/37 63/196/37
f 37/197/38 27/88/38 62/91/38 61/198/38
f 58/199/39 59/175/39 66/178/39 68/200/39
f 79/201/40 80/202/40 82/203/40 78/204/40
f 71/205/40 38/206/40 33/207/40 22/208/40
f 38/206/40 70/209/40 14/210/40 33/207/40
f 32/122/41 72/125/41 77/211/41 78/212/41
f 71/129/42 32/122/42 78/212/42 82/213/42
f 76/214/40 81/215/40 80/202/40 79/201/40
f 77/216/24 83/217/24 79/201/24 78/204/24
f 83/217/24 75/218/24 76/214/24 79/201/24
f 38/219/43 71/220/43 82/221/43 80/222/43
f 28/37/44 70/223/44 81/224/44 76/38/44
f 72/225/45 73/139/45 83/142/45 77/226/45
f 70/227/46 38/219/46 80/222/46 81/228/46
f 93/229/47 94/230/47 96/231/47 92/232/47
f 26/233/48 88/234/48 97/235/48 90/236/48
f 86/237/49 87/238/49 96/239/49 94/240/49
f 86/241/47 88/242/47 16/243/47 34/244/47
f 87/245/47 86/241/47 34/244/47 24/246/47
f 90/247/47 97/248/47 94/230/47 93/229/47
f 91/249/19 95/250/19 93/229/19 92/232/19
f 95/250/19 89/251/19 90/247/19 93/229/19
f 40/252/50 26/233/50 90/236/50 89/253/50
f 88/254/51 86/237/51 94/240/51 97/255/51
f 87/123/52 30/83/52 92/121/52 96/256/52
f 84/85/53 40/257/53 89/258/53 95/86/53
f 100/259/4 110/260/4 109/261/4 19/262/4
f 3/263/4 111/264/4 110/260/4 100/259/4
f 98/265/4 104/266/4 103/50/4 102/49/4
f 117/267/4 116/268/4 115/269/4 119/270/4
f 108/271/54 105/272/54 124/273/54 126/274/54
f 107/275/55 108/276/55 126/277/55 121/278/55
f 107/279/4 106/280/4 4/281/4 101/282/4
f 108/283/4 107/279/4 101/282/4 20/284/4
f 110/285/56 111/286/56 118/287/56 116/288/56
f 114/289/57 113/290/57 115/291/57 120/292/57
f 113/293/4 114/294/4 98/265/4 102/49/4
f 112/295/4 113/293/4 102/49/4 99/52/4
f 116/268/4 118/296/4 120/297/4 115/269/4
f 113/290/58 112/298/58 119/299/58 115/291/58
f 111/32/5 114/31/5 120/300/5 118/301/5
f 112/302/54 109/303/54 117/304/54 119/305/54
f 109/306/59 110/285/59 116/288/59 117/307/59
f 122/308/4 123/309/4 125/310/4 121/311/4
f 124/312/4 122/308/4 121/311/4 126/313/4
f 104/29/5 106/28/5 125/314/5 123/315/5
f 103/316/60 104/317/60 123/318/60 122/319/60
f 106/320/61 107/275/61 121/278/61 125/321/61
f 105/322/62 103/316/62 122/319/62 124/323/62
f 134/332/2 131/333/2 169/334/2 168/335/2 145/336/2
f 142/337/1 138/338/1 149/339/1 148/340/1
f 131/341/1 132/342/1 161/343/1 170/344/1 169/345/1
f 133/346/3 134/347/3 145/348/3 154/349/3 153/350/3
f 132/351/4 133/352/4 153/353/4 162/354/4 161/355/4
f 160/356/2 163/357/2 175/358/2 174/359/2
f 139/360/3 136/361/3 165/362/3 164/363/3
f 144/364/4 147/365/4 159/366/4 158/367/4
f 151/376/54 148/377/54 149/378/54 150/379/54
f 143/380/2 142/381/2 148/382/2 151/383/2
f 138/384/4 141/385/4 150/386/4 149/387/4
f 141/388/3 143/389/3 151/390/3 150/391/3
f 156/398/54 157/399/54 158/400/54 159/401/54
f 137/402/1 144/403/1 158/404/1 157/405/1
f 147/406/3 140/407/3 156/408/3 159/409/3
f 140/410/2 137/411/2 157/412/2 156/413/2
f 165/420/54 166/421/54 167/422/54 164/423/54
f 155/424/4 139/425/4 164/426/4 167/427/4
f 136/428/2 152/429/2 166/430/2 165/431/2
f 152/432/1 155/433/1 167/434/1 166/435/1
f 174/441/54 175/442/54 172/443/54 173/444/54
f 135/445/3 160/446/3 174/447/3 173/448/3
f 163/449/1 146/450/1 172/451/1 175/452/1
f 146/453/4 135/454/4 173/455/4 172/456/4
