# Blender 4.2.2 LTS
# www.blender.org
mtllib Donut_Topping.mtl
o Donut
v 0.740000 -0.009190 0.000000
v 0.692254 0.137757 0.000000
v 0.567254 0.228574 0.000000
v 0.412746 0.228574 0.000000
v 0.287746 0.137757 0.000000
v 0.240000 -0.009190 0.000000
v 0.287746 -0.156136 0.000000
v 0.412746 -0.246954 0.000000
v 0.567254 -0.246954 0.000000
v 0.692254 -0.156136 0.000000
v 0.640859 -0.009190 -0.370000
v 0.599510 0.137757 -0.346127
v 0.491257 0.228574 -0.283627
v 0.357448 0.228574 -0.206373
v 0.249195 0.137757 -0.143873
v 0.207846 -0.009190 -0.120000
v 0.249195 -0.156136 -0.143873
v 0.357448 -0.246954 -0.206373
v 0.491257 -0.246954 -0.283627
v 0.599510 -0.156136 -0.346127
v 0.370000 -0.009190 -0.640859
v 0.346127 0.137757 -0.599510
v 0.283627 0.228574 -0.491257
v 0.206373 0.228574 -0.357448
v 0.143873 0.137757 -0.249195
v 0.120000 -0.009190 -0.207846
v 0.143873 -0.156136 -0.249195
v 0.206373 -0.246954 -0.357448
v 0.283627 -0.246954 -0.491257
v 0.346127 -0.156136 -0.599510
v 0.000000 -0.009190 -0.740000
v 0.000000 0.137757 -0.692254
v 0.000000 0.228574 -0.567254
v 0.000000 0.228574 -0.412746
v 0.000000 0.137757 -0.287746
v 0.000000 -0.009190 -0.240000
v 0.000000 -0.156136 -0.287746
v 0.000000 -0.246954 -0.412746
v 0.000000 -0.246954 -0.567254
v 0.000000 -0.156136 -0.692254
v -0.370000 -0.009190 -0.640859
v -0.346127 0.137757 -0.599510
v -0.283627 0.228574 -0.491257
v -0.206373 0.228574 -0.357448
v -0.143873 0.137757 -0.249195
v -0.120000 -0.009190 -0.207846
v -0.143873 -0.156136 -0.249195
v -0.206373 -0.246954 -0.357448
v -0.283627 -0.246954 -0.491257
v -0.346127 -0.156136 -0.599510
v -0.640859 -0.009190 -0.370000
v -0.599510 0.137757 -0.346127
v -0.491256 0.228574 -0.283627
v -0.357448 0.228574 -0.206373
v -0.249195 0.137757 -0.143873
v -0.207846 -0.009190 -0.120000
v -0.249195 -0.156136 -0.143873
v -0.357448 -0.246954 -0.206373
v -0.491256 -0.246954 -0.283627
v -0.599510 -0.156136 -0.346127
v -0.740000 -0.009190 -0.000000
v -0.692254 0.137757 -0.000000
v -0.567254 0.228574 -0.000000
v -0.412746 0.228574 -0.000000
v -0.287746 0.137757 -0.000000
v -0.240000 -0.009190 -0.000000
v -0.287746 -0.156136 -0.000000
v -0.412746 -0.246954 -0.000000
v -0.567254 -0.246954 -0.000000
v -0.692254 -0.156136 -0.000000
v -0.640859 -0.009190 0.370000
v -0.599510 0.137757 0.346127
v -0.491257 0.228574 0.283627
v -0.357448 0.228574 0.206373
v -0.249195 0.137757 0.143873
v -0.207846 -0.009190 0.120000
v -0.249195 -0.156136 0.143873
v -0.357448 -0.246954 0.206373
v -0.491257 -0.246954 0.283627
v -0.599510 -0.156136 0.346127
v -0.370000 -0.009190 0.640859
v -0.346127 0.137757 0.599510
v -0.283627 0.228574 0.491257
v -0.206373 0.228574 0.357448
v -0.143873 0.137757 0.249195
v -0.120000 -0.009190 0.207846
v -0.143873 -0.156136 0.249195
v -0.206373 -0.246954 0.357448
v -0.283627 -0.246954 0.491257
v -0.346127 -0.156136 0.599510
v 0.000000 -0.009190 0.740000
v 0.000000 0.137757 0.692254
v 0.000000 0.228574 0.567254
v 0.000000 0.228574 0.412746
v 0.000000 0.137757 0.287746
v 0.000000 -0.009190 0.240000
v 0.000000 -0.156136 0.287746
v 0.000000 -0.246954 0.412746
v 0.000000 -0.246954 0.567254
v 0.000000 -0.156136 0.692254
v 0.370000 -0.009190 0.640859
v 0.346127 0.137757 0.599510
v 0.283627 0.228574 0.491257
v 0.206373 0.228574 0.357448
v 0.143873 0.137757 0.249195
v 0.120000 -0.009190 0.207846
v 0.143873 -0.156136 0.249195
v 0.206373 -0.246954 0.357448
v 0.283627 -0.246954 0.491257
v 0.346127 -0.156136 0.599510
v 0.640859 -0.009190 0.370000
v 0.599510 0.137757 0.346127
v 0.491257 0.228574 0.283627
v 0.357448 0.228574 0.206373
v 0.249195 0.137757 0.143873
v 0.207846 -0.009190 0.120000
v 0.249195 -0.156136 0.143873
v 0.357448 -0.246954 0.206373
v 0.491257 -0.246954 0.283627
v 0.599510 -0.156136 0.346127
v 0.707155 0.091897 0.000000
v 0.612414 0.091897 -0.353577
v 0.353577 0.091897 -0.612414
v 0.000000 0.091897 -0.707155
v -0.353577 0.091897 -0.612414
v -0.612414 0.091897 -0.353578
v -0.707155 0.091897 -0.000000
v -0.612414 0.091897 0.353577
v -0.353577 0.091897 0.612414
v 0.000000 0.091897 0.707155
v 0.353577 0.091897 0.612414
v 0.612414 0.091897 0.353577
vn 1.0000 -0.0000 -0.0000
vn 0.8253 0.5647 -0.0000
vn 0.3540 0.9352 -0.0000
vn -0.2611 0.9653 -0.0000
vn -0.7898 0.6133 -0.0000
vn -1.0000 -0.0000 -0.0000
vn -0.7898 -0.6133 -0.0000
vn -0.2611 -0.9653 -0.0000
vn 0.3540 -0.9352 -0.0000
vn 0.8253 -0.5647 -0.0000
vn 0.8660 -0.0000 -0.5000
vn 0.7148 0.5647 -0.4127
vn 0.3066 0.9352 -0.1770
vn -0.2261 0.9653 0.1305
vn -0.6840 0.6133 0.3949
vn -0.8660 -0.0000 0.5000
vn -0.6840 -0.6133 0.3949
vn -0.2261 -0.9653 0.1305
vn 0.3066 -0.9352 -0.1770
vn 0.7148 -0.5647 -0.4127
vn 0.5000 -0.0000 -0.8660
vn 0.4127 0.5647 -0.7148
vn 0.1770 0.9352 -0.3066
vn -0.1305 0.9653 0.2261
vn -0.3949 0.6133 0.6840
vn -0.5000 -0.0000 0.8660
vn -0.3949 -0.6133 0.6840
vn -0.1305 -0.9653 0.2261
vn 0.1770 -0.9352 -0.3066
vn 0.4127 -0.5647 -0.7148
vn -0.0000 -0.0000 -1.0000
vn -0.0000 0.5647 -0.8253
vn -0.0000 0.9352 -0.3540
vn -0.0000 0.9653 0.2611
vn -0.0000 0.6133 0.7898
vn -0.0000 -0.0000 1.0000
vn -0.0000 -0.6133 0.7898
vn -0.0000 -0.9653 0.2611
vn -0.0000 -0.9352 -0.3540
vn -0.0000 -0.5647 -0.8253
vn -0.5000 -0.0000 -0.8660
vn -0.4127 0.5647 -0.7148
vn -0.1770 0.9352 -0.3066
vn 0.1305 0.9653 0.2261
vn 0.3949 0.6133 0.6840
vn 0.5000 -0.0000 0.8660
vn 0.3949 -0.6133 0.6840
vn 0.1305 -0.9653 0.2261
vn -0.1770 -0.9352 -0.3066
vn -0.4127 -0.5647 -0.7148
vn -0.8660 -0.0000 -0.5000
vn -0.7148 0.5647 -0.4127
vn -0.3066 0.9352 -0.1770
vn 0.2261 0.9653 0.1305
vn 0.6840 0.6133 0.3949
vn 0.8660 -0.0000 0.5000
vn 0.6840 -0.6133 0.3949
vn 0.2261 -0.9653 0.1305
vn -0.3066 -0.9352 -0.1770
vn -0.7148 -0.5647 -0.4127
vn -0.8253 0.5647 -0.0000
vn -0.3540 0.9352 -0.0000
vn 0.2611 0.9653 -0.0000
vn 0.7898 0.6133 -0.0000
vn 0.7898 -0.6133 -0.0000
vn 0.2611 -0.9653 -0.0000
vn -0.3540 -0.9352 -0.0000
vn -0.8253 -0.5647 -0.0000
vn -0.7148 0.5647 0.4127
vn -0.3066 0.9352 0.1770
vn 0.2261 0.9653 -0.1305
vn 0.6840 0.6133 -0.3949
vn 0.6840 -0.6133 -0.3949
vn 0.2261 -0.9653 -0.1305
vn -0.3066 -0.9352 0.1770
vn -0.7148 -0.5647 0.4127
vn -0.4127 0.5647 0.7148
vn -0.1770 0.9352 0.3066
vn 0.1305 0.9653 -0.2261
vn 0.3949 0.6133 -0.6840
vn 0.3949 -0.6133 -0.6840
vn 0.1305 -0.9653 -0.2261
vn -0.1770 -0.9352 0.3066
vn -0.4127 -0.5647 0.7148
vn -0.0000 0.5647 0.8253
vn -0.0000 0.9352 0.3540
vn -0.0000 0.9653 -0.2611
vn -0.0000 0.6133 -0.7898
vn -0.0000 -0.6133 -0.7898
vn -0.0000 -0.9653 -0.2611
vn -0.0000 -0.9352 0.3540
vn -0.0000 -0.5647 0.8253
vn 0.4127 0.5647 0.7148
vn 0.1770 0.9352 0.3066
vn -0.1305 0.9653 -0.2261
vn -0.3949 0.6133 -0.6840
vn -0.3949 -0.6133 -0.6840
vn -0.1305 -0.9653 -0.2261
vn 0.1770 -0.9352 0.3066
vn 0.4127 -0.5647 0.7148
vn 0.7148 0.5647 0.4127
vn 0.3066 0.9352 0.1770
vn -0.2261 0.9653 -0.1305
vn -0.6840 0.6133 -0.3949
vn -0.6840 -0.6133 -0.3949
vn -0.2261 -0.9653 -0.1305
vn 0.3066 -0.9352 0.1770
vn 0.7148 -0.5647 0.4127
vn 0.9511 0.3090 -0.0000
vn 0.8236 0.3090 -0.4755
vn 0.4755 0.3090 -0.8236
vn -0.0000 0.3090 -0.9511
vn -0.4755 0.3090 -0.8236
vn -0.8236 0.3090 -0.4755
vn -0.9511 0.3090 -0.0000
vn -0.8236 0.3090 0.4755
vn -0.4755 0.3090 0.8236
vn -0.0000 0.3090 0.9511
vn 0.4755 0.3090 0.8236
vn 0.8236 0.3090 0.4755
vt 0.719856 0.002658
vt 0.814423 0.090574
vt 0.776464 0.110287
vt 0.687999 0.028044
vt 0.443154 0.522207
vt 0.454342 0.635005
vt 0.437404 0.634887
vt 0.426453 0.524466
vt 0.392586 0.642386
vt 0.383612 0.551903
vt 0.424030 0.285533
vt 0.374500 0.360655
vt 0.344401 0.316171
vt 0.380440 0.261510
vt 0.303284 0.286827
vt 0.328408 0.248720
vt 0.850390 0.752188
vt 0.845838 0.798087
vt 0.802841 0.806199
vt 0.806638 0.767917
vt 0.748569 0.806579
vt 0.753121 0.760680
vt 0.703751 0.799079
vt 0.710281 0.733243
vt 0.696298 0.169401
vt 0.643552 0.120365
vt 0.658854 0.073004
vt 0.731344 0.140397
vt 0.479970 0.769361
vt 0.491677 0.635266
vt 0.534673 0.643379
vt 0.523721 0.768822
vt 0.443154 0.763148
vt 0.426453 0.760330
vt 0.383612 0.745178
vt 0.295362 0.392017
vt 0.286818 0.338991
vt 0.732738 0.447731
vt 0.786380 0.485270
vt 0.742720 0.516330
vt 0.705324 0.490160
vt 0.850390 0.850229
vt 0.806638 0.849690
vt 0.753121 0.858721
vt 0.710281 0.873873
vt 0.579854 0.105229
vt 0.571310 0.052202
vt 0.581165 0.002658
vt 0.447985 0.883583
vt 0.493801 0.875674
vt 0.412590 0.872301
vt 0.396532 0.867182
vt 0.285507 0.441561
vt 0.178673 0.416175
vt 0.207818 0.371215
vt 0.818053 0.446878
vt 0.860617 0.536237
vt 0.817349 0.550290
vt 0.764311 0.561658
vt 0.721759 0.566001
vt 0.703751 0.528194
vt 0.817012 0.886735
vt 0.765558 0.903136
vt 0.728120 0.937582
vt 0.522271 0.128049
vt 0.492172 0.083564
vt 0.484587 0.040931
vt 0.583529 0.563450
vt 0.605457 0.446878
vt 0.658142 0.458742
vt 0.637628 0.567792
vt 0.168731 0.424098
vt 0.078362 0.340085
vt 0.090208 0.333932
vt 0.135328 0.303823
vt 0.170374 0.274819
vt 0.223120 0.323855
vt 0.817349 0.625367
vt 0.764311 0.613999
vt 0.721759 0.609656
vt 0.831182 0.907408
vt 0.782547 0.927922
vt 0.563388 0.157393
vt 0.538264 0.195500
vt 0.486232 0.182710
vt 0.442642 0.158687
vt 0.698434 0.489802
vt 0.681624 0.579161
vt 0.583529 0.698055
vt 0.637628 0.693712
vt 0.553577 0.566437
vt 0.553577 0.695067
vt 0.539990 0.693712
vt 0.539990 0.567792
vt 0.043817 0.216869
vt 0.097313 0.207898
vt 0.142714 0.205022
vt 0.786380 0.690387
vt 0.742720 0.659327
vt 0.703751 0.647463
vt 0.578863 0.192172
vt 0.576050 0.233954
vt 0.534892 0.245594
vt 0.481395 0.254565
vt 0.435994 0.257442
vt 0.681624 0.682343
vt 0.605457 0.814626
vt 0.658142 0.802762
vt 0.030972 0.220502
vt 0.039260 0.097392
vt 0.051930 0.096353
vt 0.103961 0.109143
vt 0.147551 0.133166
vt 0.732738 0.727926
vt 0.705324 0.685497
vt 0.607282 0.989110
vt 0.592513 0.962940
vt 0.645198 0.951076
vt 0.657516 0.972904
vt 0.592134 0.274539
vt 0.554175 0.294253
vt 0.509055 0.324362
vt 0.474009 0.353367
vt 0.698434 0.771702
vt 0.334756 0.765357
vt 0.312827 0.881929
vt 0.260143 0.870065
vt 0.280656 0.761015
vt 0.343752 0.873767
vt 0.364707 0.762370
vt 0.378295 0.761015
vt 0.357781 0.870065
vt 0.112373 0.004676
vt 0.153490 0.034020
vt 0.183590 0.078505
vt 0.552221 0.994000
vt 0.539990 0.928980
vt 0.583986 0.917612
vt 0.638085 0.913269
vt 0.622804 0.303052
vt 0.590947 0.328439
vt 0.561801 0.373399
vt 0.546499 0.420759
vt 0.219851 0.839005
vt 0.236660 0.749646
vt 0.334756 0.630752
vt 0.280656 0.635095
vt 0.364707 0.633739
vt 0.378295 0.635094
vt 0.030073 0.446878
vt 0.120040 0.509838
vt 0.076380 0.540898
vt 0.002658 0.489307
vt 0.232629 0.002658
vt 0.241173 0.055685
vt 0.539990 0.853902
vt 0.583986 0.865271
vt 0.638085 0.869613
vt 0.681624 0.865271
vt 0.681624 0.917612
vt 0.635354 0.338991
vt 0.625499 0.388535
vt 0.634043 0.441561
vt 0.236660 0.646463
vt 0.312827 0.514181
vt 0.260143 0.526044
vt 0.132201 0.506136
vt 0.185262 0.617533
vt 0.171982 0.618888
vt 0.118943 0.630257
vt 0.320173 0.023461
vt 0.304871 0.070821
vt 0.275725 0.115781
vt 0.231318 0.105229
vt 0.592513 0.819943
vt 0.645198 0.831806
vt 0.690151 0.819943
vt 0.675498 0.323082
vt 0.683082 0.365715
vt 0.713182 0.410199
vt 0.219851 0.557104
vt 0.274846 0.446878
vt 0.224611 0.463084
vt 0.185262 0.746164
vt 0.171982 0.744809
vt 0.118943 0.733440
vt 0.075676 0.719387
vt 0.075676 0.644309
vt 0.357617 0.119857
vt 0.312497 0.149967
vt 0.274538 0.169680
vt 0.243868 0.141167
vt 0.892134 0.895436
vt 0.899246 0.857629
vt 0.953345 0.861971
vt 0.944819 0.907299
vt 0.997342 0.873340
vt 0.985111 0.938359
vt 0.719121 0.311054
vt 0.762711 0.335076
vt 0.814742 0.347867
vt 0.754299 0.439543
vt 0.864014 0.215711
vt 0.855341 0.344539
vt 0.822855 0.227351
vt 0.132201 0.857561
vt 0.120040 0.853859
vt 0.076380 0.822799
vt 0.392663 0.090853
vt 0.430678 0.186778
vt 0.385277 0.189654
vt 0.331780 0.198626
vt 0.855707 0.861971
vt 0.855707 0.809631
vt 0.899246 0.813973
vt 0.953345 0.809631
vt 0.997342 0.798262
vt 0.723958 0.239198
vt 0.769359 0.236322
vt 0.412590 0.454979
vt 0.396532 0.458654
vt 0.030073 0.916819
vt 0.002658 0.874390
vt 0.287809 0.252048
vt 0.290622 0.210265
vt 0.892134 0.776166
vt 0.944819 0.764302
vt 0.985111 0.733243
vt 0.447985 0.446878
vt 0.479970 0.517229
vt 0.214534 0.749151
vt 0.159009 0.865722
vt 0.214534 0.614546
vt 0.159009 0.497975
vt 0.002658 0.228509
vt 0.011331 0.099681
vt 0.146815 0.441561
vt 0.052249 0.353646
s 1
usemtl Donut_MAT
f 11/1/11 1/2/1 10/3/10 20/4/20
f 121/5/109 122/6/110 12/7/12 2/8/2
f 2/8/2 12/7/12 13/9/13 3/10/3
f 3/11/3 13/12/13 14/13/14 4/14/4
f 4/14/4 14/13/14 15/15/15 5/16/5
f 5/17/5 15/18/15 16/19/16 6/20/6
f 6/20/6 16/19/16 17/21/17 7/22/7
f 7/22/7 17/21/17 18/23/18 8/24/8
f 8/25/8 18/26/18 19/27/19 9/28/9
f 9/28/9 19/27/19 20/4/20 10/3/10
f 21/29/21 11/30/11 20/31/20 30/32/30
f 122/6/110 123/33/111 22/34/22 12/7/12
f 12/7/12 22/34/22 23/35/23 13/9/13
f 13/12/13 23/36/23 24/37/24 14/13/14
f 14/38/14 24/39/24 25/40/25 15/41/15
f 15/18/15 25/42/25 26/43/26 16/19/16
f 16/19/16 26/43/26 27/44/27 17/21/17
f 17/21/17 27/44/27 28/45/28 18/23/18
f 18/26/18 28/46/28 29/47/29 19/27/19
f 19/27/19 29/47/29 30/48/30 20/4/20
f 31/49/31 21/29/21 30/32/30 40/50/40
f 123/33/111 124/51/112 32/52/32 22/34/22
f 22/53/22 32/54/32 33/55/33 23/36/23
f 23/56/23 33/57/33 34/58/34 24/39/24
f 24/39/24 34/58/34 35/59/35 25/40/25
f 25/40/25 35/59/35 36/60/36 26/61/26
f 26/43/26 36/62/36 37/63/37 27/44/27
f 27/44/27 37/63/37 38/64/38 28/45/28
f 28/46/28 38/65/38 39/66/39 29/47/29
f 29/47/29 39/66/39 40/67/40 30/48/30
f 41/68/41 31/69/31 40/70/40 50/71/50
f 124/72/112 125/73/113 42/74/42 32/54/32
f 32/54/32 42/74/42 43/75/43 33/55/33
f 33/55/33 43/75/43 44/76/44 34/77/34
f 34/58/34 44/78/44 45/79/45 35/59/35
f 35/59/35 45/79/45 46/80/46 36/60/36
f 36/62/36 46/81/46 47/82/47 37/63/37
f 37/83/37 47/84/47 48/85/48 38/65/38
f 38/65/38 48/85/48 49/86/49 39/66/39
f 39/87/39 49/88/49 50/71/50 40/70/40
f 51/89/51 41/68/41 50/71/50 60/90/60
f 125/91/113 126/92/114 52/93/52 42/94/42
f 42/74/42 52/95/52 53/96/53 43/75/43
f 43/75/43 53/96/53 54/97/54 44/76/44
f 44/78/44 54/98/54 55/99/55 45/79/45
f 45/79/45 55/99/55 56/100/56 46/80/46
f 46/101/46 56/102/56 57/103/57 47/84/47
f 47/84/47 57/103/57 58/104/58 48/85/48
f 48/85/48 58/104/58 59/105/59 49/86/49
f 49/88/49 59/106/59 60/90/60 50/71/50
f 61/107/6 51/89/51 60/90/60 70/108/68
f 126/109/114 127/110/115 62/111/61 52/95/52
f 52/95/52 62/111/61 63/112/62 53/96/53
f 53/96/53 63/112/62 64/113/63 54/97/54
f 54/98/54 64/114/63 65/115/64 55/99/55
f 55/116/55 65/117/64 66/118/1 56/119/56
f 56/102/56 66/120/1 67/121/65 57/103/57
f 57/103/57 67/121/65 68/122/66 58/104/58
f 58/104/58 68/122/66 69/123/67 59/105/59
f 59/106/59 69/124/67 70/108/68 60/90/60
f 71/125/16 61/126/6 70/127/68 80/128/76
f 127/129/115 128/130/116 72/131/69 62/132/61
f 62/111/61 72/133/69 73/134/70 63/112/62
f 63/112/62 73/134/70 74/135/71 64/113/63
f 64/136/63 74/137/71 75/138/72 65/117/64
f 65/117/64 75/138/72 76/139/11 66/118/1
f 66/120/1 76/140/11 77/141/73 67/121/65
f 67/121/65 77/141/73 78/142/74 68/122/66
f 68/122/66 78/142/74 79/143/75 69/123/67
f 69/144/67 79/145/75 80/128/76 70/127/68
f 81/146/26 71/125/16 80/128/76 90/147/84
f 128/130/116 129/148/117 82/149/77 72/131/69
f 72/150/69 82/151/77 83/152/78 73/153/70
f 73/134/70 83/154/78 84/155/79 74/135/71
f 74/137/71 84/156/79 85/157/80 75/138/72
f 75/138/72 85/157/80 86/158/21 76/139/11
f 76/139/11 86/158/21 87/159/81 77/160/73
f 77/141/73 87/161/81 88/162/82 78/142/74
f 78/142/74 88/162/82 89/163/83 79/143/75
f 79/145/75 89/164/83 90/147/84 80/128/76
f 91/165/36 81/146/26 90/147/84 100/166/92
f 129/167/117 130/168/118 92/169/85 82/151/77
f 82/151/77 92/169/85 93/170/86 83/152/78
f 83/154/78 93/171/86 94/172/87 84/155/79
f 84/155/79 94/172/87 95/173/88 85/174/80
f 85/157/80 95/175/88 96/176/31 86/158/21
f 86/158/21 96/176/31 97/177/89 87/159/81
f 87/161/81 97/178/89 98/179/90 88/162/82
f 88/162/82 98/179/90 99/180/91 89/163/83
f 89/164/83 99/181/91 100/166/92 90/147/84
f 101/182/46 91/165/36 100/166/92 110/183/100
f 130/168/118 131/184/119 102/185/93 92/169/85
f 92/169/85 102/185/93 103/186/94 93/170/86
f 93/170/86 103/186/94 104/187/95 94/188/87
f 94/172/87 104/189/95 105/190/96 95/173/88
f 95/173/88 105/190/96 106/191/41 96/192/31
f 96/193/31 106/194/41 107/195/97 97/196/89
f 97/196/89 107/195/97 108/197/98 98/198/90
f 98/179/90 108/199/98 109/200/99 99/180/91
f 99/180/91 109/200/99 110/201/100 100/202/92
f 111/203/56 101/204/46 110/201/100 120/205/108
f 131/184/119 132/206/120 112/207/101 102/185/93
f 102/185/93 112/207/101 113/208/102 103/186/94
f 103/209/94 113/210/102 114/211/103 104/189/95
f 104/189/95 114/211/103 115/212/104 105/190/96
f 105/213/96 115/214/104 116/215/51 106/194/41
f 106/194/41 116/215/51 117/216/105 107/195/97
f 107/195/97 117/216/105 118/217/106 108/197/98
f 108/199/98 118/218/106 119/219/107 109/200/99
f 109/200/99 119/219/107 120/205/108 110/201/100
f 1/2/1 111/203/56 120/205/108 10/3/10
f 132/220/120 121/5/109 2/8/2 112/221/101
f 112/207/101 2/222/2 3/223/3 113/208/102
f 113/210/102 3/11/3 4/14/4 114/211/103
f 114/211/103 4/14/4 5/16/5 115/212/104
f 115/212/104 5/16/5 6/224/6 116/225/51
f 116/215/51 6/226/6 7/227/7 117/216/105
f 117/216/105 7/227/7 8/228/8 118/217/106
f 118/218/106 8/25/8 9/28/9 119/219/107
f 119/219/107 9/28/9 10/3/10 120/205/108
f 111/229/56 1/230/1 121/5/109 132/220/120
f 101/231/46 111/232/56 132/206/120 131/184/119
f 91/233/36 101/231/46 131/184/119 130/168/118
f 81/234/26 91/233/36 130/168/118 129/167/117
f 71/125/16 81/146/26 129/148/117 128/130/116
f 61/126/6 71/125/16 128/130/116 127/129/115
f 51/235/51 61/236/6 127/110/115 126/109/114
f 41/68/41 51/89/51 126/92/114 125/91/113
f 31/237/31 41/238/41 125/73/113 124/72/112
f 21/29/21 31/49/31 124/51/112 123/33/111
f 11/30/11 21/29/21 123/33/111 122/6/110
f 1/230/1 11/30/11 122/6/110 121/5/109
