# Blender 4.3.2
# www.blender.org
mtllib lowpolyappletbh.mtl
o Cube
v 0.563143 -0.500000 -0.612311
v 0.563142 -0.500000 0.612311
v -0.563142 -0.500000 -0.612311
v -0.563142 -0.500000 0.612311
v -0.684909 -0.541095 -0.003169
v -0.004671 -0.567352 -0.750893
v 0.756389 -0.022125 -0.822326
v -0.849758 -0.010767 0.815408
v 0.810493 0.013080 0.809559
v -0.756328 -0.022125 -0.822326
v 0.001264 -0.531675 0.709672
v 0.674217 -0.569127 -0.016449
v -0.079529 1.315484 -0.061002
v 0.000031 -0.022125 1.184831
v -1.095153 0.022841 -0.005446
v -0.003154 -0.625044 -0.000254
v 1.128779 -0.008829 -0.042381
v 0.000031 -0.022125 -1.132547
v 0.085041 1.047463 -0.076494
v 0.769329 0.820265 -0.831702
v 0.080511 1.048312 0.061651
v 0.772319 0.840065 0.802749
v -0.079076 1.044699 -0.066751
v -0.763741 0.810743 -0.809039
v -0.079774 1.045380 0.062644
v -0.787695 0.831993 0.822049
v 0.007055 1.056747 0.340013
v 0.000000 0.932591 1.079580
v 0.336023 1.057939 -0.007800
v 1.032229 0.932560 -0.006782
v -0.330316 1.057467 -0.004137
v -1.032224 0.932705 -0.006776
v 0.011504 1.058609 -0.347410
v 0.000000 0.932498 -1.072531
v 0.632271 1.053570 0.661855
v 0.010935 1.097468 0.873914
v -0.650036 1.047809 0.673370
v 0.646493 1.038628 -0.694919
v 0.835811 1.097560 -0.004170
v -0.836188 1.097354 -0.003714
v -0.645178 1.036732 -0.667517
v 0.011299 1.097528 -0.875249
v 0.000031 0.486372 -1.156787
v 0.801531 0.425170 -0.868793
v 1.155439 0.486406 -0.028973
v 0.851416 0.435968 0.865324
v 0.000031 0.486423 1.187106
v -0.798422 0.419978 -0.856435
v -1.155374 0.486485 -0.028970
v -0.859740 0.431566 0.875849
v 0.255227 1.033206 0.254845
v 0.003332 1.069898 0.089274
v -0.257331 1.030032 0.259276
v 0.261967 1.027604 -0.275556
v 0.104437 1.072580 -0.012181
v -0.099265 1.071582 -0.002948
v -0.255367 1.025907 -0.262204
v 0.014722 1.074308 -0.098396
v -0.059085 1.584469 -0.117294
v -0.039165 1.591745 -0.033694
v 0.023883 1.614775 -0.031079
v -0.069619 1.580621 0.070376
v -0.164500 1.545963 -0.021846
v 0.001756 1.606693 0.042753
v -0.146475 1.552547 0.043746
v 0.005945 1.608223 -0.095392
v -0.145829 1.552783 -0.085649
v -0.099719 1.328925 0.002800
v 0.084587 1.316866 -0.070745
v 0.014269 1.330288 -0.092648
v 0.103984 1.329424 -0.006432
v 0.080058 1.317290 0.067400
v 0.002879 1.328083 0.095023
v -0.080227 1.315824 0.068392
vn 0.9171 0.2336 0.3231
vn -0.9244 0.2246 0.3082
vn -0.3521 0.1597 -0.9222
vn 0.2916 -0.5735 0.7655
vn -0.3172 0.0056 0.9484
vn 0.9058 0.2771 0.3204
vn -0.2686 -0.5929 0.7591
vn -0.7973 -0.5670 0.2068
vn -0.3366 0.2038 0.9193
vn -0.9186 -0.2937 -0.2645
vn -0.8114 -0.5231 -0.2607
vn -0.1296 -0.9881 -0.0832
vn 0.1079 -0.9889 -0.1022
vn 0.0815 -0.9886 0.1265
vn -0.1006 -0.9888 0.1099
vn 0.7787 -0.5532 -0.2961
vn 0.3079 -0.0002 -0.9514
vn 0.3544 0.2150 0.9100
vn 0.7878 -0.5571 0.2627
vn -0.2999 -0.5184 -0.8008
vn -0.9064 0.2018 -0.3712
vn 0.9131 0.1940 -0.3585
vn 0.2977 -0.5204 -0.8003
vn 0.2969 0.6981 0.6516
vn -0.2781 0.7104 0.6466
vn 0.6850 0.6724 -0.2804
vn 0.6671 0.6929 0.2736
vn -0.6738 0.6911 0.2616
vn -0.6866 0.6632 -0.2978
vn -0.3083 0.6794 -0.6659
vn 0.2861 0.6754 -0.6797
vn 0.3301 0.1471 -0.9324
vn 0.0484 0.9953 -0.0842
vn -0.0564 0.9948 -0.0845
vn -0.0889 0.9937 -0.0681
vn -0.0897 0.9949 0.0462
vn 0.0899 0.9943 0.0566
vn 0.0895 0.9933 -0.0735
vn -0.0740 0.9937 0.0839
vn 0.0770 0.9935 0.0836
vn 0.3542 -0.0856 -0.9312
vn 0.9107 -0.0836 -0.4045
vn -0.9165 -0.1277 -0.3791
vn 0.3852 -0.0742 0.9199
vn -0.3677 -0.0650 0.9277
vn -0.3618 -0.0731 -0.9294
vn -0.9519 -0.0857 0.2941
vn 0.9383 -0.0941 0.3328
vn 0.1397 0.9902 0.0069
vn -0.1476 0.9890 0.0057
vn 0.0042 0.9861 -0.1659
vn 0.0021 0.9895 0.1447
vn 0.0051 0.9872 0.1595
vn 0.0059 0.9842 -0.1770
vn -0.1724 0.9850 -0.0068
vn 0.1798 0.9837 -0.0083
vn -0.3431 0.9393 -0.0000
vn -0.2851 -0.1755 -0.9423
vn -0.9359 -0.2425 0.2556
vn 0.9253 0.2288 -0.3026
vn 0.3272 0.1755 0.9285
vn 0.3332 -0.0200 0.9426
vn 0.9567 0.0080 -0.2909
vn -0.9592 -0.0078 0.2827
vn -0.3239 0.0201 -0.9459
vn 0.3029 0.0214 -0.9528
vn -0.9529 0.0050 -0.3031
vn 0.9517 -0.0051 0.3071
vn -0.3008 -0.0213 0.9534
vt 0.552661 0.625000
vt 0.606391 0.625000
vt 0.604661 0.750000
vt 0.551805 0.750000
vt 0.551747 0.000000
vt 0.604544 0.000000
vt 0.606408 0.125000
vt 0.552669 0.125000
vt 0.551636 0.250000
vt 0.604320 0.250000
vt 0.606384 0.375000
vt 0.552658 0.375000
vt 0.375000 0.750000
vt 0.500000 0.750000
vt 0.500000 0.875000
vt 0.375000 0.875000
vt 0.773681 0.641031
vt 0.755760 0.645826
vt 0.738462 0.640760
vt 0.734736 0.624980
vt 0.500000 1.000000
vt 0.375000 1.000000
vt 0.375000 0.000000
vt 0.500000 0.000000
vt 0.500000 0.125000
vt 0.375000 0.125000
vt 0.552663 0.875000
vt 0.606395 0.875000
vt 0.604544 1.000000
vt 0.551747 1.000000
vt 0.773666 0.613062
vt 0.777143 0.627379
vt 0.500000 0.250000
vt 0.375000 0.250000
vt 0.125000 0.500000
vt 0.250000 0.500000
vt 0.250000 0.625000
vt 0.125000 0.625000
vt 0.375000 0.500000
vt 0.375000 0.625000
vt 0.250000 0.750000
vt 0.125000 0.750000
vt 0.500000 0.500000
vt 0.500000 0.625000
vt 0.737613 0.611407
vt 0.754489 0.608331
vt 0.500000 0.375000
vt 0.375000 0.375000
vt 0.606408 0.125000
vt 0.604320 0.250000
vt 0.551752 0.500000
vt 0.604555 0.500000
vt 0.625000 0.764958
vt 0.625000 0.864627
vt 0.625000 0.881231
vt 0.625000 0.984690
vt 0.653414 0.527934
vt 0.649621 0.625000
vt 0.654353 0.721341
vt 0.625000 0.016364
vt 0.625000 0.116968
vt 0.625000 0.134479
vt 0.625000 0.233864
vt 0.625000 0.264797
vt 0.625000 0.368448
vt 0.625000 0.383986
vt 0.625000 0.483889
vt 0.604555 0.500000
vt 0.606384 0.375000
vt 0.689599 0.686754
vt 0.752367 0.696079
vt 0.750000 0.726578
vt 0.815993 0.687299
vt 0.847777 0.721097
vt 0.750000 0.726578
vt 0.688283 0.562572
vt 0.681941 0.624999
vt 0.824180 0.625967
vt 0.853072 0.625000
vt 0.815930 0.564279
vt 0.848053 0.529212
vt 0.751796 0.556236
vt 0.750000 0.524201
vt 0.750000 0.625000
s 0
usemtl Material
f 45/1/1 30/2/1 22/3/1 46/4/1
f 50/5/2 26/6/2 32/7/2 49/8/2
f 48/9/3 24/10/3 34/11/3 43/12/3
f 2/13/4 9/14/4 14/15/4 11/16/4
f 74/17/5 73/18/5 62/18/5 65/17/5
f 72/19/6 71/20/6 61/20/6 64/19/6
f 11/16/7 14/15/7 8/21/7 4/22/7
f 4/23/8 8/24/8 15/25/8 5/26/8
f 47/27/9 28/28/9 26/29/9 50/30/9
f 13/31/10 68/32/10 63/32/10 67/31/10
f 5/26/11 15/25/11 10/33/11 3/34/11
f 3/35/12 6/36/12 16/37/12 5/38/12
f 6/36/13 1/39/13 12/40/13 16/37/13
f 16/37/14 12/40/14 2/13/14 11/41/14
f 5/38/15 16/37/15 11/41/15 4/42/15
f 1/39/16 7/43/16 17/44/16 12/40/16
f 69/45/17 70/46/17 59/46/17 66/45/17
f 46/4/18 22/3/18 28/28/18 47/27/18
f 12/40/19 17/44/19 9/14/19 2/13/19
f 3/34/20 10/33/20 18/47/20 6/48/20
f 49/8/21 32/49/21 24/50/21 48/9/21
f 44/51/22 20/52/22 30/2/22 45/1/22
f 6/48/23 18/47/23 7/43/23 1/39/23
f 35/53/24 36/54/24 28/28/24 22/3/24
f 36/55/25 37/56/25 26/29/25 28/28/25
f 38/57/26 39/58/26 30/2/26 20/52/26
f 39/58/27 35/59/27 22/3/27 30/2/27
f 37/60/28 40/61/28 32/7/28 26/6/28
f 40/62/29 41/63/29 24/50/29 32/49/29
f 41/64/30 42/65/30 34/11/30 24/10/30
f 42/66/31 38/67/31 20/68/31 34/69/31
f 43/12/32 34/69/32 20/68/32 44/51/32
f 51/70/33 27/71/33 36/72/33 35/59/33
f 27/71/34 53/73/34 37/74/34 36/75/34
f 54/76/35 29/77/35 39/58/35 38/57/35
f 29/77/36 51/70/36 35/59/36 39/58/36
f 53/73/37 31/78/37 40/79/37 37/74/37
f 31/78/38 57/80/38 41/81/38 40/79/38
f 57/80/39 33/82/39 42/83/39 41/81/39
f 33/82/40 54/76/40 38/57/40 42/83/40
f 18/47/41 43/12/41 44/51/41 7/43/41
f 7/43/42 44/51/42 45/1/42 17/44/42
f 15/25/43 49/8/43 48/9/43 10/33/43
f 9/14/44 46/4/44 47/27/44 14/15/44
f 14/15/45 47/27/45 50/30/45 8/21/45
f 10/33/46 48/9/46 43/12/46 18/47/46
f 8/24/47 50/5/47 49/8/47 15/25/47
f 17/44/48 45/1/48 46/4/48 9/14/48
f 21/19/49 52/18/49 27/71/49 51/70/49
f 52/18/50 25/17/50 53/73/50 27/71/50
f 19/45/51 55/20/51 29/77/51 54/76/51
f 55/20/52 21/19/52 51/70/52 29/77/52
f 25/17/53 56/32/53 31/78/53 53/73/53
f 56/32/54 23/31/54 57/80/54 31/78/54
f 23/31/55 58/46/55 33/82/55 57/80/55
f 58/46/56 19/45/56 54/76/56 33/82/56
f 61/20/57 60/84/57 62/18/57 64/19/57
f 60/84/57 63/32/57 65/17/57 62/18/57
f 59/46/57 67/31/57 63/32/57 60/84/57
f 66/45/57 59/46/57 60/84/57 61/20/57
f 70/46/58 13/31/58 67/31/58 59/46/58
f 68/32/59 74/17/59 65/17/59 63/32/59
f 71/20/60 69/45/60 66/45/60 61/20/60
f 73/18/61 72/19/61 64/19/61 62/18/61
f 52/18/62 21/19/62 72/19/62 73/18/62
f 55/20/63 19/45/63 69/45/63 71/20/63
f 56/32/64 25/17/64 74/17/64 68/32/64
f 58/46/65 23/31/65 13/31/65 70/46/65
f 19/45/66 58/46/66 70/46/66 69/45/66
f 23/31/67 56/32/67 68/32/67 13/31/67
f 21/19/68 55/20/68 71/20/68 72/19/68
f 25/17/69 52/18/69 73/18/69 74/17/69
