# Blender 4.3.2
# www.blender.org
mtllib banana.mtl
o Cube
v -0.123900 2.986704 -0.609837
v 0.501225 -2.946741 -0.524575
v -0.080534 3.026202 0.388441
v 0.511126 -2.942393 0.475366
v -1.086288 2.720117 -0.557483
v -0.481914 -2.764096 -0.515635
v -1.042922 2.759615 0.440796
v -0.472013 -2.759748 0.484307
v -0.604005 -3.032044 -0.309899
v -0.663408 -3.165793 -0.012062
v -0.598131 -3.029465 0.283366
v 0.248179 -3.192070 -0.593940
v -0.070153 -3.279778 -0.627044
v -0.335116 -3.083707 -0.588636
v 0.183031 2.046381 -0.628821
v 0.607501 0.531416 -0.628691
v 0.695069 -2.028296 -0.585856
v -0.450796 -2.028296 0.560009
v -0.611635 0.531416 0.590444
v -0.918181 1.892736 0.550052
v 0.213249 2.070893 0.516383
v 0.607501 0.531416 0.590445
v 0.695069 -2.028296 0.560009
v -0.948400 1.868223 -0.595153
v -0.611635 0.531416 -0.628691
v -0.450796 -2.028296 -0.585856
v -0.350041 3.251237 0.464303
v -0.672606 3.312424 0.512593
v -0.921026 3.093072 0.495365
v -0.121860 3.290544 -0.418247
v -0.112400 3.450850 -0.127839
v -0.096131 3.313978 0.174031
v -0.323771 -3.078725 0.557163
v -0.058083 -3.274477 0.592021
v 0.259525 -3.187088 0.551859
v -1.198898 3.008506 0.234023
v -1.285681 3.125844 -0.064012
v -1.224627 2.985071 -0.358256
v -0.970717 3.047812 -0.648528
v -0.725475 3.264271 -0.704444
v -0.399732 3.205978 -0.679589
v 0.528413 -3.238751 0.273122
v 0.535172 -3.388461 -0.022961
v 0.522539 -3.241330 -0.320143
v -0.599019 3.820070 -0.375987
v -0.888899 3.912690 -0.380729
v -1.087984 3.684624 -0.349387
v -0.619675 3.994624 -0.127521
v -1.134907 3.851903 -0.099492
v -0.576986 3.840138 0.131213
v -0.865683 3.933837 0.153717
v -1.065952 3.704692 0.157813
v 0.438294 -2.105055 0.716066
v 0.331074 0.531416 0.762705
v -0.048152 2.110116 0.678589
v 0.122137 -2.171883 0.768905
v -0.002067 0.531416 0.820383
v -0.369359 2.128090 0.739549
v -0.194020 -2.105055 0.716066
v -0.335207 0.531416 0.762705
v -0.672500 2.011804 0.697168
v -0.606853 -2.105055 0.303234
v -0.783896 0.531416 0.314017
v -1.091019 1.938786 0.296703
v -0.659692 -2.171883 -0.012924
v -0.841573 0.531416 -0.019123
v -1.161957 1.989808 -0.018857
v -0.606853 -2.105055 -0.329081
v -0.783896 0.531416 -0.352264
v -1.107695 1.925260 -0.335247
v -0.463879 -3.682763 -0.327965
v -0.191185 -3.944998 -0.346510
v 0.157774 -3.798251 -0.333619
v -0.515410 -3.882702 -0.010410
v -0.229327 -4.166684 -0.012008
v 0.139637 -4.004395 -0.016367
v -0.457618 -3.680013 0.304312
v -0.184588 -3.942101 0.319732
v 0.164034 -3.795502 0.298659
v 0.851127 -2.105055 -0.329081
v 0.779762 0.531416 -0.352264
v 0.331918 2.151945 -0.378086
v 0.903965 -2.171883 -0.012924
v 0.837439 0.531416 -0.019123
v 0.382003 2.232923 -0.064801
v 0.851127 -2.105055 0.303234
v 0.779762 0.531416 0.314017
v 0.348593 2.165471 0.253864
v -0.194020 -2.105055 -0.741914
v -0.335207 0.531416 -0.800952
v -0.710950 1.980615 -0.759971
v 0.122137 -2.171883 -0.794752
v -0.002067 0.531416 -0.858630
v -0.410595 2.094640 -0.823207
v 0.438294 -2.105055 -0.741913
v 0.331074 0.531416 -0.800952
v -0.086601 2.078927 -0.778550
v 0.693646 -0.984299 -0.594633
v -0.488855 -0.984299 0.587868
v 0.693646 -0.984299 0.587868
v -0.488855 -0.984299 -0.594633
v 0.427044 -1.022679 0.752027
v 0.102395 -1.056093 0.807285
v -0.222253 -1.022679 0.752027
v -0.653014 -1.022679 0.321266
v -0.708272 -1.056093 -0.003383
v -0.653014 -1.022679 -0.328031
v 0.857805 -1.022679 -0.328031
v 0.913063 -1.056093 -0.003383
v 0.857805 -1.022679 0.321266
v -0.222253 -1.022679 -0.758792
v 0.102395 -1.056093 -0.814050
v 0.427044 -1.022679 -0.758792
v -0.759587 4.201660 -0.356646
v -1.049467 4.294280 -0.361388
v -1.248552 4.066214 -0.330046
v -0.780243 4.376215 -0.108179
v -1.086767 4.291972 -0.098989
v -1.295474 4.233493 -0.080150
v -0.737554 4.221728 0.150555
v -1.026250 4.315427 0.173058
v -1.226519 4.086282 0.177155
vn 0.5763 0.2812 -0.7673
vn 0.6501 -0.2543 -0.7161
vn 0.6472 0.3598 0.6721
vn 0.6645 -0.2619 0.6999
vn -0.7604 -0.0049 -0.6494
vn -0.7325 -0.0727 -0.6769
vn -0.7207 0.0494 0.6915
vn -0.7238 -0.0785 0.6856
vn -0.9136 -0.0865 -0.3972
vn -0.9956 -0.0935 0.0072
vn -0.9068 -0.0885 0.4121
vn 0.3474 -0.2729 -0.8971
vn -0.0682 -0.2342 -0.9698
vn -0.4664 -0.1552 -0.8709
vn 0.6498 0.2073 -0.7313
vn 0.7047 0.0972 -0.7028
vn 0.7155 -0.0894 -0.6929
vn -0.6896 -0.0480 0.7226
vn -0.6746 -0.0873 0.7330
vn -0.6797 -0.0627 0.7308
vn 0.6732 0.2455 0.6975
vn 0.7091 0.1116 0.6962
vn 0.7171 -0.0989 0.6899
vn -0.7108 -0.1172 -0.6936
vn -0.6799 -0.1077 -0.7253
vn -0.6867 -0.0360 -0.7260
vn 0.3511 0.3664 0.8617
vn -0.0732 0.2868 0.9552
vn -0.4733 0.1672 0.8649
vn 0.7620 0.4314 -0.4830
vn 0.8618 0.5034 -0.0615
vn 0.7970 0.4713 0.3778
vn -0.4586 -0.1592 0.8743
vn -0.0538 -0.2393 0.9695
vn 0.3671 -0.2795 0.8872
vn -0.8933 0.0520 0.4465
vn -0.9984 0.0445 0.0361
vn -0.9217 0.0239 -0.3871
vn -0.5221 0.0968 -0.8474
vn -0.1400 0.1927 -0.9712
vn 0.2652 0.2675 -0.9263
vn 0.8393 -0.3509 0.4154
vn 0.9201 -0.3916 -0.0072
vn 0.8344 -0.3495 -0.4262
vn 0.5174 0.4924 -0.6999
vn -0.1071 0.1616 -0.9810
vn -0.6521 0.0683 -0.7551
vn 0.8655 0.4960 -0.0696
vn -0.9970 -0.0708 0.0297
vn 0.6080 0.5214 0.5988
vn -0.0165 0.1230 0.9923
vn -0.5699 0.0804 0.8178
vn 0.3723 -0.0988 0.9228
vn 0.3721 0.0753 0.9251
vn 0.3312 0.1780 0.9266
vn 0.0254 -0.0943 0.9952
vn 0.0280 0.0295 0.9992
vn -0.0082 0.1089 0.9940
vn -0.3350 -0.0720 0.9395
vn -0.3189 -0.0242 0.9475
vn -0.3510 0.0247 0.9360
vn -0.9295 -0.0307 0.3675
vn -0.9206 -0.1329 0.3671
vn -0.9118 -0.1231 0.3918
vn -0.9997 -0.0227 0.0009
vn -0.9891 -0.1473 0.0055
vn -0.9880 -0.1493 0.0402
vn -0.9309 -0.0238 -0.3644
vn -0.9231 -0.1437 -0.3568
vn -0.9358 -0.1561 -0.3162
vn -0.7443 -0.2930 -0.6002
vn -0.1769 -0.5344 -0.8265
vn 0.5101 -0.5400 -0.6695
vn -0.9321 -0.3619 0.0130
vn -0.3027 -0.9530 0.0103
vn 0.6875 -0.7262 -0.0022
vn -0.7306 -0.2877 0.6192
vn -0.1608 -0.5254 0.8355
vn 0.5218 -0.5336 0.6655
vn 0.9318 -0.1071 -0.3467
vn 0.9258 0.1234 -0.3572
vn 0.8798 0.2772 -0.3861
vn 0.9929 -0.1192 -0.0025
vn 0.9911 0.1330 -0.0054
vn 0.9510 0.3079 -0.0271
vn 0.9326 -0.1113 0.3432
vn 0.9288 0.1305 0.3468
vn 0.8939 0.2954 0.3373
vn -0.3302 -0.0587 -0.9421
vn -0.3267 -0.0495 -0.9438
vn -0.3770 -0.0336 -0.9256
vn 0.0233 -0.0807 -0.9965
vn 0.0213 0.0045 -0.9998
vn -0.0415 0.0493 -0.9979
vn 0.3652 -0.0851 -0.9270
vn 0.3681 0.0545 -0.9282
vn 0.2930 0.1205 -0.9485
vn 0.7168 0.0099 -0.6972
vn -0.6955 -0.0508 0.7167
vn 0.7115 0.0104 0.7026
vn -0.7010 -0.0526 -0.7112
vn 0.3626 -0.0050 0.9319
vn 0.0098 -0.0205 0.9997
vn -0.3440 -0.0351 0.9383
vn -0.9289 -0.0611 0.3652
vn -0.9980 -0.0639 0.0040
vn -0.9320 -0.0618 -0.3571
vn 0.9387 0.0180 -0.3442
vn 0.9998 0.0194 0.0038
vn 0.9357 0.0181 0.3523
vn -0.3463 -0.0368 -0.9374
vn 0.0098 -0.0217 -0.9997
vn 0.3647 -0.0060 -0.9311
vn 0.3180 0.2940 -0.9014
vn -0.1737 0.2371 -0.9558
vn -0.8434 0.0185 -0.5370
vn 0.7015 0.7103 -0.0587
vn -0.3623 0.9313 -0.0381
vn -0.9973 0.0602 0.0411
vn 0.3470 0.2203 0.9117
vn -0.0216 0.2280 0.9734
vn -0.7515 0.0202 0.6595
vt 0.870011 0.302659
vt 0.859193 0.372528
vt 0.833015 0.409436
vt 0.843832 0.339567
vt 0.790578 0.421989
vt 0.801410 0.372473
vt 0.827823 0.409945
vt 0.816991 0.459461
vt 0.140619 0.150159
vt 0.080088 0.157146
vt 0.086967 0.111788
vt 0.147498 0.104800
vt 0.785386 0.302659
vt 0.768340 0.363015
vt 0.723001 0.366375
vt 0.740047 0.306019
vt 0.016663 0.279846
vt 0.003751 0.214685
vt 0.062960 0.272778
vt 0.002596 0.144822
vt 0.083253 0.093873
vt 0.742527 0.002596
vt 0.786567 0.029924
vt 0.761809 0.107381
vt 0.723001 0.088518
vt 0.816095 0.058096
vt 0.816095 0.113149
vt 0.807676 0.186217
vt 0.751610 0.169152
vt 0.790413 0.251676
vt 0.739815 0.226009
vt 0.772808 0.291582
vt 0.736966 0.297467
vt 0.212656 0.104240
vt 0.216818 0.069990
vt 0.296977 0.123609
vt 0.297272 0.168428
vt 0.202894 0.166984
vt 0.280717 0.236872
vt 0.206366 0.284266
vt 0.258372 0.299209
vt 0.133229 0.272994
vt 0.456662 0.825733
vt 0.442394 0.728319
vt 0.518189 0.696864
vt 0.531285 0.797015
vt 0.490016 0.607381
vt 0.562752 0.575858
vt 0.592390 0.669118
vt 0.602834 0.768042
vt 0.633107 0.556911
vt 0.478408 0.951472
vt 0.416980 0.913014
vt 0.478720 0.889557
vt 0.541777 0.940599
vt 0.393488 0.852511
vt 0.377786 0.758417
vt 0.298610 0.524389
vt 0.285606 0.392326
vt 0.328911 0.338623
vt 0.344608 0.468935
vt 0.348549 0.271991
vt 0.600438 0.488732
vt 0.661209 0.479711
vt 0.695626 0.489633
vt 0.689144 0.546594
vt 0.652243 0.650094
vt 0.659697 0.747444
vt 0.670652 0.882428
vt 0.621069 0.833374
vt 0.674942 0.811202
vt 0.695626 0.853425
vt 0.615858 0.916067
vt 0.552172 0.863574
vt 0.767371 0.759897
vt 0.768668 0.674898
vt 0.849900 0.664356
vt 0.846549 0.751098
vt 0.773093 0.562170
vt 0.850063 0.547117
vt 0.930743 0.675690
vt 0.925315 0.760669
vt 0.926881 0.560283
vt 0.728115 0.861302
vt 0.709201 0.836908
vt 0.772234 0.810590
vt 0.777577 0.848068
vt 0.701943 0.789226
vt 0.700845 0.707238
vt 0.710909 0.596430
vt 0.737400 0.539332
vt 0.788079 0.500359
vt 0.860801 0.479711
vt 0.932253 0.497091
vt 0.980404 0.533824
vt 0.989600 0.593010
vt 0.997404 0.708687
vt 0.989591 0.790631
vt 0.912990 0.094669
vt 0.870220 0.082344
vt 0.865862 0.010693
vt 0.899947 0.035672
vt 0.904196 0.168114
vt 0.855923 0.158795
vt 0.866182 0.228303
vt 0.821287 0.225317
vt 0.926215 0.899556
vt 0.929960 0.961449
vt 0.848849 0.962403
vt 0.849259 0.897149
vt 0.093731 0.956977
vt 0.101346 0.880920
vt 0.178538 0.893811
vt 0.174869 0.974597
vt 0.767870 0.961796
vt 0.772389 0.899885
vt 0.254922 0.884057
vt 0.255557 0.960283
vt 0.971390 0.860781
vt 0.988840 0.901085
vt 0.921913 0.847759
vt 0.997404 0.958973
vt 0.025921 0.907921
vt 0.038144 0.840242
vt 0.057950 0.780849
vt 0.108477 0.787856
vt 0.181098 0.792341
vt 0.252577 0.790800
vt 0.300829 0.785811
vt 0.316450 0.845928
vt 0.322024 0.913970
vt 0.700818 0.959607
vt 0.710079 0.901681
vt 0.849741 0.841320
vt 0.072801 0.615452
vt 0.067114 0.549229
vt 0.147133 0.565093
vt 0.150815 0.631784
vt 0.066581 0.403995
vt 0.141841 0.415459
vt 0.228892 0.556980
vt 0.230455 0.623006
vt 0.219762 0.414379
vt 0.043846 0.709985
vt 0.108480 0.682546
vt 0.658858 0.392358
vt 0.676666 0.297737
vt 0.717809 0.317598
vt 0.697151 0.413498
vt 0.002596 0.510207
vt 0.008014 0.373507
vt 0.297641 0.590757
vt 0.261985 0.687054
vt 0.322024 0.718154
vt 0.186095 0.676262
vt 0.452119 0.304235
vt 0.464816 0.204757
vt 0.538504 0.236226
vt 0.523115 0.336807
vt 0.417176 0.086843
vt 0.486310 0.108620
vt 0.613337 0.269046
vt 0.596854 0.366886
vt 0.558588 0.141296
vt 0.353741 0.380733
vt 0.378111 0.341208
vt 0.431909 0.368506
vt 0.377864 0.412157
vt 0.395266 0.278260
vt 0.404908 0.180104
vt 0.363112 0.072233
vt 0.353741 0.011085
vt 0.386674 0.002596
vt 0.446120 0.013335
vt 0.517542 0.048361
vt 0.574317 0.088222
vt 0.619376 0.170912
vt 0.002596 0.763856
vt 0.431714 0.448386
vt 0.500212 0.402180
vt 0.572859 0.429517
vt 0.505164 0.474519
vt 0.633537 0.451772
vt 0.380082 0.939507
vt 0.353741 0.877853
vt 0.668982 0.474189
vt 0.186244 0.636976
vt 0.264232 0.649445
vt 0.106604 0.644816
vt 0.824103 0.076799
vt 0.821287 0.002596
vt 0.849358 0.803534
vt 0.926047 0.811342
vt 0.090132 0.048515
vt 0.154409 0.043888
vt 0.916565 0.377556
vt 0.875203 0.365266
vt 0.875203 0.302659
vt 0.909787 0.313632
vt 0.219535 0.058881
vt 0.209773 0.121626
vt 0.162170 0.002596
vt 0.223697 0.024632
vt 0.785386 0.426155
vt 0.740047 0.429515
vt 0.870011 0.421383
vt 0.843832 0.458291
vt 0.790578 0.302659
vt 0.816991 0.340131
s 1
usemtl Banana.001
f 1/17/1 41/18/41 45/10/45 30/19/30
f 41/18/41 40/20/40 46/21/46 45/10/45
f 40/22/40 39/23/39 47/24/47 46/25/46
f 39/23/39 5/26/5 38/27/38 47/24/47
f 47/24/47 38/27/38 37/28/37 49/29/49
f 49/29/49 37/28/37 36/30/36 52/31/52
f 52/31/52 36/30/36 7/32/7 29/33/29
f 51/34/51 52/35/52 29/36/29 28/37/28
f 50/38/50 51/34/51 28/37/28 27/39/27
f 32/40/32 50/38/50 27/39/27 3/41/3
f 31/42/31 48/9/48 50/38/50 32/40/32
f 30/19/30 45/10/45 48/9/48 31/42/31
f 102/43/102 54/44/54 57/45/57 103/46/103
f 54/44/54 55/47/55 58/48/58 57/45/57
f 103/46/103 57/45/57 60/49/60 104/50/104
f 57/45/57 58/48/58 61/51/61 60/49/60
f 4/52/4 23/53/23 53/54/53 35/55/35
f 100/56/100 22/57/22 54/44/54 102/43/102
f 22/58/22 21/59/21 55/60/55 54/61/54
f 21/59/21 3/41/3 27/39/27 55/60/55
f 55/60/55 27/39/27 28/37/28 58/62/58
f 58/48/58 28/63/28 29/64/29 61/51/61
f 61/51/61 29/64/29 7/65/7 20/66/20
f 60/49/60 61/51/61 20/66/20 19/67/19
f 104/50/104 60/49/60 19/67/19 99/68/99
f 33/69/33 59/70/59 18/71/18 8/72/8
f 34/73/34 56/74/56 59/70/59 33/69/33
f 35/55/35 53/54/53 56/74/56 34/73/34
f 105/75/105 63/76/63 66/77/66 106/78/106
f 63/76/63 64/79/64 67/80/67 66/77/66
f 106/78/106 66/77/66 69/81/69 107/82/107
f 66/77/66 67/80/67 70/83/70 69/81/69
f 8/84/8 18/85/18 62/86/62 11/87/11
f 99/88/99 19/89/19 63/76/63 105/75/105
f 19/89/19 20/90/20 64/79/64 63/76/63
f 20/90/20 7/91/7 36/92/36 64/79/64
f 64/79/64 36/92/36 37/93/37 67/80/67
f 67/80/67 37/93/37 38/94/38 70/83/70
f 70/83/70 38/94/38 5/95/5 24/96/24
f 69/81/69 70/83/70 24/96/24 25/97/25
f 107/82/107 69/81/69 25/97/25 101/98/101
f 9/99/9 68/100/68 26/101/26 6/102/6
f 10/103/10 65/104/65 68/100/68 9/99/9
f 11/105/11 62/106/62 65/104/65 10/103/10
f 71/107/71 72/108/72 75/109/75 74/110/74
f 72/111/72 73/112/73 76/113/76 75/114/75
f 74/110/74 75/109/75 78/115/78 77/116/77
f 75/114/75 76/113/76 79/117/79 78/118/78
f 6/119/6 14/120/14 71/107/71 9/121/9
f 14/120/14 13/122/13 72/108/72 71/107/71
f 13/123/13 12/124/12 73/112/73 72/111/72
f 12/124/12 2/125/2 44/126/44 73/112/73
f 73/112/73 44/126/44 43/127/43 76/113/76
f 76/113/76 43/127/43 42/128/42 79/117/79
f 79/117/79 42/128/42 4/129/4 35/130/35
f 78/118/78 79/117/79 35/130/35 34/131/34
f 77/116/77 78/115/78 34/132/34 33/133/33
f 11/87/11 77/116/77 33/133/33 8/84/8
f 10/134/10 74/110/74 77/116/77 11/87/11
f 9/121/9 71/107/71 74/110/74 10/134/10
f 108/135/108 81/136/81 84/137/84 109/138/109
f 81/136/81 82/139/82 85/140/85 84/137/84
f 109/138/109 84/137/84 87/141/87 110/142/110
f 84/137/84 85/140/85 88/143/88 87/141/87
f 2/125/2 17/144/17 80/145/80 44/126/44
f 98/146/98 16/147/16 81/148/81 108/149/108
f 16/150/16 15/151/15 82/139/82 81/136/81
f 15/151/15 1/17/1 30/19/30 82/139/82
f 82/139/82 30/19/30 31/42/31 85/140/85
f 85/140/85 31/42/31 32/40/32 88/143/88
f 88/143/88 32/40/32 3/41/3 21/59/21
f 87/141/87 88/143/88 21/59/21 22/58/22
f 110/142/110 87/141/87 22/58/22 100/152/100
f 42/128/42 86/153/86 23/154/23 4/129/4
f 43/127/43 83/155/83 86/153/86 42/128/42
f 44/126/44 80/145/80 83/155/83 43/127/43
f 111/156/111 90/157/90 93/158/93 112/159/112
f 90/157/90 91/160/91 94/161/94 93/158/93
f 112/159/112 93/158/93 96/162/96 113/163/113
f 93/158/93 94/161/94 97/164/97 96/162/96
f 6/165/6 26/166/26 89/167/89 14/168/14
f 101/169/101 25/170/25 90/157/90 111/156/111
f 25/170/25 24/171/24 91/160/91 90/157/90
f 24/171/24 5/172/5 39/173/39 91/160/91
f 91/160/91 39/173/39 40/174/40 94/161/94
f 94/161/94 40/174/40 41/175/41 97/164/97
f 97/164/97 41/175/41 1/176/1 15/177/15
f 96/162/96 97/164/97 15/177/15 16/147/16
f 113/163/113 96/162/96 16/147/16 98/146/98
f 12/124/12 95/178/95 17/144/17 2/125/2
f 13/179/13 92/180/92 95/181/95 12/182/12
f 14/168/14 89/167/89 92/180/92 13/179/13
f 95/181/95 113/163/113 98/146/98 17/183/17
f 26/166/26 101/169/101 111/156/111 89/167/89
f 92/180/92 112/159/112 113/163/113 95/181/95
f 89/167/89 111/156/111 112/159/112 92/180/92
f 86/184/86 110/185/110 100/56/100 23/53/23
f 17/183/17 98/146/98 108/149/108 80/186/80
f 83/155/83 109/187/109 110/188/110 86/153/86
f 80/145/80 108/189/108 109/187/109 83/155/83
f 68/100/68 107/190/107 101/191/101 26/101/26
f 18/85/18 99/88/99 105/75/105 62/86/62
f 65/192/65 106/78/106 107/82/107 68/193/68
f 62/86/62 105/75/105 106/78/106 65/192/65
f 59/70/59 104/50/104 99/68/99 18/71/18
f 23/53/23 100/56/100 102/43/102 53/54/53
f 56/74/56 103/46/103 104/50/104 59/70/59
f 53/54/53 102/43/102 103/46/103 56/74/56
usemtl Banana.002
f 45/1/45 46/2/46 115/3/115 114/4/114
f 52/5/52 51/6/51 121/7/121 122/8/122
f 48/9/48 45/10/45 114/11/114 117/12/117
f 47/13/47 49/14/49 119/15/119 116/16/116
f 114/11/114 115/194/115 118/195/118 117/12/117
f 115/196/115 116/197/116 119/198/119 118/199/118
f 117/12/117 118/195/118 121/200/121 120/201/120
f 118/195/118 119/202/119 122/203/122 121/200/121
f 49/14/49 52/204/52 122/205/122 119/15/119
f 50/38/50 48/9/48 117/12/117 120/201/120
f 46/2/46 47/206/47 116/207/116 115/3/115
f 51/6/51 50/208/50 120/209/120 121/7/121
