# Blender 4.2.2 LTS
# www.blender.org
mtllib CD.mtl
o CD
v 0.000001 -0.178675 -0.596208
v 0.000001 0.178675 -0.596208
v 0.421584 -0.178675 -0.421583
v 0.421584 0.178675 -0.421583
v 0.596209 -0.178675 0.000000
v 0.596209 0.178675 0.000000
v 0.421584 -0.178675 0.421583
v 0.421584 0.178675 0.421583
v 0.000001 -0.178675 0.596208
v 0.000001 0.178675 0.596208
v -0.421583 -0.178675 0.421583
v -0.421583 0.178675 0.421583
v -0.596208 -0.178675 0.000000
v -0.596208 0.178675 0.000000
v -0.421583 -0.178675 -0.421583
v -0.421583 0.178675 -0.421583
v 0.000001 -0.178675 -2.611348
v 1.846502 -0.178675 -1.846502
v 1.846502 0.178675 -1.846502
v 0.000001 0.178675 -2.611348
v 2.611348 -0.178675 0.000000
v 2.611348 0.178675 0.000000
v 1.846502 -0.178675 1.846502
v 1.846502 0.178675 1.846502
v 0.000001 -0.178675 2.611348
v 0.000001 0.178675 2.611348
v -1.846501 -0.178675 1.846502
v -1.846501 0.178675 1.846502
v -2.611347 -0.178675 0.000000
v -2.611347 0.178675 0.000000
v -1.846501 -0.178675 -1.846502
v -1.846501 0.178675 -1.846502
v 0.000001 -0.178675 -2.464222
v 1.742469 -0.178675 -1.742468
v 1.742469 0.178675 -1.742468
v 0.000001 0.178675 -2.464222
v 2.464222 -0.178675 0.000000
v 2.464222 0.178675 0.000000
v 1.742469 -0.178675 1.742468
v 1.742469 0.178675 1.742468
v 0.000001 -0.178675 2.464222
v 0.000001 0.178675 2.464222
v -1.742467 -0.178675 1.742468
v -1.742467 0.178675 1.742468
v -2.464221 -0.178675 0.000000
v -2.464221 0.178675 0.000000
v -1.742467 -0.178675 -1.742468
v -1.742467 0.178675 -1.742468
v 0.000001 -0.178675 -1.142273
v 0.807709 -0.178675 -0.807709
v 0.807709 0.178675 -0.807709
v 0.000001 0.178675 -1.142273
v 1.142273 -0.178675 0.000000
v 1.142273 0.178675 0.000000
v 0.807709 -0.178675 0.807709
v 0.807709 0.178675 0.807709
v 0.000001 -0.178675 1.142273
v 0.000001 0.178675 1.142273
v -0.807708 -0.178675 0.807709
v -0.807708 0.178675 0.807709
v -1.142272 -0.178675 0.000000
v -1.142272 0.178675 0.000000
v -0.807708 -0.178675 -0.807709
v -0.807708 0.178675 -0.807709
v 0.000001 -0.178675 -1.079686
v 0.763454 -0.178675 -0.763453
v 0.763454 0.178675 -0.763453
v 0.000001 0.178675 -1.079686
v 1.079687 -0.178675 0.000000
v 1.079687 0.178675 0.000000
v 0.763454 -0.178675 0.763453
v 0.763454 0.178675 0.763453
v 0.000001 -0.178675 1.079686
v 0.000001 0.178675 1.079686
v -0.763453 -0.178675 0.763453
v -0.763453 0.178675 0.763453
v -1.079685 -0.178675 0.000000
v -1.079685 0.178675 0.000000
v -0.763453 -0.178675 -0.763453
v -0.763453 0.178675 -0.763453
vn 0.3827 -0.0000 -0.9239
vn 0.9239 -0.0000 -0.3827
vn 0.9239 -0.0000 0.3827
vn 0.3827 -0.0000 0.9239
vn -0.3827 -0.0000 0.9239
vn -0.9239 -0.0000 0.3827
vn -0.9239 -0.0000 -0.3827
vn -0.3827 -0.0000 -0.9239
vn -0.0000 -1.0000 -0.0000
vn -0.0000 1.0000 -0.0000
vt 0.458885 0.488393
vt 0.458885 0.168700
vt 0.581226 0.168700
vt 0.581226 0.488393
vt 0.667735 0.168700
vt 0.667735 0.488393
vt 0.676263 0.816613
vt 0.676263 0.496921
vt 0.798604 0.496921
vt 0.798604 0.816613
vt 0.676263 0.488393
vt 0.676263 0.168700
vt 0.762771 0.168700
vt 0.762771 0.488393
vt 0.885112 0.168700
vt 0.885112 0.488393
vt 0.971620 0.168700
vt 0.971620 0.488393
vt 0.469431 0.816613
vt 0.469431 0.496921
vt 0.489182 0.496921
vt 0.489182 0.816613
vt 0.545394 0.816613
vt 0.545394 0.496921
vt 0.667735 0.496921
vt 0.667735 0.816613
vt 0.372377 0.488393
vt 0.372377 0.168700
vt 0.807133 0.816613
vt 0.807133 0.496921
vt 0.835065 0.496921
vt 0.835065 0.816613
vt 0.097342 0.435206
vt 0.204003 0.479387
vt 0.204003 0.488392
vt 0.090974 0.441575
vt 0.204003 0.807608
vt 0.310663 0.763427
vt 0.317031 0.769796
vt 0.204003 0.816613
vt 0.053162 0.328546
vt 0.044156 0.328546
vt 0.354843 0.656767
vt 0.363849 0.656767
vt 0.097342 0.221886
vt 0.090974 0.215518
vt 0.310663 0.550107
vt 0.317031 0.543739
vt 0.204003 0.177706
vt 0.204003 0.168700
vt 0.204003 0.505927
vt 0.204003 0.496921
vt 0.310663 0.221886
vt 0.317031 0.215518
vt 0.097342 0.550107
vt 0.090974 0.543739
vt 0.354843 0.328546
vt 0.363849 0.328546
vt 0.053162 0.656767
vt 0.044156 0.656767
vt 0.310663 0.435206
vt 0.317031 0.441575
vt 0.097342 0.763427
vt 0.090974 0.769796
vt 0.154561 0.377988
vt 0.204003 0.398467
vt 0.204003 0.726688
vt 0.253444 0.706209
vt 0.134082 0.328546
vt 0.273924 0.656767
vt 0.154561 0.279105
vt 0.253444 0.607326
vt 0.204003 0.258625
vt 0.204003 0.586846
vt 0.253444 0.279105
vt 0.154561 0.607326
vt 0.273924 0.328546
vt 0.134082 0.656767
vt 0.253444 0.377988
vt 0.154561 0.706209
vt 0.157270 0.375279
vt 0.204003 0.394636
vt 0.204003 0.722857
vt 0.250735 0.703500
vt 0.137913 0.328546
vt 0.270093 0.656767
vt 0.157270 0.281814
vt 0.250735 0.610035
vt 0.204003 0.262456
vt 0.204003 0.590677
vt 0.250735 0.281814
vt 0.157270 0.610035
vt 0.270093 0.328546
vt 0.137913 0.656767
vt 0.250735 0.375279
vt 0.157270 0.703500
vt 0.178197 0.354352
vt 0.204003 0.365041
vt 0.204003 0.693262
vt 0.229809 0.682573
vt 0.167507 0.328546
vt 0.240498 0.656767
vt 0.178197 0.302740
vt 0.229809 0.630961
vt 0.204003 0.292051
vt 0.204003 0.620272
vt 0.229809 0.302740
vt 0.178197 0.630961
vt 0.240498 0.328546
vt 0.167507 0.656767
vt 0.229809 0.354352
vt 0.178197 0.682573
vt 0.517114 0.496921
vt 0.517114 0.816613
vt 0.536865 0.496921
vt 0.536865 0.816613
vt 0.843593 0.816613
vt 0.843593 0.496921
vt 0.871526 0.496921
vt 0.871526 0.816613
vt 0.393468 0.816613
vt 0.393468 0.496921
vt 0.413219 0.496921
vt 0.413219 0.816613
vt 0.441151 0.496921
vt 0.441151 0.816613
vt 0.460902 0.496921
vt 0.460902 0.816613
s 0
usemtl CD_MAT
f 17/1/1 20/2/1 19/3/1 18/4/1
f 18/4/2 19/3/2 22/5/2 21/6/2
f 21/7/3 22/8/3 24/9/3 23/10/3
f 23/11/4 24/12/4 26/13/4 25/14/4
f 25/14/5 26/13/5 28/15/5 27/16/5
f 27/16/6 28/15/6 30/17/6 29/18/6
f 13/19/2 14/20/2 12/21/2 11/22/2
f 29/23/7 30/24/7 32/25/7 31/26/7
f 31/27/8 32/28/8 20/2/8 17/1/8
f 15/29/3 16/30/3 14/31/3 13/32/3
f 34/33/9 33/34/9 17/35/9 18/36/9
f 36/37/10 35/38/10 19/39/10 20/40/10
f 37/41/9 34/33/9 18/36/9 21/42/9
f 35/38/10 38/43/10 22/44/10 19/39/10
f 39/45/9 37/41/9 21/42/9 23/46/9
f 38/43/10 40/47/10 24/48/10 22/44/10
f 41/49/9 39/45/9 23/46/9 25/50/9
f 40/47/10 42/51/10 26/52/10 24/48/10
f 43/53/9 41/49/9 25/50/9 27/54/9
f 42/51/10 44/55/10 28/56/10 26/52/10
f 45/57/9 43/53/9 27/54/9 29/58/9
f 44/55/10 46/59/10 30/60/10 28/56/10
f 47/61/9 45/57/9 29/58/9 31/62/9
f 46/59/10 48/63/10 32/64/10 30/60/10
f 33/34/9 47/61/9 31/62/9 17/35/9
f 48/63/10 36/37/10 20/40/10 32/64/10
f 50/65/9 49/66/9 33/34/9 34/33/9
f 52/67/10 51/68/10 35/38/10 36/37/10
f 53/69/9 50/65/9 34/33/9 37/41/9
f 51/68/10 54/70/10 38/43/10 35/38/10
f 55/71/9 53/69/9 37/41/9 39/45/9
f 54/70/10 56/72/10 40/47/10 38/43/10
f 57/73/9 55/71/9 39/45/9 41/49/9
f 56/72/10 58/74/10 42/51/10 40/47/10
f 59/75/9 57/73/9 41/49/9 43/53/9
f 58/74/10 60/76/10 44/55/10 42/51/10
f 61/77/9 59/75/9 43/53/9 45/57/9
f 60/76/10 62/78/10 46/59/10 44/55/10
f 63/79/9 61/77/9 45/57/9 47/61/9
f 62/78/10 64/80/10 48/63/10 46/59/10
f 49/66/9 63/79/9 47/61/9 33/34/9
f 64/80/10 52/67/10 36/37/10 48/63/10
f 66/81/9 65/82/9 49/66/9 50/65/9
f 68/83/10 67/84/10 51/68/10 52/67/10
f 69/85/9 66/81/9 50/65/9 53/69/9
f 67/84/10 70/86/10 54/70/10 51/68/10
f 71/87/9 69/85/9 53/69/9 55/71/9
f 70/86/10 72/88/10 56/72/10 54/70/10
f 73/89/9 71/87/9 55/71/9 57/73/9
f 72/88/10 74/90/10 58/74/10 56/72/10
f 75/91/9 73/89/9 57/73/9 59/75/9
f 74/90/10 76/92/10 60/76/10 58/74/10
f 77/93/9 75/91/9 59/75/9 61/77/9
f 76/92/10 78/94/10 62/78/10 60/76/10
f 79/95/9 77/93/9 61/77/9 63/79/9
f 78/94/10 80/96/10 64/80/10 62/78/10
f 65/82/9 79/95/9 63/79/9 49/66/9
f 80/96/10 68/83/10 52/67/10 64/80/10
f 3/97/9 1/98/9 65/82/9 66/81/9
f 2/99/10 4/100/10 67/84/10 68/83/10
f 5/101/9 3/97/9 66/81/9 69/85/9
f 4/100/10 6/102/10 70/86/10 67/84/10
f 7/103/9 5/101/9 69/85/9 71/87/9
f 6/102/10 8/104/10 72/88/10 70/86/10
f 9/105/9 7/103/9 71/87/9 73/89/9
f 8/104/10 10/106/10 74/90/10 72/88/10
f 11/107/9 9/105/9 73/89/9 75/91/9
f 10/106/10 12/108/10 76/92/10 74/90/10
f 13/109/9 11/107/9 75/91/9 77/93/9
f 12/108/10 14/110/10 78/94/10 76/92/10
f 15/111/9 13/109/9 77/93/9 79/95/9
f 14/110/10 16/112/10 80/96/10 78/94/10
f 1/98/9 15/111/9 79/95/9 65/82/9
f 16/112/10 2/99/10 68/83/10 80/96/10
f 11/22/1 12/21/1 10/113/1 9/114/1
f 9/114/8 10/113/8 8/115/8 7/116/8
f 7/117/7 8/118/7 6/119/7 5/120/7
f 5/121/6 6/122/6 4/123/6 3/124/6
f 3/124/5 4/123/5 2/125/5 1/126/5
f 1/126/4 2/125/4 16/127/4 15/128/4
