# Blender 4.3.2
# www.blender.org
mtllib teacupsplash.mtl
o Plane
v -0.699515 0.025256 0.654709
v 0.833862 0.001810 0.793570
v -0.781909 -0.004220 -0.786985
v 0.920030 0.004731 -0.860793
v -0.904399 -0.001821 -0.407220
v -0.629744 -0.013481 0.011232
v -0.861841 0.005130 0.384544
v -0.224735 0.000248 0.792585
v 0.218437 -0.013479 1.059692
v 0.457258 0.001358 0.745306
v 1.010689 0.010749 0.492136
v 0.879271 0.009718 0.040038
v 1.065393 0.003848 -0.542173
v 0.485328 0.002118 -0.963303
v 0.044300 0.002866 -0.760993
v -0.446245 -0.003085 -0.935198
v -0.468083 0.015755 0.490002
v 0.094506 0.002914 0.490689
v 0.552527 0.003382 0.436664
v -0.312012 -0.022117 0.054930
v 0.054380 0.001768 0.027084
v 0.560074 0.019878 0.016401
v -0.557408 -0.004596 -0.538036
v 0.079438 0.002845 -0.394115
v 0.578358 0.003478 -0.481195
v -0.102009 0.004919 1.004562
v -0.701862 -0.074686 0.657177
v 0.834961 -0.098175 0.792263
v -0.782130 -0.104220 -0.786937
v 0.920356 -0.095268 -0.860830
v -0.905666 -0.101807 -0.408327
v -0.631294 -0.113449 0.013234
v -0.863393 -0.094734 0.389504
v -0.227247 -0.099716 0.791640
v 0.217415 -0.113456 1.057841
v 0.458336 -0.098619 0.743449
v 1.011146 -0.089238 0.490608
v 0.878632 -0.090280 0.040030
v 1.065030 -0.096148 -0.541319
v 0.485497 -0.097881 -0.963238
v 0.044938 -0.097132 -0.760959
v -0.445564 -0.103083 -0.935230
v -0.469407 -0.084181 0.493335
v 0.094787 -0.097085 0.490343
v 0.553472 -0.096599 0.434954
v -0.311126 -0.122098 0.056673
v 0.056556 -0.098208 0.027505
v 0.560710 -0.080120 0.016470
v -0.557173 -0.104592 -0.538909
v 0.081215 -0.097139 -0.394299
v 0.578582 -0.096517 -0.480275
v -0.104553 -0.095035 1.002918
vn -0.4509 0.6659 0.5944
vn 0.3469 0.5923 0.7272
vn -0.5775 0.6266 -0.5232
vn 0.4962 0.6214 -0.6063
vn -0.7659 0.6333 0.1109
vn -0.5219 0.8529 -0.0088
vn -0.7881 0.6147 -0.0325
vn -0.3724 0.7769 0.5076
vn 0.2965 0.5839 0.7558
vn 0.1992 0.8327 0.5166
vn 0.7678 0.6320 0.1052
vn 0.6298 0.7767 0.0073
vn 0.7745 0.6304 -0.0513
vn -0.0772 0.6393 -0.7651
vn -0.0314 0.8032 -0.5948
vn -0.0328 0.6319 -0.7744
vn 0.0132 0.9994 -0.0333
vn -0.0028 1.0000 0.0035
vn -0.0094 0.9998 0.0171
vn -0.0089 0.9998 -0.0174
vn -0.0218 0.9998 -0.0042
vn -0.0064 1.0000 -0.0007
vn -0.0024 1.0000 0.0087
vn -0.0178 0.9998 0.0018
vn -0.0022 1.0000 -0.0092
vn -0.4252 0.6319 0.6480
vn -0.4915 -0.5976 0.6334
vn 0.3575 -0.6104 0.7068
vn -0.5803 -0.6247 -0.5225
vn 0.4999 -0.6187 -0.6060
vn -0.7867 -0.6097 0.0965
vn -0.5323 -0.8463 0.0220
vn -0.8018 -0.5972 0.0210
vn -0.4030 -0.7753 0.4863
vn 0.2847 -0.6296 0.7229
vn 0.2206 -0.8441 0.4887
vn 0.7771 -0.6235 0.0852
vn 0.6235 -0.7818 0.0086
vn 0.7689 -0.6382 -0.0388
vn -0.0751 -0.6423 -0.7628
vn -0.0217 -0.8015 -0.5976
vn -0.0245 -0.6334 -0.7734
vn -0.0132 -0.9994 0.0333
vn 0.0029 -1.0000 -0.0034
vn 0.0094 -0.9998 -0.0171
vn 0.0089 -0.9998 0.0175
vn 0.0218 -0.9998 0.0042
vn 0.0063 -1.0000 0.0007
vn 0.0024 -1.0000 -0.0087
vn 0.0177 -0.9998 -0.0018
vn 0.0022 -1.0000 0.0092
vn -0.4684 -0.6125 0.6367
vt 0.250000 0.250000
vt 0.500000 0.250000
vt 0.500000 0.500000
vt 0.250000 0.500000
vt 0.750000 0.250000
vt 0.750000 0.500000
vt 0.500000 0.750000
vt 0.250000 0.750000
vt 0.750000 0.750000
vt 0.000000 0.000000
vt 0.250000 0.000000
vt 0.000000 0.250000
vt 0.375000 0.000000
vt 0.500000 0.000000
vt 0.750000 0.000000
vt 1.000000 0.000000
vt 1.000000 0.250000
vt 1.000000 0.500000
vt 1.000000 0.750000
vt 1.000000 1.000000
vt 0.750000 1.000000
vt 0.500000 1.000000
vt 0.250000 1.000000
vt 0.000000 0.750000
vt 0.000000 1.000000
vt 0.000000 0.500000
s 1
usemtl Material.001
f 17/1/17 18/2/18 21/3/21 20/4/20
f 18/2/18 19/5/19 22/6/22 21/3/21
f 20/4/20 21/3/21 24/7/24 23/8/23
f 21/3/21 22/6/22 25/9/25 24/7/24
f 1/10/1 8/11/8 17/1/17 7/12/7
f 8/11/8 26/13/26 9/14/9 18/2/18 17/1/17
f 9/14/9 10/15/10 19/5/19 18/2/18
f 10/15/10 2/16/2 11/17/11 19/5/19
f 19/5/19 11/17/11 12/18/12 22/6/22
f 22/6/22 12/18/12 13/19/13 25/9/25
f 25/9/25 13/19/13 4/20/4 14/21/14
f 24/7/24 25/9/25 14/21/14 15/22/15
f 23/8/23 24/7/24 15/22/15 16/23/16
f 5/24/5 23/8/23 16/23/16 3/25/3
f 6/26/6 20/4/20 23/8/23 5/24/5
f 7/12/7 17/1/17 20/4/20 6/26/6
f 43/1/43 46/4/46 47/3/47 44/2/44
f 44/2/44 47/3/47 48/6/48 45/5/45
f 46/4/46 49/8/49 50/7/50 47/3/47
f 47/3/47 50/7/50 51/9/51 48/6/48
f 27/10/27 33/12/33 43/1/43 34/11/34
f 34/11/34 43/1/43 44/2/44 35/14/35 52/13/52
f 35/14/35 44/2/44 45/5/45 36/15/36
f 36/15/36 45/5/45 37/17/37 28/16/28
f 45/5/45 48/6/48 38/18/38 37/17/37
f 48/6/48 51/9/51 39/19/39 38/18/38
f 51/9/51 40/21/40 30/20/30 39/19/39
f 50/7/50 41/22/41 40/21/40 51/9/51
f 49/8/49 42/23/42 41/22/41 50/7/50
f 31/24/31 29/25/29 42/23/42 49/8/49
f 32/26/32 31/24/31 49/8/49 46/4/46
f 33/12/33 32/26/32 46/4/46 43/1/43
f 5/24/5 3/25/3 29/25/29 31/24/31
f 6/26/6 5/24/5 31/24/31 32/26/32
f 7/12/7 6/26/6 32/26/32 33/12/33
f 1/10/1 7/12/7 33/12/33 27/10/27
f 8/11/8 1/10/1 27/10/27 34/11/34
f 9/14/9 26/13/26 52/13/52 35/14/35
f 10/15/10 9/14/9 35/14/35 36/15/36
f 2/16/2 10/15/10 36/15/36 28/16/28
f 11/17/11 2/16/2 28/16/28 37/17/37
f 12/18/12 11/17/11 37/17/37 38/18/38
f 13/19/13 12/18/12 38/18/38 39/19/39
f 4/20/4 13/19/13 39/19/39 30/20/30
f 14/21/14 4/20/4 30/20/30 40/21/40
f 15/22/15 14/21/14 40/21/40 41/22/41
f 16/23/16 15/22/15 41/22/41 42/23/42
f 3/25/3 16/23/16 42/23/42 29/25/29
f 26/13/26 8/11/8 34/11/34 52/13/52
