# Blender 4.3.2
# www.blender.org
mtllib untitled.mtl
o Cylinder
v 0.000000 0.145227 -0.300000
v 0.000000 14.456181 -0.300000
v 0.058527 0.145227 -0.294236
v 0.058527 14.456181 -0.294236
v 0.114805 0.145227 -0.277164
v 0.114805 14.456181 -0.277164
v 0.166671 0.145227 -0.249441
v 0.166671 14.456181 -0.249441
v 0.212132 0.145227 -0.212132
v 0.212132 14.456181 -0.212132
v 0.249441 0.145227 -0.166671
v 0.249441 14.456181 -0.166671
v 0.277164 0.145227 -0.114805
v 0.277164 14.456181 -0.114805
v 0.294236 0.145227 -0.058527
v 0.294236 14.456181 -0.058527
v 0.300000 0.145227 0.000000
v 0.300000 14.456181 0.000000
v 0.294236 0.145227 0.058527
v 0.294236 14.456181 0.058527
v 0.277164 0.145227 0.114805
v 0.277164 14.456181 0.114805
v 0.249441 0.145227 0.166671
v 0.249441 14.456181 0.166671
v 0.212132 0.145227 0.212132
v 0.212132 14.456181 0.212132
v 0.166671 0.145227 0.249441
v 0.166671 14.456181 0.249441
v 0.114805 0.145227 0.277164
v 0.114805 14.456181 0.277164
v 0.058527 0.145227 0.294236
v 0.058527 14.456181 0.294236
v 0.000000 0.145227 0.300000
v 0.000000 14.456181 0.300000
v -0.058527 0.145227 0.294236
v -0.058527 14.456181 0.294236
v -0.114805 0.145227 0.277164
v -0.114805 14.456181 0.277164
v -0.166671 0.145227 0.249441
v -0.166671 14.456181 0.249441
v -0.212132 0.145227 0.212132
v -0.212132 14.456181 0.212132
v -0.249441 0.145227 0.166671
v -0.249441 14.456181 0.166671
v -0.277164 0.145227 0.114805
v -0.277164 14.456181 0.114805
v -0.294236 0.145227 0.058527
v -0.294236 14.456181 0.058527
v -0.300000 0.145227 0.000000
v -0.300000 14.456181 0.000000
v -0.294236 0.145227 -0.058527
v -0.294236 14.456181 -0.058527
v -0.277164 0.145227 -0.114805
v -0.277164 14.456181 -0.114805
v -0.249441 0.145227 -0.166671
v -0.249441 14.456181 -0.166671
v -0.212132 0.145227 -0.212132
v -0.212132 14.456181 -0.212132
v -0.166671 0.145227 -0.249441
v -0.166671 14.456181 -0.249441
v -0.114805 0.145227 -0.277164
v -0.114805 14.456181 -0.277164
v -0.058527 0.145227 -0.294236
v -0.058527 14.456181 -0.294236
v 0.000000 0.145227 -0.300000
v 0.000000 14.456181 -0.300000
v 0.058527 0.145227 -0.294236
v 0.058527 14.456181 -0.294236
v 0.114805 0.145227 -0.277164
v 0.114805 14.456181 -0.277164
v 0.166671 0.145227 -0.249441
v 0.166671 14.456181 -0.249441
v 0.212132 0.145227 -0.212132
v 0.212132 14.456181 -0.212132
v 0.249441 0.145227 -0.166671
v 0.249441 14.456181 -0.166671
v 0.277164 0.145227 -0.114805
v 0.277164 14.456181 -0.114805
v 0.294236 0.145227 -0.058527
v 0.294236 14.456181 -0.058527
v 0.300000 0.145227 0.000000
v 0.300000 14.456181 0.000000
v 0.294236 0.145227 0.058527
v 0.294236 14.456181 0.058527
v 0.277164 0.145227 0.114805
v 0.277164 14.456181 0.114805
v 0.249441 0.145227 0.166671
v 0.249441 14.456181 0.166671
v 0.212132 0.145227 0.212132
v 0.212132 14.456181 0.212132
v 0.166671 0.145227 0.249441
v 0.166671 14.456181 0.249441
v 0.114805 0.145227 0.277164
v 0.114805 14.456181 0.277164
v 0.058527 0.145227 0.294236
v 0.058527 14.456181 0.294236
v 0.000000 0.145227 0.300000
v 0.000000 14.456181 0.300000
v -0.058527 0.145227 0.294236
v -0.058527 14.456181 0.294236
v -0.114805 0.145227 0.277164
v -0.114805 14.456181 0.277164
v -0.166671 0.145227 0.249441
v -0.166671 14.456181 0.249441
v -0.212132 0.145227 0.212132
v -0.212132 14.456181 0.212132
v -0.249441 0.145227 0.166671
v -0.249441 14.456181 0.166671
v -0.277164 0.145227 0.114805
v -0.277164 14.456181 0.114805
v -0.294236 0.145227 0.058527
v -0.294236 14.456181 0.058527
v -0.300000 0.145227 0.000000
v -0.300000 14.456181 0.000000
v -0.294236 0.145227 -0.058527
v -0.294236 14.456181 -0.058527
v -0.277164 0.145227 -0.114805
v -0.277164 14.456181 -0.114805
v -0.249441 0.145227 -0.166671
v -0.249441 14.456181 -0.166671
v -0.212132 0.145227 -0.212132
v -0.212132 14.456181 -0.212132
v -0.166671 0.145227 -0.249441
v -0.166671 14.456181 -0.249441
v -0.114805 0.145227 -0.277164
v -0.114805 14.456181 -0.277164
v -0.058527 0.145227 -0.294236
v -0.058527 14.456181 -0.294236
vn -0.0980 -0.0000 0.9952
vn -0.2903 -0.0000 0.9569
vn -0.4714 -0.0000 0.8819
vn -0.6344 -0.0000 0.7730
vn -0.7730 -0.0000 0.6344
vn -0.8819 -0.0000 0.4714
vn -0.9569 -0.0000 0.2903
vn -0.9952 -0.0000 0.0980
vn -0.9952 -0.0000 -0.0980
vn -0.9569 -0.0000 -0.2903
vn -0.8819 -0.0000 -0.4714
vn -0.7730 -0.0000 -0.6344
vn -0.6344 -0.0000 -0.7730
vn -0.4714 -0.0000 -0.8819
vn -0.2903 -0.0000 -0.9569
vn -0.0980 -0.0000 -0.9952
vn 0.0980 -0.0000 -0.9952
vn 0.2903 -0.0000 -0.9569
vn 0.4714 -0.0000 -0.8819
vn 0.6344 -0.0000 -0.7730
vn 0.7730 -0.0000 -0.6344
vn 0.8819 -0.0000 -0.4714
vn 0.9569 -0.0000 -0.2903
vn 0.9952 -0.0000 -0.0980
vn 0.9952 -0.0000 0.0980
vn 0.9569 -0.0000 0.2903
vn 0.8819 -0.0000 0.4714
vn 0.7730 -0.0000 0.6344
vn 0.6344 -0.0000 0.7730
vn 0.4714 -0.0000 0.8819
vn -0.0000 -1.0000 -0.0000
vn 0.2903 -0.0000 0.9569
vn 0.0980 -0.0000 0.9952
vn -0.0000 1.0000 -0.0000
vt 1.000000 0.500000
vt 0.968750 0.500000
vt 0.968750 1.000000
vt 1.000000 1.000000
vt 0.937500 0.500000
vt 0.937500 1.000000
vt 0.906250 0.500000
vt 0.906250 1.000000
vt 0.875000 0.500000
vt 0.875000 1.000000
vt 0.843750 0.500000
vt 0.843750 1.000000
vt 0.812500 0.500000
vt 0.812500 1.000000
vt 0.781250 0.500000
vt 0.781250 1.000000
vt 0.750000 0.500000
vt 0.750000 1.000000
vt 0.718750 0.500000
vt 0.718750 1.000000
vt 0.687500 0.500000
vt 0.687500 1.000000
vt 0.656250 0.500000
vt 0.656250 1.000000
vt 0.625000 0.500000
vt 0.625000 1.000000
vt 0.593750 0.500000
vt 0.593750 1.000000
vt 0.562500 0.500000
vt 0.562500 1.000000
vt 0.531250 0.500000
vt 0.531250 1.000000
vt 0.500000 0.500000
vt 0.500000 1.000000
vt 0.468750 0.500000
vt 0.468750 1.000000
vt 0.437500 0.500000
vt 0.437500 1.000000
vt 0.406250 0.500000
vt 0.406250 1.000000
vt 0.375000 0.500000
vt 0.375000 1.000000
vt 0.343750 0.500000
vt 0.343750 1.000000
vt 0.312500 0.500000
vt 0.312500 1.000000
vt 0.281250 0.500000
vt 0.281250 1.000000
vt 0.250000 0.500000
vt 0.250000 1.000000
vt 0.218750 0.500000
vt 0.218750 1.000000
vt 0.187500 0.500000
vt 0.187500 1.000000
vt 0.156250 0.500000
vt 0.156250 1.000000
vt 0.125000 0.500000
vt 0.125000 1.000000
vt 0.093750 0.500000
vt 0.093750 1.000000
vt 0.062500 0.500000
vt 0.062500 1.000000
vt 0.296822 0.485388
vt 0.341844 0.471731
vt 0.383337 0.449553
vt 0.419706 0.419706
vt 0.449553 0.383337
vt 0.471731 0.341844
vt 0.485388 0.296822
vt 0.490000 0.250000
vt 0.485388 0.203178
vt 0.471731 0.158156
vt 0.449553 0.116663
vt 0.419706 0.080294
vt 0.383337 0.050447
vt 0.341844 0.028269
vt 0.296822 0.014612
vt 0.250000 0.010000
vt 0.203178 0.014612
vt 0.158156 0.028269
vt 0.116663 0.050447
vt 0.080294 0.080294
vt 0.050447 0.116663
vt 0.028269 0.158156
vt 0.014612 0.203178
vt 0.010000 0.250000
vt 0.014612 0.296822
vt 0.028269 0.341844
vt 0.050447 0.383337
vt 0.080294 0.419706
vt 0.116663 0.449553
vt 0.158156 0.471731
vt 0.203178 0.485388
vt 0.250000 0.490000
vt 0.031250 0.500000
vt 0.031250 1.000000
vt 0.000000 0.500000
vt 0.000000 1.000000
vt 0.750000 0.490000
vt 0.703178 0.485388
vt 0.658156 0.471731
vt 0.616663 0.449553
vt 0.580294 0.419706
vt 0.550447 0.383337
vt 0.528269 0.341844
vt 0.514612 0.296822
vt 0.510000 0.250000
vt 0.514612 0.203178
vt 0.528269 0.158156
vt 0.550447 0.116663
vt 0.580294 0.080294
vt 0.616663 0.050447
vt 0.658156 0.028269
vt 0.703178 0.014612
vt 0.750000 0.010000
vt 0.796822 0.014612
vt 0.841844 0.028269
vt 0.883337 0.050447
vt 0.919706 0.080294
vt 0.949553 0.116663
vt 0.971731 0.158156
vt 0.985388 0.203178
vt 0.990000 0.250000
vt 0.985388 0.296822
vt 0.971731 0.341844
vt 0.949553 0.383337
vt 0.919706 0.419706
vt 0.883337 0.449553
vt 0.841844 0.471731
vt 0.796822 0.485388
vt 0.565401 0.028827
vt 0.565401 0.121866
vt 0.589273 0.121866
vt 0.589273 0.028827
vt 0.613145 0.121866
vt 0.613145 0.028827
vt 0.637016 0.121866
vt 0.637016 0.028827
vt 0.660888 0.121866
vt 0.660888 0.028827
vt 0.684760 0.121866
vt 0.684760 0.028827
vt 0.708632 0.121866
vt 0.708632 0.028827
vt 0.732504 0.121866
vt 0.732504 0.028827
vt 0.756376 0.121866
vt 0.756376 0.028827
vt 0.780248 0.121866
vt 0.780248 0.028827
vt 0.804119 0.121866
vt 0.804119 0.028827
vt 0.827991 0.121866
vt 0.827991 0.028827
vt 0.851863 0.121866
vt 0.851863 0.028827
vt 0.875735 0.121866
vt 0.875735 0.028827
vt 0.899607 0.121866
vt 0.899607 0.028827
vt 0.923478 0.121866
vt 0.923478 0.028827
vt 0.947350 0.121866
vt 0.947350 0.028827
s 0
usemtl LollipopMat
f 1/1/1 3/2/1 4/3/1 2/4/1
f 3/2/2 5/5/2 6/6/2 4/3/2
f 5/5/3 7/7/3 8/8/3 6/6/3
f 7/7/4 9/9/4 10/10/4 8/8/4
f 9/9/5 11/11/5 12/12/5 10/10/5
f 11/11/6 13/13/6 14/14/6 12/12/6
f 13/13/7 15/15/7 16/16/7 14/14/7
f 15/15/8 17/17/8 18/18/8 16/16/8
f 17/17/9 19/19/9 20/20/9 18/18/9
f 19/19/10 21/21/10 22/22/10 20/20/10
f 21/21/11 23/23/11 24/24/11 22/22/11
f 23/23/12 25/25/12 26/26/12 24/24/12
f 25/25/13 27/27/13 28/28/13 26/26/13
f 27/27/14 29/29/14 30/30/14 28/28/14
f 29/29/15 31/31/15 32/32/15 30/30/15
f 31/31/16 33/33/16 34/34/16 32/32/16
f 33/33/17 35/35/17 36/36/17 34/34/17
f 35/35/18 37/37/18 38/38/18 36/36/18
f 37/37/19 39/39/19 40/40/19 38/38/19
f 39/39/20 41/41/20 42/42/20 40/40/20
f 41/41/21 43/43/21 44/44/21 42/42/21
f 43/43/22 45/45/22 46/46/22 44/44/22
f 45/45/23 47/47/23 48/48/23 46/46/23
f 47/47/24 49/49/24 50/50/24 48/48/24
f 49/49/25 51/51/25 52/52/25 50/50/25
f 51/51/26 53/53/26 54/54/26 52/52/26
f 53/53/27 55/55/27 56/56/27 54/54/27
f 55/55/28 57/57/28 58/58/28 56/56/28
f 57/57/29 59/59/29 60/60/29 58/58/29
f 59/59/30 61/61/30 62/62/30 60/60/30
f 4/63/31 6/64/31 8/65/31 10/66/31 12/67/31 14/68/31 16/69/31 18/70/31 20/71/31 22/72/31 24/73/31 26/74/31 28/75/31 30/76/31 32/77/31 34/78/31 36/79/31 38/80/31 40/81/31 42/82/31 44/83/31 46/84/31 48/85/31 50/86/31 52/87/31 54/88/31 56/89/31 58/90/31 60/91/31 62/92/31 64/93/31 2/94/31
f 61/61/32 63/95/32 64/96/32 62/62/32
f 63/95/33 1/97/33 2/98/33 64/96/33
f 1/99/34 63/100/34 61/101/34 59/102/34 57/103/34 55/104/34 53/105/34 51/106/34 49/107/34 47/108/34 45/109/34 43/110/34 41/111/34 39/112/34 37/113/34 35/114/34 33/115/34 31/116/34 29/117/34 27/118/34 25/119/34 23/120/34 21/121/34 19/122/34 17/123/34 15/124/34 13/125/34 11/126/34 9/127/34 7/128/34 5/129/34 3/130/34
f 65/1/17 66/4/17 68/3/17 67/2/17
f 67/2/18 68/3/18 70/6/18 69/5/18
f 69/131/19 70/132/19 72/133/19 71/134/19
f 71/134/20 72/133/20 74/135/20 73/136/20
f 73/136/21 74/135/21 76/137/21 75/138/21
f 75/138/22 76/137/22 78/139/22 77/140/22
f 77/140/23 78/139/23 80/141/23 79/142/23
f 79/142/24 80/141/24 82/143/24 81/144/24
f 81/144/25 82/143/25 84/145/25 83/146/25
f 83/146/26 84/145/26 86/147/26 85/148/26
f 85/148/27 86/147/27 88/149/27 87/150/27
f 87/150/28 88/149/28 90/151/28 89/152/28
f 89/152/29 90/151/29 92/153/29 91/154/29
f 91/154/30 92/153/30 94/155/30 93/156/30
f 93/156/32 94/155/32 96/157/32 95/158/32
f 95/158/33 96/157/33 98/159/33 97/160/33
f 97/160/1 98/159/1 100/161/1 99/162/1
f 99/162/2 100/161/2 102/163/2 101/164/2
f 101/37/3 102/38/3 104/40/3 103/39/3
f 103/39/4 104/40/4 106/42/4 105/41/4
f 105/41/5 106/42/5 108/44/5 107/43/5
f 107/43/6 108/44/6 110/46/6 109/45/6
f 109/45/7 110/46/7 112/48/7 111/47/7
f 111/47/8 112/48/8 114/50/8 113/49/8
f 113/49/9 114/50/9 116/52/9 115/51/9
f 115/51/10 116/52/10 118/54/10 117/53/10
f 117/53/11 118/54/11 120/56/11 119/55/11
f 119/55/12 120/56/12 122/58/12 121/57/12
f 121/57/13 122/58/13 124/60/13 123/59/13
f 123/59/14 124/60/14 126/62/14 125/61/14
f 68/63/34 66/94/34 128/93/34 126/92/34 124/91/34 122/90/34 120/89/34 118/88/34 116/87/34 114/86/34 112/85/34 110/84/34 108/83/34 106/82/34 104/81/34 102/80/34 100/79/34 98/78/34 96/77/34 94/76/34 92/75/34 90/74/34 88/73/34 86/72/34 84/71/34 82/70/34 80/69/34 78/68/34 76/67/34 74/66/34 72/65/34 70/64/34
f 125/61/15 126/62/15 128/96/15 127/95/15
f 127/95/16 128/96/16 66/98/16 65/97/16
f 65/99/31 67/130/31 69/129/31 71/128/31 73/127/31 75/126/31 77/125/31 79/124/31 81/123/31 83/122/31 85/121/31 87/120/31 89/119/31 91/118/31 93/117/31 95/116/31 97/115/31 99/114/31 101/113/31 103/112/31 105/111/31 107/110/31 109/109/31 111/108/31 113/107/31 115/106/31 117/105/31 119/104/31 121/103/31 123/102/31 125/101/31 127/100/31
o Cylinder.001
v -0.500000 18.621269 -5.000000
v 0.500000 18.621269 -5.000000
v -0.500000 17.645817 -4.903926
v 0.500000 17.645817 -4.903926
v -0.500000 16.707851 -4.619398
v 0.500000 16.707851 -4.619398
v -0.500000 15.843418 -4.157348
v 0.500000 15.843418 -4.157348
v -0.500000 15.085735 -3.535534
v 0.500000 15.085735 -3.535534
v -0.500000 14.463921 -2.777851
v 0.500000 14.463921 -2.777851
v -0.500000 14.001871 -1.913417
v 0.500000 14.001871 -1.913417
v -0.500000 13.717342 -0.975452
v 0.500000 13.717342 -0.975452
v -0.500000 13.621269 0.000000
v 0.500000 13.621269 0.000000
v -0.500000 13.717342 0.975452
v 0.500000 13.717342 0.975452
v -0.500000 14.001871 1.913417
v 0.500000 14.001871 1.913417
v -0.500000 14.463921 2.777851
v 0.500000 14.463921 2.777851
v -0.500000 15.085735 3.535534
v 0.500000 15.085735 3.535534
v -0.500000 15.843418 4.157348
v 0.500000 15.843418 4.157348
v -0.500000 16.707851 4.619398
v 0.500000 16.707851 4.619398
v -0.500000 17.645817 4.903926
v 0.500000 17.645817 4.903926
v -0.500000 18.621269 5.000000
v 0.500000 18.621269 5.000000
v -0.500000 19.596722 4.903926
v 0.500000 19.596722 4.903926
v -0.500000 20.534687 4.619398
v 0.500000 20.534687 4.619398
v -0.500000 21.399120 4.157348
v 0.500000 21.399120 4.157348
v -0.500000 22.156803 3.535534
v 0.500000 22.156803 3.535534
v -0.500000 22.778618 2.777851
v 0.500000 22.778618 2.777851
v -0.500000 23.240667 1.913417
v 0.500000 23.240667 1.913417
v -0.500000 23.525196 0.975452
v 0.500000 23.525196 0.975452
v -0.500000 23.621269 0.000000
v 0.500000 23.621269 0.000000
v -0.500000 23.525196 -0.975452
v 0.500000 23.525196 -0.975452
v -0.500000 23.240667 -1.913417
v 0.500000 23.240667 -1.913417
v -0.500000 22.778618 -2.777851
v 0.500000 22.778618 -2.777851
v -0.500000 22.156803 -3.535534
v 0.500000 22.156803 -3.535534
v -0.500000 21.399120 -4.157348
v 0.500000 21.399120 -4.157348
v -0.500000 20.534687 -4.619398
v 0.500000 20.534687 -4.619398
v -0.500000 19.596722 -4.903926
v 0.500000 19.596722 -4.903926
vn -0.9944 -0.0000 -0.1056
vn 0.9944 -0.0000 -0.1056
vn -0.9944 -0.0206 -0.1035
vn 0.9944 -0.0206 -0.1035
vn -0.9944 -0.0404 -0.0975
vn 0.9944 -0.0404 -0.0975
vn -0.9944 -0.0586 -0.0878
vn 0.9944 -0.0586 -0.0878
vn -0.9944 -0.0746 -0.0746
vn 0.9944 -0.0746 -0.0746
vn -0.9944 -0.0878 -0.0586
vn 0.9944 -0.0878 -0.0586
vn -0.9944 -0.0975 -0.0404
vn 0.9944 -0.0975 -0.0404
vn -0.9944 -0.1035 -0.0206
vn 0.9944 -0.1035 -0.0206
vn -0.9944 -0.1056 -0.0000
vn 0.9944 -0.1056 -0.0000
vn -0.9944 -0.1035 0.0206
vn 0.9944 -0.1035 0.0206
vn -0.9944 -0.0975 0.0404
vn 0.9944 -0.0975 0.0404
vn -0.9944 -0.0878 0.0586
vn 0.9944 -0.0878 0.0586
vn -0.9944 -0.0746 0.0746
vn 0.9944 -0.0746 0.0746
vn -0.9944 -0.0586 0.0878
vn 0.9944 -0.0586 0.0878
vn -0.9944 -0.0404 0.0975
vn 0.9944 -0.0404 0.0975
vn -0.9944 -0.0206 0.1035
vn 0.9944 -0.0206 0.1035
vn -0.9944 -0.0000 0.1056
vn 0.9944 -0.0000 0.1056
vn -0.9944 0.0206 0.1035
vn 0.9944 0.0206 0.1035
vn -0.9944 0.0404 0.0975
vn 0.9944 0.0404 0.0975
vn -0.9944 0.0586 0.0878
vn 0.9944 0.0586 0.0878
vn -0.9944 0.0746 0.0746
vn 0.9944 0.0746 0.0746
vn -0.9944 0.0878 0.0586
vn 0.9944 0.0878 0.0586
vn -0.9944 0.0975 0.0404
vn 0.9944 0.0975 0.0404
vn -0.9944 0.1035 0.0206
vn 0.9944 0.1035 0.0206
vn -0.9944 0.1056 -0.0000
vn 0.9944 0.1056 -0.0000
vn -0.9944 0.1035 -0.0206
vn 0.9944 0.1035 -0.0206
vn -0.9944 0.0975 -0.0404
vn 0.9944 0.0975 -0.0404
vn -0.9944 0.0878 -0.0586
vn 0.9944 0.0878 -0.0586
vn -0.9944 0.0746 -0.0746
vn 0.9944 0.0746 -0.0746
vn -0.9944 0.0586 -0.0878
vn 0.9944 0.0586 -0.0878
vn -0.9944 0.0404 -0.0975
vn 0.9944 0.0404 -0.0975
vn -0.9944 0.0206 -0.1035
vn 0.9944 0.0206 -0.1035
vt 0.838654 0.572307
vt 0.838654 0.975468
vt 0.817624 0.975468
vt 0.817624 0.572307
vt 0.796594 0.975468
vt 0.796594 0.572307
vt 0.775564 0.975468
vt 0.775564 0.572307
vt 0.754534 0.975468
vt 0.754534 0.572307
vt 0.733504 0.975468
vt 0.733504 0.572307
vt 0.712474 0.975468
vt 0.712474 0.572307
vt 0.691444 0.975468
vt 0.691444 0.572307
vt 0.670414 0.975468
vt 0.670414 0.572307
vt 0.649384 0.975468
vt 0.649384 0.572307
vt 0.628354 0.975468
vt 0.628354 0.572307
vt 0.607325 0.975468
vt 0.607325 0.572307
vt 0.586294 0.975468
vt 0.586294 0.572307
vt 0.565264 0.975468
vt 0.565264 0.572307
vt 0.544235 0.975468
vt 0.544235 0.572307
vt 0.523205 0.975468
vt 0.523205 0.572307
vt 0.502175 0.975468
vt 0.502175 0.572307
vt 0.481145 0.975468
vt 0.481145 0.572307
vt 0.460115 0.975468
vt 0.460115 0.572307
vt 0.439085 0.975468
vt 0.439085 0.572307
vt 0.418055 0.975468
vt 0.418055 0.572307
vt 0.397025 0.975468
vt 0.397025 0.572307
vt 0.375995 0.975468
vt 0.375995 0.572307
vt 0.354965 0.975468
vt 0.354965 0.572307
vt 0.333935 0.975468
vt 0.333935 0.572307
vt 0.312905 0.975468
vt 0.312905 0.572307
vt 0.291875 0.975468
vt 0.291875 0.572307
vt 0.270846 0.975468
vt 0.270846 0.572307
vt 0.249816 0.975468
vt 0.249816 0.572307
vt 0.228786 0.975468
vt 0.228786 0.572307
vt 0.207756 0.975468
vt 0.207756 0.572307
vt 0.567083 0.986620
vt 0.499737 0.994567
vt 0.432390 0.986620
vt 0.367631 0.963082
vt 0.307949 0.924860
vt 0.255637 0.873420
vt 0.212706 0.810742
vt 0.180805 0.739232
vt 0.161160 0.661640
vt 0.154527 0.580946
vt 0.161160 0.500253
vt 0.180805 0.422660
vt 0.212706 0.351151
vt 0.255637 0.288472
vt 0.307949 0.237033
vt 0.367631 0.198810
vt 0.432390 0.175273
vt 0.499737 0.167325
vt 0.567083 0.175273
vt 0.631842 0.198810
vt 0.691524 0.237033
vt 0.743836 0.288472
vt 0.786767 0.351151
vt 0.818668 0.422660
vt 0.838312 0.500253
vt 0.844946 0.580946
vt 0.838312 0.661640
vt 0.818668 0.739232
vt 0.786767 0.810742
vt 0.743836 0.873420
vt 0.691524 0.924860
vt 0.631842 0.963082
vt 0.186726 0.975468
vt 0.186726 0.572307
vt 0.165696 0.975468
vt 0.165696 0.572307
vt 0.163219 0.584109
vt 0.169456 0.507273
vt 0.187927 0.433389
vt 0.217922 0.365297
vt 0.258288 0.305613
vt 0.307474 0.256633
vt 0.363591 0.220237
vt 0.424481 0.197824
vt 0.487804 0.190257
vt 0.551127 0.197824
vt 0.612017 0.220237
vt 0.668133 0.256633
vt 0.717320 0.305613
vt 0.757686 0.365297
vt 0.787681 0.433389
vt 0.806152 0.507273
vt 0.812389 0.584109
vt 0.806152 0.660946
vt 0.787681 0.734830
vt 0.757686 0.802922
vt 0.717320 0.862605
vt 0.668133 0.911585
vt 0.612017 0.947982
vt 0.551127 0.970394
vt 0.487804 0.977962
vt 0.424481 0.970394
vt 0.363591 0.947982
vt 0.307474 0.911585
vt 0.258288 0.862605
vt 0.217922 0.802922
vt 0.187927 0.734830
vt 0.169456 0.660946
s 1
usemtl LollipopMat
f 129/165/35 130/166/36 132/167/38 131/168/37
f 131/168/37 132/167/38 134/169/40 133/170/39
f 133/170/39 134/169/40 136/171/42 135/172/41
f 135/172/41 136/171/42 138/173/44 137/174/43
f 137/174/43 138/173/44 140/175/46 139/176/45
f 139/176/45 140/175/46 142/177/48 141/178/47
f 141/178/47 142/177/48 144/179/50 143/180/49
f 143/180/49 144/179/50 146/181/52 145/182/51
f 145/182/51 146/181/52 148/183/54 147/184/53
f 147/184/53 148/183/54 150/185/56 149/186/55
f 149/186/55 150/185/56 152/187/58 151/188/57
f 151/188/57 152/187/58 154/189/60 153/190/59
f 153/190/59 154/189/60 156/191/62 155/192/61
f 155/192/61 156/191/62 158/193/64 157/194/63
f 157/194/63 158/193/64 160/195/66 159/196/65
f 159/196/65 160/195/66 162/197/68 161/198/67
f 161/198/67 162/197/68 164/199/70 163/200/69
f 163/200/69 164/199/70 166/201/72 165/202/71
f 165/202/71 166/201/72 168/203/74 167/204/73
f 167/204/73 168/203/74 170/205/76 169/206/75
f 169/206/75 170/205/76 172/207/78 171/208/77
f 171/208/77 172/207/78 174/209/80 173/210/79
f 173/210/79 174/209/80 176/211/82 175/212/81
f 175/212/81 176/211/82 178/213/84 177/214/83
f 177/214/83 178/213/84 180/215/86 179/216/85
f 179/216/85 180/215/86 182/217/88 181/218/87
f 181/218/87 182/217/88 184/219/90 183/220/89
f 183/220/89 184/219/90 186/221/92 185/222/91
f 185/222/91 186/221/92 188/223/94 187/224/93
f 187/224/93 188/223/94 190/225/96 189/226/95
f 132/227/38 130/228/36 192/229/98 190/230/96 188/231/94 186/232/92 184/233/90 182/234/88 180/235/86 178/236/84 176/237/82 174/238/80 172/239/78 170/240/76 168/241/74 166/242/72 164/243/70 162/244/68 160/245/66 158/246/64 156/247/62 154/248/60 152/249/58 150/250/56 148/251/54 146/252/52 144/253/50 142/254/48 140/255/46 138/256/44 136/257/42 134/258/40
f 189/226/95 190/225/96 192/259/98 191/260/97
f 191/260/97 192/259/98 130/261/36 129/262/35
f 129/263/35 131/264/37 133/265/39 135/266/41 137/267/43 139/268/45 141/269/47 143/270/49 145/271/51 147/272/53 149/273/55 151/274/57 153/275/59 155/276/61 157/277/63 159/278/65 161/279/67 163/280/69 165/281/71 167/282/73 169/283/75 171/284/77 173/285/79 175/286/81 177/287/83 179/288/85 181/289/87 183/290/89 185/291/91 187/292/93 189/293/95 191/294/97
