# Blender 4.3.2
# www.blender.org
mtllib wallet.mtl
o Cube
v 0.804199 -0.168418 -0.760000
v 0.728053 -0.379659 -0.666667
v 0.804199 -0.168418 0.760000
v 0.728053 -0.379659 0.666667
v -0.662220 -0.211463 -0.712645
v -0.662220 -0.355631 -0.712645
v -0.640365 -0.211463 0.708166
v -0.640365 -0.355631 0.708166
v 1.306933 -0.179710 -0.666667
v 1.276240 -0.355631 -0.500000
v 1.306933 -0.179710 0.666667
v 1.276240 -0.355631 0.500000
v 0.731812 0.151906 -0.666667
v 0.731812 0.151906 0.666667
v 1.276240 0.127412 -0.500000
v 1.276240 0.127412 0.500000
v 0.806905 -0.063322 0.760000
v 0.806905 -0.063322 -0.760000
v 1.306933 -0.051768 0.666667
v 1.306933 -0.051768 -0.666667
v -0.741200 0.028259 -0.365158
v -0.724517 0.028208 0.362249
v -0.623450 -0.150352 0.708166
v -0.645305 -0.150352 -0.712644
v -0.609568 -0.371428 -0.000000
v 0.029278 -0.375543 -0.638117
v 0.736212 -0.281533 -0.933611
v -0.749932 -0.283547 0.817733
v 0.736212 -0.281533 0.933611
v -0.771787 -0.283547 -0.822212
v 0.036158 -0.189536 0.648117
v 0.695772 -0.139246 0.000000
v 0.029278 -0.375543 0.638117
v -0.609568 -0.195667 -0.000000
v 0.036158 -0.189536 -0.648117
v 0.728053 -0.415702 0.000000
v 1.301676 -0.279467 -0.638117
v 1.301676 -0.279467 0.638117
v 1.352973 -0.179710 0.000000
v 1.296418 -0.371428 0.000000
v 1.157596 -0.178500 0.933611
v 1.157596 -0.178500 -0.933611
v 1.138515 -0.375543 0.638117
v 1.138515 -0.375543 -0.638117
v 0.731812 0.188647 0.000000
v 1.296418 0.143515 -0.000000
v 1.138984 0.147710 0.638117
v 1.138984 0.147710 -0.638117
v 0.739858 0.051889 0.933611
v 1.008538 -0.116136 -0.686667
v 1.301676 0.049791 0.638117
v 1.301676 0.049791 -0.638117
v 1.008538 -0.116136 0.686667
v 0.739858 0.051889 -0.933611
v 1.306933 -0.116089 0.666667
v 1.306933 -0.116089 -0.666667
v 1.157875 -0.053006 -0.933611
v 1.352974 -0.051768 0.000000
v 1.157875 -0.053006 0.933611
v 0.699306 -0.093026 0.000000
v -0.698904 0.037069 -0.001733
v -0.731783 -0.076871 0.817733
v -0.753638 -0.076871 -0.822212
v -0.591418 -0.166455 0.000000
v -0.191417 0.081558 -0.336991
v -0.191406 0.081530 0.336054
v 0.047078 -0.087503 -0.648117
v 0.047078 -0.087503 0.648117
v 0.017439 -0.155384 0.000000
v 0.020515 -0.283084 0.880587
v -0.839506 -0.283547 -0.000000
v 0.018476 -0.410139 -0.000000
v -0.200477 0.112728 -0.000344
v 0.020515 -0.283084 -0.880587
v 1.345868 -0.281024 -0.000000
v 1.143538 -0.281500 0.913765
v 1.143538 -0.281500 -0.913765
v 1.140504 -0.410139 -0.000000
v 1.140974 0.182977 0.000000
v 1.143980 0.051862 0.913766
v 1.345869 0.051378 -0.000000
v 1.143980 0.051862 -0.913765
v 1.174400 -0.116096 -0.921667
v 1.352973 -0.116089 0.000000
v 1.174401 -0.116096 0.921667
v 0.940585 -0.116180 0.000000
v -0.818764 -0.076871 0.000000
v 0.031642 0.007848 -0.880587
v 0.031642 0.007848 0.880587
v 0.028537 -0.122312 -0.000000
v -0.645305 -0.003390 -0.712644
v -0.591418 0.012712 -0.000000
v -0.623450 -0.003390 0.708165
v 0.040311 0.102098 -0.638117
v 0.040311 0.102098 0.638117
v 0.029630 0.137364 -0.000000
v -0.717235 0.141142 -0.001520
v -0.218808 0.216801 -0.000131
v -0.557796 0.166646 -0.116241
v -0.550747 0.166346 0.114300
v -0.392651 0.172193 -0.110311
v -0.392650 0.172292 0.108827
v -0.827501 -0.079652 -0.360415
v -0.836286 -0.080324 0.003010
v -0.827451 -0.079648 0.366992
v -0.931271 -0.087593 -0.360202
v -0.940055 -0.088265 0.003223
v -0.931221 -0.087589 0.367205
v -0.789403 -0.307964 -0.375828
v -0.798187 -0.308636 -0.012403
v -0.789353 -0.307960 0.351579
v -0.893172 -0.315905 -0.375615
v -0.901957 -0.316577 -0.012190
v -0.893122 -0.315901 0.351792
v -0.551950 -0.383464 -0.371331
v -0.552300 -0.392267 -0.007905
v -0.551948 -0.396185 0.356076
v -0.556089 -0.487454 -0.371118
v -0.556439 -0.496257 -0.007693
v -0.556087 -0.487404 0.356289
v -0.901957 -0.316577 -0.012190
v -0.893122 -0.315901 0.351792
v -0.556439 -0.496257 -0.007693
v -0.551950 -0.383464 -0.371331
v -0.552300 -0.392267 -0.007905
v -0.556089 -0.487454 -0.371118
v -0.556087 -0.487404 0.356289
v -0.148979 -0.414339 -0.007905
v -0.148626 -0.405485 0.356076
v -0.153117 -0.518329 -0.007693
v -0.152765 -0.509476 0.356289
v -0.148628 -0.405536 -0.371331
v -0.148979 -0.414339 -0.007905
v -0.152767 -0.509526 -0.371118
v -0.153117 -0.518329 -0.007693
v -0.759532 0.132332 -0.364945
v -0.537192 0.162317 -0.004190
v -0.742848 0.132281 0.362462
v -0.209748 0.185631 -0.336778
v -0.209737 0.185603 0.336267
v -0.397977 0.194678 -0.000554
v -0.552816 0.227197 -0.004039
v -0.413601 0.227197 -0.000404
v -0.573420 0.227197 -0.116091
v -0.566371 0.227197 0.114450
v -0.408275 0.227197 -0.110160
v -0.408275 0.227197 0.108978
vn -0.0294 0.9984 -0.0476
vn -0.0451 0.9983 -0.0355
vn -0.0460 0.9983 0.0364
vn -0.0294 0.9984 0.0476
vn -0.0219 -0.9364 0.3503
vn -0.0628 0.8946 0.4424
vn -0.0148 0.9020 0.4314
vn -0.0102 -0.9072 0.4206
vn -0.4193 -0.9075 0.0255
vn -0.4193 0.9075 0.0255
vn -0.4226 0.9062 -0.0135
vn -0.4226 -0.9062 -0.0135
vn -0.0423 -0.9985 -0.0359
vn -0.0080 -0.9985 -0.0541
vn -0.0080 -0.9985 0.0541
vn -0.0431 -0.9984 0.0367
vn -0.0734 0.9958 0.0556
vn -0.0734 0.9958 -0.0556
vn 0.0501 0.0109 -0.9987
vn 0.9848 0.1734 0.0104
vn -0.0073 -0.9068 -0.4214
vn -0.0118 0.9016 -0.4323
vn -0.0628 0.8946 -0.4424
vn -0.0219 -0.9364 -0.3503
vn 0.8919 -0.4485 -0.0573
vn 0.9951 -0.0710 -0.0689
vn 0.9951 -0.0710 0.0689
vn 0.8919 -0.4485 0.0573
vn -0.1492 0.6102 0.7781
vn 0.0245 -0.9425 0.3332
vn 0.4837 -0.8214 0.3023
vn 0.8532 -0.1966 0.4832
vn 0.0245 -0.9425 -0.3332
vn -0.1492 0.6102 -0.7781
vn 0.8532 -0.1966 -0.4832
vn 0.4837 -0.8214 -0.3023
vn 0.0136 -0.9984 0.0541
vn 0.0136 -0.9984 -0.0541
vn 0.2170 -0.9750 -0.0474
vn 0.2170 -0.9750 0.0474
vn 0.0140 0.9984 -0.0551
vn 0.0140 0.9984 0.0551
vn 0.2216 0.9739 0.0483
vn 0.2216 0.9739 -0.0483
vn -0.1513 -0.6029 0.7833
vn 0.8544 0.1924 0.4827
vn 0.4910 0.8157 0.3059
vn 0.0251 0.9405 0.3389
vn 0.9952 0.0697 0.0689
vn 0.9952 0.0697 -0.0689
vn 0.8953 0.4417 -0.0575
vn 0.8953 0.4417 0.0575
vn 0.8544 0.1924 -0.4827
vn -0.1513 -0.6029 -0.7833
vn 0.0251 0.9405 -0.3389
vn 0.4910 0.8157 -0.3059
vn 0.8775 -0.0721 -0.4741
vn -0.2966 0.8680 -0.3982
vn -0.3014 -0.8640 -0.4032
vn 0.8779 0.0694 -0.4738
vn 0.9976 -0.0000 0.0689
vn 0.9976 -0.0000 -0.0689
vn -0.2966 0.8680 0.3982
vn 0.8775 -0.0721 0.4741
vn 0.8779 0.0694 0.4738
vn -0.3014 -0.8640 0.4032
vn -0.1591 0.9865 -0.0393
vn -0.1591 0.9865 0.0393
vn -0.1625 -0.9859 0.0400
vn -0.1625 -0.9859 -0.0400
vn -0.4336 -0.9010 -0.0126
vn -0.4302 -0.9024 0.0250
vn -0.4302 0.9024 0.0250
vn -0.4336 0.9010 -0.0126
vn -0.0831 0.9312 -0.3550
vn -0.0102 -0.8886 -0.4587
vn 0.0898 -0.8798 -0.4668
vn -0.1135 0.9111 -0.3964
vn -0.0102 -0.8886 0.4587
vn -0.0831 0.9312 0.3550
vn -0.1194 0.9111 0.3944
vn 0.0896 -0.8798 0.4667
vn 0.0340 -0.9985 -0.0427
vn 0.0340 -0.9985 0.0427
vn 0.0843 -0.9957 0.0382
vn 0.0831 -0.9958 -0.0394
vn -0.2005 -0.9788 0.0406
vn -0.2060 -0.9780 -0.0338
vn -0.1207 0.9896 -0.0779
vn -0.1247 0.9889 0.0809
vn -0.1423 0.9873 -0.0702
vn -0.1426 0.9873 0.0702
vn 0.0357 0.0123 -0.9993
vn 0.9417 0.3362 0.0113
vn 0.7089 -0.7049 -0.0248
vn 0.9848 0.1735 -0.0105
vn 0.0484 0.0065 0.9988
vn -0.7509 0.6599 0.0272
vn -0.0071 0.0662 -0.9978
vn 0.0071 -0.0662 0.9978
vn -0.0162 -0.0162 -0.9997
vn -0.7377 0.6750 -0.0094
vn 0.0155 0.0152 0.9998
vn 0.6840 -0.7294 0.0076
vn 0.3350 0.9422 -0.0000
vn -0.0000 1.0000 -0.0000
vn -0.9863 -0.1630 -0.0241
vn 0.9863 0.1630 0.0241
vn -0.9858 -0.1661 0.0242
vn 0.9858 0.1661 -0.0242
vn -0.0001 -0.0020 -1.0000
vn -0.0092 0.0143 0.9999
vn 0.0099 -0.0134 -0.9999
vn -0.4573 -0.8892 -0.0173
vn 0.3124 0.9498 0.0163
vn -0.4576 -0.8890 0.0174
vn 0.0001 0.0020 1.0000
vn 0.9992 -0.0398 -0.0000
vn 0.0546 0.9982 0.0242
vn -0.0546 -0.9982 0.0243
vn 0.0389 0.9992 -0.0068
vn 0.0001 0.0022 1.0000
vn -0.0546 -0.9982 -0.0242
vn -0.1505 0.9886 0.0106
vn -0.1482 0.9889 -0.0021
vn -0.0800 0.9960 -0.0406
vn -0.0835 0.9956 0.0418
vn -0.1728 0.9772 -0.1230
vn -0.1731 0.9772 0.1231
vn -0.9559 -0.2386 0.1712
vn 0.9416 0.3366 -0.0114
vn 0.0345 0.0067 0.9994
vn -0.9650 -0.2396 -0.1063
vt 0.633073 0.447160
vt 0.613489 0.581523
vt 0.499979 0.584289
vt 0.499968 0.465657
vt 0.624801 0.703738
vt 0.499983 0.694317
vt 0.375942 0.699923
vt 0.386450 0.581523
vt 0.366841 0.447160
vt 0.049693 0.278172
vt 0.003124 0.278577
vt 0.012360 0.153455
vt 0.054655 0.155950
vt 0.336402 0.460684
vt 0.345706 0.585624
vt 0.356733 0.720103
vt 0.023316 0.018750
vt 0.042379 0.038655
vt 0.166530 0.003124
vt 0.166381 0.044233
vt 0.499963 0.735738
vt 0.643974 0.723918
vt 0.310539 0.015000
vt 0.291222 0.034896
vt 0.278178 0.156006
vt 0.166351 0.154445
vt 0.283217 0.278230
vt 0.166388 0.278572
vt 0.383186 0.101070
vt 0.499967 0.101008
vt 0.499466 0.224316
vt 0.387694 0.222513
vt 0.616721 0.102022
vt 0.611228 0.223424
vt 0.327107 0.397355
vt 0.251062 0.457243
vt 0.238520 0.443631
vt 0.314565 0.383742
vt 0.305372 0.587592
vt 0.299837 0.528622
vt 0.318205 0.528748
vt 0.323740 0.587719
vt 0.320817 0.153532
vt 0.654180 0.585624
vt 0.663451 0.460684
vt 0.330154 0.278658
vt 0.090080 0.635468
vt 0.076931 0.659815
vt 0.077825 0.548437
vt 0.093202 0.548098
vt 0.059517 0.664846
vt 0.060165 0.548484
vt 0.060000 0.431489
vt 0.077393 0.436451
vt 0.090442 0.460450
vt 0.764707 0.528571
vt 0.784436 0.516245
vt 0.784436 0.587631
vt 0.766386 0.590045
vt 0.054728 0.349900
vt 0.006627 0.349798
vt 0.078965 0.373782
vt 0.054919 0.377439
vt 0.058566 0.383742
vt 0.076452 0.387121
vt 0.326706 0.349877
vt 0.278252 0.349955
vt 0.215986 0.733256
vt 0.195938 0.721027
vt 0.197975 0.659446
vt 0.215986 0.661879
vt 0.075790 0.706971
vt 0.057889 0.710540
vt 0.278442 0.377495
vt 0.254108 0.373826
vt 0.166426 0.350632
vt 0.166508 0.377495
vt 0.500246 0.029677
vt 0.611999 0.030996
vt 0.388465 0.030085
vt 0.412744 0.006525
vt 0.500339 0.003124
vt 0.587895 0.007239
vt 0.189691 0.671611
vt 0.187788 0.732659
vt 0.169430 0.730270
vt 0.169430 0.659446
vt 0.036615 0.383742
vt 0.037619 0.431487
vt 0.019797 0.436446
vt 0.018141 0.387119
vt 0.340156 0.030421
vt 0.388544 0.003124
vt 0.336402 0.100940
vt 0.037784 0.548482
vt 0.019678 0.548432
vt 0.037136 0.664844
vt 0.019334 0.659810
vt 0.005581 0.635461
vt 0.003124 0.548090
vt 0.005943 0.460443
vt 0.035939 0.710540
vt 0.017479 0.706969
vt 0.322305 0.665033
vt 0.323850 0.726190
vt 0.303909 0.738242
vt 0.303909 0.667426
vt 0.660250 0.031725
vt 0.663448 0.102273
vt 0.612078 0.004035
vt 0.047125 0.708564
vt 0.048387 0.664845
vt 0.663470 0.385626
vt 0.620238 0.410729
vt 0.661395 0.381779
vt 0.994518 0.352032
vt 0.953341 0.323031
vt 0.966262 0.287232
vt 0.996726 0.348493
vt 0.049036 0.548483
vt 0.048871 0.431488
vt 0.336421 0.385626
vt 0.338531 0.381779
vt 0.379695 0.410729
vt 0.047793 0.385947
vt 0.712812 0.323031
vt 0.671672 0.352032
vt 0.669696 0.348493
vt 0.700045 0.287232
vt 0.499969 0.422590
vt 0.833069 0.311150
vt 0.833086 0.268724
vt 0.957646 0.034210
vt 0.832807 0.043798
vt 0.832949 0.003124
vt 0.976961 0.014511
vt 0.708803 0.038031
vt 0.689739 0.018332
vt 0.498809 0.375531
vt 0.355642 0.359766
vt 0.374933 0.339860
vt 0.498996 0.334539
vt 0.642865 0.364751
vt 0.623774 0.344689
vt 0.653659 0.226491
vt 0.996876 0.274322
vt 0.946538 0.154625
vt 0.987429 0.150945
vt 0.669846 0.274322
vt 0.678972 0.150944
vt 0.719511 0.154625
vt 0.345187 0.225234
vt 0.832957 0.151742
vt 0.692461 0.640996
vt 0.682379 0.577746
vt 0.696794 0.516245
vt 0.711503 0.640499
vt 0.690869 0.704895
vt 0.711503 0.764682
vt 0.562857 0.360714
vt 0.558319 0.263955
vt 0.440435 0.263473
vt 0.435462 0.357284
vt 0.499360 0.264840
vt 0.222676 0.739503
vt 0.222676 0.768455
vt 0.211984 0.770831
vt 0.212955 0.741913
vt 0.199910 0.758743
vt 0.195938 0.739503
vt 0.205698 0.739622
vt 0.205737 0.758868
vt 0.292383 0.530006
vt 0.293590 0.593318
vt 0.274271 0.595143
vt 0.274271 0.531476
vt 0.299837 0.646417
vt 0.318205 0.646543
vt 0.201976 0.615359
vt 0.203148 0.521471
vt 0.221587 0.523085
vt 0.220415 0.616973
vt 0.164093 0.472971
vt 0.227746 0.480482
vt 0.226857 0.513680
vt 0.163202 0.515223
vt 0.233994 0.492280
vt 0.248543 0.481301
vt 0.275733 0.511395
vt 0.261184 0.522374
vt 0.184727 0.634972
vt 0.184921 0.653198
vt 0.144492 0.649992
vt 0.144298 0.631765
vt 0.100338 0.477572
vt 0.099450 0.513672
vt 0.674044 0.706677
vt 0.669718 0.643058
vt 0.781683 0.445434
vt 0.780120 0.509186
vt 0.739977 0.509998
vt 0.739992 0.446244
vt 0.329988 0.528622
vt 0.758459 0.580014
vt 0.758262 0.643636
vt 0.717750 0.646361
vt 0.717948 0.582739
vt 0.233994 0.592288
vt 0.233994 0.528622
vt 0.758262 0.516245
vt 0.717750 0.518970
vt 0.274351 0.658786
vt 0.234074 0.655931
vt 0.071636 0.717061
vt 0.089862 0.716787
vt 0.089862 0.787532
vt 0.071636 0.787806
vt 0.109440 0.593810
vt 0.125294 0.591698
vt 0.317886 0.500071
vt 0.327107 0.515794
vt 0.717750 0.792774
vt 0.718170 0.729103
vt 0.778885 0.729116
vt 0.780024 0.792774
vt 0.780151 0.381779
vt 0.739813 0.382587
vt 0.004691 0.780533
vt 0.003124 0.716787
vt 0.065388 0.717844
vt 0.065388 0.781576
vt 0.787655 0.651844
vt 0.805882 0.652114
vt 0.805882 0.722856
vt 0.787655 0.722585
vt 0.123844 0.800191
vt 0.123844 0.736474
vt 0.141996 0.736813
vt 0.141996 0.800529
vt 0.117597 0.736474
vt 0.117597 0.800104
vt 0.099450 0.800644
vt 0.099450 0.737014
vt 0.781408 0.722680
vt 0.717750 0.722856
vt 0.717750 0.652784
vt 0.781408 0.652608
vt 0.099450 0.659446
vt 0.163182 0.659478
vt 0.163182 0.730226
vt 0.099450 0.730194
vt 0.669718 0.509998
vt 0.669920 0.446248
vt 0.786271 0.729377
vt 0.804497 0.729104
vt 0.804497 0.799849
vt 0.786271 0.800122
vt 0.099450 0.523777
vt 0.117532 0.521471
vt 0.233994 0.665060
vt 0.297661 0.665033
vt 0.297661 0.735781
vt 0.233994 0.735808
vt 0.164561 0.441236
vt 0.184189 0.444769
vt 0.143809 0.443543
vt 0.183148 0.415863
vt 0.222813 0.383742
vt 0.144765 0.415862
vt 0.104928 0.383742
vt 0.163930 0.416464
vt 0.163858 0.384868
vt 0.188176 0.758198
vt 0.189691 0.777385
vt 0.160911 0.779305
vt 0.163908 0.759578
vt 0.188522 0.739020
vt 0.160911 0.738907
vt 0.775647 0.596342
vt 0.777000 0.616030
vt 0.765317 0.615978
vt 0.764707 0.596292
vt 0.195938 0.777857
vt 0.205681 0.777975
vt 0.336402 0.769706
vt 0.336402 0.741985
vt 0.346115 0.744359
vt 0.347155 0.772041
vt 0.775699 0.636737
vt 0.764707 0.636687
s 0
usemtl Material.001
f 1/1/1 35/2/1 69/3/1 32/4/1
f 35/2/2 5/5/2 34/6/2 69/3/2
f 69/3/3 34/6/3 7/7/3 31/8/3
f 32/4/4 69/3/4 31/8/4 3/9/4
f 4/10/5 29/11/5 70/12/5 33/13/5
f 29/14/6 3/9/6 31/8/6 70/15/6
f 70/15/7 31/8/7 7/7/7 28/16/7
f 33/13/8 70/12/8 28/17/8 8/18/8
f 8/18/9 28/17/9 71/19/9 25/20/9
f 28/16/10 7/7/10 34/6/10 71/21/10
f 71/21/11 34/6/11 5/5/11 30/22/11
f 25/20/12 71/19/12 30/23/12 6/24/12
f 6/24/13 26/25/13 72/26/13 25/20/13
f 26/25/14 2/27/14 36/28/14 72/26/14
f 72/26/15 36/28/15 4/10/15 33/13/15
f 25/20/16 72/26/16 33/13/16 8/18/16
f 14/29/17 45/30/17 96/31/17 95/32/17
f 45/30/18 13/33/18 94/34/18 96/31/18
f 6/24/21 30/23/21 74/43/21 26/25/21
f 30/22/22 5/5/22 35/2/22 74/44/22
f 74/44/23 35/2/23 1/1/23 27/45/23
f 26/25/24 74/43/24 27/46/24 2/27/24
f 10/47/25 37/48/25 75/49/25 40/50/25
f 37/48/26 9/51/26 39/52/26 75/49/26
f 75/49/27 39/52/27 11/53/27 38/54/27
f 40/50/28 75/49/28 38/54/28 12/55/28
f 3/56/29 29/57/29 76/58/29 41/59/29
f 29/11/30 4/10/30 43/60/30 76/61/30
f 76/61/31 43/60/31 12/62/31 38/63/31
f 41/64/32 76/65/32 38/54/32 11/53/32
f 2/27/33 27/46/33 77/66/33 44/67/33
f 27/68/34 1/69/34 42/70/34 77/71/34
f 77/72/35 42/73/35 9/51/35 37/48/35
f 44/67/36 77/66/36 37/74/36 10/75/36
f 4/10/37 36/28/37 78/76/37 43/60/37
f 36/28/38 2/27/38 44/67/38 78/76/38
f 78/76/39 44/67/39 10/75/39 40/77/39
f 43/60/40 78/76/40 40/77/40 12/62/40
f 13/33/41 45/30/41 79/78/41 48/79/41
f 45/30/42 14/29/42 47/80/42 79/78/42
f 79/78/43 47/80/43 16/81/43 46/82/43
f 48/79/44 79/78/44 46/82/44 15/83/44
f 17/84/45 59/85/45 80/86/45 49/87/45
f 59/88/46 19/89/46 51/90/46 80/91/46
f 80/92/47 51/93/47 16/81/47 47/80/47
f 49/94/48 80/92/48 47/80/48 14/29/48
f 19/89/49 58/95/49 81/96/49 51/90/49
f 58/95/50 20/97/50 52/98/50 81/96/50
f 81/96/51 52/98/51 15/99/51 46/100/51
f 51/90/52 81/96/52 46/100/52 16/101/52
f 20/97/53 57/102/53 82/103/53 52/98/53
f 57/104/54 18/105/54 54/106/54 82/107/54
f 82/108/55 54/109/55 13/33/55 48/79/55
f 52/110/56 82/108/56 48/79/56 15/83/56
f 9/51/57 42/73/57 83/111/57 56/112/57
f 42/113/58 1/1/58 50/114/58 83/115/58
f 83/116/59 50/117/59 18/118/59 57/119/59
f 56/112/60 83/111/60 57/102/60 20/97/60
f 11/53/61 39/52/61 84/120/61 55/121/61
f 39/52/62 9/51/62 56/112/62 84/120/62
f 84/120/62 56/112/62 20/97/62 58/95/62
f 55/121/61 84/120/61 58/95/61 19/89/61
f 3/9/63 41/122/63 85/123/63 53/124/63
f 41/64/64 11/53/64 55/121/64 85/125/64
f 85/125/65 55/121/65 19/89/65 59/88/65
f 53/126/66 85/127/66 59/128/66 17/129/66
f 1/1/67 32/4/67 86/130/67 50/114/67
f 32/4/68 3/9/68 53/124/68 86/130/68
f 86/131/69 53/126/69 17/129/69 60/132/69
f 50/117/70 86/131/70 60/132/70 18/118/70
f 24/133/71 64/134/71 87/135/71 63/136/71
f 64/134/72 23/137/72 62/138/72 87/135/72
f 87/139/73 62/140/73 93/141/73 92/142/73
f 63/143/74 87/139/74 92/142/74 91/144/74
f 13/33/75 54/109/75 88/145/75 94/34/75
f 54/146/76 18/118/76 67/147/76 88/148/76
f 88/148/77 67/147/77 24/133/77 63/136/77
f 94/34/78 88/145/78 63/143/78 91/144/78
f 17/129/79 49/149/79 89/150/79 68/151/79
f 49/94/80 14/29/80 95/32/80 89/152/80
f 89/152/81 95/32/81 93/141/81 62/140/81
f 68/151/82 89/150/82 62/138/82 23/137/82
f 18/118/83 60/132/83 90/153/83 67/147/83
f 60/132/84 17/129/84 68/151/84 90/153/84
f 90/153/85 68/151/85 23/137/85 64/134/85
f 67/147/86 90/153/86 64/134/86 24/133/86
f 61/154/87 21/155/87 91/156/87 92/157/87
f 22/158/88 61/154/88 92/157/88 93/159/88
f 21/160/89 65/161/89 94/34/89 91/144/89
f 66/162/90 22/163/90 93/141/90 95/32/90
f 65/161/91 73/164/91 96/31/91 94/34/91
f 73/164/92 66/162/92 95/32/92 96/31/92
f 21/173/95 61/174/95 104/175/95 103/176/95
f 61/154/104 22/158/104 105/197/104 104/198/104
f 119/203/106 118/203/106 126/203/106 123/203/106
f 103/176/108 104/175/108 110/208/108 109/209/108
f 104/175/110 105/212/110 111/213/110 110/208/110
f 109/226/115 110/199/115 116/202/115 115/227/115
f 115/203/106 116/203/106 125/203/106 124/203/106
f 118/203/106 115/203/106 124/203/106 126/203/106
f 124/244/119 125/245/119 133/246/119 132/247/119
usemtl Material.002
f 101/165/93 99/166/93 144/167/93 146/168/93
f 141/169/94 101/170/94 146/171/94 143/172/94
f 143/273/106 146/274/106 144/275/106 142/276/106
f 147/277/106 143/273/106 142/276/106 145/278/106
f 99/279/130 137/280/130 142/281/130 144/282/130
f 102/283/131 141/169/131 143/172/131 147/284/131
f 100/285/132 102/286/132 147/287/132 145/288/132
f 137/280/133 100/289/133 145/290/133 142/281/133
usemtl Material.003
f 65/35/19 21/36/19 136/37/19 139/38/19
f 73/39/20 65/40/20 139/41/20 98/42/20
f 66/177/96 73/39/96 98/42/96 140/178/96
f 22/179/97 66/180/97 140/181/97 138/182/97
f 97/183/98 136/184/98 106/185/98 107/186/98
f 106/187/99 103/188/99 109/189/99 112/190/99
f 105/191/100 108/192/100 114/193/100 111/194/100
f 136/37/101 21/36/101 103/188/101 106/187/101
f 138/195/102 97/183/102 107/186/102 108/196/102
f 22/179/103 138/182/103 108/192/103 105/191/103
f 110/199/105 111/200/105 117/201/105 116/202/105
f 107/204/107 106/205/107 112/206/107 113/207/107
f 108/210/109 107/204/109 113/207/109 114/211/109
f 114/203/106 113/203/106 121/203/106 122/203/106
f 119/214/111 116/215/111 128/216/111 130/217/111
f 111/194/112 114/193/112 120/218/112 117/219/112
f 112/190/113 109/189/113 115/220/113 118/221/113
f 113/222/114 112/223/114 118/224/114 119/225/114
f 122/228/116 121/229/116 123/230/116 127/231/116
f 125/232/117 123/233/117 135/234/117 133/235/117
f 120/203/106 114/203/106 122/203/106 127/203/106
f 116/203/106 119/203/106 123/203/106 125/203/106
f 119/203/106 120/203/106 127/203/106 123/203/106
f 113/203/106 119/203/106 123/203/106 121/203/106
f 128/236/118 129/237/118 131/238/118 130/239/118
f 132/240/118 133/241/118 135/242/118 134/243/118
f 120/248/120 119/249/120 130/250/120 131/251/120
f 116/202/121 117/201/121 129/252/121 128/253/121
f 126/254/111 124/255/111 132/256/111 134/257/111
f 117/219/122 120/218/122 131/258/122 129/259/122
f 123/260/123 126/261/123 134/262/123 135/263/123
f 137/264/124 99/265/124 136/184/124 97/183/124
f 100/266/125 137/264/125 97/183/125 138/195/125
f 99/265/126 101/267/126 139/268/126 136/184/126
f 102/269/127 100/266/127 138/195/127 140/270/127
f 101/267/128 141/271/128 98/272/128 139/268/128
f 141/271/129 102/269/129 140/270/129 98/272/129
