# Blender 4.2.2 LTS
# www.blender.org
mtllib Shoe.mtl
o Shoe
v 2.099489 -0.713434 -0.699888
v 1.765002 0.789814 -0.705670
v 2.099488 -0.713434 0.699888
v 1.765002 0.789814 0.705670
v -0.834446 -0.901464 -0.933184
v -0.019347 0.789737 -0.706567
v -0.019347 0.789737 0.706567
v -0.834447 -0.901464 0.933184
v -2.525239 -0.873660 -0.699888
v -2.525239 -0.130022 -0.699888
v -2.525239 -0.130022 0.699888
v -2.525239 -0.873660 0.699888
v 1.982614 0.469592 -0.864435
v 1.982614 0.469592 0.864435
v -0.663960 0.478866 1.015888
v -0.663959 0.478866 -1.015888
v 2.133211 -0.191228 -0.888755
v 2.321800 -0.823001 0.000000
v 2.338010 0.469726 0.000000
v 2.133211 -0.191228 0.888755
v -0.844900 -0.264159 -1.303960
v -0.844900 -0.264159 1.303960
v -0.862846 0.629135 -0.000000
v -2.620513 -0.522908 -0.853258
v -2.620513 -0.522908 0.853258
v -2.620513 -0.963051 -0.000000
v -2.620513 -0.082764 -0.000000
v -2.011090 0.135844 -0.905321
v -2.011090 0.135844 0.905321
v -1.987141 -0.925581 0.893221
v -1.987141 -0.925581 -0.893221
v 0.773620 0.471868 -1.213311
v 0.773620 0.471868 1.213311
v 0.727985 -0.854221 0.893221
v 0.727985 -0.854221 -0.893221
v 2.064986 0.789865 0.000000
v -0.318286 0.789802 -0.000000
v 0.803503 0.789767 -0.971050
v 0.803503 0.789767 0.971050
v 1.808083 0.750465 -0.790390
v 1.808083 0.750465 0.790390
v -0.061084 0.758320 0.804661
v -0.061084 0.758320 -0.804662
v 2.602061 -0.202189 0.000000
v -2.055744 0.321285 -0.000000
v -2.820454 -0.567118 -0.000000
v -1.999147 -0.400287 1.232149
v -1.999147 -0.400287 -1.232149
v 0.757820 -0.212527 1.273687
v 0.757820 -0.212527 -1.273687
v 2.119079 0.750465 0.000000
v -0.374881 0.768563 -0.000000
v 0.797416 0.751416 -1.090355
v 0.797416 0.751416 1.090354
v 1.621400 0.977961 -0.638167
v 1.892951 0.977873 0.000000
v 1.621400 0.977961 0.638167
v 0.067356 0.978096 0.638840
v -0.203344 0.977982 -0.000000
v 0.067356 0.978096 -0.638840
v 0.808550 0.978043 -0.878045
v 0.808550 0.978043 0.878045
v 1.664215 0.942043 -0.715033
v 1.664215 0.942043 0.715033
v 0.026312 0.949149 0.727944
v 0.026312 0.949149 -0.727944
v 1.944825 0.942043 0.000000
v -0.257566 0.958416 -0.000000
v 0.802962 0.942904 -0.986398
v 0.802961 0.942904 0.986398
v 1.822865 -0.979672 0.699888
v 2.045175 -1.089239 0.000000
v 1.822865 -0.979672 -0.699888
v -0.834122 -1.167702 -0.933184
v -0.834122 -1.401679 -0.000000
v -0.834122 -1.167702 0.933184
v -2.524915 -1.139898 -0.699888
v -2.620188 -1.229289 -0.000000
v -2.524915 -1.139898 0.699888
v -1.986816 -1.191819 0.893221
v -1.986816 -1.191819 -0.893221
v 0.728309 -1.120459 0.893221
v 0.728310 -1.120459 -0.893221
v -1.996209 -1.388097 -0.000000
v 0.750227 -1.358426 0.000000
vn 0.6502 -0.4886 -0.5818
vn -0.6135 -0.6285 0.4781
vn 0.6502 -0.4886 0.5818
vn -0.6135 -0.6285 -0.4781
vn 0.0059 -0.2758 -0.9612
vn 0.6673 -0.5033 0.5490
vn 0.6673 -0.5033 -0.5490
vn 0.0059 -0.2758 0.9612
vn -0.8047 -0.2867 -0.5200
vn -0.7283 0.5759 -0.3713
vn -0.7283 0.5759 0.3713
vn -0.8047 -0.2867 0.5200
vn 0.6672 0.3841 -0.6381
vn 0.6672 0.3841 0.6381
vn -0.2318 0.7656 0.6001
vn -0.2318 0.7656 -0.6001
vn 0.7124 -0.0795 -0.6972
vn 0.8527 -0.5225 -0.0000
vn 0.9023 0.4311 -0.0000
vn 0.7124 -0.0795 0.6972
vn -0.0557 -0.0780 -0.9954
vn -0.0557 -0.0780 0.9954
vn -0.2871 0.9579 -0.0000
vn -0.8556 -0.0375 -0.5163
vn -0.8556 -0.0375 0.5163
vn -0.9822 -0.1880 -0.0000
vn -0.8025 0.5966 -0.0000
vn -0.3970 0.7632 -0.5098
vn -0.3970 0.7632 0.5098
vn -0.1993 -0.2713 0.9416
vn -0.1993 -0.2713 -0.9416
vn 0.0737 0.3604 -0.9299
vn 0.0737 0.3604 0.9299
vn 0.1109 -0.2708 0.9562
vn 0.1109 -0.2708 -0.9562
vn -0.7376 -0.6752 -0.0000
vn 0.8531 -0.5218 -0.0000
vn 0.0214 -0.4598 0.8877
vn 0.0214 -0.4598 -0.8877
vn 0.5786 0.5738 -0.5796
vn 0.5786 0.5738 0.5796
vn -0.4337 0.6923 0.5767
vn -0.4337 0.6923 -0.5767
vn 0.9999 -0.0137 -0.0000
vn -0.4095 0.9123 -0.0000
vn -0.9992 -0.0402 -0.0000
vn -0.3035 -0.0264 0.9525
vn -0.3035 -0.0264 -0.9525
vn 0.1215 -0.1660 0.9786
vn 0.1215 -0.1660 -0.9786
vn 0.7776 0.6287 -0.0000
vn -0.5533 0.8330 -0.0000
vn 0.0237 0.5066 -0.8618
vn 0.0237 0.5066 0.8618
vn -0.1658 0.8785 0.4481
vn -0.6662 0.7458 -0.0000
vn -0.1658 0.8785 -0.4481
vn 0.3376 0.8503 -0.4038
vn 0.6400 0.7684 -0.0000
vn 0.3376 0.8503 0.4038
vn 0.0274 0.8762 0.4812
vn 0.0274 0.8762 -0.4812
vn 0.4371 0.7597 -0.4813
vn 0.4371 0.7597 0.4813
vn -0.4557 0.7570 0.4683
vn -0.4557 0.7570 -0.4683
vn 0.6615 0.7499 -0.0000
vn -0.7066 0.7076 -0.0000
vn -0.0025 0.7822 -0.6230
vn -0.0025 0.7822 0.6230
vn 0.3576 -0.6968 0.6218
vn 0.5202 -0.8541 -0.0000
vn 0.3576 -0.6968 -0.6218
vn 0.0088 -0.7039 -0.7102
vn 0.0162 -0.9999 -0.0000
vn 0.0088 -0.7039 0.7102
vn -0.7366 -0.4905 -0.4656
vn -0.8203 -0.5720 -0.0000
vn -0.7366 -0.4905 0.4656
vn -0.1717 -0.7059 0.6872
vn -0.1717 -0.7059 -0.6872
vn 0.1225 -0.7101 0.6933
vn 0.1225 -0.7101 -0.6933
vn -0.1049 -0.9945 -0.0000
vn 0.1111 -0.9938 -0.0000
vt 0.527310 0.172063
vt 0.471820 0.165821
vt 0.467818 0.105722
vt 0.534674 0.144209
vt 0.398897 0.183429
vt 0.393473 0.138064
vt 0.204544 0.105722
vt 0.278809 0.139018
vt 0.282444 0.185363
vt 0.209711 0.166849
vt 0.136998 0.143355
vt 0.151842 0.172152
vt 0.568474 0.484286
vt 0.650114 0.504098
vt 0.652618 0.663160
vt 0.579984 0.663683
vt 0.727273 0.482502
vt 0.721500 0.662093
vt 0.705317 0.734672
vt 0.651466 0.745918
vt 0.595914 0.735901
vt 0.808492 0.860288
vt 0.768567 0.870024
vt 0.779338 0.808924
vt 0.823417 0.809366
vt 0.727273 0.851708
vt 0.727273 0.799208
vt 0.738392 0.743866
vt 0.782123 0.738550
vt 0.819611 0.752447
vt 0.137991 0.555256
vt 0.209195 0.555515
vt 0.196372 0.706344
vt 0.137563 0.705690
vt 0.289379 0.530638
vt 0.254118 0.706989
vt 0.225300 0.774532
vt 0.182905 0.787634
vt 0.143705 0.775811
vt 0.139849 0.351327
vt 0.108778 0.555672
vt 0.110636 0.351743
vt 0.123194 0.208700
vt 0.108350 0.179903
vt 0.108350 0.706105
vt 0.539381 0.555023
vt 0.539381 0.351151
vt 0.568474 0.351939
vt 0.568474 0.555811
vt 0.389784 0.528390
vt 0.472559 0.553976
vt 0.482840 0.705018
vt 0.421700 0.705276
vt 0.537673 0.705476
vt 0.528628 0.775713
vt 0.491148 0.786870
vt 0.447370 0.773394
vt 0.114492 0.776226
vt 0.852496 0.812431
vt 0.837572 0.863354
vt 0.555434 0.208970
vt 0.566766 0.706264
vt 0.286343 0.343085
vt 0.211485 0.346322
vt 0.472295 0.344825
vt 0.397101 0.340699
vt 0.628708 0.814837
vt 0.628708 0.745918
vt 0.649378 0.747901
vt 0.649378 0.810248
vt 0.891650 0.144768
vt 0.891567 0.252148
vt 0.870586 0.252614
vt 0.870649 0.155889
vt 0.637993 0.125186
vt 0.577596 0.165033
vt 0.568494 0.151228
vt 0.634482 0.105722
vt 0.367025 0.205400
vt 0.362031 0.165741
vt 0.889525 0.377589
vt 0.868821 0.358660
vt 0.365692 0.336865
vt 0.359733 0.449133
vt 0.338597 0.437227
vt 0.343987 0.335663
vt 0.649213 0.438644
vt 0.710619 0.398727
vt 0.584838 0.400140
vt 0.345008 0.223651
vt 0.340487 0.187870
vt 0.889607 0.105722
vt 0.868821 0.120533
vt 0.649378 0.810914
vt 0.649378 0.745918
vt 0.662313 0.748433
vt 0.662357 0.807224
vt 0.316552 0.339504
vt 0.318096 0.451507
vt 0.313369 0.207653
vt 0.692135 0.180719
vt 0.641052 0.147094
vt 0.640498 0.141597
vt 0.697628 0.176297
vt 0.592379 0.181840
vt 0.585857 0.177553
vt 0.599218 0.377484
vt 0.650347 0.411007
vt 0.650410 0.418397
vt 0.592174 0.383565
vt 0.699078 0.376362
vt 0.705962 0.382286
vt 0.714487 0.282840
vt 0.722663 0.284462
vt 0.577236 0.284383
vt 0.568474 0.286195
vt 0.337200 0.338454
vt 0.338597 0.439778
vt 0.888689 0.503388
vt 0.890719 0.610386
vt 0.870647 0.598948
vt 0.868821 0.502570
vt 0.890719 0.377589
vt 0.870669 0.396198
vt 0.589965 0.745918
vt 0.628708 0.798127
vt 0.603547 0.793808
vt 0.568474 0.746591
vt 0.334429 0.226096
vt 0.589966 0.853134
vt 0.568474 0.843551
vt 0.868821 0.339712
vt 0.791474 0.338918
vt 0.795097 0.188577
vt 0.868328 0.190940
vt 0.727273 0.331545
vt 0.732841 0.183123
vt 0.750463 0.113713
vt 0.801298 0.105722
vt 0.856624 0.119838
vt 0.742837 0.673224
vt 0.727273 0.532933
vt 0.788270 0.543019
vt 0.792220 0.706551
vt 0.862759 0.540750
vt 0.848998 0.679349
vt 0.557721 0.776501
vt 0.848691 0.755512
vt 0.855706 0.711348
vt 0.798927 0.738550
s 1
usemtl Shoe_MAT
f 1/1/1 17/2/17 44/3/44 18/4/18
f 17/2/17 13/5/13 19/6/19 44/3/44
f 44/7/44 19/8/19 14/9/14 20/10/20
f 18/11/18 44/7/44 20/10/20 3/12/3
f 15/13/15 23/14/23 45/15/45 29/16/29
f 23/14/23 16/17/16 28/18/28 45/15/45
f 45/15/45 28/18/28 10/19/10 27/20/27
f 29/16/29 45/15/45 27/20/27 11/21/11
f 12/22/12 25/23/25 46/24/46 26/25/26
f 25/23/25 11/26/11 27/27/27 46/24/46
f 46/24/46 27/27/27 10/28/10 24/29/24
f 26/25/26 46/24/46 24/29/24 9/30/9
f 8/31/8 22/32/22 47/33/47 30/34/30
f 22/32/22 15/35/15 29/36/29 47/33/47
f 47/33/47 29/36/29 11/37/11 25/38/25
f 30/34/30 47/33/47 25/38/25 12/39/12
f 16/50/16 21/51/21 48/52/48 28/53/28
f 21/51/21 5/46/5 31/54/31 48/52/48
f 48/52/48 31/54/31 9/55/9 24/56/24
f 28/53/28 48/52/48 24/56/24 10/57/10
f 14/9/14 33/63/33 49/64/49 20/10/20
f 33/63/33 15/35/15 22/32/22 49/64/49
f 49/64/49 22/32/22 8/31/8 34/40/34
f 20/10/20 49/64/49 34/40/34 3/12/3
f 1/1/1 35/47/35 50/65/50 17/2/17
f 35/47/35 5/46/5 21/51/21 50/65/50
f 50/65/50 21/51/21 16/50/16 32/66/32
f 17/2/17 50/65/50 32/66/32 13/5/13
f 51/75/51 41/76/41 14/77/14 19/78/19
f 40/79/40 51/80/51 19/6/19 13/5/13
f 52/87/52 43/88/43 16/17/16 23/14/23
f 42/89/42 52/87/52 23/14/23 15/13/15
f 53/83/53 40/79/40 13/5/13 32/66/32
f 43/84/43 53/83/53 32/66/32 16/50/16
f 54/98/54 42/99/42 15/35/15 33/63/33
f 41/100/41 54/98/54 33/63/33 14/9/14
usemtl Material.019
f 34/40/34 8/31/8 76/41/76 82/42/82
f 18/11/18 3/12/3 71/43/71 72/44/72
f 8/31/8 30/34/30 80/45/80 76/41/76
f 5/46/5 35/47/35 83/48/83 74/49/74
f 30/34/30 12/39/12 79/58/79 80/45/80
f 12/22/12 26/25/26 78/59/78 79/60/79
f 35/47/35 1/1/1 73/61/73 83/48/83
f 31/54/31 5/46/5 74/49/74 81/62/81
f 43/67/43 52/68/52 68/69/68 66/70/66
f 6/71/6 38/72/38 61/73/61 60/74/60
f 38/72/38 2/81/2 55/82/55 61/73/61
f 53/83/53 43/84/43 66/85/66 69/86/69
f 51/80/51 40/79/40 63/90/63 67/91/67
f 37/92/37 6/71/6 60/74/60 59/93/59
f 7/94/7 37/95/37 59/96/59 58/97/58
f 40/79/40 53/83/53 69/86/69 63/90/63
f 55/101/55 56/102/56 67/103/67 63/104/63
f 56/102/56 57/105/57 64/106/64 67/103/67
f 58/107/58 59/108/59 68/109/68 65/110/65
f 59/108/59 60/111/60 66/112/66 68/109/68
f 60/111/60 61/113/61 69/114/69 66/112/66
f 61/113/61 55/101/55 63/104/63 69/114/69
f 57/105/57 62/115/62 70/116/70 64/106/64
f 62/115/62 58/107/58 65/110/65 70/116/70
f 42/99/42 54/98/54 70/117/70 65/118/65
f 39/119/39 7/120/7 58/121/58 62/122/62
f 4/123/4 39/119/39 62/122/62 57/124/57
f 52/87/52 42/89/42 65/110/65 68/109/68
f 2/125/2 36/126/36 56/127/56 55/128/55
f 54/98/54 41/100/41 64/129/64 70/117/70
f 36/126/36 4/130/4 57/131/57 56/127/56
f 41/76/41 51/75/51 67/103/67 64/106/64
f 74/132/74 75/133/75 84/134/84 81/135/81
f 75/133/75 76/136/76 80/137/80 84/134/84
f 84/134/84 80/137/80 79/138/79 78/139/78
f 81/135/81 84/134/84 78/139/78 77/140/77
f 71/141/71 82/142/82 85/143/85 72/144/72
f 82/142/82 76/136/76 75/133/75 85/143/85
f 85/143/85 75/133/75 74/132/74 83/145/83
f 72/144/72 85/143/85 83/145/83 73/146/73
f 9/55/9 31/54/31 81/62/81 77/147/77
f 3/12/3 34/40/34 82/42/82 71/43/71
f 26/25/26 9/30/9 77/148/77 78/59/78
f 1/149/1 18/150/18 72/144/72 73/146/73
