# Blender 4.3.2
# www.blender.org
mtllib Coconut.mtl
o Cube
v 1.104704 -1.104704 -1.104704
v 1.104704 -1.104704 1.104704
v -1.104704 -1.104704 -1.104704
v -1.104704 -1.104704 1.104704
v -1.265842 -1.265842 -0.655421
v -1.346784 -1.346784 -0.000000
v -1.265842 -1.265842 0.655421
v 0.655421 -1.265842 -1.265842
v 0.000000 -1.346784 -1.346784
v -0.655421 -1.265842 -1.265842
v 1.346784 0.000000 -1.346784
v 1.265842 -0.655421 -1.265842
v -1.265842 -0.655421 1.265842
v -1.346784 -0.000000 1.346784
v 1.346784 0.000000 1.346784
v 1.265842 -0.655421 1.265842
v -1.346784 -0.000000 -1.346784
v -1.265842 -0.655421 -1.265842
v -0.655421 -1.265842 1.265842
v -0.000000 -1.346784 1.346784
v 0.655421 -1.265842 1.265842
v 1.265842 -1.265842 0.655421
v 1.346784 -1.346784 -0.000000
v 1.265842 -1.265842 -0.655421
v 0.698520 -0.698520 1.610636
v 0.736043 -0.000000 1.727379
v -0.000000 -0.736043 1.727379
v 0.000000 0.000000 1.854812
v -0.698520 -0.698520 1.610636
v -0.736043 0.000000 1.727379
v -1.610636 -0.698520 0.698520
v -1.727379 -0.000000 0.736043
v -1.727379 -0.736043 -0.000000
v -1.854812 0.000000 -0.000000
v -1.610636 -0.698520 -0.698520
v -1.727379 0.000000 -0.736043
v -0.698520 -1.610636 -0.698520
v -0.000000 -1.727379 -0.736043
v 0.698520 -1.610636 -0.698520
v -0.736043 -1.727379 0.000000
v -0.000000 -1.854812 0.000000
v 0.736043 -1.727379 -0.000000
v -0.698520 -1.610636 0.698520
v 0.000000 -1.727379 0.736043
v 0.698520 -1.610636 0.698520
v 1.610636 -0.698520 -0.698520
v 1.727379 -0.000000 -0.736043
v 1.727379 -0.736043 0.000000
v 1.854812 -0.000000 -0.000000
v 1.610636 -0.698520 0.698520
v 1.727379 0.000000 0.736043
v -0.698520 -0.698520 -1.610636
v -0.736043 -0.000000 -1.727379
v 0.000000 -0.736043 -1.727379
v 0.000000 0.000000 -1.854812
v 0.698520 -0.698520 -1.610636
v 0.736043 0.000000 -1.727379
v 0.913364 -0.913364 -0.913364
v 0.913364 -0.913364 0.913364
v -0.913364 -0.913364 -0.913364
v -0.913364 -0.913364 0.913364
v -1.043483 -1.043483 -0.550799
v -1.112441 -1.112441 0.000000
v -1.043483 -1.043483 0.550799
v 0.550799 -1.043483 -1.043483
v 0.000000 -1.112441 -1.112441
v -0.550799 -1.043483 -1.043483
v 1.115938 0.057040 -1.115938
v 1.043483 -0.550799 -1.043483
v -1.043483 -0.550799 1.043483
v -1.115938 0.057040 1.115938
v 1.115938 0.057040 1.115938
v 1.043483 -0.550799 1.043483
v -1.115938 0.057040 -1.115938
v -1.043483 -0.550799 -1.043483
v -0.550799 -1.043483 1.043483
v -0.000000 -1.112441 1.112441
v 0.550799 -1.043483 1.043483
v 1.043483 -1.043483 0.550799
v 1.112441 -1.112441 -0.000000
v 1.043483 -1.043483 -0.550799
v 0.587101 -0.587101 1.319080
v 0.619806 0.056937 1.422288
v -0.000000 -0.618052 1.417683
v 0.000000 0.057059 1.528350
v -0.587101 -0.587101 1.319080
v -0.619806 0.056937 1.422288
v -1.319080 -0.587101 0.587101
v -1.422288 0.056937 0.619806
v -1.417683 -0.618052 -0.000000
v -1.528349 0.057059 -0.000000
v -1.319080 -0.587101 -0.587101
v -1.422288 0.056937 -0.619806
v -0.587101 -1.319080 -0.587101
v -0.000000 -1.417683 -0.618052
v 0.587101 -1.319080 -0.587101
v -0.618052 -1.417683 0.000000
v 0.000000 -1.523401 0.000000
v 0.618052 -1.417683 -0.000000
v -0.587101 -1.319080 0.587101
v 0.000000 -1.417683 0.618052
v 0.587101 -1.319080 0.587101
v 1.319080 -0.587101 -0.587101
v 1.422288 0.056937 -0.619806
v 1.417683 -0.618052 -0.000000
v 1.528349 0.057059 -0.000000
v 1.319080 -0.587101 0.587101
v 1.422288 0.056937 0.619806
v -0.587101 -0.587101 -1.319080
v -0.619806 0.056937 -1.422288
v 0.000000 -0.618052 -1.417683
v 0.000000 0.057059 -1.528349
v 0.587101 -0.587101 -1.319080
v 0.619806 0.056937 -1.422288
vn 0.1697 -0.1697 0.9708
vn -0.1697 -0.1697 0.9708
vn 0.4674 -0.4674 0.7504
vn 0.5213 -0.1678 0.8367
vn -0.5213 -0.1678 0.8367
vn -0.4674 -0.4674 0.7504
vn -0.1678 -0.5213 0.8367
vn 0.1678 -0.5213 0.8367
vn -0.9708 -0.1697 0.1697
vn -0.9708 -0.1697 -0.1697
vn -0.7504 -0.4674 0.4674
vn -0.8367 -0.1678 0.5213
vn -0.8367 -0.1678 -0.5213
vn -0.7504 -0.4674 -0.4674
vn -0.8367 -0.5213 -0.1678
vn -0.8367 -0.5213 0.1678
vn -0.1697 -0.9708 -0.1697
vn 0.1697 -0.9708 -0.1697
vn -0.1697 -0.9708 0.1697
vn 0.1697 -0.9708 0.1697
vn -0.4674 -0.7504 -0.4674
vn -0.1678 -0.8367 -0.5213
vn 0.1678 -0.8367 -0.5213
vn 0.4674 -0.7504 -0.4674
vn 0.5213 -0.8367 -0.1678
vn 0.5213 -0.8367 0.1678
vn 0.4674 -0.7504 0.4674
vn 0.1678 -0.8367 0.5213
vn -0.1678 -0.8367 0.5213
vn -0.4674 -0.7504 0.4674
vn -0.5213 -0.8367 0.1678
vn -0.5213 -0.8367 -0.1678
vn 0.9708 -0.1697 -0.1697
vn 0.9708 -0.1697 0.1697
vn 0.7504 -0.4674 -0.4674
vn 0.8367 -0.1678 -0.5213
vn 0.8367 -0.1678 0.5213
vn 0.7504 -0.4674 0.4674
vn 0.8367 -0.5213 0.1678
vn 0.8367 -0.5213 -0.1678
vn -0.1697 -0.1697 -0.9708
vn 0.1697 -0.1697 -0.9708
vn -0.4674 -0.4674 -0.7504
vn -0.5213 -0.1678 -0.8367
vn 0.5213 -0.1678 -0.8367
vn 0.4674 -0.4674 -0.7504
vn 0.1678 -0.5213 -0.8367
vn -0.1678 -0.5213 -0.8367
vn -0.1690 0.1618 -0.9722
vn 0.1690 0.1618 -0.9722
vn -0.4669 0.4669 -0.7510
vn -0.5190 0.1614 -0.8394
vn 0.5190 0.1614 -0.8394
vn 0.4669 0.4669 -0.7510
vn 0.1690 0.5185 -0.8382
vn -0.1690 0.5185 -0.8382
vn 0.9722 0.1618 -0.1690
vn 0.9722 0.1618 0.1690
vn 0.7510 0.4669 -0.4669
vn 0.8394 0.1614 -0.5190
vn 0.8394 0.1614 0.5190
vn 0.7510 0.4669 0.4669
vn 0.8382 0.5185 0.1690
vn 0.8382 0.5185 -0.1690
vn 0.1690 0.9710 0.1690
vn -0.1690 0.9710 0.1690
vn 0.1690 0.9710 -0.1690
vn -0.1690 0.9710 -0.1690
vn 0.4669 0.7510 0.4669
vn 0.1690 0.8382 0.5185
vn -0.1690 0.8382 0.5185
vn -0.4669 0.7510 0.4669
vn -0.5185 0.8382 0.1690
vn -0.5185 0.8382 -0.1690
vn -0.4669 0.7510 -0.4669
vn -0.1690 0.8382 -0.5185
vn 0.1690 0.8382 -0.5185
vn 0.4669 0.7510 -0.4669
vn 0.5185 0.8382 -0.1690
vn 0.5185 0.8382 0.1690
vn -0.9722 0.1618 0.1690
vn -0.9722 0.1618 -0.1690
vn -0.7510 0.4669 0.4669
vn -0.8394 0.1614 0.5190
vn -0.8394 0.1614 -0.5190
vn -0.7510 0.4669 -0.4669
vn -0.8382 0.5185 -0.1690
vn -0.8382 0.5185 0.1690
vn 0.1690 0.1618 0.9722
vn -0.1690 0.1618 0.9722
vn 0.4669 0.4669 0.7510
vn 0.5190 0.1614 0.8394
vn -0.5190 0.1614 0.8394
vn -0.4669 0.4669 0.7510
vn -0.1690 0.5185 0.8382
vn 0.1690 0.5185 0.8382
vn 0.0298 0.9846 0.1722
vn -0.0298 0.9846 0.1722
vn 0.0926 0.9844 0.1494
vn -0.0926 0.9844 0.1494
vn -0.1722 0.9846 0.0298
vn -0.1722 0.9846 -0.0298
vn -0.1494 0.9844 0.0926
vn -0.1494 0.9844 -0.0926
vn 0.1722 0.9846 -0.0298
vn 0.1722 0.9846 0.0298
vn 0.1494 0.9844 -0.0926
vn 0.1494 0.9844 0.0926
vn -0.0298 0.9846 -0.1722
vn 0.0298 0.9846 -0.1722
vn -0.0926 0.9844 -0.1494
vn 0.0926 0.9844 -0.1494
vt 0.437500 0.812500
vt 0.500000 0.812500
vt 0.500000 0.875000
vt 0.437500 0.875000
vt 0.500000 0.937500
vt 0.437500 0.937500
vt 0.375000 0.750000
vt 0.437500 0.750000
vt 0.375000 0.812500
vt 0.500000 0.750000
vt 0.500000 1.000000
vt 0.437500 1.000000
vt 0.375000 0.937500
vt 0.375000 1.000000
vt 0.375000 0.875000
vt 0.437500 0.062500
vt 0.500000 0.062500
vt 0.500000 0.125000
vt 0.437500 0.125000
vt 0.500000 0.187500
vt 0.437500 0.187500
vt 0.375000 0.000000
vt 0.437500 0.000000
vt 0.375000 0.062500
vt 0.500000 0.000000
vt 0.500000 0.250000
vt 0.437500 0.250000
vt 0.375000 0.187500
vt 0.375000 0.250000
vt 0.375000 0.125000
vt 0.187500 0.562500
vt 0.250000 0.562500
vt 0.250000 0.625000
vt 0.187500 0.625000
vt 0.312500 0.562500
vt 0.312500 0.625000
vt 0.250000 0.687500
vt 0.187500 0.687500
vt 0.312500 0.687500
vt 0.125000 0.500000
vt 0.187500 0.500000
vt 0.125000 0.562500
vt 0.250000 0.500000
vt 0.312500 0.500000
vt 0.375000 0.500000
vt 0.375000 0.562500
vt 0.375000 0.625000
vt 0.375000 0.687500
vt 0.312500 0.750000
vt 0.250000 0.750000
vt 0.187500 0.750000
vt 0.125000 0.687500
vt 0.125000 0.750000
vt 0.125000 0.625000
vt 0.437500 0.562500
vt 0.500000 0.562500
vt 0.500000 0.625000
vt 0.437500 0.625000
vt 0.500000 0.687500
vt 0.437500 0.687500
vt 0.437500 0.500000
vt 0.500000 0.500000
vt 0.437500 0.312500
vt 0.500000 0.312500
vt 0.500000 0.375000
vt 0.437500 0.375000
vt 0.500000 0.437500
vt 0.437500 0.437500
vt 0.375000 0.312500
vt 0.375000 0.437500
vt 0.375000 0.375000
s 0
usemtl Material.002
f 82/1/49 84/4/49 85/3/49 83/2/49
f 84/4/50 86/6/50 87/5/50 85/3/50
f 59/7/51 78/9/51 82/1/51 73/8/51
f 73/8/52 82/1/52 83/2/52 72/10/52
f 86/6/53 70/12/53 71/11/53 87/5/53
f 76/13/54 61/14/54 70/12/54 86/6/54
f 77/15/55 76/13/55 86/6/55 84/4/55
f 78/9/56 77/15/56 84/4/56 82/1/56
f 88/16/57 90/19/57 91/18/57 89/17/57
f 90/19/58 92/21/58 93/20/58 91/18/58
f 61/22/59 64/24/59 88/16/59 70/23/59
f 70/23/60 88/16/60 89/17/60 71/25/60
f 92/21/61 75/27/61 74/26/61 93/20/61
f 62/28/62 60/29/62 75/27/62 92/21/62
f 63/30/63 62/28/63 92/21/63 90/19/63
f 64/24/64 63/30/64 90/19/64 88/16/64
f 94/31/65 97/34/65 98/33/65 95/32/65
f 95/32/66 98/33/66 99/36/66 96/35/66
f 97/34/67 100/38/67 101/37/67 98/33/67
f 98/33/68 101/37/68 102/39/68 99/36/68
f 60/40/69 62/42/69 94/31/69 67/41/69
f 67/41/70 94/31/70 95/32/70 66/43/70
f 66/43/71 95/32/71 96/35/71 65/44/71
f 65/44/72 96/35/72 81/46/72 58/45/72
f 96/35/73 99/36/73 80/47/73 81/46/73
f 99/36/74 102/39/74 79/48/74 80/47/74
f 102/39/75 78/49/75 59/7/75 79/48/75
f 101/37/76 77/50/76 78/49/76 102/39/76
f 100/38/77 76/51/77 77/50/77 101/37/77
f 64/52/78 61/53/78 76/51/78 100/38/78
f 63/54/79 64/52/79 100/38/79 97/34/79
f 62/42/80 63/54/80 97/34/80 94/31/80
f 103/55/81 105/58/81 106/57/81 104/56/81
f 105/58/82 107/60/82 108/59/82 106/57/82
f 58/45/83 81/46/83 103/55/83 69/61/83
f 69/61/84 103/55/84 104/56/84 68/62/84
f 107/60/85 73/8/85 72/10/85 108/59/85
f 79/48/86 59/7/86 73/8/86 107/60/86
f 80/47/87 79/48/87 107/60/87 105/58/87
f 81/46/88 80/47/88 105/58/88 103/55/88
f 109/63/89 111/66/89 112/65/89 110/64/89
f 111/66/90 113/68/90 114/67/90 112/65/90
f 60/29/91 67/69/91 109/63/91 75/27/91
f 75/27/92 109/63/92 110/64/92 74/26/92
f 113/68/93 69/61/93 68/62/93 114/67/93
f 65/70/94 58/45/94 69/61/94 113/68/94
f 66/71/95 65/70/95 113/68/95 111/66/95
f 67/69/96 66/71/96 111/66/96 109/63/96
usemtl Material.001
f 25/1/1 26/2/1 28/3/1 27/4/1
f 27/4/2 28/3/2 30/5/2 29/6/2
f 2/7/3 16/8/3 25/1/3 21/9/3
f 16/8/4 15/10/4 26/2/4 25/1/4
f 29/6/5 30/5/5 14/11/5 13/12/5
f 19/13/6 29/6/6 13/12/6 4/14/6
f 20/15/7 27/4/7 29/6/7 19/13/7
f 21/9/8 25/1/8 27/4/8 20/15/8
f 31/16/9 32/17/9 34/18/9 33/19/9
f 33/19/10 34/18/10 36/20/10 35/21/10
f 4/22/11 13/23/11 31/16/11 7/24/11
f 13/23/12 14/25/12 32/17/12 31/16/12
f 35/21/13 36/20/13 17/26/13 18/27/13
f 5/28/14 35/21/14 18/27/14 3/29/14
f 6/30/15 33/19/15 35/21/15 5/28/15
f 7/24/16 31/16/16 33/19/16 6/30/16
f 37/31/17 38/32/17 41/33/17 40/34/17
f 38/32/18 39/35/18 42/36/18 41/33/18
f 40/34/19 41/33/19 44/37/19 43/38/19
f 41/33/20 42/36/20 45/39/20 44/37/20
f 3/40/21 10/41/21 37/31/21 5/42/21
f 10/41/22 9/43/22 38/32/22 37/31/22
f 9/43/23 8/44/23 39/35/23 38/32/23
f 8/44/24 1/45/24 24/46/24 39/35/24
f 39/35/25 24/46/25 23/47/25 42/36/25
f 42/36/26 23/47/26 22/48/26 45/39/26
f 45/39/27 22/48/27 2/7/27 21/49/27
f 44/37/28 45/39/28 21/49/28 20/50/28
f 43/38/29 44/37/29 20/50/29 19/51/29
f 7/52/30 43/38/30 19/51/30 4/53/30
f 6/54/31 40/34/31 43/38/31 7/52/31
f 5/42/32 37/31/32 40/34/32 6/54/32
f 46/55/33 47/56/33 49/57/33 48/58/33
f 48/58/34 49/57/34 51/59/34 50/60/34
f 1/45/35 12/61/35 46/55/35 24/46/35
f 12/61/36 11/62/36 47/56/36 46/55/36
f 50/60/37 51/59/37 15/10/37 16/8/37
f 22/48/38 50/60/38 16/8/38 2/7/38
f 23/47/39 48/58/39 50/60/39 22/48/39
f 24/46/40 46/55/40 48/58/40 23/47/40
f 52/63/41 53/64/41 55/65/41 54/66/41
f 54/66/42 55/65/42 57/67/42 56/68/42
f 3/29/43 18/27/43 52/63/43 10/69/43
f 18/27/44 17/26/44 53/64/44 52/63/44
f 56/68/45 57/67/45 11/62/45 12/61/45
f 8/70/46 56/68/46 12/61/46 1/45/46
f 9/71/47 54/66/47 56/68/47 8/70/47
f 10/69/48 52/63/48 54/66/48 9/71/48
f 28/3/97 26/2/97 83/2/97 85/3/97
f 30/5/98 28/3/98 85/3/98 87/5/98
f 26/2/99 15/10/99 72/10/99 83/2/99
f 14/11/100 30/5/100 87/5/100 71/11/100
f 34/18/101 32/17/101 89/17/101 91/18/101
f 36/20/102 34/18/102 91/18/102 93/20/102
f 32/17/103 14/25/103 71/25/103 89/17/103
f 17/26/104 36/20/104 93/20/104 74/26/104
f 49/57/105 47/56/105 104/56/105 106/57/105
f 51/59/106 49/57/106 106/57/106 108/59/106
f 47/56/107 11/62/107 68/62/107 104/56/107
f 15/10/108 51/59/108 108/59/108 72/10/108
f 55/65/109 53/64/109 110/64/109 112/65/109
f 57/67/110 55/65/110 112/65/110 114/67/110
f 53/64/111 17/26/111 74/26/111 110/64/111
f 11/62/112 57/67/112 114/67/112 68/62/112
o Cube.001
v -0.143124 -1.504313 -0.532261
v -0.243457 1.090389 -1.805959
v -0.140834 -1.580598 -0.687845
v -0.241167 1.014104 -1.961543
v 0.029548 -1.497925 -0.532851
v -0.070785 1.096776 -1.806549
v 0.031839 -1.574210 -0.688435
v -0.068494 1.020491 -1.962133
vn -0.9993 -0.0370 0.0034
vn 0.0132 -0.4402 -0.8978
vn 0.9993 0.0370 -0.0034
vn -0.0132 0.4402 0.8978
vn 0.0347 -0.8971 0.4404
vn -0.0347 0.8971 -0.4404
vt 0.375000 0.000000
vt 0.625000 0.000000
vt 0.625000 0.250000
vt 0.375000 0.250000
vt 0.625000 0.500000
vt 0.375000 0.500000
vt 0.625000 0.750000
vt 0.375000 0.750000
vt 0.625000 1.000000
vt 0.375000 1.000000
vt 0.125000 0.500000
vt 0.125000 0.750000
vt 0.875000 0.500000
vt 0.875000 0.750000
s 0
usemtl Material
f 115/72/113 116/73/113 118/74/113 117/75/113
f 117/75/114 118/74/114 122/76/114 121/77/114
f 121/77/115 122/76/115 120/78/115 119/79/115
f 119/79/116 120/78/116 116/80/116 115/81/116
f 117/82/117 121/77/117 119/79/117 115/83/117
f 122/76/118 118/84/118 116/85/118 120/78/118
o Cube.002
v -0.909393 0.490589 -2.578062
v -0.977407 1.163116 -0.791176
v 1.051153 0.530232 -2.518358
v 0.983140 1.202759 -0.731472
v -1.159323 0.949447 -1.738978
v -1.111686 -0.166708 -2.562178
v -1.194604 0.653193 -0.383722
v -0.005696 1.383563 -0.613357
v 1.195568 0.701523 -0.310935
v 1.230849 0.997777 -1.666191
v 1.278486 -0.118378 -2.489391
v 0.077222 0.563662 -2.791813
v -1.603949 0.234127 -1.486678
v -0.015157 0.831998 0.063545
v 1.687831 0.300687 -1.386435
v 0.099039 -0.297183 -2.936658
v 0.033432 1.240004 -1.802934
vn -0.8346 0.3035 -0.4598
vn -0.8555 0.5101 0.0892
vn -0.3148 0.7103 0.6296
vn 0.2470 0.7217 0.6467
vn 0.8271 0.5442 0.1405
vn 0.8480 0.3375 -0.4086
vn 0.3075 0.1232 -0.9435
vn -0.2542 0.1118 -0.9607
vn -0.2200 0.9644 -0.1465
vn 0.1894 0.9727 -0.1340
vn 0.2043 0.8246 -0.5275
vn -0.2050 0.8164 -0.5399
vt 0.375000 0.000000
vt 0.500000 0.000000
vt 0.500000 0.125000
vt 0.375000 0.125000
vt 0.500000 0.250000
vt 0.375000 0.250000
vt 0.500000 0.375000
vt 0.375000 0.375000
vt 0.500000 0.500000
vt 0.375000 0.500000
vt 0.500000 0.625000
vt 0.375000 0.625000
vt 0.500000 0.750000
vt 0.375000 0.750000
vt 0.500000 0.875000
vt 0.375000 0.875000
vt 0.500000 1.000000
vt 0.375000 1.000000
vt 0.125000 0.500000
vt 0.250000 0.500000
vt 0.250000 0.625000
vt 0.125000 0.625000
vt 0.250000 0.750000
vt 0.125000 0.750000
s 0
usemtl Material.003
f 123/86/119 128/87/119 135/88/119 127/89/119
f 127/89/120 135/88/120 129/90/120 124/91/120
f 124/91/121 129/90/121 136/92/121 130/93/121
f 130/93/122 136/92/122 131/94/122 126/95/122
f 126/95/123 131/94/123 137/96/123 132/97/123
f 132/97/124 137/96/124 133/98/124 125/99/124
f 125/99/125 133/98/125 138/100/125 134/101/125
f 134/101/126 138/100/126 128/102/126 123/103/126
f 124/104/127 130/105/127 139/106/127 127/107/127
f 130/105/128 126/95/128 132/97/128 139/106/128
f 139/106/129 132/97/129 125/99/129 134/108/129
f 127/107/130 139/106/130 134/108/130 123/109/130
