# Blender 4.3.2
# www.blender.org
mtllib MusicNote.mtl
o Cube
v 0.292318 0.579197 -0.422986
v 0.500000 -0.500000 -0.500000
v 0.500000 0.500000 0.500000
v 0.500000 -0.500000 0.500000
v -0.292318 0.579197 -0.422986
v -0.500000 -0.500000 -0.500000
v -0.500000 0.500000 0.500000
v -0.500000 -0.500000 0.500000
v -0.609568 -0.609568 -0.000000
v 0.000000 -0.609568 -0.609568
v 0.609568 0.000000 -0.609568
v -0.609568 -0.000000 0.609568
v 0.609568 0.000000 0.609568
v -0.609568 -0.000000 -0.609568
v 0.000000 0.609568 0.609568
v 0.340339 0.622583 -0.093685
v -0.000000 -0.609568 0.609568
v -0.340339 0.622583 -0.093685
v -0.000000 0.641292 -0.515930
v 0.609568 -0.609568 -0.000000
v -0.000000 0.839506 -0.000000
v 0.000000 0.000000 0.839506
v -0.839506 0.000000 -0.000000
v -0.000000 -0.839506 0.000000
v 0.839506 -0.000000 -0.000000
v 0.000000 0.000000 -0.839506
v 0.500000 0.500000 -0.500000
v 0.609568 0.609568 -0.000000
v -0.609568 0.609568 -0.000000
v -0.500000 0.500000 -0.500000
v -0.000000 0.609568 -0.609568
v -0.000000 0.751052 -0.095900
v -0.000000 2.863498 -0.515930
v -0.000000 2.973258 -0.095900
v 0.292318 2.801403 -0.422986
v 0.340339 2.844789 -0.093685
v -0.340339 2.844789 -0.093685
v -0.292318 2.801403 -0.422986
v -0.000000 2.470539 -0.095900
v -0.340339 2.342070 -0.093685
v -0.292318 2.298684 -0.422986
v -0.000000 2.360779 -0.515930
v 0.292318 2.298684 -0.422986
v 0.340339 2.342070 -0.093685
v -0.292318 2.096546 -1.073729
v -0.000000 2.096546 -1.166673
v 0.292318 2.096546 -1.073729
v -0.183844 2.096546 -0.855982
v 0.283700 2.096546 -0.855982
v 0.108474 2.096546 -0.857887
v -0.294357 1.143241 -1.183132
v -0.002039 1.143241 -1.276076
v 0.290278 1.143241 -1.183132
v -0.185883 1.143241 -0.965385
v 0.281659 1.143241 -0.965385
v 0.106434 1.143241 -0.967290
vn 0.1753 -0.8211 0.5432
vn 0.0065 -0.0000 1.0000
vn -0.3061 0.9015 0.3061
vn 0.3061 0.9015 0.3061
vn 0.3061 -0.3061 0.9015
vn 0.3061 0.3061 0.9015
vn -0.3061 0.3061 0.9015
vn -0.3061 -0.3061 0.9015
vn -0.9015 -0.3061 0.3061
vn -0.9015 0.3061 0.3061
vn -0.9015 0.3061 -0.3061
vn -0.9015 -0.3061 -0.3061
vn -0.3061 -0.9015 -0.3061
vn 0.3061 -0.9015 -0.3061
vn 0.3061 -0.9015 0.3061
vn -0.3061 -0.9015 0.3061
vn 0.9015 -0.3061 -0.3061
vn 0.9015 0.3061 -0.3061
vn 0.9015 0.3061 0.3061
vn 0.9015 -0.3061 0.3061
vn -0.3061 -0.3061 -0.9015
vn -0.3061 0.3061 -0.9015
vn 0.3061 0.3061 -0.9015
vn 0.3061 -0.3061 -0.9015
vn 0.1926 0.9578 -0.2133
vn -0.1926 0.9578 -0.2133
vn -0.2697 0.9237 -0.2722
vn 0.2697 0.9237 -0.2722
vn -0.2669 0.7033 -0.6589
vn 0.2669 0.7033 -0.6589
vn 0.3108 0.9271 -0.2094
vn -0.3108 0.9271 -0.2094
vn 0.9895 -0.0000 -0.1443
vn -0.0065 -0.0000 1.0000
vn -0.2948 0.6330 -0.7158
vn -0.9895 -0.0000 -0.1443
vn 0.3030 -0.0000 -0.9530
vn -0.3030 -0.0000 -0.9530
vn -0.8940 -0.0492 0.4454
vn 0.0065 -0.1140 0.9935
vn 0.9999 -0.0151 0.0047
vn -0.2110 -0.8493 0.4839
vn -0.9807 -0.1865 0.0579
vn 0.2948 0.6330 -0.7158
vn -0.0000 -1.0000 -0.0000
vn -0.3012 0.1094 -0.9473
vn -0.0108 -0.1140 0.9934
vn 0.9992 -0.0067 0.0395
vn 0.3012 0.1081 -0.9474
vt 0.750048 0.519250
vt 0.851799 0.523202
vt 0.854608 0.602169
vt 0.750436 0.605771
vt 0.854608 0.602169
vt 0.750000 0.625000
vt 0.875000 0.625000
vt 0.875000 0.750000
vt 0.750000 0.750000
vt 0.625000 0.625000
vt 0.625000 0.750000
vt 0.375000 0.750000
vt 0.500000 0.750000
vt 0.500000 0.875000
vt 0.375000 0.875000
vt 0.625000 0.875000
vt 0.625000 1.000000
vt 0.500000 1.000000
vt 0.375000 1.000000
vt 0.375000 0.000000
vt 0.500000 0.000000
vt 0.500000 0.125000
vt 0.375000 0.125000
vt 0.625000 0.000000
vt 0.625000 0.125000
vt 0.625000 0.250000
vt 0.500000 0.250000
vt 0.375000 0.250000
vt 0.125000 0.500000
vt 0.250000 0.500000
vt 0.250000 0.625000
vt 0.125000 0.625000
vt 0.375000 0.500000
vt 0.375000 0.625000
vt 0.250000 0.750000
vt 0.125000 0.750000
vt 0.500000 0.500000
vt 0.500000 0.625000
vt 0.625000 0.500000
vt 0.500000 0.375000
vt 0.375000 0.375000
vt 0.625000 0.375000
vt 0.648202 0.523202
vt 0.645392 0.602169
vt 0.851799 0.523202
vt 0.875000 0.500000
vt 0.750000 0.500000
vt 0.645392 0.602169
s 0
usemtl Material
f 42/1/1 41/2/1 48/2/1 50/1/1
f 40/3/2 39/4/2 34/4/2 37/5/2
f 21/6/3 29/7/3 7/8/3 15/9/3
f 28/10/4 21/6/4 15/9/4 3/11/4
f 4/12/5 13/13/5 22/14/5 17/15/5
f 13/13/6 3/11/6 15/16/6 22/14/6
f 22/14/7 15/16/7 7/17/7 12/18/7
f 17/15/8 22/14/8 12/18/8 8/19/8
f 8/20/9 12/21/9 23/22/9 9/23/9
f 12/21/10 7/24/10 29/25/10 23/22/10
f 23/22/11 29/25/11 30/26/11 14/27/11
f 9/23/12 23/22/12 14/27/12 6/28/12
f 6/29/13 10/30/13 24/31/13 9/32/13
f 10/30/14 2/33/14 20/34/14 24/31/14
f 24/31/15 20/34/15 4/12/15 17/35/15
f 9/32/16 24/31/16 17/35/16 8/36/16
f 2/33/17 11/37/17 25/38/17 20/34/17
f 11/37/18 27/39/18 28/10/18 25/38/18
f 25/38/19 28/10/19 3/11/19 13/13/19
f 20/34/20 25/38/20 13/13/20 4/12/20
f 6/28/21 14/27/21 26/40/21 10/41/21
f 14/27/22 30/26/22 31/42/22 26/40/22
f 26/40/23 31/42/23 27/39/23 11/37/23
f 10/41/24 26/40/24 11/37/24 2/33/24
f 1/43/25 16/44/25 28/10/25 27/39/25
f 18/5/26 5/45/26 30/46/26 29/7/26
f 5/45/27 19/1/27 31/47/27 30/46/27
f 19/1/28 1/43/28 27/39/28 31/47/28
f 32/4/29 18/5/29 29/7/29 21/6/29
f 16/44/30 32/4/30 21/6/30 28/10/30
f 35/43/31 33/1/31 34/4/31 36/44/31
f 33/1/32 38/45/32 37/5/32 34/4/32
f 44/48/33 43/43/33 35/43/33 36/44/33
f 39/4/34 44/48/34 36/44/34 34/4/34
f 38/45/35 33/1/35 46/1/35 45/45/35
f 41/2/36 40/3/36 37/5/36 38/45/36
f 5/45/36 18/5/36 40/3/36 41/2/36
f 1/43/37 19/1/37 42/1/37 43/43/37
f 32/4/34 16/44/34 44/48/34 39/4/34
f 16/44/33 1/43/33 43/43/33 44/48/33
f 18/5/2 32/4/2 39/4/2 40/3/2
f 19/1/38 5/45/38 41/2/38 42/1/38
f 48/2/39 45/45/39 51/45/39 54/2/39
f 50/1/40 48/2/40 54/2/40 56/1/40
f 35/43/41 43/43/41 49/43/41 47/43/41
f 43/43/42 42/1/42 50/1/42 49/43/42
f 41/2/43 38/45/43 45/45/43 48/2/43
f 33/1/44 35/43/44 47/43/44 46/1/44
f 56/1/45 54/2/45 51/45/45 52/1/45
f 55/43/45 56/1/45 52/1/45 53/43/45
f 45/45/46 46/1/46 52/1/46 51/45/46
f 49/43/47 50/1/47 56/1/47 55/43/47
f 47/43/48 49/43/48 55/43/48 53/43/48
f 46/1/49 47/43/49 53/43/49 52/1/49
