# Blender 4.3.2
# www.blender.org
mtllib nail.mtl
o Cube
v 0.500000 3.473386 -0.500000
v 0.253761 3.225538 -0.253761
v 0.500000 3.473386 0.500000
v 0.253761 3.225538 0.253761
v -0.500000 3.473386 -0.500000
v -0.253761 3.225538 -0.253761
v -0.500000 3.473386 0.500000
v -0.253761 3.225538 0.253761
v -0.310178 3.213284 -0.000000
v 0.000000 3.213284 -0.310178
v 0.609568 3.367214 -0.609568
v -0.609568 3.367214 0.609568
v 0.609568 3.367214 0.609568
v -0.609568 3.367214 -0.609568
v 0.000000 3.496652 0.609568
v 0.609568 3.496652 -0.000000
v 0.000000 3.213284 0.310178
v -0.609568 3.496652 -0.000000
v -0.000000 3.496652 -0.609568
v 0.310178 3.213284 -0.000000
v -0.000000 3.545478 -0.000000
v 0.000000 3.367214 0.839506
v -0.839506 3.367214 -0.000000
v 0.000000 0.041345 -0.048559
v 0.839506 3.367214 -0.000000
v 0.000000 3.367214 -0.839506
v -0.500000 3.261042 -0.500000
v -0.609568 3.237776 -0.000000
v -0.500000 3.261042 0.500000
v 0.500000 3.261042 -0.500000
v 0.000000 3.237776 -0.609568
v -0.000000 3.237776 0.609568
v 0.500000 3.261042 0.500000
v 0.609568 3.237776 -0.000000
v 0.000000 0.821337 -0.310178
v 0.310178 0.821337 0.000000
v 0.000000 0.821337 0.310178
v -0.310178 0.821337 0.000000
v -0.253761 0.838040 -0.253761
v -0.253761 0.838040 0.253761
v 0.253761 0.838040 -0.253761
v 0.253761 0.838040 0.253761
v 0.000000 0.036152 0.000000
v 0.048559 0.041345 0.000000
v 0.000000 0.041345 0.048559
v -0.048559 0.041345 0.000000
v -0.039727 0.043960 -0.039727
v -0.039727 0.043960 0.039727
v 0.039727 0.043960 -0.039727
v 0.039727 0.043960 0.039727
vn 0.0717 0.9948 -0.0717
vn -0.0717 0.9948 -0.0717
vn -0.0717 0.9948 0.0717
vn 0.0717 0.9948 0.0717
vn 0.1772 -0.8344 0.5219
vn 0.1772 0.8344 0.5219
vn -0.1772 0.8344 0.5219
vn -0.1772 -0.8344 0.5219
vn -0.5219 -0.8344 0.1772
vn -0.5219 0.8344 0.1772
vn -0.5219 0.8344 -0.1772
vn -0.5219 -0.8344 -0.1772
vn 0.9762 -0.0000 -0.2170
vn -0.9762 -0.0000 -0.2170
vn 0.2170 -0.0000 -0.9762
vn -0.2170 -0.0000 0.9762
vn 0.5219 -0.8344 -0.1772
vn 0.5219 0.8344 -0.1772
vn 0.5219 0.8344 0.1772
vn 0.5219 -0.8344 0.1772
vn -0.1772 -0.8344 -0.5219
vn -0.1772 0.8344 -0.5219
vn 0.1772 0.8344 -0.5219
vn 0.1772 -0.8344 -0.5219
vn -0.0802 -0.9947 -0.0645
vn -0.0802 -0.9947 0.0645
vn 0.0645 -0.9947 -0.0802
vn -0.0645 -0.9947 -0.0802
vn -0.0645 -0.9947 0.0802
vn 0.0645 -0.9947 0.0802
vn 0.0802 -0.9947 0.0645
vn 0.0802 -0.9947 -0.0645
vn -0.9236 -0.3098 -0.2257
vn 0.2257 -0.3098 -0.9236
vn -0.2257 -0.3098 0.9236
vn 0.9236 -0.3098 0.2257
vn 0.2170 -0.0000 0.9762
vn -0.2170 -0.0000 -0.9762
vn -0.9762 -0.0000 0.2170
vn 0.9762 -0.0000 0.2170
vn -0.0973 -0.9905 -0.0973
vn 0.0973 -0.9905 -0.0973
vn 0.0973 -0.9905 0.0973
vn -0.0973 -0.9905 0.0973
vn 0.9236 -0.3098 -0.2257
vn 0.2257 -0.3098 0.9236
vn -0.2257 -0.3098 -0.9236
vn -0.9236 -0.3098 0.2257
vt 0.625000 0.500000
vt 0.750000 0.500000
vt 0.750000 0.625000
vt 0.625000 0.625000
vt 0.875000 0.500000
vt 0.875000 0.625000
vt 0.875000 0.750000
vt 0.750000 0.750000
vt 0.625000 0.750000
vt 0.375000 0.750000
vt 0.500000 0.750000
vt 0.500000 0.875000
vt 0.375000 0.875000
vt 0.625000 0.875000
vt 0.625000 1.000000
vt 0.500000 1.000000
vt 0.375000 1.000000
vt 0.375000 0.000000
vt 0.500000 0.000000
vt 0.500000 0.125000
vt 0.375000 0.125000
vt 0.625000 0.000000
vt 0.625000 0.125000
vt 0.625000 0.250000
vt 0.500000 0.250000
vt 0.375000 0.250000
vt 0.306230 0.568770
vt 0.313457 0.625149
vt 0.186543 0.624851
vt 0.193770 0.568770
vt 0.250149 0.561543
vt 0.249851 0.688457
vt 0.193770 0.681231
vt 0.375000 0.500000
vt 0.500000 0.500000
vt 0.500000 0.625000
vt 0.375000 0.625000
vt 0.500000 0.375000
vt 0.375000 0.375000
vt 0.625000 0.375000
vt 0.125000 0.625000
vt 0.125000 0.500000
vt 0.125000 0.750000
vt 0.250000 0.500000
vt 0.250000 0.750000
vt 0.306230 0.681230
vt 0.250000 0.625000
s 0
usemtl Material
f 1/1/1 19/2/1 21/3/1 16/4/1
f 19/2/2 5/5/2 18/6/2 21/3/2
f 21/3/3 18/6/3 7/7/3 15/8/3
f 16/4/4 21/3/4 15/8/4 3/9/4
f 33/10/5 13/11/5 22/12/5 32/13/5
f 13/11/6 3/9/6 15/14/6 22/12/6
f 22/12/7 15/14/7 7/15/7 12/16/7
f 32/13/8 22/12/8 12/16/8 29/17/8
f 29/18/9 12/19/9 23/20/9 28/21/9
f 12/19/10 7/22/10 18/23/10 23/20/10
f 23/20/11 18/23/11 5/24/11 14/25/11
f 28/21/12 23/20/12 14/25/12 27/26/12
f 2/27/13 20/28/13 36/28/13 41/27/13
f 9/29/14 6/30/14 39/30/14 38/29/14
f 10/31/15 2/27/15 41/27/15 35/31/15
f 17/32/16 8/33/16 40/33/16 37/32/16
f 30/34/17 11/35/17 25/36/17 34/37/17
f 11/35/18 1/1/18 16/4/18 25/36/18
f 25/36/19 16/4/19 3/9/19 13/11/19
f 34/37/20 25/36/20 13/11/20 33/10/20
f 27/26/21 14/25/21 26/38/21 31/39/21
f 14/25/22 5/24/22 19/40/22 26/38/22
f 26/38/23 19/40/23 1/1/23 11/35/23
f 31/39/24 26/38/24 11/35/24 30/34/24
f 6/30/25 9/29/25 28/41/25 27/42/25
f 9/29/26 8/33/26 29/43/26 28/41/26
f 2/27/27 10/31/27 31/44/27 30/34/27
f 10/31/28 6/30/28 27/42/28 31/44/28
f 8/33/29 17/32/29 32/45/29 29/43/29
f 17/32/30 4/46/30 33/10/30 32/45/30
f 4/46/31 20/28/31 34/37/31 33/10/31
f 20/28/32 2/27/32 30/34/32 34/37/32
f 38/29/33 39/30/33 47/30/33 46/29/33
f 35/31/34 41/27/34 49/27/34 24/31/34
f 37/32/35 40/33/35 48/33/35 45/32/35
f 36/28/36 42/46/36 50/46/36 44/28/36
f 4/46/37 17/32/37 37/32/37 42/46/37
f 6/30/38 10/31/38 35/31/38 39/30/38
f 8/33/39 9/29/39 38/29/39 40/33/39
f 20/28/40 4/46/40 42/46/40 36/28/40
f 47/30/41 24/31/41 43/47/41 46/29/41
f 24/31/42 49/27/42 44/28/42 43/47/42
f 43/47/43 44/28/43 50/46/43 45/32/43
f 46/29/44 43/47/44 45/32/44 48/33/44
f 41/27/45 36/28/45 44/28/45 49/27/45
f 42/46/46 37/32/46 45/32/46 50/46/46
f 39/30/47 35/31/47 24/31/47 47/30/47
f 40/33/48 38/29/48 46/29/48 48/33/48
