# Blender 4.3.2
# www.blender.org
mtllib chocchip.mtl
o Cube
v 0.147945 0.241237 -0.147945
v 0.147945 0.241237 0.147945
v -0.147945 0.241237 -0.147945
v -0.147945 0.241237 0.147945
v 0.356339 0.000000 -0.356339
v -0.356339 -0.000000 0.356339
v 0.356339 0.000000 0.356339
v -0.356339 -0.000000 -0.356339
v -0.000000 0.274887 0.180839
v 0.180839 0.274887 -0.000000
v -0.180839 0.274887 -0.000000
v -0.000000 0.274887 -0.180839
v 0.000000 0.000000 0.490756
v -0.475242 0.000000 -0.000000
v 0.437874 -0.000000 -0.000000
v 0.000000 0.000000 -0.428941
v 0.292288 0.143226 0.292288
v 0.000000 0.207277 0.356339
v -0.292288 0.143226 0.292288
v 0.292288 0.143226 -0.292288
v 0.356339 0.207277 -0.000000
v -0.356339 0.207277 -0.000000
v -0.292288 0.143226 -0.292288
v -0.000000 0.207277 -0.356339
v 0.111772 0.478813 -0.090882
v 0.139566 0.560404 -0.051429
v 0.057060 0.478813 -0.036170
v 0.139566 0.540192 0.003283
v 0.194278 0.540192 -0.051429
v 0.184326 0.530011 -0.006669
v 0.067012 0.468632 0.008590
v 0.156533 0.468632 -0.080931
v 0.067012 0.468632 -0.080931
vn 0.2661 0.2632 -0.9273
vn 0.2874 0.4237 0.8590
vn 0.9348 -0.0306 -0.3540
vn -0.5936 0.7460 0.3017
vn 0.2972 0.5110 0.8065
vn -0.2972 0.5110 0.8065
vn -0.0000 -1.0000 -0.0000
vn -0.8286 0.4839 0.2815
vn -0.8286 0.4839 -0.2815
vn 0.8808 0.4093 -0.2381
vn 0.8808 0.4093 0.2381
vn -0.2265 0.3895 -0.8927
vn 0.2265 0.3895 -0.8927
vn 0.2747 0.8989 0.3415
vn -0.2747 0.8989 0.3415
vn 0.3415 0.8989 -0.2747
vn 0.3415 0.8989 0.2747
vn -0.3415 0.8989 0.2747
vn -0.3415 0.8989 -0.2747
vn -0.2747 0.8989 -0.3415
vn 0.2747 0.8989 -0.3415
vn 0.1939 0.3325 -0.9229
vn -0.5558 0.6181 -0.5558
vn -0.6556 0.7013 0.2799
vn 0.3061 0.9015 0.3061
vn -0.6464 0.7003 -0.3030
vn 0.9765 -0.0077 0.2154
vn -0.4019 0.6821 0.6109
vn -0.2961 0.5167 -0.8033
vt 0.693936 0.568936
vt 0.750149 0.561713
vt 0.749851 0.688287
vt 0.693936 0.681064
vt 0.686713 0.624851
vt 0.813287 0.625149
vt 0.806064 0.681064
vt 0.500000 0.750000
vt 0.625000 0.750000
vt 0.625000 0.875000
vt 0.500000 0.875000
vt 0.625000 1.000000
vt 0.500000 1.000000
vt 0.500000 0.000000
vt 0.500000 0.125000
vt 0.500000 0.250000
vt 0.500000 0.375000
vt 0.500000 0.500000
vt 0.500000 0.625000
vt 0.625000 0.000000
vt 0.625000 0.125000
vt 0.625000 0.250000
vt 0.625000 0.500000
vt 0.625000 0.625000
vt 0.625000 0.375000
vt 0.750000 0.750000
vt 0.875000 0.750000
vt 0.875000 0.625000
vt 0.806064 0.568936
vt 0.875000 0.500000
vt 0.750000 0.500000
vt 0.750000 0.625000
s 0
usemtl Material
f 1/1/1 12/2/1 25/2/1 32/1/1
f 9/3/2 2/4/2 30/4/2 28/3/2
f 10/5/3 1/1/3 32/1/3 29/5/3
f 11/6/4 4/7/4 31/7/4 27/6/4
f 7/8/5 17/9/5 18/10/5 13/11/5
f 13/11/6 18/10/6 19/12/6 6/13/6
f 7/8/7 13/11/7 6/14/7 14/15/7 8/16/7 16/17/7 5/18/7 15/19/7
f 6/14/8 19/20/8 22/21/8 14/15/8
f 14/15/9 22/21/9 23/22/9 8/16/9
f 5/18/10 20/23/10 21/24/10 15/19/10
f 15/19/11 21/24/11 17/9/11 7/8/11
f 8/16/12 23/22/12 24/25/12 16/17/12
f 16/17/13 24/25/13 20/23/13 5/18/13
f 2/4/14 9/3/14 18/26/14 17/9/14
f 9/3/15 4/7/15 19/27/15 18/26/15
f 1/1/16 10/5/16 21/24/16 20/23/16
f 10/5/17 2/4/17 17/9/17 21/24/17
f 4/7/18 11/6/18 22/28/18 19/27/18
f 11/6/19 3/29/19 23/30/19 22/28/19
f 3/29/20 12/2/20 24/31/20 23/30/20
f 12/2/21 1/1/21 20/23/21 24/31/21
f 32/1/22 25/2/22 26/32/22 29/5/22
f 25/2/23 33/29/23 27/6/23 26/32/23
f 26/32/24 27/6/24 31/7/24 28/3/24
f 29/5/25 26/32/25 28/3/25 30/4/25
f 3/29/26 11/6/26 27/6/26 33/29/26
f 2/4/27 10/5/27 29/5/27 30/4/27
f 4/7/28 9/3/28 28/3/28 31/7/28
f 12/2/29 3/29/29 33/29/29 25/2/29
