# Blender 4.3.2
# www.blender.org
mtllib card1.mtl
o Cube
v -3.648876 0.004137 2.233305
v -3.648876 0.056685 2.233305
v -3.648876 0.004137 -2.233305
v -3.648876 0.056685 -2.233305
v 3.648876 0.004137 2.233305
v 3.648876 0.056685 2.233305
v 3.648876 0.004137 -2.233305
v 3.648876 0.056685 -2.233305
vn -1.0000 -0.0000 -0.0000
vn -0.0000 -0.0000 -1.0000
vn 1.0000 -0.0000 -0.0000
vn -0.0000 -0.0000 1.0000
vn -0.0000 -1.0000 -0.0000
vn -0.0000 1.0000 -0.0000
vt 0.375000 0.000000
vt 0.625000 0.000000
vt 0.625000 0.250000
vt 0.375000 0.250000
vt 0.625000 0.500000
vt 0.375000 0.500000
vt 0.625000 0.750000
vt 0.375000 0.750000
vt 0.625000 1.000000
vt 0.375000 1.000000
vt 0.125000 0.500000
vt 0.125000 0.750000
vt 0.875000 0.500000
vt 0.875000 0.750000
s 0
usemtl Material.001
f 1/1/1 2/2/1 4/3/1 3/4/1
f 3/4/2 4/3/2 8/5/2 7/6/2
f 7/6/3 8/5/3 6/7/3 5/8/3
f 5/8/4 6/7/4 2/9/4 1/10/4
f 3/11/5 7/6/5 5/8/5 1/12/5
f 8/5/6 4/13/6 2/14/6 6/7/6
o Plane
v 0.000004 0.114116 0.839965
v 1.519060 0.114116 -0.000008
v -1.519060 0.114116 0.000008
v -0.000004 0.114116 -0.839965
vn -0.0000 1.0000 -0.0000
vt 0.000000 0.000000
vt 1.000000 0.000000
vt 1.000000 1.000000
vt 0.000000 1.000000
s 0
usemtl Material.002
f 9/15/7 10/16/7 12/17/7 11/18/7
o Plane.001
v 2.091953 0.114116 1.998975
v 2.626926 0.114116 1.703157
v 1.556976 0.114116 1.703163
v 2.091950 0.114116 1.407345
vn -0.0000 1.0000 -0.0000
vt 0.000000 0.000000
vt 1.000000 0.000000
vt 1.000000 1.000000
vt 0.000000 1.000000
s 0
usemtl Material.002
f 13/19/8 14/20/8 16/21/8 15/22/8
o Plane.002
v -2.073080 0.114552 -1.444778
v -1.538106 0.114552 -1.740596
v -2.608057 0.114552 -1.740591
v -2.073083 0.114552 -2.036408
vn -0.0000 1.0000 -0.0000
vt 0.000000 0.000000
vt 1.000000 0.000000
vt 1.000000 1.000000
vt 0.000000 1.000000
s 0
usemtl Material.002
f 17/23/9 18/24/9 20/25/9 19/26/9
o Text
v -2.780188 0.112825 -1.612531
v -2.779327 0.096828 -1.915108
v -3.134312 0.099794 -1.916275
v -3.127553 0.101649 -1.880090
v -3.124858 0.103398 -1.846554
v -3.125927 0.105034 -1.815762
v -3.130456 0.106550 -1.787811
v -3.138143 0.107938 -1.762797
v -3.148686 0.109189 -1.740816
v -3.161783 0.110297 -1.721965
v -3.177131 0.111254 -1.706338
v -3.194428 0.112052 -1.694032
v -3.213371 0.112683 -1.685144
v -3.233658 0.113140 -1.679769
v -3.254987 0.113415 -1.678004
v -3.271477 0.113484 -1.679360
v -3.287346 0.113417 -1.683200
v -3.302438 0.113221 -1.689348
v -3.316596 0.112904 -1.697624
v -3.329665 0.112475 -1.707852
v -3.341490 0.111941 -1.719856
v -3.351915 0.111312 -1.733456
v -3.360783 0.110594 -1.748476
v -3.367940 0.109795 -1.764740
v -3.373229 0.108925 -1.782068
v -3.376494 0.107990 -1.800284
v -3.377581 0.106999 -1.819211
v -3.377192 0.106336 -1.831692
v -3.376098 0.105667 -1.844167
v -3.374303 0.104993 -1.856633
v -3.371810 0.104314 -1.869086
v -3.368622 0.103630 -1.881523
v -3.364744 0.102940 -1.893940
v -3.360178 0.102246 -1.906334
v -3.354928 0.101548 -1.918702
v -3.348998 0.100845 -1.931040
v -3.342391 0.100139 -1.943344
v -3.335110 0.099428 -1.955611
v -3.327160 0.098714 -1.967838
v -3.428156 0.099558 -1.968170
v -3.435325 0.100384 -1.953700
v -3.441764 0.101182 -1.939644
v -3.447494 0.101956 -1.925918
v -3.452536 0.102712 -1.912439
v -3.456910 0.103452 -1.899125
v -3.460639 0.104184 -1.885892
v -3.463742 0.104909 -1.872657
v -3.466242 0.105635 -1.859336
v -3.468159 0.106364 -1.845847
v -3.469514 0.107102 -1.832107
v -3.470328 0.107852 -1.818032
v -3.470623 0.108621 -1.803539
v -3.468829 0.110267 -1.772090
v -3.463399 0.111796 -1.742290
v -3.454534 0.113197 -1.714345
v -3.442433 0.114462 -1.688458
v -3.427298 0.115581 -1.664837
v -3.409330 0.116545 -1.643685
v -3.388729 0.117346 -1.625208
v -3.365697 0.117974 -1.609612
v -3.340433 0.118419 -1.597101
v -3.313140 0.118674 -1.587881
v -3.284017 0.118728 -1.582157
v -3.253266 0.118572 -1.580134
v -3.222410 0.118212 -1.581969
v -3.193019 0.117664 -1.587602
v -3.165361 0.116936 -1.596915
v -3.139703 0.116036 -1.609793
v -3.116313 0.114974 -1.626118
v -3.095459 0.113758 -1.645773
v -3.077407 0.112395 -1.668642
v -3.062427 0.110895 -1.694606
v -3.050786 0.109266 -1.723549
v -3.042750 0.107517 -1.755355
v -3.038589 0.105656 -1.789905
v -3.038569 0.103691 -1.827084
v -2.867576 0.102262 -1.826521
v -2.868185 0.113560 -1.612821
vn 0.0085 0.9986 -0.0528
vt 0.025974 0.000000
vt 0.987013 0.000000
vt 0.012987 0.000000
vt 0.000000 0.000000
vt 1.000000 0.000000
vt 0.974026 0.000000
vt 0.948052 0.000000
vt 0.961039 0.000000
vt 0.935065 0.000000
vt 0.922078 0.000000
vt 0.909091 0.000000
vt 0.038961 0.000000
vt 0.896104 0.000000
vt 0.051948 0.000000
vt 0.883117 0.000000
vt 0.064935 0.000000
vt 0.870130 0.000000
vt 0.077922 0.000000
vt 0.090909 0.000000
vt 0.103896 0.000000
vt 0.857143 0.000000
vt 0.116883 0.000000
vt 0.129870 0.000000
vt 0.844156 0.000000
vt 0.142857 0.000000
vt 0.831169 0.000000
vt 0.155844 0.000000
vt 0.168831 0.000000
vt 0.818182 0.000000
vt 0.181818 0.000000
vt 0.805195 0.000000
vt 0.194805 0.000000
vt 0.207792 0.000000
vt 0.792208 0.000000
vt 0.220779 0.000000
vt 0.233766 0.000000
vt 0.779221 0.000000
vt 0.246753 0.000000
vt 0.506494 0.000000
vt 0.480519 0.000000
vt 0.493506 0.000000
vt 0.259740 0.000000
vt 0.467532 0.000000
vt 0.766234 0.000000
vt 0.272727 0.000000
vt 0.454545 0.000000
vt 0.441558 0.000000
vt 0.285714 0.000000
vt 0.428571 0.000000
vt 0.415584 0.000000
vt 0.298701 0.000000
vt 0.402597 0.000000
vt 0.753247 0.000000
vt 0.311688 0.000000
vt 0.389610 0.000000
vt 0.376623 0.000000
vt 0.324675 0.000000
vt 0.363636 0.000000
vt 0.350649 0.000000
vt 0.337662 0.000000
vt 0.740260 0.000000
vt 0.727273 0.000000
vt 0.714286 0.000000
vt 0.519481 0.000000
vt 0.532468 0.000000
vt 0.701299 0.000000
vt 0.545455 0.000000
vt 0.558442 0.000000
vt 0.571429 0.000000
vt 0.688312 0.000000
vt 0.584416 0.000000
vt 0.597403 0.000000
vt 0.675325 0.000000
vt 0.610390 0.000000
vt 0.623377 0.000000
vt 0.636364 0.000000
vt 0.662338 0.000000
vt 0.649351 0.000000
s 0
usemtl Material.002
f 23/27/10 97/28/10 22/29/10
f 97/28/10 21/30/10 22/29/10
f 97/28/10 98/31/10 21/30/10
f 23/27/10 96/32/10 97/28/10
f 96/32/10 94/33/10 95/34/10
f 23/27/10 94/33/10 96/32/10
f 23/27/10 93/35/10 94/33/10
f 23/27/10 92/36/10 93/35/10
f 23/27/10 91/37/10 92/36/10
f 23/27/10 24/38/10 91/37/10
f 24/38/10 90/39/10 91/37/10
f 24/38/10 25/40/10 90/39/10
f 25/40/10 89/41/10 90/39/10
f 25/40/10 26/42/10 89/41/10
f 26/42/10 88/43/10 89/41/10
f 27/44/10 88/43/10 26/42/10
f 28/45/10 88/43/10 27/44/10
f 29/46/10 88/43/10 28/45/10
f 29/46/10 87/47/10 88/43/10
f 30/48/10 87/47/10 29/46/10
f 31/49/10 87/47/10 30/48/10
f 31/49/10 86/50/10 87/47/10
f 32/51/10 86/50/10 31/49/10
f 32/51/10 85/52/10 86/50/10
f 33/53/10 85/52/10 32/51/10
f 34/54/10 85/52/10 33/53/10
f 34/54/10 84/55/10 85/52/10
f 35/56/10 84/55/10 34/54/10
f 35/56/10 83/57/10 84/55/10
f 36/58/10 83/57/10 35/56/10
f 37/59/10 83/57/10 36/58/10
f 37/59/10 82/60/10 83/57/10
f 38/61/10 82/60/10 37/59/10
f 39/62/10 82/60/10 38/61/10
f 39/62/10 81/63/10 82/60/10
f 40/64/10 81/63/10 39/62/10
f 60/65/10 58/66/10 59/67/10
f 41/68/10 81/63/10 40/64/10
f 60/65/10 57/69/10 58/66/10
f 41/68/10 80/70/10 81/63/10
f 42/71/10 80/70/10 41/68/10
f 60/65/10 56/72/10 57/69/10
f 60/65/10 55/73/10 56/72/10
f 43/74/10 80/70/10 42/71/10
f 60/65/10 54/75/10 55/73/10
f 60/65/10 53/76/10 54/75/10
f 44/77/10 80/70/10 43/74/10
f 60/65/10 52/78/10 53/76/10
f 44/77/10 79/79/10 80/70/10
f 45/80/10 79/79/10 44/77/10
f 60/65/10 51/81/10 52/78/10
f 60/65/10 50/82/10 51/81/10
f 46/83/10 79/79/10 45/80/10
f 60/65/10 49/84/10 50/82/10
f 60/65/10 48/85/10 49/84/10
f 47/86/10 79/79/10 46/83/10
f 60/65/10 47/86/10 48/85/10
f 60/65/10 79/79/10 47/86/10
f 60/65/10 78/87/10 79/79/10
f 60/65/10 77/88/10 78/87/10
f 60/65/10 76/89/10 77/88/10
f 61/90/10 76/89/10 60/65/10
f 62/91/10 76/89/10 61/90/10
f 62/91/10 75/92/10 76/89/10
f 63/93/10 75/92/10 62/91/10
f 64/94/10 75/92/10 63/93/10
f 65/95/10 75/92/10 64/94/10
f 65/95/10 74/96/10 75/92/10
f 66/97/10 74/96/10 65/95/10
f 67/98/10 74/96/10 66/97/10
f 67/98/10 73/99/10 74/96/10
f 68/100/10 73/99/10 67/98/10
f 69/101/10 73/99/10 68/100/10
f 70/102/10 73/99/10 69/101/10
f 70/102/10 72/103/10 73/99/10
f 71/104/10 72/103/10 70/102/10
o Text.001
v 2.794020 0.081719 1.588338
v 2.786672 0.065722 1.890826
v 3.141551 0.068688 1.899604
v 3.135569 0.070543 1.863282
v 3.133594 0.072292 1.829696
v 3.135323 0.073928 1.798934
v 3.140450 0.075444 1.771087
v 3.148672 0.076832 1.746244
v 3.159684 0.078083 1.724494
v 3.173182 0.079191 1.705927
v 3.188861 0.080148 1.690633
v 3.206418 0.080946 1.678701
v 3.225547 0.081577 1.670221
v 3.245944 0.082034 1.665282
v 3.267307 0.082309 1.663975
v 3.283764 0.082378 1.665684
v 3.299547 0.082311 1.669864
v 3.314503 0.082115 1.676333
v 3.328481 0.081798 1.684911
v 3.341328 0.081369 1.695417
v 3.352893 0.080835 1.707671
v 3.363023 0.080206 1.721492
v 3.371567 0.079488 1.736699
v 3.378374 0.078689 1.753112
v 3.383290 0.077819 1.770550
v 3.386164 0.076884 1.788832
v 3.386845 0.075893 1.807778
v 3.386189 0.075230 1.820247
v 3.384827 0.074561 1.832696
v 3.382765 0.073887 1.845120
v 3.380006 0.073208 1.857517
v 3.376552 0.072524 1.869883
v 3.372409 0.071834 1.882214
v 3.367578 0.071140 1.894508
v 3.362064 0.070442 1.906760
v 3.355871 0.069739 1.918968
v 3.349002 0.069033 1.931128
v 3.341460 0.068322 1.943236
v 3.333249 0.067608 1.955290
v 3.434214 0.068452 1.957787
v 3.441692 0.069278 1.943474
v 3.448431 0.070076 1.929559
v 3.454454 0.070850 1.915959
v 3.459784 0.071606 1.902592
v 3.464443 0.072346 1.889374
v 3.468454 0.073078 1.876224
v 3.471841 0.073803 1.863058
v 3.474625 0.074529 1.849795
v 3.476831 0.075258 1.836350
v 3.478480 0.075996 1.822642
v 3.479596 0.076746 1.808588
v 3.480201 0.077515 1.794104
v 3.479083 0.079161 1.762624
v 3.474293 0.080690 1.732715
v 3.466028 0.082091 1.704585
v 3.454485 0.083356 1.678446
v 3.439860 0.084475 1.654505
v 3.422350 0.085439 1.632973
v 3.402150 0.086240 1.614058
v 3.379457 0.086868 1.597972
v 3.354468 0.087313 1.584922
v 3.327378 0.087568 1.575119
v 3.298385 0.087622 1.568772
v 3.267684 0.087466 1.566091
v 3.236796 0.087106 1.567263
v 3.207291 0.086558 1.572265
v 3.179440 0.085830 1.580983
v 3.153512 0.084930 1.593308
v 3.129777 0.083868 1.609128
v 3.108506 0.082652 1.628331
v 3.089968 0.081289 1.650807
v 3.074435 0.079789 1.676445
v 3.062176 0.078160 1.705132
v 3.053460 0.076411 1.736758
v 3.048559 0.074550 1.771211
v 3.047742 0.072585 1.808380
v 2.876801 0.071156 1.804152
v 2.881990 0.082454 1.590514
vn -0.0096 0.9986 0.0526
vt 0.025974 0.000000
vt 0.987013 0.000000
vt 0.012987 0.000000
vt 0.000000 0.000000
vt 1.000000 0.000000
vt 0.974026 0.000000
vt 0.948052 0.000000
vt 0.961039 0.000000
vt 0.935065 0.000000
vt 0.922078 0.000000
vt 0.909091 0.000000
vt 0.038961 0.000000
vt 0.896104 0.000000
vt 0.051948 0.000000
vt 0.883117 0.000000
vt 0.064935 0.000000
vt 0.870130 0.000000
vt 0.077922 0.000000
vt 0.090909 0.000000
vt 0.103896 0.000000
vt 0.857143 0.000000
vt 0.116883 0.000000
vt 0.129870 0.000000
vt 0.844156 0.000000
vt 0.142857 0.000000
vt 0.831169 0.000000
vt 0.155844 0.000000
vt 0.168831 0.000000
vt 0.818182 0.000000
vt 0.181818 0.000000
vt 0.805195 0.000000
vt 0.194805 0.000000
vt 0.207792 0.000000
vt 0.792208 0.000000
vt 0.220779 0.000000
vt 0.233766 0.000000
vt 0.779221 0.000000
vt 0.246753 0.000000
vt 0.506494 0.000000
vt 0.480519 0.000000
vt 0.493506 0.000000
vt 0.259740 0.000000
vt 0.467532 0.000000
vt 0.766234 0.000000
vt 0.272727 0.000000
vt 0.454545 0.000000
vt 0.441558 0.000000
vt 0.285714 0.000000
vt 0.428571 0.000000
vt 0.415584 0.000000
vt 0.298701 0.000000
vt 0.402597 0.000000
vt 0.753247 0.000000
vt 0.311688 0.000000
vt 0.389610 0.000000
vt 0.376623 0.000000
vt 0.324675 0.000000
vt 0.363636 0.000000
vt 0.350649 0.000000
vt 0.337662 0.000000
vt 0.740260 0.000000
vt 0.727273 0.000000
vt 0.714286 0.000000
vt 0.519481 0.000000
vt 0.532468 0.000000
vt 0.701299 0.000000
vt 0.545455 0.000000
vt 0.558442 0.000000
vt 0.571429 0.000000
vt 0.688312 0.000000
vt 0.584416 0.000000
vt 0.597403 0.000000
vt 0.675325 0.000000
vt 0.610390 0.000000
vt 0.623377 0.000000
vt 0.636364 0.000000
vt 0.662338 0.000000
vt 0.649351 0.000000
s 0
usemtl Material.002
f 101/105/11 175/106/11 100/107/11
f 175/106/11 99/108/11 100/107/11
f 175/106/11 176/109/11 99/108/11
f 101/105/11 174/110/11 175/106/11
f 174/110/11 172/111/11 173/112/11
f 101/105/11 172/111/11 174/110/11
f 101/105/11 171/113/11 172/111/11
f 101/105/11 170/114/11 171/113/11
f 101/105/11 169/115/11 170/114/11
f 101/105/11 102/116/11 169/115/11
f 102/116/11 168/117/11 169/115/11
f 102/116/11 103/118/11 168/117/11
f 103/118/11 167/119/11 168/117/11
f 103/118/11 104/120/11 167/119/11
f 104/120/11 166/121/11 167/119/11
f 105/122/11 166/121/11 104/120/11
f 106/123/11 166/121/11 105/122/11
f 107/124/11 166/121/11 106/123/11
f 107/124/11 165/125/11 166/121/11
f 108/126/11 165/125/11 107/124/11
f 109/127/11 165/125/11 108/126/11
f 109/127/11 164/128/11 165/125/11
f 110/129/11 164/128/11 109/127/11
f 110/129/11 163/130/11 164/128/11
f 111/131/11 163/130/11 110/129/11
f 112/132/11 163/130/11 111/131/11
f 112/132/11 162/133/11 163/130/11
f 113/134/11 162/133/11 112/132/11
f 113/134/11 161/135/11 162/133/11
f 114/136/11 161/135/11 113/134/11
f 115/137/11 161/135/11 114/136/11
f 115/137/11 160/138/11 161/135/11
f 116/139/11 160/138/11 115/137/11
f 117/140/11 160/138/11 116/139/11
f 117/140/11 159/141/11 160/138/11
f 118/142/11 159/141/11 117/140/11
f 138/143/11 136/144/11 137/145/11
f 119/146/11 159/141/11 118/142/11
f 138/143/11 135/147/11 136/144/11
f 119/146/11 158/148/11 159/141/11
f 120/149/11 158/148/11 119/146/11
f 138/143/11 134/150/11 135/147/11
f 138/143/11 133/151/11 134/150/11
f 121/152/11 158/148/11 120/149/11
f 138/143/11 132/153/11 133/151/11
f 138/143/11 131/154/11 132/153/11
f 122/155/11 158/148/11 121/152/11
f 138/143/11 130/156/11 131/154/11
f 122/155/11 157/157/11 158/148/11
f 123/158/11 157/157/11 122/155/11
f 138/143/11 129/159/11 130/156/11
f 138/143/11 128/160/11 129/159/11
f 124/161/11 157/157/11 123/158/11
f 138/143/11 127/162/11 128/160/11
f 138/143/11 126/163/11 127/162/11
f 125/164/11 157/157/11 124/161/11
f 138/143/11 125/164/11 126/163/11
f 138/143/11 157/157/11 125/164/11
f 138/143/11 156/165/11 157/157/11
f 138/143/11 155/166/11 156/165/11
f 138/143/11 154/167/11 155/166/11
f 139/168/11 154/167/11 138/143/11
f 140/169/11 154/167/11 139/168/11
f 140/169/11 153/170/11 154/167/11
f 141/171/11 153/170/11 140/169/11
f 142/172/11 153/170/11 141/171/11
f 143/173/11 153/170/11 142/172/11
f 143/173/11 152/174/11 153/170/11
f 144/175/11 152/174/11 143/173/11
f 145/176/11 152/174/11 144/175/11
f 145/176/11 151/177/11 152/174/11
f 146/178/11 151/177/11 145/176/11
f 147/179/11 151/177/11 146/178/11
f 148/180/11 151/177/11 147/179/11
f 148/180/11 150/181/11 151/177/11
f 149/182/11 150/181/11 148/180/11
