# Blender 4.3.2
# www.blender.org
mtllib magicwand.mtl
o Cube
v 0.123741 7.634976 -0.123741
v 0.123741 0.014650 -0.123741
v 0.123741 7.634976 0.123741
v 0.123741 0.014650 0.123741
v -0.123741 7.634976 -0.123741
v -0.123741 0.014650 -0.123741
v -0.123741 7.634976 0.123741
v -0.123741 0.014650 0.123741
v -0.170144 0.014650 0.000000
v 0.000000 0.014650 -0.170144
v 0.123741 4.373949 -0.123741
v -0.123741 4.373949 0.123741
v 0.123741 4.373949 0.123741
v -0.123741 4.373949 -0.123741
v 0.000000 7.634976 0.170144
v 0.170144 7.634976 0.000000
v 0.000000 0.014650 0.170144
v -0.170144 7.634976 0.000000
v 0.000000 7.634976 -0.170144
v 0.170144 0.014650 0.000000
v -0.000000 4.373949 0.170144
v -0.170144 4.373949 -0.000000
v 0.170144 4.373949 0.000000
v 0.000000 4.373949 -0.170144
v 0.123741 0.729730 -0.123741
v -0.123741 0.729730 0.123741
v 0.123741 0.729730 0.123741
v -0.123741 0.729730 -0.123741
v -0.000000 0.729730 0.170144
v -0.170144 0.729730 -0.000000
v 0.170144 0.729730 0.000000
v 0.000000 0.729730 -0.170144
v 0.123741 7.008540 -0.123741
v -0.123741 7.008540 0.123741
v 0.123741 7.008540 0.123741
v -0.123741 7.008540 -0.123741
v -0.000000 7.008540 0.170144
v -0.170144 7.008540 -0.000000
v 0.170144 7.008540 0.000000
v 0.000000 7.008540 -0.170144
vn 0.3511 -0.0000 0.9363
vn -0.3511 -0.0000 0.9363
vn -0.9363 -0.0000 0.3511
vn -0.9363 -0.0000 -0.3511
vn 0.9363 -0.0000 -0.3511
vn 0.9363 -0.0000 0.3511
vn -0.3511 -0.0000 -0.9363
vn 0.3511 -0.0000 -0.9363
vn -0.0000 1.0000 -0.0000
vn -0.0000 -1.0000 -0.0000
vt 0.402410 0.750000
vt 0.500000 0.750000
vt 0.500000 0.875000
vt 0.402410 0.875000
vt 0.600988 0.750000
vt 0.625000 0.750000
vt 0.625000 0.875000
vt 0.600988 0.875000
vt 0.625000 1.000000
vt 0.600988 1.000000
vt 0.500000 1.000000
vt 0.402410 1.000000
vt 0.402410 0.000000
vt 0.500000 0.000000
vt 0.500000 0.125000
vt 0.402410 0.125000
vt 0.600988 0.000000
vt 0.625000 0.000000
vt 0.625000 0.125000
vt 0.600988 0.125000
vt 0.625000 0.250000
vt 0.600988 0.250000
vt 0.500000 0.250000
vt 0.402410 0.250000
vt 0.402410 0.500000
vt 0.500000 0.500000
vt 0.500000 0.625000
vt 0.402410 0.625000
vt 0.600988 0.500000
vt 0.625000 0.500000
vt 0.625000 0.625000
vt 0.600988 0.625000
vt 0.500000 0.375000
vt 0.402410 0.375000
vt 0.625000 0.375000
vt 0.600988 0.375000
vt 0.375000 0.250000
vt 0.375000 0.375000
vt 0.375000 0.500000
vt 0.375000 0.625000
vt 0.375000 0.750000
vt 0.375000 0.875000
vt 0.375000 1.000000
vt 0.375000 0.125000
vt 0.375000 0.000000
s 0
usemtl Material
f 35/5/1 3/6/1 15/7/1 37/8/1
f 37/8/2 15/7/2 7/9/2 34/10/2
f 34/17/3 7/18/3 18/19/3 38/20/3
f 38/20/4 18/19/4 5/21/4 36/22/4
f 33/29/5 1/30/5 16/31/5 39/32/5
f 39/32/6 16/31/6 3/6/6 35/5/6
f 36/22/7 5/21/7 19/35/7 40/36/7
f 40/36/8 19/35/8 1/30/8 33/29/8
f 3/6/9 16/31/9 1/30/9 19/35/9 5/21/9 18/19/9 7/18/9 15/7/9
f 6/37/10 10/38/10 2/39/10 20/40/10 4/41/10 17/42/10 8/43/10 9/44/10
f 10/38/8 32/34/8 25/25/8 2/39/8
f 6/37/7 28/24/7 32/34/7 10/38/7
f 20/40/6 31/28/6 27/1/6 4/41/6
f 2/39/5 25/25/5 31/28/5 20/40/5
f 9/44/4 30/16/4 28/24/4 6/37/4
f 8/45/3 26/13/3 30/16/3 9/44/3
f 17/42/2 29/4/2 26/12/2 8/43/2
f 4/41/1 27/1/1 29/4/1 17/42/1
usemtl Material.001
f 27/1/1 13/2/1 21/3/1 29/4/1
f 29/4/2 21/3/2 12/11/2 26/12/2
f 26/13/3 12/14/3 22/15/3 30/16/3
f 30/16/4 22/15/4 14/23/4 28/24/4
f 25/25/5 11/26/5 23/27/5 31/28/5
f 31/28/6 23/27/6 13/2/6 27/1/6
f 28/24/7 14/23/7 24/33/7 32/34/7
f 32/34/8 24/33/8 11/26/8 25/25/8
f 24/33/8 40/36/8 33/29/8 11/26/8
f 14/23/7 36/22/7 40/36/7 24/33/7
f 23/27/6 39/32/6 35/5/6 13/2/6
f 11/26/5 33/29/5 39/32/5 23/27/5
f 22/15/4 38/20/4 36/22/4 14/23/4
f 12/14/3 34/17/3 38/20/3 22/15/3
f 21/3/2 37/8/2 34/10/2 12/11/2
f 13/2/1 35/5/1 37/8/1 21/3/1
