# Blender 4.2.2 LTS
# www.blender.org
mtllib WhiteFlag_Topping.mtl
o WhiteFlag
v -0.303603 0.766074 -0.076240
v -0.303603 -1.174671 -0.076240
v -0.269172 0.766074 -0.067015
v -0.269172 -1.174671 -0.067015
v -0.243967 0.766074 -0.041810
v -0.243967 -1.174671 -0.041810
v -0.234741 0.766074 -0.007379
v -0.234741 -1.174671 -0.007379
v -0.243967 0.766074 0.027052
v -0.243967 -1.174671 0.027052
v -0.269172 0.766074 0.052257
v -0.269172 -1.174671 0.052257
v -0.303603 0.766074 0.061483
v -0.303603 -1.174671 0.061483
v -0.338033 0.766074 0.052257
v -0.338033 -1.174671 0.052257
v -0.363239 0.766074 0.027052
v -0.363239 -1.174671 0.027052
v -0.372464 0.766074 -0.007379
v -0.372464 -1.174671 -0.007379
v -0.363239 0.766074 -0.041810
v -0.363239 -1.174671 -0.041810
v -0.338033 0.766074 -0.067015
v -0.338033 -1.174671 -0.067015
v 1.207563 0.020149 0.023282
v 1.293794 0.787232 0.016962
v -0.280374 -0.142688 -0.028668
v -0.307436 0.729022 0.005548
v 0.512689 -0.142844 0.022508
v 0.448819 0.715874 0.013893
v 0.930309 -0.148799 0.015550
v 1.260424 0.348959 -0.002796
v 0.076482 0.779681 -0.004051
v -0.318996 0.320818 0.045804
v 0.064455 -0.134397 0.026194
v 0.888814 0.783704 -0.011958
v 0.516048 0.323539 -0.000764
v 0.896011 0.339218 0.004626
v 0.097861 0.323696 0.050963
vn -0.0000 0.0611 -0.9981
vn -0.0000 -0.0611 -0.9981
vn 0.4991 0.0611 -0.8644
vn 0.4991 -0.0611 -0.8644
vn 0.8644 0.0611 -0.4991
vn 0.8644 -0.0611 -0.4991
vn 0.9981 0.0611 -0.0000
vn 0.9981 -0.0611 -0.0000
vn 0.8644 0.0611 0.4991
vn 0.8644 -0.0611 0.4991
vn 0.4991 0.0611 0.8644
vn 0.4991 -0.0611 0.8644
vn -0.0000 0.0611 0.9981
vn -0.0000 -0.0611 0.9981
vn -0.4991 0.0611 0.8644
vn -0.4991 -0.0611 0.8644
vn -0.8644 0.0611 0.4991
vn -0.8644 -0.0611 0.4991
vn -0.9981 0.0611 -0.0000
vn -0.9981 -0.0611 -0.0000
vn -0.8644 0.0611 -0.4991
vn -0.8644 -0.0611 -0.4991
vn -0.4991 0.0611 -0.8644
vn -0.4991 -0.0611 -0.8644
vn 0.0132 -0.0455 -0.9989
vn 0.0279 0.0028 -0.9996
vn 0.0765 0.1072 -0.9913
vn 0.0018 -0.1096 -0.9940
vn -0.0362 -0.0136 -0.9993
vn -0.0432 -0.0445 -0.9981
vn 0.0091 -0.0429 -0.9990
vn 0.0253 -0.0056 -0.9997
vn -0.0219 -0.0817 -0.9964
vn 0.0365 -0.0097 -0.9993
vn 0.0195 0.0655 -0.9977
vn -0.0016 -0.0013 -1.0000
vn -0.0294 -0.0128 -0.9995
vn 0.0037 -0.0182 -0.9998
vn -0.0352 -0.0185 -0.9992
vt 0.440824 0.795520
vt 0.440824 0.474856
vt 0.523818 0.474856
vt 0.523818 0.795520
vt 0.595693 0.474856
vt 0.595693 0.795520
vt 0.637190 0.474856
vt 0.637190 0.795520
vt 0.698689 0.460702
vt 0.698689 0.140038
vt 0.740185 0.140038
vt 0.740185 0.460702
vt 0.812060 0.140038
vt 0.812060 0.460702
vt 0.895054 0.140038
vt 0.895054 0.460702
vt 0.966929 0.140038
vt 0.966929 0.460702
vt 0.698689 0.785021
vt 0.698689 0.464358
vt 0.740185 0.464358
vt 0.740185 0.785021
vt 0.812060 0.464358
vt 0.812060 0.785021
vt 0.895054 0.464358
vt 0.895054 0.785021
vt 0.426792 0.408279
vt 0.385295 0.336404
vt 0.385295 0.253410
vt 0.426792 0.181535
vt 0.498667 0.140038
vt 0.581661 0.140038
vt 0.653536 0.181535
vt 0.695033 0.253410
vt 0.695033 0.336404
vt 0.653536 0.408279
vt 0.581661 0.449775
vt 0.498667 0.449775
vt 0.966929 0.464358
vt 0.966929 0.785021
vt 0.368949 0.795520
vt 0.368949 0.474856
vt 0.055556 0.671222
vt 0.055556 0.588228
vt 0.097053 0.516353
vt 0.168928 0.474856
vt 0.251922 0.474856
vt 0.323796 0.516353
vt 0.365293 0.588228
vt 0.365293 0.671222
vt 0.323796 0.743097
vt 0.251922 0.784594
vt 0.168928 0.784594
vt 0.097053 0.743097
vt 0.139789 0.307400
vt 0.135658 0.468910
vt 0.058067 0.451064
vt 0.055556 0.306508
vt 0.301037 0.312784
vt 0.299791 0.470130
vt 0.210871 0.446184
vt 0.224252 0.307352
vt 0.307734 0.140038
vt 0.223359 0.142244
vt 0.381639 0.141250
vt 0.374669 0.316150
vt 0.381639 0.471200
vt 0.132798 0.145347
vt 0.063084 0.142635
s 1
usemtl WhiteFlag_MAT
f 1/1/1 3/4/3 4/3/4 2/2/2
f 3/4/3 5/6/5 6/5/6 4/3/4
f 5/6/5 7/8/7 8/7/8 6/5/6
f 7/9/7 9/12/9 10/11/10 8/10/8
f 9/12/9 11/14/11 12/13/12 10/11/10
f 11/14/11 13/16/13 14/15/14 12/13/12
f 13/16/13 15/18/15 16/17/16 14/15/14
f 15/19/15 17/22/17 18/21/18 16/20/16
f 17/22/17 19/24/19 20/23/20 18/21/18
f 19/24/19 21/26/21 22/25/22 20/23/20
f 4/27/4 6/38/6 8/37/8 10/36/10 12/35/12 14/34/14 16/33/16 18/32/18 20/31/20 22/30/22 24/29/24 2/28/2
f 21/26/21 23/40/23 24/39/24 22/25/22
f 23/41/23 1/1/1 2/2/2 24/42/24
f 1/43/1 23/54/23 21/53/21 19/52/19 17/51/17 15/50/15 13/49/13 11/48/11 9/47/9 7/46/7 5/45/5 3/44/3
f 39/55/39 34/58/34 28/57/28 33/56/33
f 38/59/38 37/62/37 30/61/30 36/60/36
f 31/63/31 29/64/29 37/62/37 38/59/38
f 25/65/25 31/63/31 38/59/38 32/66/32
f 32/66/32 38/59/38 36/60/36 26/67/26
f 35/68/35 27/69/27 34/58/34 39/55/39
f 29/64/29 35/68/35 39/55/39 37/62/37
f 37/62/37 39/55/39 33/56/33 30/61/30
