# Blender 4.2.2 LTS
# www.blender.org
mtllib Hourglass_Topping.mtl
o Hourglass
v -0.741091 0.589618 0.741089
v -0.741091 0.589618 -0.741089
v 0.741087 0.589618 0.741089
v 0.741087 0.589618 -0.741089
v -0.741091 0.589618 -0.741089
v -0.741091 0.589618 0.741089
v 0.741087 0.589618 -0.741089
v 0.741087 0.589618 0.741089
v -0.324314 -0.199881 -0.324312
v -0.324314 -0.199881 0.324312
v 0.324310 -0.199881 -0.324312
v 0.324310 -0.199881 0.324312
v -1.000002 1.002718 0.614833
v -0.614835 1.002718 1.000000
v -0.614835 1.002718 -1.000000
v -1.000002 1.002718 -0.614833
v 0.614831 1.002718 1.000000
v 0.999998 1.002718 0.614833
v 0.999998 1.002718 -0.614833
v 0.614831 1.002718 -1.000000
v -1.000002 0.589618 -0.614833
v -0.614835 0.589618 -1.000000
v -0.741127 0.589618 -0.741125
v -0.614835 0.589618 1.000000
v -1.000002 0.589618 0.614833
v -0.741127 0.589618 0.741125
v 0.614831 0.589618 -1.000000
v 0.999998 0.589618 -0.614833
v 0.741123 0.589618 -0.741125
v 0.999998 0.589618 0.614833
v 0.614831 0.589618 1.000000
v 0.741123 0.589618 0.741125
v -0.616783 -0.855773 -0.855111
v -0.855113 -0.855773 -0.616781
v -0.728207 -0.698959 -0.728205
v -0.855113 -0.855773 0.616781
v -0.616783 -0.855773 0.855111
v -0.728207 -0.698959 0.728205
v 0.855109 -0.855773 -0.616781
v 0.616779 -0.855773 -0.855111
v 0.728203 -0.698959 -0.728205
v 0.616779 -0.855773 0.855111
v 0.855109 -0.855773 0.616781
v 0.728203 -0.698959 0.728205
v -0.855113 -1.171573 -0.616781
v -0.616783 -1.171573 -0.855111
v -0.616783 -1.171573 0.855111
v -0.855113 -1.171573 0.616781
v 0.616779 -1.171573 -0.855111
v 0.855109 -1.171573 -0.616781
v 0.855109 -1.171573 0.616781
v 0.616779 -1.171573 0.855111
vn -0.0000 -1.0000 -0.0000
vn -0.3980 0.8266 -0.3980
vn -0.3980 0.8266 0.3980
vn 0.3980 0.8266 -0.3980
vn 0.3980 0.8266 0.3980
vn -0.6975 0.1642 -0.6975
vn -0.6975 0.1642 0.6975
vn 0.6975 0.1642 -0.6975
vn 0.6975 0.1642 0.6975
vn -0.7173 0.6303 0.2971
vn -0.2971 0.6303 0.7173
vn -0.2971 0.6303 -0.7173
vn -0.7173 0.6303 -0.2971
vn 0.2971 0.6303 0.7173
vn 0.7173 0.6303 0.2971
vn 0.7173 0.6303 -0.2971
vn 0.2971 0.6303 -0.7173
vn -0.7173 -0.6303 -0.2971
vn -0.2971 -0.6303 -0.7173
vn -0.2971 -0.6303 0.7173
vn -0.7173 -0.6303 0.2971
vn 0.2971 -0.6303 -0.7173
vn 0.7173 -0.6303 -0.2971
vn 0.7173 -0.6303 0.2971
vn 0.2971 -0.6303 0.7173
vn -0.3110 0.2575 -0.9148
vn -0.9148 0.2575 -0.3110
vn -0.5805 0.5711 -0.5805
vn -0.9148 0.2575 0.3110
vn -0.3110 0.2575 0.9148
vn -0.5805 0.5711 0.5805
vn 0.9148 0.2575 -0.3110
vn 0.3110 0.2575 -0.9148
vn 0.5805 0.5711 -0.5805
vn 0.3110 0.2575 0.9148
vn 0.9148 0.2575 0.3110
vn 0.5805 0.5711 0.5805
vt 0.310606 0.055710
vt 0.371780 0.116884
vt 0.371780 0.312185
vt 0.310606 0.373358
vt 0.115305 0.373358
vt 0.054131 0.312185
vt 0.054131 0.116884
vt 0.115305 0.055710
vt 0.897518 0.821942
vt 0.832751 0.821942
vt 0.832751 0.626642
vt 0.897518 0.626642
vt 0.330658 0.424546
vt 0.095253 0.424546
vt 0.095247 0.424540
vt 0.115305 0.383424
vt 0.310606 0.383424
vt 0.330664 0.424540
vt 0.118899 0.906439
vt 0.054131 0.906439
vt 0.054131 0.711139
vt 0.118899 0.711139
vt 0.128965 0.711139
vt 0.673310 0.687815
vt 0.738078 0.687815
vt 0.738078 0.883116
vt 0.673310 0.883116
vt 0.330658 0.659951
vt 0.371780 0.444598
vt 0.371780 0.639899
vt 0.330664 0.659957
vt 0.095253 0.659951
vt 0.095247 0.659957
vt 0.054131 0.639899
vt 0.054131 0.444598
vt 0.310606 0.701073
vt 0.115305 0.701073
vt 0.663536 0.055710
vt 0.898930 0.058091
vt 0.831380 0.191771
vt 0.728368 0.190730
vt 0.894837 0.260415
vt 0.876925 0.281600
vt 0.681016 0.279619
vt 0.663536 0.258075
vt 0.663536 0.341176
vt 0.898930 0.343556
vt 0.831380 0.477237
vt 0.728368 0.476195
vt 0.399955 0.055710
vt 0.635361 0.055710
vt 0.569167 0.190067
vt 0.466149 0.190067
vt 0.399955 0.345057
vt 0.635361 0.345057
vt 0.569167 0.479414
vt 0.466149 0.479414
vt 0.615618 0.634404
vt 0.653470 0.672256
vt 0.653470 0.868176
vt 0.615618 0.906028
vt 0.419698 0.906028
vt 0.381846 0.868176
vt 0.381846 0.672256
vt 0.419698 0.634404
vt 0.419698 0.279431
vt 0.615618 0.279431
vt 0.615618 0.328943
vt 0.419698 0.328943
vt 0.876425 0.331110
vt 0.680515 0.329129
vt 0.419698 0.568777
vt 0.615618 0.568777
vt 0.615618 0.618290
vt 0.419698 0.618290
vt 0.894837 0.545880
vt 0.876925 0.567066
vt 0.681016 0.565085
vt 0.663536 0.543541
vt 0.633314 0.258065
vt 0.402002 0.258065
vt 0.633314 0.547412
vt 0.402002 0.547412
vt 0.757918 0.883116
vt 0.822685 0.883116
vt 0.812911 0.944290
vt 0.748144 0.944290
vt 0.663536 0.626641
vt 0.728304 0.626641
vt 0.728304 0.944290
vt 0.663536 0.944290
vt 0.822685 0.687815
vt 0.757918 0.687815
vt 0.748144 0.626641
vt 0.812911 0.626641
vt 0.914715 0.573496
vt 0.653470 0.285479
vt 0.653470 0.574825
vt 0.914715 0.288031
vt 0.381846 0.334991
vt 0.381846 0.285479
vt 0.653470 0.624338
vt 0.381846 0.624338
vt 0.381846 0.574825
vt 0.653470 0.334991
vt 0.876425 0.616576
vt 0.680515 0.614594
s 1
usemtl Hourglass_Combined_MAT
f 19/1/16 20/2/17 15/3/12 16/4/13 13/5/10 14/6/11 17/7/14 18/8/15
f 28/9/23 19/10/16 18/11/15 30/12/24
f 2/13/1 1/14/1 26/15/1 25/16/21 21/17/18 23/18/1
f 25/19/21 13/20/10 16/21/13 21/22/18
f 2/23/1 4/23/1 7/23/4 5/23/2
f 22/24/19 15/25/12 20/26/17 27/27/22
f 4/28/1 2/13/1 23/18/1 22/29/19 27/30/22 29/31/1
f 1/14/1 3/32/1 32/33/1 31/34/25 24/35/20 26/15/1
f 3/32/1 4/28/1 29/31/1 28/36/23 30/37/24 32/33/1
f 7/38/4 8/39/5 12/40/9 11/41/8
f 4/23/1 3/23/1 8/23/5 7/23/4
f 1/23/1 2/23/1 5/23/2 6/23/3
f 3/23/1 1/23/1 6/23/3 8/23/5
f 11/41/8 12/40/9 44/42/37 43/43/36 39/44/32 41/45/34
f 6/46/3 5/47/2 9/48/6 10/49/7
f 8/50/5 6/51/3 10/52/7 12/53/9
f 5/54/2 7/55/4 11/56/8 9/57/6
f 45/58/18 46/59/19 49/60/22 50/61/23 51/62/24 52/63/25 47/64/20 48/65/21
f 42/66/35 37/67/30 47/68/20 52/69/25
f 39/44/32 43/43/36 51/70/24 50/71/23
f 33/72/26 40/73/33 49/74/22 46/75/19
f 10/49/7 9/48/6 35/76/28 34/77/27 36/78/29 38/79/31
f 12/53/9 10/52/7 38/80/31 37/67/30 42/66/35 44/81/37
f 9/57/6 11/56/8 41/82/34 40/73/33 33/72/26 35/83/28
f 21/17/18 22/29/19 23/18/1
f 24/35/20 25/16/21 26/15/1
f 27/30/22 28/36/23 29/31/1
f 30/37/24 31/34/25 32/33/1
f 24/84/20 14/85/11 13/86/10 25/87/21
f 15/25/12 22/24/19 21/88/18 16/89/13
f 19/90/16 28/91/23 27/27/22 20/26/17
f 17/92/14 31/93/25 30/94/24 18/95/15
f 31/93/25 17/92/14 14/85/11 24/84/20
f 33/96/26 34/77/27 35/76/28
f 36/97/29 37/67/30 38/80/31
f 39/98/32 40/73/33 41/82/34
f 42/99/35 43/43/36 44/42/37
f 42/66/35 52/69/25 51/100/24 43/101/36
f 49/74/22 40/73/33 39/98/32 50/102/23
f 33/72/26 46/75/19 45/103/18 34/104/27
f 47/68/20 37/67/30 36/97/29 48/105/21
f 36/78/29 34/77/27 45/106/18 48/107/21
