# Blender 4.3.2
# www.blender.org
mtllib footstep.mtl
o Plane
v -0.413031 -0.011933 0.932065
v 0.854807 0.000151 0.696293
v -0.560805 -0.010490 -0.909285
v 0.866097 0.000251 -0.690011
v -0.482465 -0.009498 -0.023332
v 0.223648 0.000000 0.916667
v 1.107930 0.000402 -0.346849
v 0.223648 0.000000 -0.916667
v 0.223648 0.000000 0.000000
v 1.114235 0.001483 0.379270
v 1.110932 0.000917 -0.001047
vn -0.0160 0.9999 0.0019
vn -0.0134 0.9999 -0.0000
vn -0.0002 1.0000 -0.0000
vn -0.0018 1.0000 0.0004
vn -0.0004 1.0000 -0.0000
vn -0.0007 1.0000 -0.0007
vt 0.000000 0.000000
vt 0.500000 0.000000
vt 0.500000 0.500000
vt 0.000000 0.500000
vt 0.500000 1.000000
vt 0.000000 1.000000
vt 1.000000 0.000000
vt 1.000000 0.250000
vt 1.000000 0.380942
vt 1.000000 1.000000
vt 1.000000 0.500000
s 0
f 1/1/1 6/2/1 9/3/1 5/4/1
f 5/4/2 9/3/2 8/5/2 3/6/2
f 6/2/3 2/7/3 9/3/3
f 9/3/4 2/7/4 10/8/4 11/9/4
f 4/10/5 8/5/5 9/3/5
f 11/9/6 7/11/6 4/10/6 9/3/6
o Plane.001
v -4.765951 -0.070442 0.881795
v -0.801201 -0.009728 0.938379
v -3.973781 -0.045271 -1.441010
v -0.959386 -0.009968 -0.848059
v -5.455112 -0.085781 -0.949290
v -2.774056 -0.024420 1.031586
v -0.882883 -0.009968 0.015918
v -2.753352 -0.023819 -1.235902
v -2.836735 -0.026471 -0.221470
v -4.838433 -0.067849 -1.361313
v -5.403071 -0.085796 -0.009555
v -3.767228 -0.046564 1.137422
v -1.595033 -0.012180 0.993695
v -0.838703 -0.009968 0.514855
v -0.925814 -0.009968 -0.468927
v -1.723071 -0.016314 -0.955667
v -3.299815 -0.031741 -1.334809
v -2.819088 -0.025886 0.374174
v -1.585613 -0.014549 -0.005150
v -2.808736 -0.025586 -0.714167
v -4.017975 -0.052034 -0.531509
v -3.993477 -0.051995 0.233126
v -1.573900 -0.013374 0.493465
v -1.636837 -0.015407 -0.482527
v -3.740644 -0.043975 -0.997625
vn -0.0239 0.9997 -0.0001
vn -0.0222 0.9998 -0.0006
vn -0.0220 0.9998 0.0002
vn -0.0240 0.9997 0.0011
vn -0.0101 0.9999 -0.0021
vn -0.0039 1.0000 -0.0015
vn -0.0055 1.0000 -0.0009
vn -0.0096 1.0000 -0.0014
vn -0.0092 1.0000 0.0002
vn -0.0071 1.0000 -0.0002
vn -0.0080 1.0000 0.0001
vn -0.0083 1.0000 0.0011
vn -0.0242 0.9997 0.0049
vn -0.0215 0.9998 0.0025
vn -0.0191 0.9998 0.0052
vn -0.0236 0.9997 0.0095
vt 0.000000 0.000000
vt 0.250000 0.000000
vt 0.250000 0.250000
vt 0.000000 0.250000
vt 0.500000 0.000000
vt 0.500000 0.250000
vt 0.500000 0.500000
vt 0.250000 0.500000
vt 0.000000 0.500000
vt 0.750000 0.000000
vt 0.750000 0.250000
vt 1.000000 0.000000
vt 1.000000 0.250000
vt 1.000000 0.500000
vt 0.750000 0.500000
vt 0.750000 0.750000
vt 0.500000 0.750000
vt 1.000000 0.750000
vt 1.000000 1.000000
vt 0.750000 1.000000
vt 0.500000 1.000000
vt 0.250000 0.750000
vt 0.000000 0.750000
vt 0.250000 1.000000
vt 0.000000 1.000000
s 0
f 12/12/7 23/13/7 33/14/7 22/15/7
f 23/13/8 17/16/8 29/17/8 33/14/8
f 33/14/9 29/17/9 20/18/9 32/19/9
f 22/15/10 33/14/10 32/19/10 16/20/10
f 17/16/11 24/21/11 34/22/11 29/17/11
f 24/21/12 13/23/12 25/24/12 34/22/12
f 34/22/13 25/24/13 18/25/13 30/26/13
f 29/17/14 34/22/14 30/26/14 20/18/14
f 20/18/15 30/26/15 35/27/15 31/28/15
f 30/26/16 18/25/16 26/29/16 35/27/16
f 35/27/17 26/29/17 15/30/17 27/31/17
f 31/28/18 35/27/18 27/31/18 19/32/18
f 16/20/19 32/19/19 36/33/19 21/34/19
f 32/19/20 20/18/20 31/28/20 36/33/20
f 36/33/21 31/28/21 19/32/21 28/35/21
f 21/34/22 36/33/22 28/35/22 14/36/22
