# Blender 4.3.2
# www.blender.org
mtllib triangle.mtl
o Cube
v 1.000000 0.607507 -1.000000
v 1.000000 -0.607507 -1.000000
v -1.000000 0.607507 -1.000000
v -1.000000 -0.607507 -1.000000
v -1.000000 0.607507 1.000000
v -1.000000 -0.607507 1.000000
vn -0.0000 1.0000 -0.0000
vn -0.0000 -1.0000 -0.0000
vn -1.0000 -0.0000 -0.0000
vn 0.7071 -0.0000 0.7071
vn -0.0000 -0.0000 -1.0000
vt 0.625000 0.000000
vt 0.625000 0.500000
vt 0.625000 0.250000
vt 0.375000 0.250000
vt 0.375000 0.500000
vt 0.375000 0.000000
s 0
usemtl Material
f 5/1/1 1/2/1 3/3/1
f 4/4/2 2/5/2 6/6/2
f 6/6/3 5/1/3 3/3/3 4/4/3
f 1/2/4 5/1/4 6/6/4 2/5/4
f 4/4/5 3/3/5 1/2/5 2/5/5
