# Blender 4.3.2
# www.blender.org
mtllib toaster.mtl
o Cube
v 0.067934 1.700021 -1.857197
v 0.494306 2.075508 -1.305435
v 1.000000 1.914616 -1.558390
v 1.071451 0.075508 -1.989896
v 0.067934 0.447993 -1.857197
v 1.000000 0.236400 -1.558390
v 1.000000 1.914616 1.558390
v 0.494306 2.075508 1.305435
v 0.839108 1.914616 1.857197
v 1.000000 0.236400 1.558390
v 0.839108 0.236400 1.857197
v 1.071451 0.075508 1.989896
v -0.067934 1.700021 -1.857197
v -1.000000 1.914616 -1.558390
v -0.498373 2.075508 -1.310297
v -1.000000 0.236400 -1.558390
v -0.067934 0.447993 -1.857197
v -1.071451 0.075508 -1.989896
v -1.000000 1.914616 1.558390
v -0.839108 1.914616 1.857197
v -0.498373 2.075508 1.310297
v -1.071451 0.075508 1.989896
v -0.839108 0.236400 1.857197
v -1.000000 0.236400 1.558390
v -0.839108 0.236400 -1.857197
v 0.839108 0.236400 -1.857197
v 0.839108 1.914616 -1.857197
v -0.839108 1.914616 -1.857197
v -0.067934 0.447993 -1.781282
v 0.067934 0.447993 -1.781282
v 0.067934 1.700021 -1.781282
v -0.067934 1.700021 -1.781282
v -0.166313 1.310037 -1.930353
v -0.166313 1.347620 -1.860554
v -0.254513 1.347620 -1.930353
v -0.166313 1.486241 -1.860554
v -0.166313 1.523824 -1.930353
v -0.254513 1.486241 -1.930353
v -0.166313 1.310037 -2.004541
v -0.254513 1.347620 -2.004541
v -0.166313 1.347620 -2.074341
v -0.166313 1.523824 -2.004541
v -0.166313 1.486241 -2.074341
v -0.254513 1.486241 -2.004541
v 0.159003 1.310037 -1.930353
v 0.247204 1.347620 -1.930353
v 0.159003 1.347620 -1.860554
v 0.159003 1.523824 -1.930353
v 0.159003 1.486241 -1.860554
v 0.247204 1.486241 -1.930353
v 0.159003 1.310037 -2.004541
v 0.159003 1.347620 -2.074341
v 0.247204 1.347620 -2.004541
v 0.159003 1.523824 -2.004541
v 0.247204 1.486241 -2.004541
v 0.159003 1.486241 -2.074341
v -0.340736 2.075508 1.310297
v 0.494306 2.075508 0.000000
v -0.498373 2.075508 0.000000
v -0.340736 2.075508 -1.310297
v -0.340736 2.075508 0.000000
v 0.344803 2.075508 1.305435
v -0.839108 2.075508 1.558390
v -0.839108 2.075508 0.000000
v -0.839108 2.075508 -1.558390
v 0.344803 2.075508 -1.305435
v 0.344803 2.075508 0.000000
v 0.839108 2.075508 0.000000
v 0.839108 2.075508 1.558390
v 0.000000 2.075508 -1.558390
v 0.839108 2.075508 -1.558390
v 0.000000 2.075508 1.558390
v 0.000000 2.075508 0.000000
v 0.344803 1.356758 0.000000
v 0.494306 1.356758 0.000000
v -0.498373 1.356758 0.000000
v -0.340736 1.356758 0.000000
v -0.340736 1.356758 1.310297
v -0.498373 1.356758 1.310297
v -0.498373 1.356758 -1.310297
v -0.340736 1.356758 -1.310297
v 0.494306 1.356758 1.305435
v 0.344803 1.356758 -1.305435
v 0.494306 1.356758 -1.305435
v 0.344803 1.356758 1.305435
vn -0.0000 -1.0000 -0.0000
vn -1.0000 -0.0000 -0.0000
vn -0.0000 -0.0000 1.0000
vn 1.0000 -0.0000 -0.0000
vn 0.6608 0.6608 -0.3558
vn 0.4538 0.8569 -0.2444
vn 0.6608 0.6608 0.3558
vn 0.4538 0.8569 0.2444
vn -0.6608 0.6608 -0.3558
vn -0.4538 0.8569 -0.2444
vn -0.6608 0.6608 0.3558
vn -0.4538 0.8569 0.2444
vn -0.9139 0.4059 -0.0000
vn -0.0000 0.6363 -0.7715
vn 0.8805 -0.0000 -0.4741
vn -0.8805 -0.0000 0.4741
vn 0.8805 -0.0000 0.4741
vn -0.8805 -0.0000 -0.4741
vn -0.0000 0.8805 0.4741
vn 0.7071 0.7071 -0.0000
vn -0.0000 0.6363 0.7715
vn -0.7071 0.7071 -0.0000
vn -0.0000 0.8805 -0.4741
vn 0.9139 0.4059 -0.0000
vn -0.0000 -0.0000 -1.0000
vn -0.0000 1.0000 -0.0000
vn -0.3513 -0.8244 0.4439
vn -0.3513 0.8244 0.4439
vn -0.3513 -0.8244 -0.4439
vn -0.3513 0.8244 -0.4439
vn 0.3513 -0.8244 0.4439
vn 0.3513 0.8244 0.4439
vn 0.3513 -0.8244 -0.4439
vn 0.3513 0.8244 -0.4439
vn -0.3920 -0.9200 -0.0000
vn -0.6206 -0.0000 0.7842
vn -0.3920 0.9200 -0.0000
vn -0.6206 -0.0000 -0.7842
vn -0.0000 -0.8805 -0.4741
vn 0.6206 -0.0000 -0.7842
vn 0.3920 -0.9200 -0.0000
vn 0.3920 0.9200 -0.0000
vn 0.6206 -0.0000 0.7842
vn -0.0000 -0.8805 0.4741
vt 0.351669 0.351669
vt 0.003481 0.351669
vt 0.003481 0.003481
vt 0.351669 0.003481
vt 0.303254 0.669067
vt 0.030928 0.669067
vt 0.030928 0.396384
vt 0.303254 0.396384
vt 0.658488 0.313917
vt 0.386295 0.313917
vt 0.386295 0.041233
vt 0.658488 0.041233
vt 0.250672 0.942204
vt 0.250672 0.827993
vt 0.367304 0.827993
vt 0.367304 0.942204
vt 0.636692 0.669067
vt 0.364367 0.669067
vt 0.364367 0.396384
vt 0.636692 0.396384
vt 0.363028 0.695210
vt 0.336920 0.669067
vt 0.692242 0.322625
vt 0.692242 0.283128
vt 0.724914 0.300431
vt 0.384727 0.340059
vt 0.358632 0.313917
vt 0.764549 0.305321
vt 0.731877 0.322625
vt 0.731877 0.283128
vt 0.029589 0.370241
vt 0.003481 0.396384
vt 0.771512 0.300431
vt 0.804183 0.283128
vt 0.804183 0.322625
vt 0.384727 0.015091
vt 0.358632 0.041233
vt 0.751067 0.802266
vt 0.751067 0.841763
vt 0.718395 0.824460
vt 0.329957 0.358632
vt 0.329957 0.706819
vt 0.996519 0.358632
vt 0.996519 0.706819
vt 0.969957 0.669067
vt 0.969957 0.396384
vt 0.696482 0.370241
vt 0.968971 0.370241
vt 0.697468 0.396384
vt 0.301915 0.695210
vt 0.029589 0.695210
vt 0.363028 0.370241
vt 0.635353 0.370241
vt 0.697467 0.669067
vt 0.968971 0.695210
vt 0.696482 0.695210
vt 0.358632 0.177575
vt 0.336920 0.532726
vt 0.336920 0.396384
vt 0.685279 0.003481
vt 0.685279 0.351669
vt 0.003481 0.669067
vt 0.003481 0.532726
vt 0.670358 0.669067
vt 0.670358 0.532726
vt 0.670358 0.396384
vt 0.663395 0.358632
vt 0.663395 0.706819
vt 0.790106 0.916950
vt 0.790106 0.713782
vt 0.796748 0.713782
vt 0.796748 0.916950
vt 0.935601 0.543764
vt 0.935601 0.521687
vt 0.732311 0.521687
vt 0.732311 0.543764
vt 0.561693 0.917072
vt 0.561693 0.713782
vt 0.583769 0.713782
vt 0.583769 0.917072
vt 0.698884 0.329588
vt 0.698884 0.351664
vt 0.692242 0.351664
vt 0.692242 0.329588
vt 0.712489 0.329588
vt 0.712489 0.351664
vt 0.705847 0.351664
vt 0.705847 0.329588
vt 0.810352 0.713782
vt 0.810352 0.916950
vt 0.803711 0.916950
vt 0.803711 0.713782
vt 0.747340 0.780972
vt 0.724857 0.780972
vt 0.724857 0.728113
vt 0.747340 0.728113
vt 0.811146 0.305622
vt 0.811146 0.283128
vt 0.817637 0.283128
vt 0.817637 0.305622
vt 0.849473 0.728113
vt 0.849473 0.780972
vt 0.842982 0.780972
vt 0.842982 0.728113
vt 0.811146 0.335079
vt 0.811146 0.312585
vt 0.817637 0.312585
vt 0.817637 0.335079
vt 0.783143 0.780972
vt 0.760635 0.780972
vt 0.760635 0.728113
vt 0.783143 0.728113
vt 0.823422 0.728113
vt 0.817315 0.728113
vt 0.823422 0.713782
vt 0.718395 0.728113
vt 0.724491 0.713782
vt 0.829913 0.728113
vt 0.829913 0.713782
vt 0.836019 0.728113
vt 0.754303 0.780972
vt 0.760405 0.795303
vt 0.823422 0.780972
vt 0.823422 0.795303
vt 0.817315 0.780972
vt 0.718395 0.780972
vt 0.724491 0.795303
vt 0.829912 0.780972
vt 0.836019 0.780972
vt 0.829912 0.795303
vt 0.754303 0.728113
vt 0.760405 0.713782
vt 0.746974 0.713782
vt 0.849473 0.795303
vt 0.842982 0.795303
vt 0.782913 0.795303
vt 0.782913 0.713782
vt 0.842982 0.713782
vt 0.849473 0.713782
vt 0.746974 0.795303
vt 0.003481 0.828419
vt 0.003481 0.713782
vt 0.120114 0.713782
vt 0.120114 0.828419
vt 0.250672 0.713782
vt 0.367304 0.713782
vt 0.127077 0.943055
vt 0.127077 0.828419
vt 0.243709 0.828419
vt 0.243709 0.943055
vt 0.713948 0.195187
vt 0.713948 0.220801
vt 0.692242 0.276165
vt 0.692242 0.139823
vt 0.828584 0.220801
vt 0.943220 0.220801
vt 0.964926 0.276165
vt 0.828584 0.276165
vt 0.943220 0.195187
vt 0.964926 0.139823
vt 0.828584 0.195187
vt 0.828584 0.139823
vt 0.828584 0.059506
vt 0.714373 0.059506
vt 0.692242 0.003481
vt 0.828584 0.003481
vt 0.942795 0.083798
vt 0.942795 0.059506
vt 0.964926 0.003481
vt 0.714373 0.083798
vt 0.828584 0.083798
vt 0.523475 0.828419
vt 0.497862 0.828419
vt 0.497862 0.713782
vt 0.523475 0.713782
vt 0.554730 0.827993
vt 0.530438 0.827993
vt 0.530438 0.713782
vt 0.554730 0.713782
vt 0.554730 0.942204
vt 0.530438 0.942204
vt 0.523475 0.943055
vt 0.497862 0.943055
vt 0.127077 0.713782
vt 0.243709 0.713782
vt 0.374267 0.827993
vt 0.374267 0.713782
vt 0.490899 0.713782
vt 0.490899 0.827993
vt 0.687140 0.713782
vt 0.711432 0.713782
vt 0.711432 0.830357
vt 0.687140 0.830357
vt 0.623309 0.713782
vt 0.648922 0.713782
vt 0.648922 0.830357
vt 0.623309 0.830357
vt 0.374267 0.942204
vt 0.490899 0.942204
vt 0.590732 0.713782
vt 0.616346 0.713782
vt 0.616346 0.830484
vt 0.590732 0.830484
vt 0.655885 0.713782
vt 0.680177 0.713782
vt 0.680177 0.830484
vt 0.655885 0.830484
vt 0.003481 0.943055
vt 0.120114 0.943055
s 0
usemtl Material.001
f 18/1/1 4/2/1 12/3/1 22/4/1
f 24/5/2 19/6/2 14/7/2 16/8/2
f 11/9/3 9/10/3 20/11/3 23/12/3
f 6/17/4 3/18/4 7/19/4 10/20/4
f 27/21/5 71/22/5 3/18/5
f 7/26/7 69/27/7 9/10/7
f 28/31/9 14/7/9 65/32/9
f 19/36/11 20/11/11 63/37/11
f 3/47/15 6/48/15 26/46/15 27/49/15
f 23/50/16 20/51/16 19/6/16 24/5/16
f 9/52/17 11/53/17 10/20/17 7/19/17
f 28/54/18 25/45/18 16/55/18 14/56/18
f 69/27/19 72/57/19 63/37/19 20/11/19 9/10/19
f 71/22/20 68/58/20 69/59/20 7/19/20 3/18/20
f 63/62/22 64/63/22 65/32/22 14/7/22 19/6/22
f 65/64/23 70/65/23 71/66/23 27/49/23 28/54/23
f 17/73/25 5/74/25 26/46/25 25/45/25
f 5/74/25 1/75/25 27/49/25 26/46/25
f 13/76/25 17/73/25 25/45/25 28/54/25
f 1/75/25 13/76/25 28/54/25 27/49/25
f 57/151/26 21/152/26 63/153/26 72/154/26
f 59/155/26 15/156/26 65/157/26 64/158/26
f 21/152/26 59/155/26 64/158/26 63/153/26
f 15/156/26 60/159/26 70/160/26 65/157/26
f 61/161/26 57/151/26 72/154/26 73/162/26
f 60/159/26 61/161/26 73/162/26 70/160/26
f 58/163/26 8/164/26 69/165/26 68/166/26
f 66/167/26 2/168/26 71/169/26 70/160/26
f 8/164/26 62/170/26 72/154/26 69/165/26
f 2/168/26 58/163/26 68/166/26 71/169/26
f 62/170/26 67/171/26 73/162/26 72/154/26
f 67/171/26 66/167/26 70/160/26 73/162/26
usemtl Material.002
f 47/93/3 49/94/3 36/95/3 34/96/3
f 53/97/4 55/98/4 50/99/4 46/100/4
f 54/101/26 42/102/26 37/103/26 48/104/26
f 35/105/2 38/106/2 44/107/2 40/108/2
f 41/109/25 43/110/25 56/111/25 52/112/25
f 33/113/27 34/114/27 35/115/27
f 36/95/28 37/116/28 38/117/28
f 39/118/29 40/119/29 41/120/29
f 42/121/30 43/110/30 44/122/30
f 45/123/31 46/124/31 47/125/31
f 48/126/32 49/94/32 50/127/32
f 51/128/33 52/129/33 53/130/33
f 54/131/34 55/132/34 56/111/34
f 39/118/35 33/113/35 35/115/35 40/119/35
f 34/96/36 36/95/36 38/117/36 35/133/36
f 37/103/37 42/102/37 44/134/37 38/135/37
f 43/110/38 41/109/38 40/136/38 44/122/38
f 51/128/39 39/118/39 41/120/39 52/129/39
f 42/121/23 54/131/23 56/111/23 43/110/23
f 55/132/40 53/137/40 52/112/40 56/111/40
f 45/123/41 51/128/41 53/130/41 46/124/41
f 54/101/42 48/104/42 50/138/42 55/139/42
f 49/94/43 47/93/43 46/140/43 50/127/43
f 33/113/44 45/123/44 47/125/44 34/114/44
f 48/126/19 37/116/19 36/95/19 49/94/19
f 39/118/1 51/128/1 45/123/1 33/113/1
usemtl Material.003
f 8/13/2 58/14/2 75/15/2 82/16/2
f 4/23/6 26/24/6 6/25/6
f 10/28/8 11/29/8 12/30/8
f 16/33/10 25/34/10 18/35/10
f 22/38/12 23/39/12 24/40/12
f 18/41/13 22/42/13 24/5/13 16/8/13
f 4/43/14 18/44/14 25/45/14 26/46/14
f 22/60/21 12/61/21 11/9/21 23/12/21
f 12/67/24 4/68/24 6/17/24 10/20/24
f 17/69/4 13/70/4 32/71/4 29/72/4
f 29/77/25 32/78/25 31/79/25 30/80/25
f 5/81/26 17/82/26 29/83/26 30/84/26
f 13/85/1 1/86/1 31/87/1 32/88/1
f 1/89/2 5/90/2 30/91/2 31/92/2
f 61/141/2 60/142/2 81/143/2 77/144/2
f 58/14/2 2/145/2 84/146/2 75/15/2
f 15/147/4 59/148/4 76/149/4 80/150/4
f 77/172/26 76/173/26 79/174/26 78/175/26
f 75/176/26 74/177/26 85/178/26 82/179/26
f 84/180/26 83/181/26 74/177/26 75/176/26
f 81/182/26 80/183/26 76/173/26 77/172/26
f 59/148/4 21/184/4 79/185/4 76/149/4
f 67/186/4 62/187/4 85/188/4 74/189/4
f 2/190/3 66/191/3 83/192/3 84/193/3
f 60/194/3 15/195/3 80/196/3 81/197/3
f 66/198/4 67/186/4 74/189/4 83/199/4
f 21/200/25 57/201/25 78/202/25 79/203/25
f 62/204/25 8/205/25 82/206/25 85/207/25
f 57/208/2 61/141/2 77/144/2 78/209/2
