# Blender 4.3.2
# www.blender.org
mtllib tire.mtl
o Cube
v -0.000000 0.466570 -0.539818
v 0.539818 0.466570 -0.000000
v -0.539818 0.466570 0.000000
v 0.000000 0.466570 0.539818
v -0.391963 0.466570 -0.391963
v 0.609568 0.000000 -0.609568
v -0.609568 -0.000000 0.609568
v 0.609568 0.000000 0.609568
v -0.609568 -0.000000 -0.609568
v 0.391963 0.466570 0.391963
v -0.391963 0.466570 0.391963
v 0.000000 0.000000 0.839506
v -0.839506 0.000000 -0.000000
v 0.391963 0.466570 -0.391963
v 0.839506 -0.000000 -0.000000
v 0.000000 0.000000 -0.839506
v -0.609568 0.466570 -0.609568
v -0.839506 0.466570 -0.000000
v 0.609568 0.466570 -0.609568
v 0.000000 0.466570 -0.839506
v 0.609568 0.466570 0.609568
v 0.839506 0.466570 -0.000000
v -0.609568 0.466570 0.609568
v 0.000000 0.466570 0.839506
v -0.000000 0.397936 -0.539818
v 0.539818 0.397936 -0.000000
v -0.539818 0.397936 0.000000
v 0.000000 0.397936 0.539818
v -0.391963 0.397936 -0.391963
v 0.391963 0.397936 0.391963
v -0.391963 0.397936 0.391963
v 0.391963 0.397936 -0.391963
vn 0.9356 -0.0000 -0.3529
vn -0.0000 1.0000 -0.0000
vn 0.3529 -0.0000 0.9356
vn -0.9356 -0.0000 -0.3529
vn -0.9356 -0.0000 0.3529
vn 0.9356 -0.0000 0.3529
vn -0.3529 -0.0000 0.9356
vn -0.3529 -0.0000 -0.9356
vn 0.3529 -0.0000 -0.9356
vn -0.0000 -1.0000 -0.0000
vt 0.000000 0.000000
s 0
usemtl Material
f 7/1/1 13/1/1 18/1/1 23/1/1
f 12/1/2 8/1/2 15/1/2 6/1/2 16/1/2 9/1/2 13/1/2 7/1/2
f 10/1/3 4/1/3 28/1/3 30/1/3
f 15/1/4 8/1/4 21/1/4 22/1/4
f 6/1/5 15/1/5 22/1/5 19/1/5
f 13/1/6 9/1/6 17/1/6 18/1/6
f 16/1/7 6/1/7 19/1/7 20/1/7
f 8/1/8 12/1/8 24/1/8 21/1/8
f 12/1/9 7/1/9 23/1/9 24/1/9
f 9/1/3 16/1/3 20/1/3 17/1/3
f 5/1/10 3/1/10 18/1/10 17/1/10
f 14/1/10 1/1/10 20/1/10 19/1/10
f 10/1/10 2/1/10 22/1/10 21/1/10
f 11/1/10 4/1/10 24/1/10 23/1/10
f 3/1/10 11/1/10 23/1/10 18/1/10
f 1/1/10 5/1/10 17/1/10 20/1/10
f 4/1/10 10/1/10 21/1/10 24/1/10
f 2/1/10 14/1/10 19/1/10 22/1/10
f 11/1/5 3/1/5 27/1/5 31/1/5
f 2/1/6 10/1/6 30/1/6 26/1/6
f 3/1/4 5/1/4 29/1/4 27/1/4
f 14/1/1 2/1/1 26/1/1 32/1/1
f 5/1/8 1/1/8 25/1/8 29/1/8
f 4/1/7 11/1/7 31/1/7 28/1/7
f 1/1/9 14/1/9 32/1/9 25/1/9
usemtl Material.001
f 28/1/10 31/1/10 27/1/10 29/1/10 25/1/10 32/1/10 26/1/10 30/1/10
